<svg width="28" height="26" viewBox="0 0 28 26" fill="none" xmlns="http://www.w3.org/2000/svg">
<path fill-rule="evenodd" clip-rule="evenodd" d="M13.8401 5.58893e-06C6.51767 5.58893e-06 0.579956 5.85259 0.579956 13.0727C0.579956 18.8486 4.37938 23.7489 9.64802 25.4776C10.3107 25.5986 10.554 25.1939 10.554 24.8487C10.554 24.5369 10.5417 23.5071 10.536 22.4148C6.84704 23.2056 6.06862 20.8723 6.06862 20.8723C5.46543 19.3613 4.59633 18.9595 4.59633 18.9595C3.39324 18.1481 4.68702 18.1648 4.68702 18.1648C6.01856 18.2568 6.71969 19.5119 6.71969 19.5119C7.90235 21.5105 9.82172 20.9327 10.5784 20.5987C10.6974 19.754 11.0411 19.1768 11.4203 18.8506C8.47502 18.52 5.37892 17.3991 5.37892 12.3899C5.37892 10.9626 5.89691 9.79646 6.74515 8.88095C6.60748 8.55147 6.1536 7.22206 6.87361 5.42136C6.87361 5.42136 7.98711 5.07001 10.5211 6.76138C11.5788 6.47173 12.7132 6.32647 13.8401 6.32149C14.967 6.32647 16.1022 6.47173 17.1619 6.76138C19.6928 5.07001 20.8048 5.42136 20.8048 5.42136C21.5265 7.22206 21.0724 8.55147 20.9348 8.88095C21.785 9.79646 22.2995 10.9626 22.2995 12.3899C22.2995 17.411 19.1974 18.5166 16.2447 18.8402C16.7203 19.2459 17.1441 20.0415 17.1441 21.2611C17.1441 23.0101 17.1287 24.4179 17.1287 24.8487C17.1287 25.1965 17.3674 25.6042 18.0396 25.4758C23.3054 23.7453 27.0999 18.8467 27.0999 13.0727C27.0999 5.85259 21.1631 5.58893e-06 13.8401 5.58893e-06Z" fill="white"/>
</svg>
