<svg width="27" height="23" viewBox="0 0 27 23" fill="none" xmlns="http://www.w3.org/2000/svg">
<path fill-rule="evenodd" clip-rule="evenodd" d="M9.3979 17.0459C8.96566 15.5518 8.08239 13.5721 8.36428 12.7503C8.53342 12.2087 8.72135 12.1153 9.19118 11.8351C12.931 9.55658 17.0842 7.09126 20.6925 4.92477C21.0496 4.71933 21.1623 5.13022 20.9556 5.33566C17.9675 8.24922 14.6036 10.92 11.5779 13.8896C10.3751 15.0662 10.5631 15.4024 10.3751 17.0272C10.2812 17.8303 10.0744 17.9424 9.90531 17.9424C9.71738 17.9424 9.58583 17.737 9.37911 17.0459H9.3979ZM22.647 21.8085C24.0001 15.7199 25.2028 9.50055 26.4807 3.39329C26.8754 1.41356 27.7962 -0.659547 25.5035 0.199579L17.0091 3.46799C16.3701 3.72947 15.9003 3.8602 15.2613 4.103L5.15068 7.96907C4.54931 8.21186 4.17345 8.36128 3.55328 8.5854C2.4257 8.97761 1.22295 9.40717 0.264503 9.91144C-0.167736 10.1916 0.00140076 10.7519 0.264503 10.8639L5.80844 12.9371C6.7105 13.2172 6.86084 13.1238 7.14274 14.151C7.65015 16.0374 8.3267 18.0731 8.94687 19.9408C9.51066 21.6404 9.69859 21.7898 11.1644 20.6879C11.7658 20.221 12.3672 19.6793 12.7806 19.3618C14.1713 18.2412 14.1337 17.7556 15.7123 18.8389C17.4225 20.0155 19.0387 21.2482 20.7865 22.4061C21.8013 23.0785 22.2899 23.508 22.6658 21.8271L22.647 21.8085Z" fill="white"/>
</svg>
