<svg width="28" height="16" viewBox="0 0 28 16" fill="none" xmlns="http://www.w3.org/2000/svg">
<path fill-rule="evenodd" clip-rule="evenodd" d="M24.923 11.2157C24.923 11.2157 27.1868 13.4504 27.7468 14.4845C27.7577 14.4994 27.7662 14.516 27.772 14.5335C28.0002 14.9155 28.0562 15.215 27.9442 15.4361C27.7552 15.8013 27.1154 15.9846 26.8984 16H22.8972C22.6185 16 22.0389 15.9272 21.3333 15.4403C20.7943 15.0638 20.2581 14.4439 19.7387 13.838C18.9631 12.9383 18.2925 12.1574 17.6135 12.1574C17.5278 12.1572 17.4426 12.1714 17.3615 12.1994C16.8477 12.3617 16.1953 13.0936 16.1953 15.0429C16.1953 15.653 15.7137 16 15.3763 16H13.5437C12.9193 16 9.66854 15.7817 6.78593 12.7437C3.25373 9.02431 0.0813262 1.56306 0.0505261 1.49729C-0.146874 1.01452 0.267526 0.751443 0.715527 0.751443H4.75593C5.29773 0.751443 5.47413 1.07889 5.59733 1.37275C5.74013 1.70999 6.26933 3.05895 7.13733 4.57443C8.54294 7.04006 9.40674 8.04338 10.0969 8.04338C10.2266 8.04376 10.3541 8.00997 10.4665 7.94543C11.3681 7.45006 11.2001 4.23159 11.1581 3.56831C11.1581 3.43957 11.1567 2.13119 10.6947 1.49869C10.3643 1.0453 9.80154 0.868987 9.46134 0.804618C9.55234 0.67308 9.74554 0.471576 9.99334 0.352632C10.6107 0.0447785 11.7265 0 12.8339 0H13.4485C14.6497 0.016792 14.9605 0.0937553 15.3973 0.204303C16.2765 0.414203 16.2933 0.983733 16.2163 2.92321C16.1939 3.47735 16.1701 4.10145 16.1701 4.8361C16.1701 4.99283 16.1631 5.16774 16.1631 5.34546C16.1365 6.34039 16.1015 7.46126 16.8043 7.92164C16.8955 7.97839 17.0008 8.00845 17.1081 8.0084C17.3517 8.0084 18.0811 8.0084 20.0593 4.61501C20.9273 3.11632 21.5993 1.34896 21.6455 1.21602C21.6847 1.14186 21.8023 0.933356 21.9452 0.849396C22.0467 0.795375 22.1605 0.76839 22.2756 0.771034H27.0286C27.5466 0.771034 27.898 0.849397 27.9666 1.0453C28.0814 1.36295 27.9442 2.33269 25.7742 5.2657C25.4088 5.75407 25.0882 6.17667 24.8068 6.54609C22.8398 9.12646 22.8398 9.2566 24.923 11.2157Z" fill="white"/>
</svg>
