<svg width="26" height="21" viewBox="0 0 26 21" fill="none" xmlns="http://www.w3.org/2000/svg">
<path d="M23.3378 5.22753C23.3491 5.45506 23.3534 5.6854 23.3534 5.91293C23.3534 12.9214 17.988 21 8.17728 21C5.16326 21 2.3612 20.1222 0 18.6166C1.39662 18.7844 2.81283 18.6771 4.16768 18.3007C5.52254 17.9242 6.78948 17.2861 7.89609 16.4228C6.7832 16.4018 5.7047 16.0358 4.81138 15.3758C3.91806 14.7158 3.25458 13.7948 2.9137 12.7416C3.71357 12.8902 4.53677 12.8591 5.32293 12.6503C4.11565 12.407 3.03013 11.7562 2.25034 10.8084C1.47055 9.86053 1.04444 8.67385 1.04424 7.44944V7.38343C1.78495 7.79298 2.61337 8.02074 3.46054 8.04776C2.32993 7.29858 1.52959 6.14877 1.22287 4.83302C0.916156 3.51727 1.12619 2.13477 1.81011 0.967704C3.14938 2.60599 4.82039 3.94593 6.71461 4.9005C8.60883 5.85507 10.6839 6.40291 12.805 6.50843C12.7132 6.11183 12.6672 5.70612 12.6679 5.29916C12.6679 4.60315 12.8059 3.91395 13.0739 3.27094C13.3419 2.62792 13.7348 2.04369 14.23 1.5516C14.7252 1.05951 15.3131 0.669203 15.9601 0.402978C16.6071 0.136753 17.3005 -0.00017743 18.0008 7.04194e-06C18.7305 -0.00117591 19.4528 0.146692 20.1227 0.434439C20.7926 0.722186 21.3959 1.14367 21.8951 1.67276C23.0893 1.43779 24.2347 1.00275 25.2822 0.386243C24.8838 1.61406 24.0502 2.65622 22.9365 3.31883C23.9938 3.19424 25.0264 2.91303 26 2.48456C25.2848 3.54978 24.3831 4.47882 23.3378 5.22753Z" fill="white"/>
</svg>
