<svg width="25" height="24" viewBox="0 0 25 24" fill="none" xmlns="http://www.w3.org/2000/svg">
<path d="M22.2222 0H2.77778C1.25 0 0 1.16814 0 2.59587V20.7669C0 22.196 1.25 23.3628 2.77778 23.3628H22.2222C23.75 23.3628 25 22.196 25 20.7669V2.59587C25 1.16814 23.75 0 22.2222 0ZM12.4778 18.8499C14.5179 18.8495 16.4743 18.0919 17.9167 16.7437C19.3591 15.3955 20.1694 13.5671 20.1694 11.6606C20.1694 11.2219 20.1097 10.7988 20.0264 10.3835H22.2222V19.7493C22.2222 19.8673 22.1973 19.9841 22.1489 20.093C22.1005 20.2019 22.0295 20.3008 21.9401 20.384C21.8506 20.4672 21.7445 20.5331 21.6277 20.5779C21.511 20.6226 21.3859 20.6454 21.2597 20.6449H3.74028C3.61408 20.6454 3.48901 20.6226 3.37226 20.5779C3.25551 20.5331 3.14937 20.4672 3.05994 20.384C2.97051 20.3008 2.89954 20.2019 2.85112 20.093C2.8027 19.9841 2.77778 19.8673 2.77778 19.7493V10.3835H4.92917C4.84444 10.7988 4.78472 11.2219 4.78472 11.6606C4.78509 13.5672 5.59572 15.3956 7.03837 16.7438C8.48102 18.092 10.4376 18.8495 12.4778 18.8499ZM7.67083 11.6606C7.67083 11.0707 7.79517 10.4866 8.03674 9.94156C8.27831 9.39655 8.63239 8.90134 9.07875 8.4842C9.52512 8.06707 10.055 7.73618 10.6382 7.51043C11.2214 7.28468 11.8465 7.16848 12.4778 7.16848C13.109 7.16848 13.7341 7.28468 14.3173 7.51043C14.9005 7.73618 15.4304 8.06707 15.8768 8.4842C16.3232 8.90134 16.6772 9.39655 16.9188 9.94156C17.1604 10.4866 17.2847 11.0707 17.2847 11.6606C17.2847 12.852 16.7783 13.9946 15.8768 14.8371C14.9753 15.6795 13.7527 16.1528 12.4778 16.1528C11.2029 16.1528 9.98023 15.6795 9.07875 14.8371C8.17728 13.9946 7.67083 12.852 7.67083 11.6606ZM21.2597 6.48967H19.0167C18.762 6.48898 18.518 6.39413 18.3379 6.22584C18.1578 6.05755 18.0563 5.82949 18.0556 5.5915V3.49274C18.0556 2.99693 18.4861 2.59587 19.0153 2.59587H21.2583C21.7917 2.59587 22.2222 2.99693 22.2222 3.49274V5.5902C22.2222 6.08471 21.7917 6.48967 21.2597 6.48967Z" fill="white"/>
</svg>
