<svg version="1" xmlns="http://www.w3.org/2000/svg" width="413.333" height="413.333" viewBox="0 0 310.000000 310.000000"><path d="M126 1.5c-.8 1-2 1.3-3.3.9-2-.6-2-.6-.4 1 2.3 2.3 2.1 2.9-.3 1.6-1.1-.6-2-.7-2-.1 0 .5-.7 1.2-1.6 1.5-1.5.6-1.5.4-.3-1 1.3-1.6 1.2-1.6-1.1-.4-3.6 2-4.9 2-6 .2-.9-1.4-1-1.3-.5.5.6 2.4-.9 4-2.1 2.2-.5-.8-.3-.9.6-.4.9.5 1.1.4.6-.3-1.1-1.8-2.6-1.4-2.6.5-.1 1.6-.2 1.6-1.6-.2-1.6-2-1.6-2-1 .1.4 1.4 0 2.6-1.1 3.5-1.6 1.3-1.7 1.2-.5-.3s1.1-1.7-.6-1.5c-1.2 0-1.8.6-1.5 1.4.4.9 0 1.1-1.1.7-.9-.3-1.3-1.1-.9-1.8s.1-.7-.9.1c-.8.7-1.8 1-2.2.6-.4-.4-.4 0-.1.9.7 1.9-1 3.2-4.5 3.4-3.9.2-4.2.3-3.4 1.5.3.6.9.7 1.3.3.6-.9 3.1-1.7 3.1-1 0 .2-1.2 1.1-2.6 2.1-1.5.9-2.3 1.2-2 .6.5-.7-.3-1.1-2.1-1-1.5 0-2.3.3-1.6.5.7.3.9 1.2.6 2-.4 1.2-.8 1.2-2-.3-.8-1-1.2-1.2-.8-.6.4.8 0 1.3-1 1.3-.9 0-1.3.5-1 1 .4.6 1.2.7 1.8.4.7-.4.9-.4.5 0-.3.4-1 .8-1.5.8-.4 0-1.4.5-2.2 1.1-1.1.9-1.3.9-.8 0 .5-.8.1-1.1-1.2-1-1.6.1-1.8.4-.8 1.6 1 1.2.9 1.3-.9.3-2.1-1.1-3.4-.7-3.4 1 0 .4.5.8 1.1.8.5 0 .7-.5.3-1.2-.4-.7-.3-.8.5-.4 1.7 1.1.3 2.6-2.5 2.6-1.3 0-2.4.4-2.4 1 0 .5-.5 1-1.1 1-.5 0-.7-.5-.3-1.2.4-.6.3-.8-.4-.4-.6.3-.9 1.5-.7 2.6.2 1.1-.1 2.3-.7 2.6-.7.4-.8.2-.4-.4.4-.7.2-1.2-.3-1.2-.6 0-1.1.6-1.1 1.4 0 .7-.8 2-1.8 2.7-1.5 1.3-1.6 1.2-.4-.3.9-1.1 1-1.8.2-2.3-.6-.4-.9-.1-.8.7.2.7-.3 1.2-1 1-1-.2-1 .2-.3 1.7.9 1.5.7 1.8-.7 1.7-1 0-1.6.5-1.4 1.3.3 1.2 0 1.2-1.3.1-1.3-1.1-1.5-1-.9.4.4 1.1.1 1.6-1.1 1.6-1 0-1.3-.5-.9-1.2.5-.7.3-.8-.5-.4-.7.5-1 1-.7 1.3.9 1-1.4 4.3-3 4.3-.8 0-1.2.4-.9 1 .3.5-.2 1-1.2 1-1.5 0-1.6.2-.3 1.1 1.2.9 1.1 1-.7.6-2-.4-2.1-.2-1.2 1.4.5 1 .7 2 .4 2-.3.1-.9.3-1.5.4-.5.1-1.8.3-2.7.4-1.6.1-1.6.3-.3 1.1 1.4.9.7 1.5-1.4 1.1-.5-.1-.6.6-.2 1.5.5 1.2.2 1.5-1 1-1.5-.6-1.5-.4-.3 1.1.9 1.1 1 1.4.2.9-.7-.4-2.1-.2-3 .4-1.6 1.1-1.6 1.1-.1.6 1-.3 2-.1 2.3.4.4.6-.3 1-1.4 1-1.2 0-2.1.5-2.1 1.1 0 .6-.6.9-1.3.6-1-.4-1.3.2-.9 1.8.2 1.2-.2 2.6-.9 3-.8.6-1 .4-.4-.5.5-.8.4-1.1-.3-.6-.6.4-.9 1.3-.6 2 .3.8 0 1.7-.7 2.2-.8.5-1 .3-.4-.6.5-.9.4-1.1-.4-.6-.6.4-.9 1.2-.5 1.7.3.5 0 1.6-.6 2.4-.6.8-.8 2-.4 2.6.5.9.2 1-1.1.5-1.8-.6-1.8-.6.1 1.5 1.1 1.3 1.3 1.9.4 1.4-2.2-1.4-3.9-1.5-4.7-.3-.3.6-.1.8.4.5.6-.4 1.6-.1 2.2.7.9 1.1.6 1.3-1.2 1.1-2.3-.3-2.6.3-2.8 4.7 0 1-.9 2.3-2 2.8-1 .6-1.9 1.6-1.9 2.2 0 .6.7.5 1.7-.3 1.7-1.3 1.7-1.3 0 .7-.9 1.1-1.4 2.4-1 2.9.5.4.3.5-.3.2-1.6-.9-2.8 2.5-1.2 3.5 1.3.7.3 1.2-1.7.8-.5-.1-.1.9 1 2.1 1.1 1.2 1.4 1.9.7 1.5-.7-.4-1.5-.1-1.8.8-.3.8-1.1 1.3-1.8 1-.7-.3-1.3.2-1.3 1s.3 1.3.7 1.1c1-.6.9 2.8-.2 4.1-.5.7-.7 2.4-.4 3.8.3 1.5.1 2.4-.5 2.1-.5-.4-.7-1-.4-1.5.3-.5.1-1.1-.4-1.5-1.3-.8-.5 3.3 1 5.2 1 1.1 1 1.4-.2 1.1-.8-.2-1.7-1-2-1.7-.4-1.1-.7-.9-1.1.7-.4 1.2-.1 2.5.4 2.9.7.3.8.1.4-.5-.5-.8-.2-1 .9-.6 1.4.6 1.4.8-.2 2.1-1 .8-1.3 1.2-.6.9.6-.4 1.5-.1 1.9.6.4.7.4 1-.1.6-.4-.4-1.4-.3-2.2.4-.8.6-1.3.7-1.2.2.3-2-.2-3.4-1.2-3.4-.8 0-.8.5.1 1.5.9 1.1.9 1.5.1 1.5s-.8.4.1 1.4c1 1.1 1.6 1.1 2.8.2 1.3-.9 1.3-.9.3.5-.7.9-1 1.9-.6 2.2.3.4.3.7-.2.7-.4 0-1.3-.7-2-1.6-.9-1.3-1.2 3.1-1.4 21-.2 18.1 0 22.6 1.1 22.6.9 0 1 .2.1.8-.8.5-1.2 10.7-.4 13 .1.1 1.1-.3 2.4-.9 1.2-.6 1.9-.8 1.5-.4-.4.4-.3 1.7.3 2.9.9 1.9.9 2-.4.3-1.4-1.7-1.5-1.7-2.1 0-.4 1-.4 1.4 0 1.1.3-.4 1.2-.1 1.9.5 1 .9 1 1.5.1 2.6-.9 1.2-.8 1.4.7.8.9-.3 1.7-.2 1.7.3 0 .9-1.5 1.4-3.3 1.1-.5-.1-.6.3-.2.9.3.6 1.1.8 1.6.5.5-.4.9.5.9 1.9s.6 2.6 1.3 2.7c.6 0 .3.4-.8.9-1.7.7-1.7.9-.2.9.9.1 1.7.6 1.7 1.2 0 .5.6.7 1.3.3.8-.5.7-.2-.2 1-1.1 1.3-1.6 1.4-2.3.4-.7-1-.9-1-.5.2.2.9 1.3 1.4 2.8 1.2 1.9-.2 2.1-.1.9.7-1.3 1-1.3 1.1 0 1.1s1.3.1 0 1c-1.3.8-1.3 1 .2 1 2.1 0 3.2 1.6 1.7 2.6-.8.5-.9.3-.4-.6.5-.9.4-1.1-.3-.6-1.8 1.1-1.4 2.2 1.1 3.5 1.8.9 1.8 1.1.2.6-1.9-.5-1.9-.4-.2.9.9.7 1.7 1.8 1.7 2.5 0 .6.5 1.1 1.1 1.1.8 0 .7.5-.1 1.5-1.1 1.3-1 1.4.5.9 1.3-.5 1.6-.4 1.1.4-.4.7-.1 1.2.8 1.2s1.6.5 1.6 1.1c0 .5-.4.8-.9.5-.5-.4-.7.4-.3 1.6.4 1.6.2 1.9-.8 1.3-.8-.5-1.1-.4-.7.2.4.6 1.8.9 3.3.7 1.4-.1 2.3 0 2 .3-.3.4-.1 1.2.6 2 .9 1.1.7 1.2-.8.7-1.4-.4-1.6-.3-.5.4.8.6 1 1.5.5 2.3-.6 1.2-.5 1.1.9 0 1.5-1.2 1.7-1.2 1.1.4-.5 1.2-.4 1.6.4 1.1.7-.4 1 .1.7 1.4-.2 1.1.1 2 .6 2 .6 0 .7.4.4 1-.3.6.1.7.9.4 1.2-.4 1.6 0 1.7 1.7.1 1.3 0 2.8-.1 3.4-.1.5.1.7.5.3.4-.4 2 .9 3.7 2.8 1.6 1.9 3.4 3.2 3.8 2.9.4-.3 1.3.2 2 1 1.1 1.3 1 1.4-.6.9-1.5-.5-1.6-.4-.8.5.6.7 2 1.4 3 1.6 1.1.2 2 .4 2.2.4.1.1-.2 1-.8 2.1-1 1.8-.7 2.1 2 2.6 1.7.4 3.3 1.1 3.7 1.7.3.5.1.7-.5.3-.6-.3-1.4-.2-1.7.4-.4.6-.3.9.2.8 2-.5 5.2 1.5 5.5 3.5.2 1.4.9 2.1 1.9 1.9 1.9-.3 3.3 2.4 2.2 4.1-.3.7.4.3 1.6-.7 1.6-1.5 2-1.6 1.6-.4-.7 1.7 1.9 4.8 4 4.8.8 0 1.7.4 2 1 .4.6-.1.7-1.2.4-1.4-.5-1.5-.4-.4.4.8.6 2.1.8 2.9.4 1.1-.4 1.4-.1.9 1.1-.4 1.2-.2 1.4 1.1 1 .9-.4 2-1.1 2.4-1.7.4-.6.7-.2.7.9.1 4.7.4 5.4 2 4.6 2-1.2 6.1.8 6.1 2.8 0 1.4.2 1.4 1.1.1.9-1.2 1-1.1.6.8-.3 1.2-.1 2 .3 1.7.5-.3 1.1-.1 1.4.4.3.5 1.5.7 2.5.4 1.2-.3 2.8.4 4.1 1.7 1.2 1.2 3.3 2.3 4.7 2.4 1.3.2 3.3 1 4.4 1.9 2.1 1.9 3.3 2.2 2.5.8-.9-1.4 2.2-.7 3.7.9.6.7.7 1 .1.7-.6-.3-1.1 0-1.1.7 0 .8.7 1.2 1.5.8 1.1-.4 1.3-.1.7.8-.5.9-.4 1.1.4.6.6-.4.9-1.1.6-1.6-.3-.5 0-1.2.6-1.6.8-.4.9-.3.5.4s-.2 1.2.4 1.2c.6 0 .9.4.6.8-.2.4.4.8 1.5.8 1 0 1.9-.5 1.9-1.1 0-.5.5-.3 1 .5.9 1.3 1.1 1.3 2 0 .9-1.3 1-1.3 1 0 0 1.2.2 1.3.9.1.5-.8 1-.9 1.2-.3.5 1.5 5.9 2.4 5.9 1 0-2.1 1.3.1 1.4 2.4.1 2.5 2.2 3.1 4.5 1.4 1.1-.8 1.3-.8.7.1-.4.8-.1 1.3.9 1.3.9 0 1.3-.5.9-1.1-.5-.8-.1-.8 1.4 0 2.8 1.5 40.4 1.3 39.5-.3-.5-.8-.3-.8.8 0 1.8 1.5 6.5 1.2 8.1-.4.9-.9.9-1.2 0-1.2-.7 0-1.2.6-1.2 1.2 0 .9-.4.8-1-.2s-1-1.1-1-.3c0 .9-.6.7-1.8-.5-2.1-2-2-3.1.2-1.3 1.1.9 1.5.9 1.9-.1.4-1 .6-1 .6 0 .1.9.8.9 3.2-.4 1.7-.8 2.8-1.1 2.5-.6-.4.6-.2 1.3.4 1.7.6.3 1-.3 1-1.5 0-1.9.1-2 1.6-.6 1.9 2 2.8 2.1 2.1.3-.3-.8.1-1.4.9-1.4s1.4.7 1.5 1.6c0 1.1.2 1.2.6.3.2-.6 1-.9 1.6-.5.6.4.8 0 .4-1-.4-1.1-.2-1.4.8-1 .8.3 1.2 1 .8 1.6-.3.6-.1.7.5.3.7-.4 1.2-1.4 1.2-2.2 0-.8.4-1.3 1-.9.5.3.7 1.3.4 2.3-.5 1.4-.4 1.4.4.2.6-.8.8-1.8.6-2.2-.3-.4 0-.8.6-.8s.8-.5.4-1.2-.3-.8.4-.4c.6.4.8 1.4.5 2.3-.5 1.1-.3 1.4.6.9.7-.5 1-1.8.7-3-.5-2-.5-2 .9-.2 1.2 1.6 1.5 1.7 1.5.4 0-.9.7-1.9 1.6-2.2 2.6-1 2.9-.7.8.9-1 .8-1.4 1.5-.7 1.5.6 0 1.9-.7 2.7-1.6 1.2-1.2 1.6-1.2 1.6-.2 0 1.1.2 1.1.9 0 .4-.8 1.5-1.2 2.2-1 .8.2 1.5-.2 1.5-.7 0-.6-.7-.9-1.6-.7-1.1.2-1 0 .3-.8.9-.6 2.2-.8 2.9-.4.8.5.9.2.4-1.1-.5-1.5-.4-1.6.9-.5s1.8 1 3.1-.6c1.4-1.8 1.5-1.8.8.6-.5 2.2-.3 2.1 2-.9 1.4-1.9 2.6-3 2.6-2.5 0 .6-.5 1.5-1.2 2.2-.9.9-.9 1.2-.1 1.2.7 0 1.5-.5 1.8-1 .9-1.4 4.8-1.2 6.5.2.8.7.6.3-.3-.9-1.4-1.6-1.5-2.3-.6-2.9.8-.5 1-.3.4.6-.6.9-.1 1 1.6.5 1.6-.4 2-.3 1.1.3-1.1.7-1.1 1 .3 1.5 1 .5 1.4.3.9-.4-.4-.7-.1-1 .7-.7.8.3 2.3-.2 3.3-1.1 1.8-1.5 1.8-1.5.7.6-1.2 2.4-1.2 2.5 1.7 2.7.9.1 2.2.4 2.8.8.6.4 1.1.1 1.1-.6 0-.8-1.1-1.2-2.8-1.1-1.6.1-2.6-.1-2.3-.6.3-.5.9-.7 1.4-.4.4.3 1.1-.1 1.3-.7.4-1 .6-1 .6 0 .1.7.6 1 1.1.7.6-.3 1.3.1 1.6 1 .4 1 1.3 1.3 2.4 1 1-.3 2.1-.1 2.5.4.4.7-.1.8-1.2.5-1.4-.5-1.5-.4-.4.4.8.6 2 .8 2.7.5 1.4-.5 5 2.4 4.1 3.3-.2.3-1.2-.2-2.1-1.1-.9-.9-1.6-1.2-1.6-.6 0 1.8 3.6 3.1 5 1.8 1-.9 1.1-.9.6 0-.4.7-.2 1.3.4 1.3.6 0 1.8.7 2.7 1.5.8.8 1.9 1.2 2.5.9.7-.4.8-.2.4.4-.4.6-1.4.9-2.4.6-1.4-.5-1.4-.4-.2.4.8.6 1.8.8 2.3.5.4-.3 1.8.3 2.9 1.4 2.1 1.8 2.1 1.8 1.5-.2l-.7-2 1.6 2c.8 1.1 2 1.9 2.5 1.7.5-.1.8.1.8.5-.5 3.1.3 3.4 7.6 3.2 7-.2 7.6-.4 8.1-2.6.6-2.2.7-2.2 2-.6 1.2 1.7 1.3 1.6.7-.4-.4-1.9-.2-2.2 1.7-1.8 1.9.4 2 .2.8-1.2-1.1-1.4-1.1-1.6.1-.8 1.1.6 1.3.3.8-1.4-.4-1.7-.2-2 .7-1.2.8.7 1.7.6 2.6-.1 1.3-.8 1.2-.9-.2-.5-.9.3-1.9 0-2.2-.8-.3-.9 0-1.2.8-.9.9.4 1.3-.2 1.1-1.9-.2-1.3.1-3 .6-3.8.5-.9.8-.4.6 1.6-.1 1.6.3 3.1.8 3.3 1.4.3 1.9-169.5.4-170.3-.6-.5-.6-1.2.3-2.3 1.2-1.6 1.1-1.6-.6-.2-1.8 1.4-1.8 1.3-1.2-.8.4-1.2.3-2.2-.2-2.2-1.2 0-1.2 3.2.1 4.7.6.9.6 1.3-.2 1.3-.6 0-1.1.5-1.1 1.1 0 .5.4.8.9.4 1.8-1 2.1 1.3.4 2.6-1 .8-1.4.9-1 .2.4-.6.3-1.4-.2-1.7-.5-.4-.8-2.2-.7-4.1.2-2-.1-3.5-.7-3.5-.7 0-.7-.4.1-1.2 1.5-1.5 1.6-3.2.2-2.3-.5.3-1-.1-1-1 0-1-.5-1.4-1.2-.9-1 .5-1 .3 0-.7 1.1-1.2 1.4-1.2 2.2.1.7 1.2.9 1 .7-.7 0-1.2-.4-2.1-.7-2.1-1.7.1-2-.4-1.1-2.1.8-1.4.7-2.2-.4-3.1-.8-.7-1.5-1.7-1.5-2.2 0-.6.8-.4 1.7.3 1.3 1.1 1.3.8-.2-1.2-1.1-1.5-2.7-2.5-3.6-2.4-.9.2-1.6-.3-1.6-1s.6-1.1 1.4-.8c.9.4 1.1 0 .7-1.1-.3-.9-.9-1.4-1.3-1.2-.4.3-.8-.5-.8-1.7-.1-1.2.3-2.4.8-2.8.7-.4.4-.9-.6-1.2-.9-.4-1.3-.3-1 .2.3.5.1 1.2-.4 1.5-1.1.7-.9-1.3.3-3.3.7-1.1.5-1.3-.6-.8-.9.3-2.4-.3-3.4-1.4-.9-1-1.2-1.9-.7-1.9.6 0 1.3-.7 1.6-1.4.4-1 .1-1.3-.8-1-1.1.5-1.3-.1-1-2.4.3-2.5 0-3-1.2-2.5s-1.4.2-.9-.8c.4-.8 0-.5-.9.6-1.1 1.4-1.6 1.5-1.4.5.2-.8-.2-2.6-.9-4-1.2-2.3-1.2-2.4.2-.6.9 1.1 1.8 1.7 2.1 1.5.3-.3-.4-1.5-1.5-2.6-1-1.2-1.6-2.3-1.3-2.7.3-.3-.6-1.1-2-1.7-3-1.4-4.6-4.1-1.9-3.3 1.4.5 1.5.4.2-.5-.8-.6-1.1-1.1-.6-1.1.5 0 .3-.6-.3-1.3-.6-.8-.7-1.8-.3-2.2.4-.5.2-.5-.5-.2-.6.4-1.7.1-2.5-.6-.7-.7-2.1-1.6-3.2-2-1.5-.6-1.6-1-.5-2.3 1-1.2 1-1.5-.2-1.2-.8.2-1.8.7-2.2 1.3-.5.5-.5 0-.2-1.2.5-1.7.3-2.2-.8-1.7-1.5.5-1.7-2.1-.2-4.6.6-1 .2-.9-1.2.3-1.7 1.5-2.2 1.6-3.2.3-.8-1-.9-1.6-.1-2.1.7-.4.1-1.4-1.4-2.6-3.2-2.6-4.4-2.4-1.5.2l2.4 2-2.6-1.5c-1.4-.9-2.8-1.4-3.1-1.1-.2.3-.5-.2-.5-1s.4-1.2.9-.9c.4.3.8 0 .8-.5 0-.6-.9-1.1-2.1-1.1-1.2 0-1.7-.4-1.3-1.1.4-.8-.1-.9-1.7-.4-2.3.7-2.4.7-.4-.9 1.9-1.4 1.9-1.5-1-1-2.5.3-2.7.2-1.2-.7 2-1.2 1.4-3.1-.8-2.2-.9.3-2.1 0-2.9-.6-.7-.6-1.6-.9-2-.6-.3.3-.2 0 .3-.6 1-1.2-2.7-6.2-3.9-5.4-.5.3-1.1-.2-1.4-1.1-.5-1.2-.9-1.4-2-.5-1.1.9-1.5.5-2-2.1s-.9-3-1.6-1.8c-.8 1.2-1.3 1.3-3 .2-1.1-.6-2.6-1.2-3.4-1.2-.8 0-1.8-.5-2.2-1.2-.4-.7-.3-.8.4-.4.8.4 1 .2.6-.8-.3-.8-1.2-1.2-2-.9-.8.3-1.1 1-.7 1.7.4.6-.1.5-1-.3-.9-.7-1.5-1.6-1.3-2 .3-.4.1-1.3-.5-2.1-.7-1.2-.9-.9-.9 1s-.3 2.1-.9 1.1c-.5-.8-.8-1.9-.7-2.5.2-.6.1-.8-.1-.4-.8 1.3-2.3.9-2.3-.6 0-.8-.8-1.3-1.7-1.2-1 .2-2.1-.2-2.5-.8-.5-.8-1.6-.7-4 .1-2.8 1.1-3 1-1.5-.1 2.3-1.8 2.2-2.9-.2-2.1-1.1.3-2.3 0-2.7-.6-.4-.8-.3-.9.4-.5s1.2.2 1.2-.3c0-1.4-1.7-1.4-2.5-.1-.3.5-1.2 1-1.8 1-.7 0-.6-.4.3-1 1.1-.7 1.1-1 .2-1-.7 0-1.1-.4-.8-.8.6-1.1-3.4-.9-5.1.1-.7.4-1.4-.1-1.8-1.4-.6-1.8-.9-2-1.6-.7-.4.8-1.8 1.4-3.1 1.3-1.3-.1-2.6.3-3.1.9-.4.7-.9.4-1.3-.9-.3-1.2-1.4-2.2-2.5-2.2-1.2-.1-1.7.3-1.3.9.4.7.2.8-.4.4-.6-.4-.9-1.3-.5-2.2.4-1.1.9-1.2 1.9-.3.8.6 1.4.8 1.4.3s.6-.2 1.3.6c1.3 1.7 3.1 2 4.4.7.4-.5.3-.8-.2-.7-2.1.5-3.6 0-3-1 .4-.6.3-1-.2-.9-.4.1-1 0-1.3-.1-.3-.1-2.2-.3-4.2-.4-3.7-.2-4.9.6-2.8 1.9.6.3 1 1.2 1 1.8 0 .7-.8 0-1.7-1.5L175.6.2 158.7 0c-13.5 0-16.7.2-16.1 1.2.6 1 .5 1-.7.2C140.3.1 129-.1 129 1.2c0 .4-.5.8-1.1.8-.5 0-.7-.5-.4-1 1-1.5-.1-1.2-1.5.5zm7 1.1c0 .2-.7.4-1.5.4s-1.5-.4-1.5-1c0-.5.7-.7 1.5-.4.8.4 1.5.8 1.5 1zm-4 1.1c0 .3-.7.2-1.6-.1-1.2-.4-1.5-.2-1.1.9.4.8.2 1.7-.2 1.9-.6.4-.8-3.1-.2-4.1.2-.4 3.1.9 3.1 1.4zm115 26.5c1 2.1 1 2.1-.3.6-.8-1-1.8-1.4-2.2-1-.5.4-.5.1-.1-.6 1-1.7 1.4-1.5 2.6 1zM152.3 43c.4 0 .5-.5.2-1-.9-1.4.1-1.2 1.3.3.8 1 .6 1.3-.8 1.4-1 .1-2.4-.6-3.1-1.5-1.1-1.4-1.1-1.5.1-.5.8.7 1.8 1.3 2.3 1.3zm-3.8.2c.5-.4.5.1.2 1.1-.5 1.3-.3 1.6.6 1 .6-.4 2.1-.7 3.3-.8 1.1 0 2.9-.6 3.8-1.4 1.4-1.2 1.7-1.2 1.4-.1-.2.9.6 1.5 1.9 1.6 1.2.1 2-.3 1.7-.7-.3-.5-.1-.9.5-.9.5 0 1.2.6 1.5 1.2.5 1 .7 1 1.2-.1.5-1 .8-1 1.4-.2.4.7 2.7 1.2 5.1 1.3 2.4 0 5 .5 5.8 1.2 1.2.9 1.2.7.2-1.4l-1.2-2.5 2 2.3c2.3 2.7 3 2.8 4.3 1 .7-.9.8-.6.5 1-.4 1.7-.2 2.1.6 1.4 2.1-1.6 4.9-.9 5.8 1.5.5 1.2 1.1 2.3 1.4 2.3.4 0 .3-.5 0-1-.9-1.4.9-1.2 2.4.2 1 1.1 1.1 1 .6-.4-.6-1.5-.4-1.6 1.8-.5 1.4.6 2.5 1.6 2.4 2.2-.1.5.9.9 2.2.7 1.3-.2 2.1.1 1.7.6-.3.6.1 1.3 1 1.6.8.3 1.2 1 .9 1.6-.4.6.1.7 1 .3 1.3-.4 1.4-.7.3-1.4-.9-.6-.6-.8.9-.6 1.2 0 1.9.5 1.7.9-.3.4.1.8.8.8.9 0 .9.3-.2 1-.8.5-1 1-.4 1 .5 0 1.4-.4 2-1 .6-.6 1.5-.5 2.4.1 1.2.9 1.1 1-.5.5-2-.6-2-.6-.1.9 1.6 1.2 2.2 1.2 2.9.2.6-.8.7-.7.4.5-.8 2.3 2.5 5.2 4.2 3.5 1-.9 1.1-.8.5.7-.5 1.3-.4 1.7.4 1.2.7-.4 1.2-.1 1.2.9 0 1.2.4 1.3 1.8.6 1.4-.7 1.9-.6 1.9.4 0 .8-.4 1.2-.9.9-.4-.3-.8 0-.8.6 0 .7.8.9 2 .5 1.3-.4 2.2-.1 2.6.9.3.9 1 1.3 1.5 1 .5-.3.6.2.3 1-.3.9-1.1 1.6-1.7 1.6-.6 0-.7.3-.4.6.4.4 1.3.1 2.2-.6 1.1-.9 1.5-.9 1.5-.1 0 .7.5.9 1.3.5.7-.5.7-.2-.2 1-1.2 1.5-1.2 1.7 0 1.4.8-.2 1.3.4 1.3 1.5-.2 1.4.1 1.5 1.3.6 2.1-1.8 6.7 3.9 5 6-1 1.1-.8 1.3 1.3.6 2.3-.7 2.4-.7 1 1-.9 1.1-1 1.6-.2 1.1.7-.4 1.2-.1 1.2.8 0 1.5 1.2 2.1 3.3 1.7.5-.1.6.3.2.9-.3.6-1 .8-1.4.6-.3-.3-.7.4-.7 1.4 0 1.3.4 1.6 1.2.9 1.4-1.1 2.8 1.6 1.7 3.4-.4.7 0 .6 1-.1 1.4-1.2 1.6-1.1 1.2.8-.3 1.5 0 2 .9 1.7.7-.3 1.3.1 1.3.9 0 .7-.3 1.1-.7.9-.4-.2-.5.7-.2 2 .2 1.4.9 2.8 1.4 3.1.6.4.8-.2.3-1.5-.4-1.3-.2-2.1.5-2.1.6 0 .8.4.5 1-.3.5-.2 1 .3 1 .6 0 .8.9.5 2-.4 1.5 0 2 1.3 2 1.6 0 1.7.2.4 1-.8.5-1 1-.3 1 .6 0 1 1.3.9 3-.2 2.3.1 2.9 1.2 2.5 1.1-.4 1.2-.2.4.8-1.1 1.3-1.3 5.6-.2 5.5 1.7-.1 3 .3 3 1.2 0 .5-.8.7-1.7.4-1.5-.5-1.6-.4-.3.5 1.1.8 1.8.7 2.8-.6.6-.9 1.2-1.3 1.2-.8s-.7 1.7-1.6 2.7c-1.6 1.6-1.5 1.8.1 2.5 1.8.6 1.8.7-.1 1.4-1.5.6-1.6.8-.3.8.9.1 2 .8 2.3 1.7.3.8.2 1.3-.3 1-.5-.3-1.2.1-1.5 1-.3.8-.2 1.3.2 1 .4-.3 1.4.5 2.2 1.7 1.2 1.9 1.1 2.1-.2 1s-1.5-.8-1.4 2.7c0 2.2.4 4 .9 4 .4 0 .5-1.1.3-2.5-.3-1.5-.1-2.3.5-2 .5.4.7 1.1.4 1.6-.4.5 0 .9.7.9s0 1.2-1.6 2.6l-2.8 2.5 2.8-.6 2.9-.6-2.5 1.6c-2.4 1.6-2.4 1.6-.2 1.2 1.2-.3 2-.1 1.7.3-.3.5 0 1.2.6 1.6.8.4.7.9-.2 1.5-1.1.7-1.1.9.1.9.9 0 .3.8-1.3 1.9-2.3 1.5-2.5 1.9-1.2 2.5 1 .4 1.4.2.9-.6-.4-.7-.3-.8.5-.4.6.4.9 1.2.5 1.7-.3.5-1 .7-1.5.4-.5-.4-.9.1-.9 1s.4 1.4.9 1.1c.4-.3 1.3.7 2 2.2 1.1 2.5 1 2.6-.4.8-1.2-1.6-1.8-1.7-2.7-.8-.7.7-.8 1.2-.2 1.2.5 0 .2.5-.6 1.1-1.2.8-1 .9.7.4 1.6-.4 2.1-.2 1.9 1.2-.2.9-.8 1.9-1.4 2.1-.9.3-.9.9-.1 2.4.7 1.3.7 1.8.1 1.4-.6-.3-1.3-.2-1.7.4-.3.5-.1 1 .5 1s.8.5.3 1.2c-1 1.7-1.3 3.8-.5 3.5.4-.1.7.2.7.8 0 .5-.5.9-1.1.7-.7-.1-1.6.3-2 1-.4.7-.4 1 .1.6 1.2-1.1 3.5 1.1 2.8 2.8-.3.8-1.4 1.4-2.4 1.4s-1.9.3-2 .7c0 .5-.2 1.7-.4 2.8-.2 1.1-.5 3.7-.7 5.7-.2 3.2-.4 3.5-1.7 2.5-1.2-1-1.3-.9-.7.2.5.8.3 1.7-.5 2.3-1 .7-.7.8 1.1.4 1.4-.3 1.9-.3 1.3 0-.7.3-1.3 1.3-1.3 2.2 0 1.5-.2 1.5-1 .2-.9-1.4-1.5-.7-1.1 1.4.1.5-.4.6-1.2.3-1.5-.6-1.7 1.9-.2 4.2.6 1.1.4 1.3-.8.8-2-.8-4.3 1.8-2.6 2.9.8.5.9.3.4-.6-.6-.9-.4-1.1.5-.5.9.6 1.1.4.5-.5-.5-.9-.4-1.1.4-.6 1.7 1.1-.5 3.6-3.1 3.6-1 0-1.6.5-1.3 1 .4.6 1.1.7 1.7.4.6-.4.8-.2.5.4-.4.5-1.7.7-3 .4-2.1-.5-2.1-.5-.4 1.2 2.1 2.2 1.2 4.2-1.1 2.4-1-.7-1.4-.8-1-.4.4.5.2 1.6-.5 2.4-1 1.3-.9 1.4.3.7 1.3-.7 1.3-.6.1.6-1.1 1.1-1.4 1.2-1.8.1-.3-.9-1-.4-1.9 1.3-1.6 3.1-1.9 4.9-.3 2.2.5-.9 1.4-1.7 1.9-1.7.6 0 .2.9-.7 2-1 1.1-2.3 2-3.1 2-.7 0-1 .5-.6 1.2.5.8.2.9-1.1.4-1.5-.5-1.6-.4-.6.8 1 1.1.7 1.7-1.1 3-2.6 1.9-4.2 2.1-3.2.4.4-.7.3-.8-.5-.4-.9.6-.9 1.1 0 2.2.9 1.2.9 1.3-.3.9-.8-.3-2.5.3-3.8 1.5-1.3 1.1-1.9 2-1.5 2 .5 0 1.6-.7 2.5-1.5 1.4-1.3 1.7-1.3 1.7 0 0 .8-.4 1.2-.8.9-.4-.2-1 0-1.4.6-.3.5-1.5 1-2.6 1-1.4 0-1.8.4-1.3 1.3.5.7 0 .6-1.1-.3-1.7-1.4-1.8-1.3-1.3.8.4 1.2.2 2-.3 1.6-.5-.3-1.2.1-1.5.9-.3.9-1.6 1.4-2.9 1.2-1.5-.1-2.2.2-1.8.8.4.7-.1.8-1.3.3-1.5-.6-1.6-.5-.7.5 2 2-.3 4.2-2.9 2.8-1.5-.8-1.9-.8-1.3 0 .4.8-.1 1-1.7.7-2.2-.4-7.8 3.2-7.8 5 0 .4 1-.1 2.3-1.2l2.2-1.9-1.9 2.3c-1.1 1.2-2.1 2-2.4 1.7-.3-.3-1.2.1-2.1.8-1.4 1-1.4 1-.3-.5 1.1-1.4 1.1-1.6-.7-1.1-1.2.3-1.8 1-1.4 1.7.3.6-.4.2-1.7-.9-1.3-1.1-2.1-1.5-1.7-1 .9 1.6-.9 3.8-3.4 4.2-1.9.3-2 .1-.9-1.2s1.5-1.3 2.1-.3c.5.7.9.8.9.2 0-2.1-1.4-2.4-3.2-.8-1.3 1.3-1.5 2.1-.7 3 .7.9.6 1.2-.5 1-.9-.1-1.9-.6-2.3-1.1-.4-.4-.2-.5.4-.1.9.5 1.1.2.6-1-.5-1.5-.7-1.5-1.5 0-.5.9-.7 2-.4 2.5.6.9-3.7.7-5.3-.4-.6-.3-1.1-.1-1.1.6s-.7.4-1.5-.7c-1.5-1.9-1.5-1.9-.8.1.6 1.8.5 1.9-1.2.5s-1.8-1.3-1.1.5c.6 1.6.5 1.8-.5.7-1.4-1.3-3.3-1.7-2.6-.5.3.5-.8.8-2.4.9-1.5.1-2.6-.2-2.4-.6.3-.4-.4-1-1.6-1.3-1.6-.4-1.8-.3-.9.8.8 1 .5 1.2-1.5 1.2-1.3 0-2.3-.2-2.1-.6.2-.3-.7-.7-2-.7-1.3-.1-2.4.2-2.4.8 0 .5.4.7.9.3.5-.3 1.2-.1 1.5.4.5.7-1.1.8-3.1.2-.2-.1-.6-.1-.9 0-.4 0-1-.3-1.3-.8-.3-.4-1.7-1.4-3.1-2.2-1.4-.7-2.2-1-1.8-.6.9 1-3 4-3.9 3.1-.4-.3-.1-.6.5-.6.7 0 1.2-.4 1.2-.9 0-.8-5.4.1-6.3 1-.1.1-1.1-.3-2.3-.9-1.4-.8-2.4-.8-3.1-.1-.8.8-1.3.7-1.8-.2-.5-.8-.4-1 .3-.5.7.4 1.2.2 1.2-.5 0-.6-.8-.9-2-.6-1.1.3-2.3.1-2.6-.4-.3-.6-1.2-.5-2.2.3-1.4 1.2-1.4 1-.2-1.1 1.2-2.3 1.4-2.3 2.5-.7.7.9 1.6 1.3 1.9.8.6-1-1.7-2.3-4.7-2.7-1-.1-2.1.3-2.4.8-.4.6-.1.7.7.2.9-.5 1.1-.4.6.4-1 1.5-2.9.3-2.2-1.5.3-.8.1-1.4-.4-1.4-.6 0-1 .7-1 1.6 0 .8-.5 1.2-1 .9-.6-.4-.8-1-.5-1.5.3-.5 0-1.2-.6-1.6-.8-.4-.9-.3-.5.4.5.8-.2 1.2-1.8 1.2-1.8 0-2.6-.5-2.6-1.8 0-1.4.2-1.5 1-.2.6.9 1 1 1 .3 0-1.9-2-2.6-2.6-.9-.3.9-1 1.6-1.5 1.6-.6 0-.5-.9.1-2 .9-1.6.8-1.9-.7-1.3-1.2.5-1.5.2-1-1 .4-1.1.2-1.4-.9-1-.8.3-2.2-.1-3.1-.8-1.2-1-1.5-1-.9-.2.5.9.1 1.3-1 1.3-1 0-1.4-.3-1.1-.7 1.1-1.1-5.4-6.2-7.1-5.6-1.2.5-1.4.1-.9-1.6l.6-2.3-2.6 2.3-2.6 2.4 1.9-3c1.5-2.4 1.6-2.8.2-1.7-1.2 1-1.8 1-2.4.1-.5-.8-.3-.9.6-.4.9.5 1.1.4.6-.3-.4-.7-1.6-1.2-2.7-1.2-1 0-1.9-.5-1.9-1.1 0-.5.4-.8.8-.5.5.3.9-.1.9-.9 0-1.2-.4-1.2-1.9.2-1.8 1.6-1.8 1.6-1.2 0 .5-1.3.1-1.7-1.6-1.7-1.1 0-1.9-.4-1.6-.9.4-.5 0-1.2-.6-1.4-1-.4-.9-.8.2-1.7 1.2-.9 1.1-1-.7-.5-2.1.6-2.8-.2-2.4-2.8 0-.4-.8-.7-1.9-.7-1.1 0-2-.4-2-1 0-.5.8-.7 1.8-.3.9.3 1.4.3 1-.1-.3-.4-1.2-.9-2-1-.7-.1-2.3-.8-3.5-1.6-2-1.3-2-1.5-.5-2.7 1.4-1.1 1.4-1.3.2-1.1-.9.2-1.4-.4-1.4-1.5.2-1.3-.1-1.5-1.1-.7s-1.5.8-2.1-.1c-.4-.8-.3-.9.4-.5s1.2.2 1.2-.3c0-.6-.4-1.1-1-1.1-.5 0-1-.7-1-1.6 0-.9.5-1.2 1.2-.8.7.4.8.3.4-.5-.6-.9-1.1-.9-2.1-.1-.9.7-1.6.6-2.6-.7-.8-.9-.9-1.4-.2-1 .6.4 1.4.3 1.8-.3.3-.6-.4-1-1.6-1-2.2 0-2.2 0-.3-1.5 1.9-1.4 1.9-1.5-.4-2.1-1.2-.3-2.2-1.1-2.2-1.6s.4-.7.9-.3c.5.3 1.3 0 1.7-.7.4-.7.4-1-.1-.6-.5.5-1.4-.1-2.2-1.2-.8-1.1-2.1-2-3-2-.9 0-1.3-.6-1-1.4.3-.7 0-1.9-.6-2.6-.9-.9-.9-1.1-.1-.7 1.9 1.1 2.4-2 .6-3.5-1.5-1.2-1.6-1.1-.3.4 1.2 1.6 1.1 1.8-.2 1.8-1.6 0-1.7-1.6-.3-3.9.7-1 .3-1.2-1.5-.7-2.4.7-2.4.7.1-.8l2.5-1.6-2.5.3c-1.9.1-2.4-.2-2.2-1.7.2-1.2-.1-1.6-.9-1-.8.4-1 .3-.5-.5.4-.6 1.1-.9 1.6-.6.4.3.7-.2.6-1.1-.1-.8-.9-2-1.7-2.5-1.2-.7-1.2-.9 0-.9 1.1 0 .9-.4-.5-1.4-1.8-1.4-1.8-1.5-.1-2.2 1.5-.5 1.6-.9.5-1.5-1.1-.7-1-1.1.2-2 1.3-.9 1.2-1-.2-.5-2 .6-3.4-.9-1.7-2 .8-.5.9-.3.4.6-.5.8-.4 1.1.3.7.5-.4.8-1.6.5-2.8-.3-1.2-.9-1.6-1.2-1-.4.6-.7-.5-.8-2.4-.1-1.9.3-3.5.8-3.5.4 0 .6.6.3 1.4-.3.8-.1 1.7.5 2.1.7.3.8 0 .5-.9-.4-1-.1-1.6.7-1.6.9-.1.8-.4-.4-1.1-.9-.5-1.7-1.6-1.7-2.4 0-.8-.6-1.2-1.4-.9-.8.3-1.7.1-2.1-.5-.3-.7 0-.8.9-.5 1.7.7 4.2-3.1 2.6-4.1-1-.6-1.5.9-1 3 .1.5-.2.7-.6.2-.9-.9-1.3-4.6-.5-4.5 1.8.2 2.2-.4 1.2-1.6-.8-1-.9-1.6-.1-2.1.5-.3 1-1.1 1-1.6 0-.6-.6-.7-1.2-.3-.8.5-.8.1.2-1.2 2.2-2.9 2.4-3 1.7-1.2-.9 2.4 0 2.3 1.3-.2.6-1.1.7-2 .3-1.9-2.2.4-2.5-.2-.8-1.4 1.4-1.1 1.5-1.6.5-2.2-.8-.5-1.1-.4-.7.2.3.5 0 1-.7 1-1.1 0-1.2-.4-.3-1.8.6-1 1.6-1.5 2.2-1.1.5.3.4-.2-.4-1.1-1.1-1.4-1.1-2 0-3.4 1-1.1 1-1.4.2-.9-.7.4-1.3.3-1.3-.2 0-.6.7-1.3 1.6-1.6 1.6-.6 1.6-.8 0-2.5-1.8-1.9-1.2-3.3 1-2.4 2 .7 1.7-.7-.4-2.3-1.6-1.3-1.6-1.4.2-.8 1.6.6 1.7.5.7-1.7-1.1-2.2-1.1-2.3.3-.5.8 1 2 1.5 2.7 1 .9-.5.8-1-.5-1.9-1.5-1.1-1.4-1.3.5-1.8 1.8-.5 2-.9 1-2.1-.8-.9-.8-1.6-.2-2 .6-.4.7-1.4.4-2.3-.5-1.1-.3-1.4.6-.8 1 .6 1.1.3.3-1.2-.9-1.5-.7-1.9.8-2 1.3-.1 1.7.3 1.3 1.5-.4 1.3-.3 1.4.5.4.5-.8.9-2.3.8-3.5-.1-1.2.6-3 1.6-4.1.9-1 1.4-2.4 1.1-3.2-.3-.8 0-1.4.6-1.4s1.1-.5 1.1-1.1c0-.5-.5-.7-1.2-.3-.6.4-.8.3-.4-.4.3-.6 1.6-.9 2.7-.7 1.7.4 1.9.2.9-1-.8-1-.9-1.5-.2-1.5.6 0 .9-.9.7-2-.2-1.2 0-1.8.6-1.5.5.4.7 1 .4 1.5-.3.5-.1 1.1.4 1.4.5.4.8-.5.6-1.9-.2-2.2 0-2.3 1.3-1.3 1.3 1.1 1.4 1.1.7-.1-.6-1.1-.4-1.3.8-.8 1.6.6 1.6.4 0-2.1-.9-1.5-1.3-2.4-.8-2 1.1 1 3.7-1.1 2.9-2.4-.4-.6.4-.4 1.7.3 2.3 1.2 2.3 1.1.9-.6-1.4-1.7-1.3-1.8.8-1.3 2 .5 2.1.4 1.1-.8-1-1.2-.8-1.6.9-2.1 1.2-.3 1.9-.9 1.6-1.4-.3-.5 0-.9.5-.9.6 0 1.1.5 1.1 1.2 0 .6.3.8.6.5.4-.4.1-1.4-.7-2.3-1.3-1.6-1.2-1.6 1.1-.4 1.4.7 2.2.9 1.8.5-.4-.5-.2-1.5.5-2.4 1.1-1.4 1-1.5-.7-.1-1.8 1.4-1.9 1.4-.5-.7.9-1.5 1.6-1.8 2-1.1 1 1.6 4.2-1 3.5-2.8-.3-.7 0-1.6.6-2 .7-.4.8-.3.4.4s-.2 1.2.4 1.2c.6 0 .8.5.4 1.2s-.3.8.4.4c.6-.4.9-1.3.6-2-.3-.7.3-1.9 1.2-2.7 1.2-.9 1.5-1 1-.1-.8 1.4 2.8 1.2 4.1-.3.5-.4.3-.5-.4-.1-.6.3-1.4.2-1.8-.4-.3-.5.1-1 1-1 1 0 1.4-.5 1-1.3-.4-.6.1-.3 1.1.8 1.3 1.6 1.5 1.6 1.1.3-.4-1.2.4-2.3 2.7-3.7 1.8-1.2 3.7-2.1 4.2-2.1s-.6.9-2.5 2.1c-1.8 1.1-3.1 2.3-2.8 2.6.4.3 1.3-.2 2.2-1.1.9-.9 2.3-1.6 3.2-1.6 1 0 1.4-.6 1-2-.3-1.1-.1-1.8.3-1.5.5.3 1.1-.1 1.4-.7.3-.7.3-.2 0 1.2-.5 2.4-.4 2.4 1 .6.9-1 1.4-2.2 1.2-2.5-.2-.3 1.6-.6 3.9-.7 2.4 0 4.2.3 3.9.8-.9 1.5.3.8 1.7-.9.8-1 .9-1.4.2-1-.6.4-1.4.3-1.7-.2-.7-1.1 1.3-.9 3.3.3 1 .6 1.2.5.7-.2-.4-.7-.2-1.2.3-1.2.6 0 1.1.5 1.1 1.2 0 .6.3.8.7.4.5-.4 0-1.3-1-2.1-1.6-1.1-1.6-1.3-.2-1.9.9-.3 1.4-.2 1.1.3-1.1 1.7 2.7 2.1 4.5.5 1.6-1.4 2.1-1.5 3.6-.3 1.3 1.1 1.5 1.1.9.1s-.1-1.2 2.2-.9c1.8.3 3.9-.1 5.3-1.1 1.2-.8 1.9-1.1 1.6-.5-.7 1.1 2.2 2.8 3.1 1.8.3-.3.1-.5-.5-.5-.5 0-1-.7-1-1.5 0-1 .4-1.2 1.2-.5.7.5 1.6.6 2 .2zm-8 .7c-.9.8-3.6 1-3 .2.2-.4 1.1-.8 2-.8.8 0 1.3.3 1 .6zm32.5-.3c0 .8-1.9 1.3-2.4.6-.3-.5.1-.9.9-.9s1.5.2 1.5.3zm-43.5 2.5c-.4.5-1.2.9-1.8.8-.9 0-.8-.2.1-.6.6-.2.9-1 .6-1.5-.4-.7-.2-.8.5-.4.6.4.9 1.2.6 1.7zm71.5 4.3c0 .2-.8 1-1.7 1.7-1.6 1.3-1.7 1.2-.4-.4 1.3-1.6 2.1-2.1 2.1-1.3zm77 13.1c.7.8.9 1.5.6 1.5-.4 0-1.4-.7-2.2-1.5-.9-.8-1.1-1.5-.6-1.5.5 0 1.5.7 2.2 1.5zM21 85c-.6 1.1-1.3 2-1.6 2-.2 0 0-.9.6-2s1.3-2 1.6-2c.2 0 0 .9-.6 2zm40 13.5c0 .2-.6.8-1.3 1.4-1 .8-1.4.7-1.4-.2 0-.8.6-1.4 1.4-1.4.7 0 1.3.1 1.3.2zM300.5 109c.3.6-.1.7-.9.4-1.8-.7-2.1-1.4-.7-1.4.6 0 1.3.4 1.6 1zm-41.1 10.1c-.3.6 0 1.5.7 2 .9.6 1 .9.2.9-1.5 0-2.6-1.7-1.8-3 .3-.6.8-1 1.1-1 .3 0 .2.5-.2 1.1zM44.1 144.3c-1 .9-1.1.8-.5-.6.3-1 .9-1.5 1.2-1.2.3.3 0 1.1-.7 1.8zM5.3 179c-.3 1.2-.8 1.9-1.1 1.6-.5-.6.5-3.6 1.2-3.6.2 0 .2.9-.1 2zm3.5 3.4c-.2.1-1.3.9-2.5 1.9-1.5 1.3-2.1 1.5-1.9.5.3-2.4 1.6-3.7 3.2-3.1.8.3 1.4.6 1.2.7zm250.8 6.5c-.4.5-.1 1.1.6 1.3.8.3.6.6-.4 1-1.1.5-1.5.2-1.3-1 .5-2.3.4-2.2 1.1-2.2.3 0 .3.4 0 .9zM56.4 205c-.6.6-1 .2-1.1-1.2-.2-1.6.1-1.8 1-.9.7.7.8 1.4.1 2.1zm197.6 2.4c0 .2-.7.7-1.6 1-.8.3-1.2.2-.9-.4.6-1 2.5-1.4 2.5-.6zM30.7 239.5c0 .8-.4 1.2-.9.9-.5-.3-.6-1-.3-1.5.9-1.3 1.2-1.1 1.2.6zm4.3 8c0 .8.4 1.5.9 1.5s1.2.7 1.5 1.6c.6 1.4.4 1.5-.9.4-2.3-1.9-3.8-5-2.5-5 .5 0 1 .7 1 1.5zm61.6 2.2c-.6.6-3.6-.9-3.6-1.8 0-.5.9-.4 2 .3 1 .7 1.8 1.4 1.6 1.5zm106.4 5.9c0 .8-.5 1.2-1 .9-.6-.4-.8-1.1-.5-1.6.9-1.4 1.5-1.1 1.5.7zm-56.7 11.9c-.3.9-.8 1.4-1 1.1-.3-.3-.2-.9.2-1.5.9-1.6 1.5-1.3.8.4zm-81.4 10.4c-.6.2-1.8-.4-2.7-1.3-1.5-1.5-1.5-1.5 1-.4 1.5.7 2.3 1.5 1.7 1.7zm20.5 13.7c.3.8.2 1.2-.4.9-.6-.3-1-1-1-1.6 0-1.4.7-1.1 1.4.7zm49.1 14.4c-.3.5-1.2 1-1.8 1-.7 0-.6-.4.3-1 1.9-1.2 2.3-1.2 1.5 0zm-3.8 1.3c0 .8-.6 1.4-1.3 1.4-.7 0-1-.6-.7-1.4.3-.7.8-1.3 1.2-1.3.4 0 .8.6.8 1.3z"/><path d="M184.5 49.1c-.3.4.2.6 1 .5 2.1-.3 2.8-1.3 1-1.3-.9 0-1.8.4-2 .8zM235 79.6c0 .7 4 4.4 4.7 4.4.2 0-.4-1.1-1.4-2.5-1.7-2.3-3.3-3.2-3.3-1.9zM71.9 82.7c-1.3 1.6-1.2 1.7.4.4.9-.7 1.7-1.5 1.7-1.7 0-.8-.8-.3-2.1 1.3zM148.6 94.7c-.8.8-3.2 1.4-6.3 1.7-1.6.1-1.9.4-1.1 1.4.8.9.7 1.1-.7.6-1.4-.6-1.6-.4-1 .6.5.9.4 1.1-.4.6-.6-.4-.9-1.1-.6-1.6.3-.4-.3-1.4-1.2-2.1-1.4-1.2-1.6-1.2-.8.1.5.8 1 2.4 1.1 3.7.2 1.8 0 2-1 1-.8-.6-1.1-1.9-.8-2.7.3-.8-.9.1-2.7 2-1.9 1.9-3.1 2.7-2.8 1.7.6-1.5.4-1.6-1.6-.5-1.2.7-2.9 1.1-3.7 1-1.3-.3-1.3-.2 0 .7.9.7 1.9.6 2.7-.1.9-.7 1.3-.7 1.3.1 0 1-5 2.6-6.6 2.1-1.2-.3-2.6 2.9-1.9 4.3.4.6 0 .4-.8-.6-1-1.2-1.7-1.4-2.2-.8-.3.6-.2 1.1.3 1.1.6 0 1.3.7 1.6 1.6.6 1.5.3 1.4-2.1-.1-1.6-1-2.5-1.4-2-1 .4.5-.1 1.7-1 2.8-1 1.1-1.3 1.7-.6 1.4.6-.4 1.5-.3 1.8.3.4.6.3 1-.2.9-2-.3-3.4.2-2.8 1.1.3.5-.1 1-1.1 1-1.4 0-1.4.3-.4 1.5 1.1 1.3 1 1.4-.2 1-1-.4-1.8.5-2.5 3.2-1.1 3.8-1.1 3.8-.8.5.2-1.9.1-3.1-.3-2.7-.4.4-.7 1.2-.7 1.8-.1.7-.7 1.1-1.5.9-1.1-.3-1.1 0 0 1.2 1 1.4 1 1.6-.6 1.6s-1.6.2-.4 1c1.6 1 1.5 1.1-1.5 2.9-1.5.9-1.6 1.1-.2.7.9-.3 1.7-.1 1.7.4 0 .6-.5 1-1.1 1-.6 0-.7.5-.2 1.2 1.1 1.9 1.3 3.9.2 3.2-.5-.3-.7-.9-.4-1.4.3-.4-.2-1-1-1.4-.8-.3-1.7 0-2.1.6-.4.7-.3.8.4.4 1.6-1 1.5.7 0 2.3-.8.9-.8 1.1-.2.8.7-.4 1.4 0 1.7.8.4 1 .1 1.2-1.1.8-1.4-.5-1.4-.3.3 1.7 1.1 1.3 1.5 2 .8 1.6-.8-.4-1.4.2-1.8 1.9-.3 1.4-.7 3.7-1 5.1-.3 1.4-.2 2.3.3 2 .5-.3.9.1.9.9s-.4 1.2-.8 1c-.9-.6-2 2.1-1.2 2.9.4.3 1.1.6 1.7.6.6 0 .4-.5-.4-1-.9-.6-1-1-.3-1 2.3 0 2.4 2 .1 2.9-2.1.9-2.1 1-.3 1.1 1.9.1 1.9.1.2 1.4-1.6 1.3-1.6 1.4-.1 2 1.5.6 1.5.8-.2 2.9-1.6 1.8-1.6 1.9-.2.8 2.2-1.7 4.7-.8 4.4 1.6-.2 1 .4 2.4 1.3 3.1 1.3 1.1 1.2 1.1-.7.2-1.3-.7-2.6-.9-3-.6-.3.3 0 .6.7.6s.9.5.5 1.2c-.5.7-.3.8.6.3 1-.6 1.2-.4.7.8-.3.9-.3 1.6.1 1.6 2.8-.5 3.5.2 1.6 1.7-1 .8-1.3 1.3-.6.9.6-.3 1.2-.1 1.2.5s.5.8 1.3.4c.8-.5.8-.2-.2.9-.7.9-.9 1.7-.4 1.7.6 0 2.2 1.1 3.7 2.5 3.1 2.8 2.4 3.4-.8.8-1.5-1.3-1.4-1 .4 1 1.3 1.5 3 2.5 3.6 2.3.9-.3 1.1.5.8 2.6-.3 2.8-.2 2.9 1 1.3 1.2-1.6 1.4-1.6 3.3.8 1.1 1.5 2.4 2.3 2.8 1.9.5-.4.5-.1 0 .7-.7 1.2-1 1.1-2-.3-1.1-1.4-1.3-1.5-1.8-.1-.4.8-.3 1.4.1 1.4.4-.1 1 0 1.5.1 1.2.4 2.6.7 3.8.9.5 0 .8.5.5 1-.4.5.7 1.5 2.3 2.2 1.6.7 2.7 1.8 2.3 2.4-.3.5.2.3 1.3-.5 1.7-1.4 1.7-1.3 1.1 1-.5 1.8-.4 2.1.3 1.1 1.1-1.7 5.1-2.5 5.1-1.2 0 .6-.9.8-2 .6-1.2-.2-1.8 0-1.5.6.4.5 1 .7 1.5.4.4-.3 1.3.1 1.9.8.6.8 2.1 1.3 3.3 1.2 1.3-.1 3.2.3 4.3.8 2.5 1.4 4.7 1.8 4.1.8-.3-.4.6-.7 1.9-.7 1.3 0 2.1.4 1.9.8-.3.4 0 .8.5.8.6 0 1.1-.6 1.1-1.3 0-.8.3-.8.8-.2 1 1.6 5.4 1.7 4.6.2-.5-.9-.3-.9.6 0 1 1 1.7 1 2.8.1 1-.9 1.6-.8 2.3.3.8 1.1 1.3 1 3.1-1.1 1.2-1.4 1.9-1.8 1.5-.8-.3.9 0 1.9.8 2.2 1 .3 1.2 0 .8-1.2-.5-1.4-.3-1.4 1.7.3 1.3 1.1 2 1.5 1.7.9-.8-1.4 1.6-3.7 2.8-2.6.5.4.5.1 0-.7-.9-1.5 1.3-3.3 3-2.3 1.6 1 3.6 1.1 2.9.1-.3-.5-1-.6-1.6-.3-.7.4-.8.2-.4-.4.4-.6 1.4-.8 2.3-.5 1.2.5 1.4.3.8-.8-.7-1.2-.6-1.2.7-.1 1.4 1.1 1.8 1 2.8-.8.6-1.1.8-2.6.4-3.2-.4-.6-.3-.8.4-.4.6.3 1.2.1 1.5-.6.2-.7.2-.2 0 1.2-.3 2.2-.2 2.3.7.7.6-.9 1.5-1.5 2.1-1.2.5.3.6-.1.3-1-.5-1.2-.2-1.6 1.1-1.3 1.2.2 1.9-.5 2.2-2.2.4-2.8 1.9-4 4.2-3.3 1.1.3 1 0-.4-1.2-2-1.7-2-1.7.5-1 2.2.7 2.3.6 1.1-.9-.9-1.1-1-1.6-.2-1.6.7 0 1-.4.7-.9-.3-.4.6-.7 1.9-.5 1.4.1 2.5-.2 2.5-.8 0-.6-.7-.8-1.4-.5-1 .4-1.3.1-.9-.9.3-.7 1.5-1.4 2.6-1.4 2 0 2.1 0 .1-1.6-1-.8-1.4-1.3-.7-1 .6.4 1.4.2 1.8-.4.3-.5.1-1-.5-1s-.9-.4-.5-1c.3-.5 1.3-.7 2.3-.4.9.3.6-.2-.8-1-2.4-1.5-2.2-1.7 1.9-2 .8-.1 1.5-1.1 1.6-2.4.1-1.4-.3-2.1-1-1.8-.6.2-1.2-.2-1.2-.9s.8-1.2 1.9-1c1 .2 1.8 0 1.8-.6 0-.5-.7-.9-1.6-.9-.8 0-1.2-.5-.9-1 .4-.6.9-.8 1.3-.6.4.2.7-.9.7-2.4.1-1.6-.2-2.7-.6-2.4-.4.2-.4-1 .2-2.8 1.2-4.3 1.2-4.3-.8-2.7-1.5 1.3-1.5 1.2-.3-.8.8-1.2 1.9-1.9 2.5-1.5.5.3.4-.1-.3-1s-1.1-2.7-.8-4.1c.3-2 .1-2.4-1.1-2-1.3.5-1.3.3-.4-1.5 1.4-2.6 1.4-3.2 0-3.2-.5 0-.7.4-.4 1 .3.6-.1.7-1 .4-1.3-.5-1.2-.9.6-2.5 1.2-1.1 1.8-1.9 1.3-1.9-.6 0-1.5.5-2.1 1.1-.8.8-1.3.7-1.8-.2-.5-.7-.4-1 .2-.6 1.9 1.2 2.5-2.6.7-4.2-.9-.9-1.4-1-1-.4.4.7.2 1.3-.3 1.3-1.2 0-1.4-1.3-.4-2.4 1.1-1 1.2-3.7.2-3-.5.3-.6 1.1-.2 1.7.4.7-.1.5-1.1-.2-1.7-1.4-1.7-1.6.1-2.9 1.7-1.3 1.6-1.4-.9-1-1.5.3-2.5.2-2.2-.3.2-.4-.4-1.3-1.3-1.9-1.5-.9-1.4-1 .7-.4 2.3.6 2.3.6.7-1-.9-1-1.5-2.2-1.1-2.7.3-.5.2-.9-.3-.8-2 .4-2.4-.2-1.2-1.9 1.1-1.4 1.1-1.5-.1-.5-1.7 1.6-4 1.7-4 .2 0-.5.6-.7 1.3-.3 1.4.9-2.1-3.5-4.3-5.3-1.2-1-1.8-.9-2.9.5-1.3 1.6-1.3 1.6-.8-.1.4-.9.3-1.7-.2-1.7-.4 0-1.3-1-2-2.3-.8-1.5-1-1.6-.6-.3.5 1.6.3 1.7-1 .6-.8-.7-1.3-1.6-1-2 .3-.5 0-1.2-.6-1.6-.8-.4-.9-.3-.5.4s.2 1.2-.3 1.2c-.6 0-1.1-.5-1.1-1.1 0-.8-.4-.8-1.4 0-1.1.9-1.5.8-2-.5-.4-1-1.2-1.4-2.3-1-1 .4-1.4.4-1 0 .4-.4-.1-1.3-1.1-2-1.3-.9-2-1-3.1-.1-1.2.9-1.3.9-.7-.1.4-.7.1-1.2-.9-1.2s-1.3.5-.9 1.2.3.8-.4.4c-.6-.4-.9-1.2-.6-2 .3-.7-.2-1.3-1-1.3s-1.2.7-.9 1.6c.4 1.4.3 1.4-.9-.1-1.3-1.5-1.5-1.5-2.6 0-1 1.6-1.1 1.6-.6-.1.5-1.3.2-1.6-1.2-1-1.3.5-1.5.3-.9-.7.5-.9.4-1.1-.4-.6-.9.6-.9 1.1 0 2.2 1 1.2.9 1.3-.5.8-.9-.3-1.6-.9-1.6-1.3s-.7-.8-1.5-.8-1.5.5-1.5 1.1c0 .6-.5.4-1-.4-.7-1.1-1-1.1-1-.2 0 .7-.5 1-1 .7-.6-.4-.8-1.1-.5-1.6.7-1.1.1-1.2-.9-.2zM147 97c0 .5-.5 1-1.1 1-.5 0-.7-.5-.4-1 .3-.6.8-1 1.1-1 .2 0 .4.4.4 1zm25.4 4c-.6.6-1 .3-1-1s.4-1.6 1-1c.7.7.7 1.3 0 2zm-37.4 0c0 .5-.5 1-1.1 1-.5 0-.7-.5-.4-1 .3-.6.8-1 1.1-1 .2 0 .4.4.4 1zm-11.5 6c-.3.5-1.2 1-1.8 1-.7 0-.6-.4.3-1 1.9-1.2 2.3-1.2 1.5 0zm70.9 5.9c-.4.3-.9 0-1.1-.7-.3-.6-1-.9-1.6-.5-.7.3-.9.3-.5-.2.4-.4.2-1.5-.4-2.4-.7-.9 0-.5 1.5.8 1.5 1.4 2.4 2.7 2.1 3zm-77-1.1c.3.5-.1.9-.9.9s-1.2-.4-.9-.9c.3-.4.7-.8.9-.8.2 0 .6.4.9.8zm81.6 5.7c.7.9.8 1.5.2 1.5-.5 0-1.2-.7-1.6-1.5-.3-.8-.4-1.5-.2-1.5s.9.7 1.6 1.5zM101.5 162c.3.6-.1.7-.9.4-1.8-.7-2.1-1.4-.7-1.4.6 0 1.3.4 1.6 1zm108 7c.3.6-.1.7-.9.4-1.8-.7-2.1-1.4-.7-1.4.6 0 1.3.4 1.6 1zm-83.3 28.7c-.6.2-.9 1-.6 1.5.4.7.2.8-.5.4-1.3-.9-.5-2.6 1.2-2.5.9 0 .8.2-.1.6zm10.5 6.8c0 .8-.4 1.2-.9.9-.5-.3-.6-1-.3-1.5.9-1.3 1.2-1.1 1.2.6zm36.3 1c-.7.9-1.5 1.3-1.7 1.1-.6-.6 2-3.6 2.6-3 .2.2-.2 1-.9 1.9zm-32.3-.9c-.3.3-1.2.4-1.9.1-.8-.3-.5-.6.6-.6 1.1-.1 1.7.2 1.3.5zm4.1 2.9c-.3.3-.9-.2-1.2-1.2-.6-1.4-.5-1.5.5-.6.7.7 1 1.5.7 1.8z"/><path d="M98 142.1c0 .5.5.7 1 .4.6-.3 1-.8 1-1.1 0-.2-.4-.4-1-.4-.5 0-1 .5-1 1.1zM46 148.5c-.7.8-.9 1.5-.6 1.5.4 0 1.4-.7 2.2-1.5.9-.8 1.1-1.5.6-1.5-.5 0-1.5.7-2.2 1.5zM47 151.9c0 .6.4 1.3 1 1.6.6.3.7-.1.4-.9-.7-1.8-1.4-2.1-1.4-.7zM262.6 152.2c.3.4.9.8 1.5.8.5 0 .9-.4.9-.8 0-.5-.7-.9-1.5-.9s-1.2.4-.9.9zM262.8 154.7c.7.3 1.6.2 1.9-.1.4-.3-.2-.6-1.3-.5-1.1 0-1.4.3-.6.6zM99.2 167.3c-.8 1-.6 1.3 1.1 1.4 1.5.2 1.8 0 .8-.6-1.1-.7-1.1-.9 0-1.4.8-.3.9-.6.3-.6-.6-.1-1.6.5-2.2 1.2zM260 185.1c0 .5.5.7 1 .4.6-.3 1-.8 1-1.1 0-.2-.4-.4-1-.4-.5 0-1 .5-1 1.1zM50.4 186.6c-1.8 1.4-1.8 1.5.4.4 1.2-.6 2.2-1.3 2.2-1.5 0-.8-.5-.6-2.6 1.1zM196.6 189.8c-.3.5.1.9.9.9s1.2-.4.9-.9c-.3-.4-.7-.8-.9-.8-.2 0-.6.4-.9.8zM115 192c0 .5.5 1 1.1 1 .5 0 .7-.5.4-1-.3-.6-.8-1-1.1-1-.2 0-.4.4-.4 1zM139.4 208.2c-.4.7-.4 1 .1.6.4-.4 1.5-.2 2.4.5 1.4 1.1 1.4 1 .2-.6-1.6-2-1.8-2.1-2.7-.5zM68.5 224c.3.5 1.1 1 1.6 1 .6 0 .7-.5.4-1-.3-.6-1.1-1-1.6-1-.6 0-.7.4-.4 1zM231 234c0 .5.4 1 .9 1 .6 0 1.3-.5 1.6-1 .3-.6-.1-1-.9-1-.9 0-1.6.4-1.6 1zM216 246c-.9.6-1 1-.3 1 .6 0 1.5-.5 1.8-1 .8-1.2.4-1.2-1.5 0zM213.5 10c.3.5.8 1 1.1 1 .2 0 .4-.5.4-1 0-.6-.5-1-1.1-1-.5 0-.7.4-.4 1zM92.1 11.7c-.1 1.7 1.6 2.5 2.5 1.2.4-.7.3-.9-.4-.5-.5.3-1.3 0-1.5-.6-.4-.9-.6-1-.6-.1zM41 50.4c0 .2.7.7 1.6 1 .8.3 1.2.2.9-.4-.6-1-2.5-1.4-2.5-.6zM272.8 57.7c.7.3 1.6.2 1.9-.1.4-.3-.2-.6-1.3-.5-1.1 0-1.4.3-.6.6zM291.7 86.7c-1 .9-.9 2.3.1 2.3.5 0 .9-.7.9-1.5 0-1.7-.1-1.8-1-.8zM11 103.1c0 .5.5.7 1 .4.6-.3 1-.8 1-1.1 0-.2-.4-.4-1-.4-.5 0-1 .5-1 1.1zM8.5 110c-.3.5-.1 1 .4 1 .6 0 1.1-.5 1.1-1 0-.6-.2-1-.4-1-.3 0-.8.4-1.1 1zM41.9 259.7c-1.3 1.6-1.2 1.7.4.4 1.6-1.3 2.1-2.1 1.3-2.1-.2 0-1 .8-1.7 1.7zM70.6 285.7c-.6 1.4-.5 1.5.5.6.7-.7 1-1.5.7-1.8-.3-.3-.9.2-1.2 1.2zM97 298.4c0 .2.8 1 1.8 1.7 1.5 1.3 1.6 1.2.3-.4s-2.1-2.1-2.1-1.3zM119 306c0 .6.7 1 1.5 1s1.5-.2 1.5-.4-.7-.6-1.5-1c-.8-.3-1.5-.1-1.5.4zM123.3 307.3c-.3.6-.1.7.5.3.7-.4 1.2-.3 1.2.3 0 .5-.6 1.2-1.2 1.4-1 .4-1 .6-.1.6.7.1 1.7-.7 2.2-1.7.8-1.4.6-1.9-.5-1.9-.8 0-1.8.5-2.1 1zM185.4 307.9c0 1.1.4 1.7.8 1.5.4-.3.8-1.2.8-2s-.4-1.4-.8-1.4-.8.9-.8 1.9zM274.3 306.7c-.7.3-1.3.9-1.3 1.5 0 .7.5.6 1.4-.1.9-.7 1.7-.8 2-.2.3.5 0 1.2-.6 1.4-.9.4-1 .6-.1.6.6.1 1.4-.3 1.7-.8.8-1.2-1.6-2.9-3.1-2.4z"/></svg>