<svg width="140" height="20" viewBox="0 0 140 20" fill="none" xmlns="http://www.w3.org/2000/svg">
<path fill-rule="evenodd" clip-rule="evenodd" d="M99.2403 0H100.158V20H99.2403V0Z" fill="white"/>
<path fill-rule="evenodd" clip-rule="evenodd" d="M9.58688 6.32341L9.57983 6.33525L9.57221 6.34738L9.55895 6.36883L9.55387 6.37729L9.20321 6.94743L9.15384 7.02755L9.10278 7.11105L9.07062 7.16296L9.04947 7.19737L8.99417 7.28652C6.818 10.823 4.64633 14.3615 2.47326 17.8997C2.43151 17.9586 2.37058 17.9939 2.29412 17.9945H0.211327C0.0516543 17.9945 -0.0484942 17.8339 0.0240074 17.7036C0.0172368 17.6971 9.58124 2.1028 9.58688 2.1028C9.66869 1.9767 9.8656 1.9767 9.9477 2.1028C9.95334 2.1028 19.5173 17.6971 19.5106 17.7036C19.5831 17.8339 19.4832 17.9945 19.3232 17.9945H17.2407C17.164 17.9942 17.1031 17.9586 17.0613 17.8997C14.8882 14.3615 12.7166 10.823 10.5404 7.28652L10.4854 7.19681L10.4642 7.16239L10.4321 7.11049L10.3604 6.99398L9.98042 6.37672L9.97534 6.36826L9.96208 6.34682L9.95475 6.33469L9.94741 6.32284C9.93105 6.29745 9.90961 6.27714 9.88507 6.26219V6.26191L9.87943 6.25852L9.87378 6.25542V6.25514L9.86786 6.25232V6.25203L9.86194 6.24921V6.24893L9.85601 6.24639V6.24611L9.85009 6.24385L9.84388 6.24159L9.83739 6.23934L9.82498 6.23539H9.8247L9.812 6.23257L9.8058 6.23144L9.79931 6.23031H9.79902L9.79282 6.22946L9.78605 6.22862L9.77307 6.22806V6.22777H9.76658L9.75361 6.22806L9.74712 6.22834L9.73414 6.23003L9.72765 6.23116L9.72145 6.23229H9.72116L9.71495 6.2337V6.23398L9.70847 6.23539L9.70226 6.23708L9.70198 6.23736L9.69577 6.23934L9.68957 6.24159L9.67772 6.24611V6.24639L9.67179 6.24893V6.24921L9.66587 6.25203V6.25232L9.66023 6.25514V6.25542L9.65459 6.25852H9.6543L9.64866 6.26191V6.26219C9.62497 6.27771 9.60352 6.29774 9.58688 6.32341ZM9.59703 10.3006L7.55373 13.6021L7.5543 13.6029C7.54104 13.6297 7.5337 13.6596 7.5337 13.6912C7.5337 13.8015 7.62313 13.8909 7.73344 13.8909H11.8014C11.9117 13.8909 12.0012 13.8015 12.0012 13.6912C12.0012 13.6593 11.9938 13.6294 11.9806 13.6029L11.9811 13.6021L9.93782 10.3006C9.90284 10.2433 9.83965 10.2052 9.76771 10.2052C9.69521 10.2052 9.63202 10.2433 9.59703 10.3006Z" fill="white"/>
<path fill-rule="evenodd" clip-rule="evenodd" d="M80.885 15.9673L88.7533 15.967C88.8616 15.967 88.9493 16.0548 88.9493 16.1631V17.7951C88.9493 17.9034 88.8616 17.9911 88.7533 17.9911H78.866C78.7577 17.9911 78.6699 17.9034 78.6699 17.7951V2.21655C78.6699 2.10822 78.7577 2.02048 78.866 2.02048H80.498C80.6063 2.02048 80.694 2.10822 80.694 2.21655V15.7763C80.6966 15.8807 80.7806 15.9645 80.885 15.9673Z" fill="white"/>
<path fill-rule="evenodd" clip-rule="evenodd" d="M39.8802 2.3167C39.8048 2.18834 39.8974 2.02021 40.0463 2.02021C42.3085 2.02021 44.5707 2.02021 46.833 2.02021C49.5973 2.02021 51.8384 4.26127 51.8384 7.02564C51.8384 9.29322 50.3303 11.2084 48.2624 11.8237C48.2666 11.8237 51.861 17.7065 51.8604 17.7071C51.9321 17.8357 51.8333 17.9943 51.6756 17.9943H49.6182C49.5426 17.994 49.4822 17.959 49.441 17.9006C49.0416 17.2503 44.7804 10.3105 44.7792 10.3105C44.6977 10.1835 44.7849 10.0117 44.9392 10.0072C45.6137 10.0072 46.1584 10.0072 46.833 10.0072C48.4796 10.0072 49.8146 8.6723 49.8146 7.02564C49.8146 5.37898 48.4796 4.04404 46.833 4.04404C46.833 4.04404 41.5302 4.04404 41.0492 4.04404C40.9787 4.04404 40.9169 4.00709 40.8822 3.9518L39.8802 2.3167Z" fill="white"/>
<path fill-rule="evenodd" clip-rule="evenodd" d="M23.9405 10.0058C23.9405 13.2983 26.6092 15.9673 29.9017 15.9673C31.3737 15.9673 32.6398 15.4697 33.7573 14.5511C33.8345 14.4738 33.9615 14.475 34.0374 14.554L35.1909 15.7078C35.2682 15.7848 35.2671 15.9126 35.1881 15.9882C33.6709 17.2904 31.9089 17.9917 29.9014 17.9917C25.4912 17.9917 21.9158 14.4166 21.9158 10.0061C21.9158 5.59591 25.4909 2.02048 29.9014 2.02048C31.9089 2.02048 33.6709 2.72152 35.1881 4.02373C35.2668 4.09933 35.2679 4.22713 35.1909 4.30414L34.0374 5.45796C33.9615 5.53695 33.8345 5.53808 33.7573 5.46078C32.6398 4.54224 31.3737 4.0446 29.9017 4.0446C26.6092 4.04432 23.9405 6.71334 23.9405 10.0058Z" fill="white"/>
<path fill-rule="evenodd" clip-rule="evenodd" d="M65.6534 17.9888C65.7615 17.9888 65.8529 17.9053 65.8529 17.7925C65.8529 15.8807 65.8529 13.9688 65.8529 12.057C65.8537 12.0254 65.8616 11.9963 65.8763 11.9689C67.5907 8.98933 71.71 2.3048 71.7086 2.30339C71.7755 2.17559 71.6846 2.01903 71.5382 2.01649C70.8916 1.99759 70.2433 2.01649 69.5965 2.01649C69.5251 2.01677 69.4687 2.05203 69.43 2.11015C68.0294 4.53288 65.0091 9.3242 65.0097 9.32278C64.9755 9.38175 64.9118 9.4218 64.8387 9.4218C64.769 9.4218 64.7075 9.38569 64.6726 9.33096C64.7033 9.38456 61.6165 4.47844 60.2474 2.11015C60.2088 2.05203 60.1524 2.01677 60.081 2.01649C59.4341 2.01649 58.7861 1.99759 58.1392 2.01649C57.9928 2.01903 57.9023 2.17559 57.9688 2.30339C57.9674 2.3048 62.0868 8.98933 63.8011 11.9689C63.8158 11.9966 63.8237 12.0257 63.8245 12.057C63.8245 13.9688 63.8245 15.8807 63.8245 17.7925C63.8245 17.9051 63.9159 17.9888 64.024 17.9888H65.6534Z" fill="white"/>
<path fill-rule="evenodd" clip-rule="evenodd" d="M111.884 13.4879C110.927 12.5309 110.448 11.3689 110.448 10.0019C110.448 8.63702 110.927 7.47502 111.884 6.51811C112.84 5.56121 114.002 5.08275 115.37 5.08275C115.853 5.08275 116.32 5.15102 116.764 5.28784C117.208 5.42241 117.577 5.58631 117.869 5.77758C118.161 5.96885 118.416 6.16266 118.637 6.35844C118.856 6.5545 119.015 6.72067 119.113 6.85975L119.266 7.06484L118.58 7.68012C118.553 7.63441 118.512 7.57517 118.459 7.50239C118.407 7.4296 118.281 7.29955 118.085 7.1128C117.89 6.92604 117.677 6.7596 117.448 6.61601C117.22 6.47016 116.917 6.33813 116.543 6.21739C116.169 6.0989 115.777 6.0374 115.37 6.0374C114.274 6.0374 113.351 6.41796 112.599 7.17881C111.847 7.93993 111.471 8.88076 111.471 10.0019C111.471 11.1252 111.847 12.066 112.599 12.8272C113.351 13.5883 114.274 13.9686 115.37 13.9686C115.778 13.9686 116.17 13.9116 116.543 13.7976C116.917 13.6836 117.227 13.5471 117.475 13.3874C117.721 13.2258 117.937 13.0684 118.127 12.909C118.313 12.7518 118.446 12.6128 118.525 12.492L118.653 12.3256L119.334 12.9454C119.298 13.0001 119.243 13.0706 119.17 13.1572C119.097 13.2438 118.933 13.401 118.682 13.6267C118.432 13.8546 118.165 14.0571 117.885 14.2352C117.605 14.4129 117.235 14.5723 116.78 14.7114C116.324 14.8527 115.853 14.9232 115.37 14.9232C114.002 14.9232 112.84 14.4448 111.884 13.4879ZM121.316 5.21732H124.326C125.72 5.21732 126.898 5.68674 127.864 6.62531C128.83 7.56388 129.313 8.68949 129.313 10.0019C129.313 11.3165 128.83 12.4421 127.864 13.3807C126.898 14.3195 125.72 14.7887 124.326 14.7887H121.316V5.21732ZM124.326 6.17874H122.344V13.834H124.326C125.447 13.834 126.388 13.4627 127.149 12.72C127.91 11.9772 128.29 11.0727 128.29 10.0064C128.29 8.94 127.909 8.03557 127.149 7.29278C126.388 6.54999 125.447 6.17874 124.326 6.17874ZM139.359 5.21732V14.7889H138.47L132.596 7.06512V14.7889H131.569V5.21732H132.457L138.338 12.9456V5.21732H139.359Z" fill="white"/>
</svg>
