<?xml version="1.0" encoding="utf-8"?>
<!-- Generator: Adobe Illustrator 23.0.0, SVG Export Plug-In . SVG Version: 6.00 Build 0)  -->
<svg version="1.1" id="Слой_1" xmlns="http://www.w3.org/2000/svg" xmlns:xlink="http://www.w3.org/1999/xlink" x="0px" y="0px"
	 viewBox="0 0 680.4 72.2" style="enable-background:new 0 0 680.4 72.2;" xml:space="preserve">
<style type="text/css">
	.st0{fill-rule:evenodd;clip-rule:evenodd;fill:#FFFFFF;}
</style>
<g>
	<polygon class="st0" points="351.7,0 353.4,0 355,0 355,70.9 353.4,70.9 351.7,70.9 	"/>
	<path class="st0" d="M395.1,49h20v3.4h-23.7V18.6h23.2V22h-19.5v11.1h15.7v3.4h-15.7V49L395.1,49z M446.3,18.6h3.6v33.8h-3.1
		L426,25.2v27.3h-3.6V18.6h3.1l20.8,27.3V18.6L446.3,18.6z M455.9,18.6h24.9V22h-10.6v30.4h-3.6V22h-10.6L455.9,18.6L455.9,18.6z
		 M490.4,49h20v3.4h-23.7V18.6h23.2V22h-19.5v11.1h15.7v3.4h-15.7V49L490.4,49z M517.6,18.6h13.5c3,0,5.5,1,7.4,2.9
		c2,1.9,3,4.3,3,7.2c0,1.4-0.2,2.8-0.7,4c-0.5,1.2-1.1,2.1-1.7,2.8c-0.7,0.7-1.4,1.3-2.1,1.7c-0.7,0.5-1.3,0.8-1.7,0.9l-0.7,0.2
		l8,14h-4.1l-7.5-13.5h-9.6v13.5h-3.6V18.6L517.6,18.6z M531.1,22h-9.9v13.5h9.9c2.1,0,3.7-0.6,4.9-1.8c1.2-1.2,1.8-2.9,1.8-4.9
		c0-2.1-0.6-3.7-1.8-4.9C534.8,22.6,533.2,22,531.1,22L531.1,22z M550.2,18.6H563c3.1,0,5.7,1,7.8,3c2.1,2,3.1,4.6,3.1,7.6
		s-1,5.5-3.1,7.6c-2.1,2-4.7,3-7.8,3h-9.2v12.5h-3.6L550.2,18.6L550.2,18.6z M563,22h-9.2v14.5h9.2c2.2,0,3.9-0.7,5.3-2
		c1.3-1.3,2-3.1,2-5.3c0-2.2-0.7-3.9-2-5.3C566.9,22.7,565.2,22,563,22L563,22z M581.6,18.6h13.5c3,0,5.5,1,7.4,2.9
		c2,1.9,3,4.3,3,7.2c0,1.4-0.2,2.8-0.7,4c-0.5,1.2-1.1,2.1-1.7,2.8c-0.7,0.7-1.4,1.3-2.1,1.7c-0.7,0.5-1.3,0.8-1.7,0.9l-0.7,0.2
		l8,14h-4.1l-7.5-13.5h-9.6v13.5h-3.6L581.6,18.6L581.6,18.6z M595.1,22h-9.9v13.5h9.9c2.1,0,3.7-0.6,4.9-1.8
		c1.2-1.2,1.8-2.9,1.8-4.9c0-2.1-0.6-3.7-1.8-4.9C598.8,22.6,597.1,22,595.1,22L595.1,22z M614.1,52.4V18.6h3.6v33.8H614.1
		L614.1,52.4z M644,43.2c0-1.2-0.3-2.1-1-3c-0.7-0.8-1.6-1.4-2.6-1.9c-1.1-0.5-2.3-0.9-3.6-1.2c-1.3-0.4-2.6-0.8-3.9-1.2
		c-1.3-0.4-2.5-1-3.6-1.6c-1.1-0.6-2-1.6-2.6-2.7c-0.7-1.2-1-2.6-1-4.2c0-2.5,1-4.7,3-6.5c2-1.8,4.6-2.7,7.9-2.7
		c1.2,0,2.4,0.2,3.5,0.5c1.1,0.3,2,0.7,2.8,1.1c0.7,0.4,1.4,0.8,2,1.2c0.6,0.4,1,0.8,1.3,1.1l0.4,0.5l-2.4,2.4
		c-0.1-0.1-0.2-0.2-0.3-0.4c-0.1-0.2-0.4-0.4-0.9-0.8c-0.5-0.4-1-0.7-1.5-1c-0.5-0.3-1.2-0.6-2.1-0.8c-0.9-0.2-1.8-0.4-2.7-0.4
		c-2.2,0-4,0.6-5.3,1.7s-2,2.5-2,4.1c0,1.2,0.3,2.1,1,3c0.7,0.8,1.6,1.5,2.6,1.9c1.1,0.5,2.3,0.9,3.6,1.2c1.3,0.4,2.6,0.8,3.9,1.2
		c1.3,0.5,2.5,1,3.6,1.6c1.1,0.6,2,1.6,2.6,2.7c0.7,1.2,1,2.6,1,4.2c0,2.9-1,5.2-3,7c-2,1.8-4.8,2.7-8.3,2.7c-1.4,0-2.8-0.2-4.1-0.5
		c-1.3-0.4-2.4-0.8-3.2-1.3c-0.8-0.5-1.6-1-2.2-1.5c-0.6-0.5-1.1-0.9-1.3-1.3l-0.4-0.5l2.2-2.5c0.1,0.1,0.2,0.2,0.3,0.4
		c0.2,0.2,0.5,0.5,1.1,1c0.5,0.5,1.1,0.9,1.8,1.2c0.6,0.4,1.5,0.7,2.6,1c1.1,0.3,2.2,0.5,3.3,0.5c2.5,0,4.4-0.6,5.7-1.7
		C643.3,46.6,644,45.1,644,43.2L644,43.2z M658.7,49h20v3.4h-23.7V18.6h23.2V22h-19.5v11.1h15.7v3.4h-15.7L658.7,49L658.7,49z"/>
	<g>
		<path class="st0" d="M34,22.4L34,22.4L34,22.4l-0.1,0.2l0,0l-1.2,2l-0.1,0.2l-0.1,0.1l-0.2,0.3l-0.1,0.2l-0.1,0.1l-0.2,0.3
			C24.2,38.4,16.5,50.9,8.8,63.5c-0.1,0.2-0.4,0.3-0.6,0.3H0.7c-0.6,0-0.9-0.6-0.7-1C0.1,62.7,34,7.5,34,7.5c0.3-0.4,1-0.4,1.3,0
			c0,0,33.9,55.3,33.9,55.3c0.3,0.5-0.1,1-0.7,1h-7.4c-0.3,0-0.5-0.1-0.6-0.3c-7.7-12.5-15.4-25.1-23.1-37.6l-0.2-0.3l-0.1-0.1
			L37,25.2l-0.2-0.3l-0.1-0.1l-0.1-0.2l-1.2-2l0,0l0-0.1l0,0l0,0c-0.1-0.1-0.1-0.2-0.2-0.2v0l0,0l0,0l0,0v0l0,0v0l0,0l0,0l0,0v0l0,0
			l0,0l0,0h0l0,0l0,0l0,0v0l0,0h0l0,0l0,0l0,0l0,0h0l0,0h0l0,0l0,0l0,0v0h0l0,0l0,0l0,0l0,0l0,0l0,0l0,0h0l0,0v0l0,0l0,0l0,0l0,0
			l0,0l0,0l0,0l0,0v0l0,0l0,0l0,0v0l0,0v0l0,0h0l0,0v0C34.1,22.3,34,22.3,34,22.4L34,22.4z M34,36.5l-7.2,11.7l0,0
			c0,0.1-0.1,0.2-0.1,0.3c0,0.4,0.3,0.7,0.7,0.7h7.2h7.2c0.4,0,0.7-0.3,0.7-0.7c0-0.1,0-0.2-0.1-0.3l0,0l-7.2-11.7l0,0
			c-0.1-0.2-0.3-0.3-0.6-0.3C34.4,36.2,34.1,36.3,34,36.5z"/>
		<path class="st0" d="M286.7,56.6l27.9,0c0.4,0,0.7,0.3,0.7,0.7v5.8c0,0.4-0.3,0.7-0.7,0.7h-35c-0.4,0-0.7-0.3-0.7-0.7V7.9
			c0-0.4,0.3-0.7,0.7-0.7h5.8c0.4,0,0.7,0.3,0.7,0.7v48.1C286,56.3,286.3,56.6,286.7,56.6z"/>
		<path class="st0" d="M141.4,8.2c-0.3-0.5,0.1-1.1,0.6-1.1c8,0,16,0,24.1,0c9.8,0,17.7,7.9,17.7,17.7c0,8-5.3,14.8-12.7,17
			c0,0,12.8,20.9,12.8,20.9c0.3,0.5-0.1,1-0.7,1h-7.3c-0.3,0-0.5-0.1-0.6-0.3c-1.4-2.3-16.5-26.9-16.5-26.9c-0.3-0.4,0-1.1,0.6-1.1
			c2.4,0,4.3,0,6.7,0c5.8,0,10.6-4.7,10.6-10.6s-4.7-10.6-10.6-10.6c0,0-18.8,0-20.5,0c-0.2,0-0.5-0.1-0.6-0.3L141.4,8.2z"/>
		<path class="st0" d="M84.9,35.5c0,11.7,9.5,21.1,21.1,21.1c5.2,0,9.7-1.8,13.7-5c0.3-0.3,0.7-0.3,1,0l4.1,4.1c0.3,0.3,0.3,0.7,0,1
			c-5.4,4.6-11.6,7.1-18.7,7.1c-15.6,0-28.3-12.7-28.3-28.3c0-15.6,12.7-28.3,28.3-28.3c7.1,0,13.4,2.5,18.7,7.1
			c0.3,0.3,0.3,0.7,0,1l-4.1,4.1c-0.3,0.3-0.7,0.3-1,0c-4-3.3-8.4-5-13.7-5C94.3,14.3,84.9,23.8,84.9,35.5z"/>
		<path class="st0" d="M232.7,63.8c0.4,0,0.7-0.3,0.7-0.7c0-6.8,0-13.6,0-20.3c0-0.1,0-0.2,0.1-0.3c6.1-10.6,20.7-34.3,20.7-34.3
			c0.2-0.5-0.1-1-0.6-1c-2.3-0.1-4.6,0-6.9,0c-0.3,0-0.5,0.1-0.6,0.3c-5,8.6-15.7,25.6-15.7,25.6c-0.1,0.2-0.3,0.4-0.6,0.4
			c-0.2,0-0.5-0.1-0.6-0.3c0.1,0.2-10.8-17.2-15.7-25.6c-0.1-0.2-0.3-0.3-0.6-0.3c-2.3,0-4.6-0.1-6.9,0c-0.5,0-0.8,0.6-0.6,1
			c0,0,14.6,23.7,20.7,34.3c0.1,0.1,0.1,0.2,0.1,0.3c0,6.8,0,13.6,0,20.3c0,0.4,0.3,0.7,0.7,0.7L232.7,63.8L232.7,63.8z"/>
	</g>
</g>
</svg>
