<svg width="219" height="29" viewBox="0 0 219 29" fill="none" xmlns="http://www.w3.org/2000/svg">
<path fill-rule="evenodd" clip-rule="evenodd" d="M144.812 0H145.479H146.15V29H145.479H144.812V0Z" fill="white"/>
<path d="M209.96 20.059H218.242V21.4462H208.462V7.55384H218.041V8.94921H209.96V13.5118H216.439V14.899H209.96V20.059ZM197.882 8.94921H194.988V20.059H197.882C199.521 20.059 200.891 19.5188 202.003 18.4426C203.114 17.3664 203.67 16.0529 203.67 14.5061C203.67 12.9594 203.114 11.6458 202.003 10.5696C200.896 9.48935 199.521 8.94921 197.882 8.94921ZM193.49 7.55384H197.882C199.92 7.55384 201.637 8.23311 203.048 9.59575C204.46 10.9584 205.164 12.5911 205.164 14.4939C205.164 16.4007 204.46 18.0334 203.048 19.3961C201.637 20.7587 199.92 21.438 197.882 21.438H193.49V7.55384ZM188.102 9.44025C189.497 10.8274 190.197 12.5133 190.197 14.4939C190.197 16.4785 189.497 18.1644 188.102 19.5516C186.706 20.9388 185.01 21.6344 183.018 21.6344C181.021 21.6344 179.325 20.9388 177.93 19.5516C176.534 18.1644 175.834 16.4785 175.834 14.4939C175.834 12.5133 176.534 10.8274 177.93 9.44025C179.325 8.05306 181.021 7.35742 183.018 7.35742C185.006 7.35742 186.706 8.05306 188.102 9.44025ZM178.971 10.4019C177.872 11.5067 177.325 12.8734 177.325 14.498C177.325 16.1266 177.872 17.4933 178.971 18.5981C180.07 19.703 181.416 20.2554 183.018 20.2554C184.615 20.2554 185.961 19.703 187.06 18.5981C188.159 17.4933 188.707 16.1266 188.707 14.498C188.707 12.8693 188.159 11.5067 187.06 10.4019C185.961 9.29703 184.615 8.74461 183.018 8.74461C181.416 8.74461 180.066 9.29703 178.971 10.4019ZM171.047 7.55384H172.537V21.4421H171.24L162.666 10.2341V21.4421H161.167V7.55384H162.464L171.051 18.77V7.55384H171.047Z" fill="white"/>
<path fill-rule="evenodd" clip-rule="evenodd" d="M14.0031 14.936L11.0228 19.7236C11.0022 19.7605 10.994 19.8055 10.994 19.8505C10.994 20.0101 11.1257 20.141 11.2863 20.141H14.2542H17.2222C17.3827 20.141 17.5145 20.0101 17.5145 19.8505C17.5145 19.8055 17.5021 19.7605 17.4857 19.7236L14.5053 14.936C14.4559 14.8542 14.3613 14.7969 14.2583 14.7969C14.1554 14.7969 14.0566 14.8542 14.0031 14.936ZM13.9908 9.16629L13.9784 9.18266L13.9661 9.19902L13.9455 9.23176L13.9373 9.24404L13.4268 10.0706L13.3857 10.1402L13.3568 10.1893L13.2827 10.312L13.2375 10.3857L13.2045 10.4348L13.1222 10.5658C9.94841 15.693 6.78284 20.8285 3.60905 25.9599C3.5473 26.0458 3.46085 26.0949 3.34971 26.099H0.307639C0.0730007 26.099 -0.0710757 25.8657 0.0359525 25.6775C0.0277195 25.6693 13.9825 3.04875 13.9908 3.04875C14.1102 2.86461 14.3983 2.86461 14.5177 3.04875C14.5259 3.04875 28.4807 25.6693 28.4725 25.6775C28.5795 25.8657 28.4314 26.099 28.2008 26.099H25.1629C25.0517 26.099 24.9612 26.0458 24.8994 25.9599C21.7297 20.8285 18.5601 15.693 15.3863 10.5658L15.3039 10.4348L15.271 10.3857L15.2257 10.312L15.1516 10.1893L15.1228 10.1402L15.0816 10.0706L14.5712 9.24404L14.563 9.23176L14.5424 9.19902L14.53 9.18266L14.5177 9.16629C14.493 9.12946 14.4642 9.10082 14.4271 9.08036L14.4189 9.07626L14.4107 9.07217L14.4024 9.06808L14.3942 9.06399L14.386 9.0599L14.3777 9.0558L14.3695 9.05171L14.3613 9.04762L14.353 9.04353L14.3448 9.03944L14.3242 9.03534H14.316H14.3077H14.2995H14.2913H14.283H14.2748H14.2666H14.246H14.2378H14.2295H14.2213H14.2131H14.2048H14.1966L14.1884 9.03944L14.1801 9.04353L14.1719 9.04762L14.1637 9.05171L14.1554 9.0558L14.1472 9.0599L14.139 9.06399L14.1307 9.06808L14.1225 9.07217L14.1143 9.07626L14.106 9.08036C14.0443 9.10082 14.0155 9.12946 13.9908 9.16629Z" fill="white"/>
<path fill-rule="evenodd" clip-rule="evenodd" d="M118.027 23.1566H129.507C129.664 23.1566 129.796 23.2835 129.796 23.439V25.8082C129.796 25.9637 129.668 26.0947 129.507 26.0947H115.079C114.923 26.0947 114.791 25.9678 114.791 25.8082V3.21222C114.791 3.05673 114.919 2.92578 115.079 2.92578H117.463C117.619 2.92578 117.751 3.05263 117.751 3.21222V22.8825C117.751 23.0298 117.874 23.1525 118.027 23.1566Z" fill="white"/>
<path fill-rule="evenodd" clip-rule="evenodd" d="M58.1939 3.35544C58.0828 3.1713 58.2186 2.92578 58.4368 2.92578C61.7382 2.92578 65.0396 2.92578 68.341 2.92578C72.3752 2.92578 75.6436 6.17483 75.6436 10.185C75.6436 13.475 73.4413 16.2534 70.424 17.1455C70.4322 17.1455 75.6766 25.6773 75.6725 25.6814C75.7754 25.8696 75.6313 26.0988 75.4008 26.0988H72.3999C72.2887 26.0988 72.2023 26.0456 72.1405 25.9637C71.556 25.0185 65.3401 14.9563 65.3401 14.9563C65.2207 14.7721 65.3484 14.5225 65.5748 14.5143C66.5586 14.5143 67.3531 14.5143 68.3369 14.5143C70.7409 14.5143 72.688 12.5788 72.688 10.1891C72.688 7.79935 70.7409 5.86384 68.3369 5.86384C68.3369 5.86384 60.598 5.86384 59.8982 5.86384C59.7952 5.86384 59.7047 5.81064 59.6553 5.7288L58.1939 3.35544Z" fill="white"/>
<path fill-rule="evenodd" clip-rule="evenodd" d="M34.9361 14.5104C34.9361 19.2858 38.8303 23.1568 43.6342 23.1568C45.783 23.1568 47.6313 22.4366 49.2614 21.1026C49.3726 20.9921 49.5578 20.9921 49.6689 21.1067L51.3526 22.7803C51.4637 22.8908 51.4637 23.0791 51.3485 23.1855C49.1338 25.076 46.5651 26.0908 43.6342 26.0908C37.2002 26.0908 31.9805 20.9062 31.9805 14.5063C31.9805 8.11053 37.196 2.92188 43.6342 2.92188C46.5651 2.92188 49.1338 3.94078 51.3485 5.82719C51.4637 5.93768 51.4637 6.12182 51.3526 6.2323L49.6689 7.90593C49.5578 8.02051 49.3726 8.02051 49.2614 7.91002C47.6313 6.57603 45.783 5.85584 43.6342 5.85584C38.8303 5.85993 34.9361 9.73505 34.9361 14.5104Z" fill="white"/>
<path fill-rule="evenodd" clip-rule="evenodd" d="M95.8018 26.0864C95.9583 26.0864 96.0941 25.9637 96.0941 25.8C96.0941 23.0256 96.0941 20.2553 96.0941 17.4809C96.0941 17.4359 96.1065 17.395 96.127 17.3541C98.6299 13.0329 104.64 3.3349 104.636 3.3349C104.735 3.15076 104.603 2.92161 104.389 2.91752C103.446 2.88887 102.499 2.91752 101.557 2.91752C101.454 2.91752 101.371 2.97071 101.314 3.05255C99.272 6.56758 94.8633 13.5158 94.8633 13.5158C94.8139 13.6017 94.7192 13.659 94.6122 13.659C94.5093 13.659 94.4228 13.6058 94.3693 13.5281C94.4146 13.6058 89.9112 6.48983 87.9106 3.05255C87.8529 2.96662 87.7706 2.91752 87.6677 2.91752C86.725 2.91752 85.7782 2.88887 84.8356 2.91752C84.6215 2.92161 84.4898 3.14667 84.5886 3.3349C84.5844 3.3349 90.5986 13.0329 93.0973 17.3541C93.1179 17.395 93.1302 17.4359 93.1302 17.4809C93.1302 20.2553 93.1302 23.0256 93.1302 25.8C93.1302 25.9637 93.262 26.0864 93.4225 26.0864H95.8018Z" fill="white"/>
</svg>
