<svg width="219" height="20" viewBox="0 0 219 20" fill="none" xmlns="http://www.w3.org/2000/svg">
<path fill-rule="evenodd" clip-rule="evenodd" d="M99.2406 0H100.158V20H99.2406V0Z" fill="white"/>
<path fill-rule="evenodd" clip-rule="evenodd" d="M9.58688 6.3234L9.57983 6.33524L9.57221 6.34737L9.55895 6.36881L9.55388 6.37728L9.20322 6.94742L9.15385 7.02754L9.10278 7.11104L9.07062 7.16295L9.04947 7.19736L8.99446 7.28707C6.81828 10.8236 4.64662 14.362 2.47354 17.9002C2.43179 17.9592 2.37086 17.9945 2.29441 17.995H0.211326C0.0516534 17.995 -0.0484941 17.8345 0.0240075 17.7042C0.0172369 17.6977 9.58124 2.10335 9.58688 2.10335C9.66869 1.97725 9.8656 1.97725 9.9477 2.10335C9.95334 2.10335 19.5173 17.6977 19.5103 17.7042C19.5828 17.8345 19.4829 17.995 19.323 17.995H17.2402C17.1634 17.9947 17.1025 17.9592 17.0607 17.9002C14.8877 14.362 12.716 10.8236 10.5398 7.28707L10.4848 7.19736L10.4637 7.16295L10.4315 7.11104L10.3599 6.99453L10.3308 6.94742L9.98014 6.37728L9.97506 6.36881L9.9618 6.34737L9.95447 6.33524L9.94713 6.3234C9.93077 6.29801 9.90933 6.27769 9.88507 6.26274V6.26246L9.87943 6.25908L9.87378 6.25597V6.25569L9.86786 6.25287V6.25258L9.86194 6.24976V6.24948L9.85601 6.24695V6.24666L9.84981 6.24441L9.84388 6.24215H9.8436L9.83768 6.23989L9.82526 6.23594L9.81257 6.23312L9.80636 6.23199L9.79987 6.23086L9.79338 6.23001L9.78661 6.22917L9.77364 6.22861V6.22832H9.76715L9.75417 6.22861L9.74768 6.22889L9.73471 6.23058L9.72822 6.23171L9.72201 6.23284L9.71552 6.23425L9.70903 6.23594L9.70283 6.23763L9.70254 6.23791L9.69634 6.23989L9.69013 6.24215L9.68421 6.24441L9.678 6.24666V6.24695L9.67208 6.24948V6.24976L9.66615 6.25258V6.25287L9.66051 6.25569V6.25597L9.65487 6.25908L9.64923 6.26246V6.26274C9.62497 6.27769 9.60381 6.29772 9.58688 6.3234ZM9.59704 10.3005L7.55402 13.602L7.55458 13.6029C7.54132 13.6297 7.53399 13.6596 7.53399 13.6912C7.53399 13.8015 7.62341 13.8909 7.73344 13.8909H11.8014C11.9117 13.8909 12.0009 13.8015 12.0009 13.6912C12.0009 13.6593 11.9935 13.6294 11.9803 13.6029L11.9808 13.602L9.93754 10.3005C9.90228 10.2433 9.83937 10.2052 9.76715 10.2052C9.69521 10.2052 9.63202 10.2433 9.59704 10.3005Z" fill="white"/>
<path fill-rule="evenodd" clip-rule="evenodd" d="M80.885 15.9673L88.7533 15.967C88.8616 15.967 88.9493 16.0548 88.9493 16.1631V17.7951C88.9493 17.9034 88.8616 17.9911 88.7533 17.9911H78.8663C78.7579 17.9911 78.6702 17.9034 78.6702 17.7951V2.21655C78.6702 2.10822 78.7579 2.02048 78.8663 2.02048H80.4983C80.6066 2.02048 80.6943 2.10822 80.6943 2.21655V15.7763C80.6966 15.8807 80.7806 15.9645 80.885 15.9673Z" fill="white"/>
<path fill-rule="evenodd" clip-rule="evenodd" d="M39.8801 2.3167C39.8051 2.18834 39.8976 2.02021 40.0463 2.02021C42.3085 2.02021 44.5707 2.02021 46.8329 2.02021C49.5973 2.02021 51.8384 4.26127 51.8384 7.02564C51.8384 9.29322 50.3302 11.2084 48.2624 11.8237C48.2666 11.8237 51.8612 17.7065 51.8604 17.7071C51.932 17.8357 51.8333 17.9943 51.6756 17.9943H49.6182C49.5426 17.994 49.4822 17.959 49.441 17.9006C49.0416 17.2503 44.7803 10.3105 44.7792 10.3105C44.6977 10.1835 44.7849 10.0117 44.9392 10.0072C45.6137 10.0072 46.1584 10.0072 46.8329 10.0072C48.4796 10.0072 49.8145 8.6723 49.8145 7.02564C49.8145 5.37898 48.4796 4.04404 46.8329 4.04404C46.8329 4.04404 41.5302 4.04404 41.0489 4.04404C40.9787 4.04404 40.9169 4.00709 40.8819 3.9518L39.8801 2.3167Z" fill="white"/>
<path fill-rule="evenodd" clip-rule="evenodd" d="M23.9405 10.0058C23.9405 13.2983 26.6092 15.9673 29.9017 15.9673C31.3737 15.9673 32.6398 15.4697 33.7572 14.5511C33.8345 14.4738 33.9618 14.475 34.0374 14.554L35.1909 15.7078C35.2682 15.7848 35.2671 15.9126 35.1881 15.9882C33.6709 17.2904 31.9089 17.9917 29.9014 17.9917C25.4912 17.9917 21.9161 14.4166 21.9161 10.0061C21.9161 5.59591 25.4912 2.02048 29.9014 2.02048C31.9089 2.02048 33.6709 2.72152 35.1881 4.02373C35.2668 4.09933 35.2679 4.22713 35.1909 4.30414L34.0374 5.45796C33.9615 5.53695 33.8345 5.53808 33.7572 5.46078C32.6398 4.54224 31.3737 4.0446 29.9017 4.0446C26.6092 4.04432 23.9405 6.71334 23.9405 10.0058Z" fill="white"/>
<path fill-rule="evenodd" clip-rule="evenodd" d="M65.6534 17.9888C65.7615 17.9888 65.8529 17.9053 65.8529 17.7925C65.8529 15.8807 65.8529 13.9688 65.8529 12.057C65.8537 12.0254 65.8616 11.9963 65.8763 11.9689C67.5907 8.98933 71.71 2.3048 71.7086 2.30339C71.7754 2.17559 71.6849 2.01903 71.5382 2.01649C70.8916 1.99759 70.2433 2.01649 69.5965 2.01649C69.5251 2.01677 69.4687 2.05203 69.43 2.11015C68.0293 4.53288 65.0091 9.3242 65.0097 9.32278C64.9755 9.38175 64.9118 9.4218 64.8387 9.4218C64.769 9.4218 64.7075 9.38569 64.6726 9.33096C64.7033 9.38456 61.6165 4.47844 60.2474 2.11015C60.2088 2.05203 60.1524 2.01677 60.081 2.01649C59.4341 2.01649 58.7861 1.99759 58.1392 2.01649C57.9928 2.01903 57.9023 2.17559 57.9688 2.30339C57.9674 2.3048 62.0868 8.98933 63.8011 11.9689C63.8158 11.9966 63.8237 12.0257 63.8245 12.057C63.8245 13.9688 63.8245 15.8807 63.8245 17.7925C63.8245 17.9051 63.9159 17.9888 64.024 17.9888H65.6534Z" fill="white"/>
<path fill-rule="evenodd" clip-rule="evenodd" d="M110.723 5.2165H111.477V14.789H110.45V7.13286H108.672V6.51758C108.984 6.50855 109.265 6.45608 109.513 6.36044C109.763 6.26481 109.962 6.15535 110.108 6.03461C110.256 5.91161 110.376 5.78862 110.472 5.66336C110.568 5.53782 110.634 5.43541 110.668 5.35586L110.723 5.2165ZM115.162 13.4876C114.205 12.5304 113.726 11.3684 113.726 10.0013C113.726 8.63649 114.204 7.47449 115.162 6.5173C116.118 5.56011 117.281 5.08165 118.648 5.08165C119.131 5.08165 119.598 5.14992 120.042 5.28674C120.487 5.42131 120.856 5.58522 121.147 5.77648C121.439 5.96804 121.694 6.16156 121.915 6.35763C122.134 6.55369 122.294 6.71985 122.391 6.85893L122.544 7.06402L121.858 7.6793C121.831 7.6336 121.79 7.57435 121.738 7.50157C121.685 7.42878 121.56 7.29873 121.364 7.11198C121.168 6.92494 120.956 6.75878 120.726 6.61519C120.498 6.46934 120.195 6.33731 119.821 6.21657C119.447 6.09809 119.055 6.03659 118.648 6.03659C117.552 6.03659 116.629 6.41715 115.877 7.17799C115.125 7.93912 114.749 8.88023 114.749 10.001C114.749 11.1244 115.125 12.0655 115.877 12.8266C116.629 13.5878 117.552 13.968 118.648 13.968C119.056 13.968 119.447 13.911 119.821 13.7971C120.195 13.6831 120.504 13.5466 120.753 13.3869C120.999 13.2252 121.215 13.0678 121.404 12.9084C121.591 12.7513 121.723 12.6122 121.803 12.4915L121.93 12.325L122.612 12.9448C122.575 12.9996 122.521 13.0704 122.448 13.1567C122.375 13.2433 122.211 13.4004 121.96 13.6261C121.71 13.8541 121.443 14.0566 121.163 14.2346C120.882 14.4124 120.513 14.5717 120.058 14.7108C119.602 14.8522 119.13 14.9227 118.647 14.9227C117.281 14.9232 116.119 14.4448 115.162 13.4876ZM128.431 14.7887V5.21622H129.459V14.7887H128.431ZM139.092 5.2165H140.113V14.789H139.224L133.35 7.06459V14.789H132.322V5.2165H133.211L139.092 12.9454L139.092 5.2165ZM141.822 5.2165H148.865V6.17792H145.855V14.7887H144.832V6.17792H141.822L141.822 5.2165ZM151.595 13.834H157.269V14.7887H150.567V5.21622H157.13V6.17764H151.595V9.32201H156.034V10.2767H151.595V13.834ZM160.133 13.4876C159.176 12.5304 158.697 11.3684 158.697 10.0013C158.697 8.63649 159.176 7.47449 160.133 6.5173C161.09 5.56011 162.252 5.08165 163.619 5.08165C164.102 5.08165 164.569 5.14992 165.014 5.28674C165.458 5.42131 165.827 5.58522 166.119 5.77648C166.411 5.96804 166.666 6.16156 166.887 6.35763C167.106 6.55369 167.265 6.71985 167.363 6.85893L167.516 7.06402L166.83 7.6793C166.802 7.6336 166.762 7.57435 166.709 7.50157C166.657 7.42878 166.531 7.29873 166.335 7.11198C166.139 6.92494 165.927 6.75878 165.697 6.61519C165.469 6.46934 165.166 6.33731 164.792 6.21657C164.419 6.09809 164.027 6.03659 163.619 6.03659C162.523 6.03659 161.6 6.41715 160.848 7.17799C160.096 7.93912 159.72 8.88023 159.72 10.001C159.72 11.1244 160.096 12.0655 160.848 12.8266C161.6 13.5878 162.523 13.968 163.619 13.968C164.002 13.968 164.366 13.9223 164.713 13.8315C165.059 13.7404 165.344 13.6309 165.567 13.5034C165.791 13.3759 165.987 13.2529 166.155 13.1296C166.324 13.0066 166.445 12.8994 166.515 12.806L166.629 12.6715V10.8234H164.44V9.86873H167.65V12.9448C167.614 12.9996 167.559 13.0704 167.479 13.1567C167.401 13.2433 167.235 13.4004 166.982 13.6261C166.729 13.8541 166.456 14.0566 166.164 14.2346C165.872 14.4124 165.496 14.5717 165.036 14.7108C164.576 14.8522 164.102 14.9227 163.619 14.9227C162.252 14.9232 161.09 14.4448 160.133 13.4876ZM170.181 5.2165H174.007C174.853 5.2165 175.554 5.48986 176.113 6.03687C176.671 6.58359 176.951 7.26714 176.951 8.0875C176.951 8.49543 176.88 8.86923 176.744 9.2086C176.605 9.54572 176.441 9.81033 176.249 10.0016C176.058 10.1932 175.864 10.3571 175.668 10.4894C175.472 10.6239 175.308 10.7128 175.173 10.756L174.966 10.8242L177.224 14.789H176.062L173.938 10.9633H171.209V14.789H170.181L170.181 5.2165ZM174.007 6.17792H171.209V10.0013H174.007C174.588 10.0013 175.055 9.83036 175.402 9.48422C175.748 9.14005 175.921 8.67542 175.921 8.08976C175.921 7.50411 175.748 7.03919 175.402 6.69531C175.055 6.34888 174.588 6.17792 174.007 6.17792ZM184.6 11.1636L182.759 6.65186L180.909 11.1636H184.6ZM185.015 12.125H180.501L179.407 14.7887H178.311L182.278 5.21622H183.233L187.198 14.7887H186.108L185.015 12.125ZM186.99 5.2165V6.17792H190V14.7887H191.024V6.17792H194.034V5.2165H186.99ZM195.736 14.7887V5.21622H196.763V14.7887H195.736ZM201.163 7.17827C200.412 7.9394 200.036 8.88051 200.036 10.0013C200.036 11.1247 200.412 12.0658 201.163 12.8269C201.915 13.588 202.838 13.9683 203.934 13.9683C205.028 13.9683 205.951 13.5878 206.703 12.8269C207.455 12.0658 207.831 11.1247 207.831 10.0013C207.831 8.88023 207.455 7.93912 206.703 7.17827C205.951 6.41715 205.028 6.03687 203.934 6.03687C202.838 6.03687 201.915 6.41715 201.163 7.17827ZM207.418 6.51758C208.375 7.47449 208.854 8.63649 208.854 10.0016C208.854 11.3687 208.375 12.5307 207.418 13.4879C206.461 14.4448 205.299 14.9235 203.934 14.9235C202.567 14.9235 201.405 14.4451 200.448 13.4879C199.491 12.5307 199.012 11.3687 199.012 10.0016C199.012 8.63677 199.491 7.47477 200.448 6.51758C201.405 5.56039 202.567 5.08194 203.934 5.08194C205.299 5.08194 206.461 5.56039 207.418 6.51758ZM218.9 5.2165V14.789H218.011L212.137 7.06459V14.789H211.109V5.2165H211.998L217.879 12.9454V5.2165H218.9Z" fill="white"/>
</svg>
