<svg width="130" height="23" viewBox="0 0 130 23" fill="none" xmlns="http://www.w3.org/2000/svg">
<path fill-rule="evenodd" clip-rule="evenodd" d="M14.0031 11.9009L11.0228 16.5432C11.0022 16.5789 10.994 16.6226 10.994 16.6662C10.994 16.821 11.1257 16.9479 11.2863 16.9479H14.2542H17.2222C17.3827 16.9479 17.5145 16.821 17.5145 16.6662C17.5145 16.6226 17.5021 16.5789 17.4857 16.5432L14.5053 11.9009C14.4559 11.8216 14.3613 11.766 14.2584 11.766C14.1554 11.766 14.0566 11.8216 14.0031 11.9009ZM13.9908 6.30634L13.9784 6.32222L13.9661 6.33809L13.9455 6.36983L13.9373 6.38173L13.4268 7.18323L13.3857 7.25068L13.3568 7.29829L13.2827 7.41732L13.2375 7.48874L13.2045 7.53636L13.1222 7.66333C9.94841 12.635 6.78284 17.6145 3.60905 22.5901C3.5473 22.6734 3.46085 22.7211 3.34971 22.725H0.307639C0.0730007 22.725 -0.0710757 22.4989 0.0359525 22.3163C0.0277195 22.3084 13.9825 0.374513 13.9908 0.374513C14.1102 0.195963 14.3983 0.195963 14.5177 0.374513C14.5259 0.374513 28.4808 22.3084 28.4725 22.3163C28.5795 22.4989 28.4314 22.725 28.2008 22.725H25.1629C25.0517 22.725 24.9612 22.6734 24.8994 22.5901C21.7297 17.6145 18.5601 12.635 15.3863 7.66333L15.3039 7.53636L15.271 7.48874L15.2257 7.41732L15.1516 7.29829L15.1228 7.25068L15.0816 7.18323L14.5712 6.38173L14.563 6.36983L14.5424 6.33809L14.53 6.32222L14.5177 6.30634C14.493 6.27064 14.4642 6.24286 14.4271 6.22302L14.4189 6.21905L14.4107 6.21509L14.4024 6.21112L14.3942 6.20715L14.386 6.20318L14.3777 6.19921L14.3695 6.19525L14.3613 6.19128L14.353 6.18731L14.3448 6.18334L14.3242 6.17938H14.316H14.3077H14.2995H14.2913H14.283H14.2748H14.2666H14.246H14.2378H14.2295H14.2213H14.2131H14.2048H14.1966L14.1884 6.18334L14.1801 6.18731L14.1719 6.19128L14.1637 6.19525L14.1554 6.19921L14.1472 6.20318L14.139 6.20715L14.1307 6.21112L14.1225 6.21509L14.1143 6.21905L14.106 6.22302C14.0443 6.24286 14.0155 6.27064 13.9908 6.30634Z" fill="#282827"/>
<path fill-rule="evenodd" clip-rule="evenodd" d="M118.027 19.8721H129.507C129.664 19.8721 129.796 19.9951 129.796 20.1458V22.4432C129.796 22.594 129.668 22.7209 129.507 22.7209H115.079C114.923 22.7209 114.791 22.5979 114.791 22.4432V0.533115C114.791 0.38234 114.919 0.255371 115.079 0.255371H117.463C117.619 0.255371 117.751 0.378372 117.751 0.533115V19.6062C117.751 19.7491 117.874 19.8681 118.027 19.8721Z" fill="#282827"/>
<path fill-rule="evenodd" clip-rule="evenodd" d="M58.1939 0.671988C58.0828 0.493438 58.2186 0.255371 58.4368 0.255371C61.7382 0.255371 65.0396 0.255371 68.341 0.255371C72.3752 0.255371 75.6436 3.40579 75.6436 7.29421C75.6436 10.4843 73.4413 13.1784 70.424 14.0434C70.4322 14.0434 75.6766 22.3162 75.6725 22.3202C75.7754 22.5027 75.6313 22.7249 75.4008 22.7249H72.3999C72.2887 22.7249 72.2023 22.6733 72.1405 22.594C71.556 21.6774 65.3401 11.9206 65.3401 11.9206C65.2207 11.7421 65.3484 11.5001 65.5748 11.4921C66.5586 11.4921 67.3531 11.4921 68.3369 11.4921C70.7409 11.4921 72.688 9.61536 72.688 7.29818C72.688 4.981 70.7409 3.10424 68.3369 3.10424C68.3369 3.10424 60.5979 3.10424 59.8982 3.10424C59.7952 3.10424 59.7047 3.05265 59.6553 2.9733L58.1939 0.671988Z" fill="#282827"/>
<path fill-rule="evenodd" clip-rule="evenodd" d="M34.9361 11.4886C34.9361 16.119 38.8303 19.8725 43.6342 19.8725C45.783 19.8725 47.6313 19.1742 49.2614 17.8807C49.3726 17.7735 49.5578 17.7735 49.669 17.8846L51.3526 19.5075C51.4637 19.6146 51.4637 19.7971 51.3485 19.9003C49.1338 21.7334 46.5651 22.7174 43.6342 22.7174C37.2002 22.7174 31.9805 17.6902 31.9805 11.4846C31.9805 5.28298 37.196 0.251831 43.6342 0.251831C46.5651 0.251831 49.1338 1.23981 51.3485 3.06895C51.4637 3.17608 51.4637 3.35464 51.3526 3.46177L49.669 5.08459C49.5578 5.19568 49.3726 5.19568 49.2614 5.08855C47.6313 3.79506 45.783 3.09673 43.6342 3.09673C38.8303 3.1007 34.9361 6.85818 34.9361 11.4886Z" fill="#282827"/>
<path fill-rule="evenodd" clip-rule="evenodd" d="M95.8018 22.7139C95.9583 22.7139 96.0941 22.5948 96.0941 22.4361C96.0941 19.746 96.0941 17.0598 96.0941 14.3696C96.0941 14.326 96.1065 14.2863 96.127 14.2466C98.6298 10.0566 104.64 0.653019 104.636 0.653019C104.735 0.474469 104.603 0.252274 104.389 0.248306C103.446 0.220532 102.499 0.248306 101.557 0.248306C101.454 0.248306 101.371 0.299887 101.314 0.379243C99.272 3.78756 94.8633 10.5248 94.8633 10.5248C94.8139 10.6082 94.7192 10.6637 94.6122 10.6637C94.5093 10.6637 94.4228 10.6121 94.3693 10.5368C94.4146 10.6121 89.9112 3.71217 87.9106 0.379243C87.8529 0.295919 87.7706 0.248306 87.6677 0.248306C86.725 0.248306 85.7782 0.220532 84.8356 0.248306C84.6215 0.252274 84.4898 0.470501 84.5886 0.653019C84.5844 0.653019 90.5986 10.0566 93.0973 14.2466C93.1179 14.2863 93.1302 14.326 93.1302 14.3696C93.1302 17.0598 93.1302 19.746 93.1302 22.4361C93.1302 22.5948 93.262 22.7139 93.4225 22.7139H95.8018Z" fill="#282827"/>
</svg>
