<svg width="182" height="20" viewBox="0 0 182 20" fill="none" xmlns="http://www.w3.org/2000/svg">
<path fill-rule="evenodd" clip-rule="evenodd" d="M99.24 0H100.157V20H99.24V0Z" fill="#202020"/>
<path fill-rule="evenodd" clip-rule="evenodd" d="M110.448 5.21084H114.076C114.96 5.21084 115.697 5.49802 116.28 6.07296C116.862 6.64733 117.154 7.36303 117.154 8.22064C117.154 9.07768 116.862 9.79367 116.276 10.3703C115.69 10.9472 114.956 11.2347 114.076 11.2347H111.477V14.7889H110.448V5.21084ZM114.076 6.17339H111.477V10.2747H114.076C114.694 10.2747 115.191 10.0856 115.564 9.71158C115.938 9.33778 116.125 8.84297 116.125 8.22318C116.125 7.60536 115.938 7.10829 115.564 6.7345C115.191 6.35986 114.694 6.17339 114.076 6.17339ZM125.288 14.7887H119.338V5.21084H120.366V13.8332H125.288V14.7887ZM132.187 11.1613L130.345 6.64705L128.494 11.1613H132.187ZM132.602 12.1239H128.086L126.991 14.7889H125.895L129.864 5.21112H130.819L134.786 14.7889H133.696L132.602 12.1239ZM134.579 5.21084V6.1731H137.591V14.7887H138.614V6.1731H141.626V5.21084H134.579ZM143.329 5.21084H149.827V6.1731H144.357V9.45147H148.732V10.4137H144.357V14.7887H143.329L143.329 5.21084ZM153 7.17402C152.247 7.93543 151.871 8.8771 151.871 9.99848C151.871 11.1227 152.248 12.0641 153 12.8258C153.752 13.5872 154.675 13.968 155.772 13.968C156.866 13.968 157.79 13.5872 158.542 12.8258C159.295 12.0644 159.671 11.1227 159.671 9.99848C159.671 8.87682 159.295 7.93543 158.542 7.17402C157.79 6.41233 156.867 6.03149 155.772 6.03149C154.675 6.03177 153.752 6.41233 153 7.17402ZM159.258 6.51304C160.216 7.47052 160.694 8.63336 160.694 9.99876C160.694 11.3667 160.216 12.5295 159.258 13.487C158.3 14.4445 157.138 14.9235 155.772 14.9235C154.404 14.9235 153.241 14.4445 152.284 13.487C151.326 12.5293 150.847 11.3664 150.847 9.99876C150.847 8.63308 151.326 7.47023 152.284 6.51304C153.241 5.55529 154.404 5.07655 155.772 5.07655C157.138 5.07655 158.3 5.55529 159.258 6.51304ZM162.951 5.21084H166.779C167.625 5.21084 168.328 5.48448 168.886 6.03149C169.445 6.57849 169.725 7.26289 169.725 8.08354C169.725 8.49174 169.654 8.86554 169.517 9.20548C169.378 9.5426 169.214 9.80749 169.023 9.99876C168.831 10.1903 168.637 10.3545 168.442 10.4865C168.245 10.6211 168.081 10.71 167.947 10.7531L167.74 10.8217L169.999 14.7887H168.836L166.711 10.9607H163.98V14.7887H162.952V5.21084H162.951ZM166.779 6.17339H163.979V9.99876H166.779C167.361 9.99876 167.828 9.82781 168.174 9.48138C168.521 9.13692 168.694 8.67173 168.694 8.08607C168.694 7.50014 168.521 7.03494 168.174 6.69049C167.828 6.34434 167.361 6.17339 166.779 6.17339ZM180.871 6.99404L177.039 12.0508L173.211 6.99404V14.7889H172.183V5.21112H173.072L177.039 10.414L181.006 5.21112H181.895V14.7889H180.871V6.99404Z" fill="#202020"/>
<path fill-rule="evenodd" clip-rule="evenodd" d="M9.5866 6.3234L9.57955 6.33524L9.57193 6.34737L9.55867 6.36881L9.55359 6.37728L9.20293 6.94742L9.15356 7.02754L9.1025 7.11104L9.07034 7.16295L9.04919 7.19736L8.99417 7.28707C6.818 10.8236 4.64634 14.362 2.47326 17.9002C2.43151 17.9592 2.37058 17.9945 2.29412 17.995H0.211325C0.0516524 17.995 -0.0484939 17.8345 0.0240077 17.7042C0.0172371 17.6977 9.58124 2.10335 9.58688 2.10335C9.66869 1.97725 9.8656 1.97725 9.9477 2.10335C9.95334 2.10335 19.5173 17.6977 19.5103 17.7042C19.5828 17.8345 19.4829 17.995 19.323 17.995H17.2402C17.1634 17.9947 17.1025 17.9592 17.0608 17.9002C14.8877 14.362 12.716 10.8236 10.5398 7.28707L10.4848 7.19736L10.4637 7.16295L10.4315 7.11104L10.3308 6.94742L9.98014 6.37728L9.97506 6.36881L9.9618 6.34737L9.95447 6.33524L9.94713 6.3234C9.93077 6.29801 9.90933 6.27769 9.88479 6.26274V6.26246L9.87915 6.25908L9.8735 6.25597V6.25569L9.86758 6.25287V6.25258L9.86166 6.24976V6.24948L9.85573 6.24694V6.24666L9.84953 6.24441L9.8436 6.24215L9.83739 6.23989L9.82498 6.23594H9.8247L9.812 6.23312L9.8058 6.23199H9.80552L9.79931 6.23086L9.79282 6.23001H9.79254L9.78605 6.22917L9.77307 6.22861V6.22832H9.76658L9.75361 6.22861L9.74712 6.22889L9.73414 6.23058L9.72765 6.23171L9.72145 6.23284L9.71496 6.23425L9.70847 6.23594L9.70226 6.23763L9.70198 6.23791L9.69578 6.23989L9.68957 6.24215L9.68364 6.24441L9.67744 6.24666V6.24694L9.67151 6.24948V6.24976L9.66559 6.25258V6.25287L9.65995 6.25569V6.25597L9.65431 6.25908H9.65402L9.64838 6.26246V6.26274C9.62468 6.27769 9.60324 6.29772 9.5866 6.3234ZM9.59647 10.3005L7.55317 13.602L7.55374 13.6029C7.54048 13.6297 7.53314 13.6596 7.53314 13.6912C7.53314 13.8015 7.62257 13.8909 7.73287 13.8909H11.8009C11.9112 13.8909 12.0006 13.8015 12.0006 13.6912C12.0006 13.6593 11.9933 13.6294 11.98 13.6029L11.9806 13.602L9.93726 10.3005C9.90228 10.2433 9.83909 10.2052 9.76687 10.2052C9.69493 10.2052 9.63174 10.2433 9.59647 10.3005Z" fill="#202020"/>
<path fill-rule="evenodd" clip-rule="evenodd" d="M80.8844 15.9673L88.7527 15.967C88.861 15.967 88.9487 16.0548 88.9487 16.1631V17.7951C88.9487 17.9034 88.861 17.9911 88.7527 17.9911H78.8654C78.757 17.9911 78.6693 17.9034 78.6693 17.7951V2.21655C78.6693 2.10822 78.757 2.02048 78.8654 2.02048H80.4974C80.6057 2.02048 80.6934 2.10822 80.6934 2.21655V15.7763C80.6963 15.8807 80.7803 15.9645 80.8844 15.9673Z" fill="#202020"/>
<path fill-rule="evenodd" clip-rule="evenodd" d="M39.8799 2.3167C39.8048 2.18834 39.8974 2.02021 40.0457 2.02021C42.308 2.02021 44.5702 2.02021 46.8324 2.02021C49.5968 2.02021 51.8378 4.26127 51.8378 7.02564C51.8378 9.29322 50.3297 11.2084 48.2616 11.8237C48.2658 11.8237 51.8604 17.7065 51.8596 17.7071C51.9312 17.8357 51.8325 17.9943 51.6748 17.9943H49.6174C49.5418 17.994 49.4814 17.959 49.4402 17.9006C49.0407 17.2503 44.7795 10.3105 44.7784 10.3105C44.6968 10.1835 44.784 10.0117 44.9383 10.0072C45.6128 10.0072 46.1576 10.0072 46.8321 10.0072C48.4788 10.0072 49.8137 8.6723 49.8137 7.02564C49.8137 5.37898 48.4788 4.04404 46.8321 4.04404C46.8321 4.04404 41.5293 4.04404 41.0484 4.04404C40.9781 4.04404 40.916 4.00709 40.8813 3.9518L39.8799 2.3167Z" fill="#202020"/>
<path fill-rule="evenodd" clip-rule="evenodd" d="M23.9402 10.0058C23.9402 13.2983 26.6089 15.9673 29.9014 15.9673C31.3735 15.9673 32.6396 15.4697 33.757 14.5511C33.8343 14.4738 33.9615 14.475 34.0371 14.554L35.1907 15.7078C35.2679 15.7848 35.2668 15.9126 35.1878 15.9882C33.6707 17.2904 31.9086 17.9917 29.9011 17.9917C25.491 17.9917 21.9155 14.4166 21.9155 10.0061C21.9155 5.59591 25.4907 2.02048 29.9011 2.02048C31.9086 2.02048 33.6707 2.72152 35.1878 4.02373C35.2665 4.09933 35.2677 4.22713 35.1907 4.30414L34.0371 5.45796C33.9612 5.53695 33.8343 5.53808 33.757 5.46078C32.6398 4.54224 31.3735 4.0446 29.9014 4.0446C26.6089 4.04432 23.9402 6.71334 23.9402 10.0058Z" fill="#202020"/>
<path fill-rule="evenodd" clip-rule="evenodd" d="M65.6529 17.9888C65.7609 17.9888 65.8523 17.9053 65.8523 17.7925C65.8523 15.8807 65.8523 13.9688 65.8523 12.057C65.8532 12.0254 65.8611 11.9963 65.8758 11.9689C67.5901 8.98933 71.7094 2.3048 71.708 2.30339C71.7749 2.17559 71.6843 2.01903 71.5377 2.01649C70.8911 1.99759 70.2428 2.01649 69.5959 2.01649C69.5245 2.01677 69.4681 2.05203 69.4295 2.11015C68.0288 4.53288 65.0086 9.32419 65.0094 9.32278C64.9753 9.38175 64.9115 9.4218 64.8384 9.4218C64.7688 9.4218 64.7073 9.38569 64.6723 9.33096C64.703 9.38456 61.6162 4.47844 60.2472 2.11015C60.2085 2.05203 60.1521 2.01677 60.0807 2.01649C59.4338 2.01649 58.7858 1.99759 58.139 2.01649C57.9925 2.01903 57.902 2.17559 57.9686 2.30339C57.9672 2.3048 62.0865 8.98933 63.8009 11.9689C63.8155 11.9966 63.8234 12.0257 63.8243 12.057C63.8243 13.9688 63.8243 15.8807 63.8243 17.7925C63.8243 17.9051 63.9157 17.9888 64.0237 17.9888H65.6529Z" fill="#202020"/>
</svg>
