<svg width="219" height="29" viewBox="0 0 219 29" fill="none" xmlns="http://www.w3.org/2000/svg">
<path fill-rule="evenodd" clip-rule="evenodd" d="M144.812 0.389465H145.479H146.15V28.9097H145.479H144.812V0.389465Z" fill="#282827"/>
<path d="M209.96 20.1166H218.242V21.4809H208.462V7.81835H218.041V9.19064H209.96V13.6777H216.439V15.042H209.96V20.1166ZM197.882 9.19064H194.988V20.1166H197.882C199.521 20.1166 200.891 19.5854 202.003 18.527C203.114 17.4686 203.67 16.1768 203.67 14.6556C203.67 13.1345 203.114 11.8427 202.003 10.7843C200.896 9.72185 199.521 9.19064 197.882 9.19064ZM193.49 7.81835H197.882C199.92 7.81835 201.637 8.48639 203.048 9.82648C204.46 11.1666 205.164 12.7723 205.164 14.6436C205.164 16.5189 204.46 18.1246 203.048 19.4647C201.637 20.8048 199.92 21.4728 197.882 21.4728H193.49V7.81835ZM188.102 9.67356C189.497 11.0378 190.197 12.6958 190.197 14.6436C190.197 16.5954 189.497 18.2534 188.102 19.6176C186.706 20.9819 185.01 21.666 183.018 21.666C181.021 21.666 179.325 20.9819 177.93 19.6176C176.534 18.2534 175.834 16.5954 175.834 14.6436C175.834 12.6958 176.534 11.0378 177.93 9.67356C179.325 8.30932 181.021 7.62518 183.018 7.62518C185.006 7.62518 186.706 8.30932 188.102 9.67356ZM178.971 10.6193C177.872 11.7058 177.325 13.05 177.325 14.6476C177.325 16.2493 177.872 17.5934 178.971 18.68C180.07 19.7665 181.416 20.3098 183.018 20.3098C184.615 20.3098 185.961 19.7665 187.06 18.68C188.159 17.5934 188.707 16.2493 188.707 14.6476C188.707 13.0459 188.159 11.7058 187.06 10.6193C185.961 9.53271 184.615 8.98942 183.018 8.98942C181.416 8.98942 180.066 9.53271 178.971 10.6193ZM171.047 7.81835H172.537V21.4769H171.24L162.666 10.4543V21.4769H161.167V7.81835H162.464L171.051 18.849V7.81835H171.047Z" fill="#282827"/>
<path fill-rule="evenodd" clip-rule="evenodd" d="M14.0031 15.0782L11.0228 19.7867C11.0022 19.8229 10.994 19.8671 10.994 19.9114C10.994 20.0684 11.1257 20.1971 11.2863 20.1971H14.2542H17.2222C17.3827 20.1971 17.5145 20.0684 17.5145 19.9114C17.5145 19.8671 17.5021 19.8229 17.4857 19.7867L14.5053 15.0782C14.4559 14.9977 14.3613 14.9414 14.2584 14.9414C14.1554 14.9414 14.0566 14.9977 14.0031 15.0782ZM13.9908 9.40393L13.9784 9.42003L13.9661 9.43613L13.9455 9.46832L13.9373 9.48039L13.4268 10.2933L13.3857 10.3617L13.3568 10.41L13.2827 10.5307L13.2375 10.6032L13.2045 10.6515L13.1222 10.7802C9.94841 15.8227 6.78284 20.8732 3.60905 25.9197C3.5473 26.0042 3.46085 26.0525 3.34971 26.0565H0.307639C0.0730007 26.0565 -0.0710757 25.8271 0.0359525 25.642C0.0277195 25.634 13.9825 3.38759 13.9908 3.38759C14.1102 3.2065 14.3983 3.2065 14.5177 3.38759C14.5259 3.38759 28.4808 25.634 28.4725 25.642C28.5795 25.8271 28.4314 26.0565 28.2008 26.0565H25.1629C25.0517 26.0565 24.9612 26.0042 24.8994 25.9197C21.7297 20.8732 18.5601 15.8227 15.3863 10.7802L15.3039 10.6515L15.271 10.6032L15.2257 10.5307L15.1516 10.41L15.1228 10.3617L15.0816 10.2933L14.5712 9.48039L14.563 9.46832L14.5424 9.43613L14.53 9.42003L14.5177 9.40393C14.493 9.36771 14.4642 9.33954 14.4271 9.31942L14.4189 9.3154L14.4107 9.31137L14.4024 9.30735L14.3942 9.30333L14.386 9.2993L14.3777 9.29528L14.3695 9.29125L14.3613 9.28723L14.353 9.2832L14.3448 9.27918L14.3242 9.27516H14.316H14.3077H14.2995H14.2913H14.283H14.2748H14.2666H14.246H14.2378H14.2295H14.2213H14.2131H14.2048H14.1966L14.1884 9.27918L14.1801 9.2832L14.1719 9.28723L14.1637 9.29125L14.1554 9.29528L14.1472 9.2993L14.139 9.30333L14.1307 9.30735L14.1225 9.31137L14.1143 9.3154L14.106 9.31942C14.0443 9.33954 14.0155 9.36771 13.9908 9.40393Z" fill="#282827"/>
<path fill-rule="evenodd" clip-rule="evenodd" d="M118.027 23.163H129.507C129.664 23.163 129.796 23.2878 129.796 23.4407V25.7708C129.796 25.9237 129.668 26.0525 129.507 26.0525H115.079C114.923 26.0525 114.791 25.9277 114.791 25.7708V3.54855C114.791 3.39562 114.919 3.26685 115.079 3.26685H117.463C117.619 3.26685 117.751 3.3916 117.751 3.54855V22.8934C117.751 23.0383 117.874 23.159 118.027 23.163Z" fill="#282827"/>
<path fill-rule="evenodd" clip-rule="evenodd" d="M58.1939 3.6894C58.0828 3.5083 58.2186 3.26685 58.4368 3.26685C61.7382 3.26685 65.0396 3.26685 68.341 3.26685C72.3752 3.26685 75.6436 6.46215 75.6436 10.406C75.6436 13.6415 73.4413 16.374 70.424 17.2513C70.4322 17.2513 75.6766 25.642 75.6725 25.646C75.7754 25.8311 75.6313 26.0565 75.4008 26.0565H72.3999C72.2887 26.0565 72.2023 26.0042 72.1405 25.9237C71.556 24.9941 65.3401 15.0983 65.3401 15.0983C65.2207 14.9172 65.3484 14.6717 65.5748 14.6637C66.5586 14.6637 67.3531 14.6637 68.3369 14.6637C70.7409 14.6637 72.688 12.7602 72.688 10.41C72.688 8.0598 70.7409 6.1563 68.3369 6.1563C68.3369 6.1563 60.5979 6.1563 59.8982 6.1563C59.7952 6.1563 59.7047 6.10398 59.6553 6.0235L58.1939 3.6894Z" fill="#282827"/>
<path fill-rule="evenodd" clip-rule="evenodd" d="M34.9361 14.6597C34.9361 19.356 38.8303 23.163 43.6342 23.163C45.783 23.163 47.6313 22.4547 49.2614 21.1428C49.3726 21.0342 49.5578 21.0342 49.669 21.1468L51.3526 22.7928C51.4637 22.9014 51.4637 23.0866 51.3485 23.1912C49.1338 25.0504 46.5651 26.0485 43.6342 26.0485C37.2002 26.0485 31.9805 20.9497 31.9805 14.6556C31.9805 8.36564 37.196 3.26282 43.6342 3.26282C46.5651 3.26282 49.1338 4.26487 51.3485 6.12008C51.4637 6.22873 51.4637 6.40983 51.3526 6.51848L49.669 8.16442C49.5578 8.27711 49.3726 8.27711 49.2614 8.16845C47.6313 6.85652 45.783 6.14825 43.6342 6.14825C38.8303 6.15227 34.9361 9.96329 34.9361 14.6597Z" fill="#282827"/>
<path fill-rule="evenodd" clip-rule="evenodd" d="M95.8018 26.0445C95.9583 26.0445 96.0941 25.9237 96.0941 25.7628C96.0941 23.0343 96.0941 20.3098 96.0941 17.5814C96.0941 17.5371 96.1065 17.4969 96.127 17.4566C98.6298 13.2069 104.64 3.66934 104.636 3.66934C104.735 3.48824 104.603 3.26288 104.389 3.25886C103.446 3.23069 102.499 3.25886 101.557 3.25886C101.454 3.25886 101.371 3.31117 101.314 3.39166C99.272 6.84854 94.8633 13.6818 94.8633 13.6818C94.8139 13.7663 94.7192 13.8227 94.6122 13.8227C94.5093 13.8227 94.4228 13.7703 94.3693 13.6939C94.4146 13.7703 89.9112 6.77208 87.9106 3.39166C87.8529 3.30715 87.7706 3.25886 87.6677 3.25886C86.725 3.25886 85.7782 3.23069 84.8356 3.25886C84.6215 3.26288 84.4898 3.48422 84.5886 3.66934C84.5844 3.66934 90.5986 13.2069 93.0973 17.4566C93.1179 17.4969 93.1302 17.5371 93.1302 17.5814C93.1302 20.3098 93.1302 23.0343 93.1302 25.7628C93.1302 25.9237 93.262 26.0445 93.4225 26.0445H95.8018Z" fill="#282827"/>
</svg>
