<svg width="30" height="32" viewBox="0 0 30 32" fill="none" xmlns="http://www.w3.org/2000/svg">
<path d="M29.371 8.99422C29.7616 8.60369 29.7616 7.97053 29.371 7.58L23.0071 1.21604C22.6165 0.825517 21.9834 0.825517 21.5929 1.21604C21.2023 1.60657 21.2023 2.23973 21.5929 2.63026L27.2497 8.28711L21.5929 13.944C21.2023 14.3345 21.2023 14.9677 21.5929 15.3582C21.9834 15.7487 22.6165 15.7487 23.0071 15.3582L29.371 8.99422ZM1.33545 9.28711H28.6639V7.28711H1.33545V9.28711Z" fill="#FFDD01"/>
<path d="M0.628485 23.2236C0.237961 23.6141 0.237961 24.2472 0.628485 24.6378L6.99245 31.0017C7.38297 31.3923 8.01614 31.3923 8.40666 31.0017C8.79718 30.6112 8.79718 29.978 8.40666 29.5875L2.74981 23.9307L8.40666 18.2738C8.79718 17.8833 8.79718 17.2501 8.40666 16.8596C8.01614 16.4691 7.38297 16.4691 6.99245 16.8596L0.628485 23.2236ZM28.6641 22.9307L1.33559 22.9307L1.33559 24.9307L28.6641 24.9307L28.6641 22.9307Z" fill="#FFDD01"/>
</svg>
