<svg width="48" height="30" viewBox="0 0 48 30" fill="none" xmlns="http://www.w3.org/2000/svg">
<path d="M47.5767 8.85298C47.9672 8.46246 47.9672 7.82929 47.5767 7.43877L41.2127 1.07481C40.8222 0.684282 40.189 0.684282 39.7985 1.07481C39.408 1.46533 39.408 2.0985 39.7985 2.48902L45.4553 8.14587L39.7985 13.8027C39.408 14.1933 39.408 14.8264 39.7985 15.2169C40.189 15.6075 40.8222 15.6075 41.2127 15.2169L47.5767 8.85298ZM1.13232 9.14587H46.8695V7.14587H1.13232V9.14587Z" fill="#FFDD01"/>
<path d="M0.42432 21.5116C0.0337982 21.9022 0.0337982 22.5353 0.42432 22.9259L6.78828 29.2898C7.17881 29.6803 7.81197 29.6803 8.20249 29.2898C8.59302 28.8993 8.59302 28.2661 8.2025 27.8756L2.54564 22.2187L8.2025 16.5619C8.59302 16.1714 8.59302 15.5382 8.2025 15.1477C7.81197 14.7572 7.17881 14.7572 6.78828 15.1477L0.42432 21.5116ZM46.8687 21.2188L1.13143 21.2187L1.13143 23.2187L46.8687 23.2188L46.8687 21.2188Z" fill="#FFDD01"/>
</svg>
