<svg width="63" height="34" viewBox="0 0 63 34" fill="none" xmlns="http://www.w3.org/2000/svg">
<path d="M61.9553 8.32027C62.3458 7.92974 62.3458 7.29658 61.9553 6.90605L55.5913 0.542091C55.2008 0.151567 54.5676 0.151567 54.1771 0.542091C53.7866 0.932616 53.7866 1.56578 54.1771 1.95631L59.834 7.61316L54.1771 13.27C53.7866 13.6605 53.7866 14.2937 54.1771 14.6842C54.5676 15.0748 55.2008 15.0748 55.5913 14.6842L61.9553 8.32027ZM1.75183 8.61316H61.2482V6.61316H1.75183V8.61316Z" fill="#FFDD01"/>
<path d="M1.04471 25.2126C0.65419 25.6031 0.65419 26.2363 1.04471 26.6268L7.40867 32.9907C7.7992 33.3813 8.43236 33.3813 8.82289 32.9907C9.21341 32.6002 9.21341 31.9671 8.82289 31.5765L3.16603 25.9197L8.82289 20.2628C9.21341 19.8723 9.21341 19.2391 8.82289 18.8486C8.43236 18.4581 7.7992 18.4581 7.40867 18.8486L1.04471 25.2126ZM61.2482 24.9197L1.75182 24.9197L1.75182 26.9197L61.2482 26.9197L61.2482 24.9197Z" fill="#FFDD01"/>
</svg>
