<?xml version="1.0" encoding="UTF-8"?>
<svg width="54px" height="55px" viewBox="0 0 54 55" version="1.1" xmlns="http://www.w3.org/2000/svg" xmlns:xlink="http://www.w3.org/1999/xlink">
    <!-- Generator: Sketch 52.5 (67469) - http://www.bohemiancoding.com/sketch -->
    <title>acryl logo</title>
    <desc>Created with Sketch.</desc>
    <defs>
        <polygon id="path-1" points="5.68421053e-06 0.00538421053 53.9947705 0.00538421053 53.9947705 54.9999826 5.68421053e-06 54.9999826"></polygon>
    </defs>
    <g id="Page-1" stroke="none" stroke-width="1" fill="none" fill-rule="evenodd">
        <g id="Desktop-HD" transform="translate(-600.000000, -5036.000000)">
            <g id="acryl-logo" transform="translate(600.000000, 5036.000000)">
                <g id="Group-3">
                    <mask id="mask-2" fill="white">
                        <use xlink:href="#path-1"></use>
                    </mask>
                    <g id="Clip-2"></g>
                    <path d="M34.5453404,45.8163142 C32.1700225,46.8527458 29.6149699,47.37843 26.9518604,47.37843 C24.2887509,47.37843 21.7518878,46.8527458 19.4106183,45.8187458 C17.0486583,44.7760616 14.961132,43.3400984 13.2051088,41.5491247 C11.4479488,39.7619142 10.0380373,37.63573 9.01436779,35.23003 C7.99791726,32.8452879 7.48298463,30.2615037 7.48298463,27.5490774 C7.48298463,24.8366511 7.99911095,22.2342247 9.01675516,19.8149774 C10.0404815,17.3832826 11.4491425,15.2435511 13.2063025,13.4550668 C14.9647699,11.6640353 17.0522962,10.2280142 19.4106183,9.18660368 C21.7518878,8.15133 24.2887509,7.62697737 26.9518604,7.62697737 C29.6149699,7.62697737 32.1700225,8.15260368 34.5453404,9.18909316 C35.4877257,9.60095632 36.3863425,10.0734353 37.2364162,10.6077458 C38.5370204,11.4204142 39.7258731,12.3727826 40.7884225,13.4550668 C41.3580373,14.0351142 41.8911025,14.6522721 42.3853446,15.3041668 C43.4187341,16.6634774 44.2870541,18.1736616 44.9780267,19.8149774 C45.9956709,22.2342247 46.5117973,24.8366511 46.5117973,27.5490774 C46.5117973,30.2615037 45.9969215,32.8452879 44.9804709,35.23003 C44.2543131,36.9368826 43.3313109,38.5052511 42.2262436,39.9115721 C41.7781573,40.4854247 41.2984667,41.0321247 40.7896731,41.5503405 C39.634812,42.7253721 38.3305131,43.74953 36.8939425,44.6078774 C36.1459004,45.0569089 35.3626162,45.4588721 34.5453404,45.8163142 M51.874452,16.8217616 C51.6558941,16.3047037 51.4239215,15.7963879 51.1786478,15.2979721 C50.3577341,13.6257405 49.3886331,12.0573721 48.2799278,10.6077458 C47.5986752,9.71599316 46.8639341,8.86876158 46.0783194,8.06848263 C43.6337678,5.57987737 40.7422667,3.59350895 37.4829404,2.16374053 C34.2101994,0.731424737 30.6666625,0.00536684211 26.9518604,0.00536684211 C23.2322836,0.00536684211 19.7032415,0.732640526 16.4596604,2.16611421 C13.2343257,3.59478263 10.3598773,5.57987737 7.91776989,8.06848263 C5.46952358,10.5607932 3.51932779,13.5057247 2.12038674,16.8217616 C0.714113053,20.1526774 5.68421053e-06,23.7617774 5.68421053e-06,27.5490774 C5.68421053e-06,31.3413563 0.714113053,34.9356932 2.12152358,38.2343616 C3.52165832,41.5182089 5.47077411,44.44583 7.91657621,46.9357089 C10.3622646,49.4279616 13.2367131,51.4131142 16.4596604,52.8379616 C19.6996036,54.2727089 23.2285888,54.9999826 26.9518604,54.9999826 C30.6703004,54.9999826 34.2320267,54.3147984 37.4829404,52.8404511 C38.3985531,52.4260984 39.2231046,52.0871826 39.9675088,51.8125879 C42.6379509,50.8255405 45.5657741,51.6666932 47.4954499,53.79033 C48.2009741,54.5671037 49.2222562,55.0396405 50.3492078,54.9962774 C52.3492541,54.9196247 53.9024646,53.1818563 53.9024646,51.1434984 C53.9024646,51.1434984 53.9947762,28.3369668 53.9947762,27.5490774 C53.9947762,23.7655405 53.2819194,20.1563247 51.874452,16.8217616" id="Fill-1" fill="#FF5E39" mask="url(#mask-2)"></path>
                </g>
                <path d="M37,27 C37,32.5228392 32.5228392,37 27,37 C21.4771608,37 17,32.5228392 17,27 C17,21.4771608 21.4771608,17 27,17 C32.5228392,17 37,21.4771608 37,27" id="Fill-4" fill="#FF5E39"></path>
            </g>
        </g>
    </g>
</svg>