<?xml version="1.0" encoding="UTF-8"?>
<svg width="140px" height="35px" viewBox="0 0 140 35" version="1.1" xmlns="http://www.w3.org/2000/svg" xmlns:xlink="http://www.w3.org/1999/xlink">
    <!-- Generator: Sketch 52.5 (67469) - http://www.bohemiancoding.com/sketch -->
    <title>acryl logo </title>
    <desc>Created with Sketch.</desc>
    <defs>
        <polygon id="path-1" points="0.00517594937 0.106448276 28.9771549 0.106448276 28.9771549 34.928408 0.00517594937 34.928408"></polygon>
        <polygon id="path-3" points="0.066362963 0.0847852321 16.9568074 0.0847852321 16.9568074 28.9580173 0.066362963 28.9580173"></polygon>
    </defs>
    <g id="Page-1" stroke="none" stroke-width="1" fill="none" fill-rule="evenodd">
        <g id="Desktop-HD" transform="translate(-250.000000, -86.000000)">
            <g id="acryl-logo-" transform="translate(250.000000, 86.000000)">
                <path d="M21.907405,21.9075579 C20.9645114,22.8506933 19.8360379,23.6075122 18.5535698,24.1572443 C17.2779843,24.7037811 15.9059217,24.9810437 14.4751126,24.9810437 C13.0452868,24.9810437 11.6825646,24.7042727 10.4249226,24.1585962 C9.15671101,23.6086183 8.03548861,22.8514307 7.09222632,21.9071892 C6.14859533,20.9644225 5.39128168,19.8433278 4.84142429,18.5748758 C4.29562262,17.3174849 4.01897331,15.9547685 4.01897331,14.5249487 C4.01897331,13.0941457 4.29611422,11.7219661 4.8427762,10.4465088 C5.39238779,9.16404621 6.14933273,8.03557746 7.09259503,7.09256497 C8.03708632,6.14795477 9.15830872,5.39052144 10.4250455,4.84152667 C11.6825646,4.29572731 13.0452868,4.01907918 14.4751126,4.01907918 C15.9059217,4.01907918 17.2779843,4.29621891 18.5536927,4.84300147 C19.834563,5.39175044 20.9630366,6.14869217 21.9072821,7.09231917 C22.8514047,8.03705226 23.6083496,9.16539811 24.1572238,10.4465088 C24.7037629,11.7219661 24.9810267,13.0941457 24.9810267,14.5249487 C24.9810267,15.9547685 24.7042545,17.3174849 24.1584528,18.5751216 C23.6094557,19.8417301 22.8521421,20.9628248 21.907405,21.9075579 M24.7480071,4.25209778 C23.4355513,2.93940177 21.882579,1.89192419 20.1316139,1.13830076 C18.374012,0.382956722 16.4710188,0 14.4751126,0 C12.4777317,0 10.5821124,0.383448323 8.8403648,1.13977556 C7.1077118,1.89278449 5.56407996,2.93989337 4.2521158,4.25197488 C2.93769362,5.56614568 1.8900887,7.11923429 1.13830558,8.86797986 C0.382958345,10.6239765 0,12.5273304 0,14.5249487 C0,16.5240418 0.383327047,18.4198988 1.13953459,20.159304 C1.89107191,21.8905977 2.93818522,23.4344688 4.2519929,24.7479022 C5.56555477,26.0618272 7.10943241,27.1088132 8.8403648,27.8603473 C10.580146,28.6166746 12.4760111,29 14.4751126,29 C16.4727394,29 18.3855647,28.6387966 20.1317368,27.8615763 C20.6232164,27.6429371 21.066396,27.4643632 21.4659459,27.319464 C22.9005649,26.7992278 24.4727097,27.2427743 25.5096223,28.3625172 C25.888402,28.7717745 26.4369075,29.0213846 27.0421931,28.9985252 C28.1163445,28.9579682 28.950471,28.0413792 28.950471,26.9666178 C28.950471,26.9666178 29,14.9402282 29,14.5249487 C29,12.529051 28.6171646,10.6259429 27.8615715,8.86785696 C27.1080678,7.11751369 26.0607087,5.56454798 24.7480071,4.25209778" id="Fill-1" fill="#FFFFFF"></path>
                <path d="M42.0700705,7.07329023 C43.0269185,6.12957246 44.1513859,5.37312847 45.4125633,4.82490254 C46.6626231,4.28108594 48.033755,4.00525825 49.4879636,4.00525825 L57.0023722,4.00525825 C58.1038713,4.00525825 59,3.10685853 59,2.00256788 C59,0.89839972 58.1038713,0 57.0023722,0 L49.4879636,0 C47.5032859,0 45.6113365,0.381651469 43.8646491,1.1345435 C42.1254142,1.88474095 40.5815317,2.92852588 39.276006,4.23748263 C37.970969,5.54582698 36.922248,7.09141745 36.159042,8.83126312 C35.3899717,10.5834794 35,12.4824282 35,14.47532 C35,16.4688243 35.3899717,18.3678956 36.1589198,20.1190095 C36.9213928,21.8581203 37.9701138,23.4038332 39.2761282,24.7131574 C40.5818982,26.0222367 42.123826,27.0736154 43.858174,27.8378982 C45.6053501,28.60904 47.4993764,29 49.4879636,29 L57.0023722,29 C58.1038713,29 59,28.1017228 59,26.9973096 C59,25.8931415 58.1038713,24.9947418 57.0023722,24.9947418 L49.4879636,24.9947418 C48.033755,24.9947418 46.6626231,24.7189141 45.4124411,24.1752199 C44.1529741,23.6274839 43.0299728,22.864426 42.0750795,21.9069903 C41.1200641,20.9496771 40.3588129,19.8238298 39.8125837,18.5610484 C39.2701418,17.3078206 38.9951335,15.9332139 38.9951335,14.47532 C38.9951335,13.0493937 39.2707526,11.6820134 39.8140497,10.4107809 C40.3593016,9.13538398 41.1183537,8.01247619 42.0700705,7.07329023" id="Fill-3" fill="#FFFFFF"></path>
                <g id="Group-7" transform="translate(87.000000, 0.000000)">
                    <mask id="mask-2" fill="white">
                        <use xlink:href="#path-1"></use>
                    </mask>
                    <g id="Clip-6"></g>
                    <path d="M26.9763996,0.106412069 L26.9312477,0.106412069 C25.8239861,0.106412069 24.9263321,0.991791379 24.9263321,2.08403276 L24.9263321,14.4187569 C24.9263321,15.8238259 24.6512603,17.1718086 24.1061338,18.4237224 C23.5596612,19.6829983 22.8060283,20.7914121 21.8660367,21.7183086 C20.9273911,22.6442397 19.8110747,23.3887741 18.5492688,23.928981 C17.4491042,24.3985845 16.2537414,24.6661534 14.9907118,24.723481 C14.9067709,24.7283086 14.8229523,24.7307224 14.7377878,24.7319293 C14.6638806,24.7344638 14.5897287,24.73555 14.5158215,24.73555 L14.4911042,24.73555 C14.4085093,24.73555 14.325792,24.7344638 14.2444207,24.7319293 C14.1679439,24.7295155 14.0901211,24.7271017 14.0137667,24.7245672 C13.4822224,24.70405 12.9591211,24.6443086 12.4472772,24.5444983 C11.7441802,24.4107741 11.0620072,24.2039121 10.4057751,23.9264466 C9.13038692,23.3875672 8.00917595,22.6380845 7.07175401,21.6976707 C6.12943755,20.7548431 5.37445865,19.6440155 4.82566118,18.39705 C4.28285949,17.1609466 4.00656414,15.8068086 4.00656414,14.370119 L4.00656414,2.07980862 C4.00656414,0.968860345 3.07097764,0.0686362069 1.93471603,0.107739655 C0.848867932,0.145032759 0.00517594937,1.06046379 0.00517594937,2.13194655 L0.00517594937,14.370119 C0.00517594937,16.3324121 0.386213924,18.2022569 1.13874557,19.9251017 C1.88613797,21.6417914 2.92964852,23.1673086 4.23844177,24.4580845 C4.32226034,24.5408776 4.40620127,24.6212569 4.49124346,24.7027224 C4.49870759,24.7088776 4.50604937,24.7147914 4.5135135,24.7221534 C4.52464852,24.7331362 4.53566118,24.7429121 4.5467962,24.7525672 C5.78767806,25.9070845 7.22593122,26.8426707 8.828273,27.5373603 C9.36361055,27.7710155 9.91240802,27.9668948 10.4736865,28.1298259 C10.474543,28.1300672 10.4753996,28.1304293 10.4766232,28.1306707 C11.6360114,28.43505 12.4472772,29.4652569 12.4472772,30.6484983 L12.4472772,32.9027397 C12.4472772,33.9743431 13.2909692,34.8897741 14.3766949,34.9271879 C15.5130789,34.9661707 16.4486654,34.0659466 16.4486654,32.9549983 L16.4486654,30.8015328 C16.4486654,29.5545672 17.2929692,28.4609983 18.5117034,28.1294638 L18.5147624,28.1287397 C19.0734713,27.9656879 19.6223911,27.7698086 20.1552814,27.5373603 C21.6563068,26.8866017 23.0144122,26.0239121 24.1986401,24.9692052 C24.2775641,24.8986017 24.3552646,24.8267914 24.432965,24.754981 C24.4527878,24.7380845 24.4724882,24.7197397 24.490965,24.7027224 C24.5761295,24.6212569 24.6599481,24.5408776 24.7437667,24.4580845 C26.0537835,23.1673086 27.0960705,21.6417914 27.8448089,19.9251017 C28.5958722,18.2022569 28.9771549,16.3324121 28.9771549,14.370119 L28.9771549,2.07980862 C28.9771549,0.992153448 28.0803574,0.106412069 26.9763996,0.106412069" id="Fill-5" fill="#FFFFFF" mask="url(#mask-2)"></path>
                </g>
                <g id="Group-10" transform="translate(123.000000, 0.000000)">
                    <mask id="mask-4" fill="white">
                        <use xlink:href="#path-3"></use>
                    </mask>
                    <g id="Clip-9"></g>
                    <path d="M14.8977926,24.9566291 C13.4326444,24.9566291 12.0363778,24.6810679 10.7480296,24.1378992 C9.44847407,23.590203 8.29977778,22.8363253 7.33317037,21.8962114 C6.36631111,20.9575658 5.59048148,19.8413717 5.02683704,18.5784646 C4.46785185,17.3266924 4.18426667,15.9699329 4.18426667,14.5462409 L4.18426667,2.08554051 C4.18426667,0.982316878 3.2606,0.0847852321 2.12537778,0.0847852321 L2.12525185,0.0847852321 C0.99002963,0.0847852321 0.066362963,0.982316878 0.066362963,2.08554051 L0.066362963,14.5462409 C0.066362963,16.5365954 0.459125926,18.424165 1.23394815,20.156089 C2.00398519,21.8796924 3.07687407,23.4168148 4.4228963,24.7246291 C5.76891852,26.0326882 7.35067407,27.0750975 9.12421481,27.8233464 C10.9069481,28.5763675 12.8493556,28.9580173 14.8979185,28.9580173 C16.0332667,28.9580173 16.9569333,28.0604857 16.9569333,26.957262 C16.9569333,25.8541608 16.0332667,24.9566291 14.8977926,24.9566291" id="Fill-8" fill="#FFFFFF" mask="url(#mask-4)"></path>
                </g>
                <path d="M81.9677924,3.43142906 C81.9677924,4.54369385 81.092224,5.4457959 80.012555,5.4457959 C79.603519,5.4457959 79.2235891,5.31613409 78.9095057,5.09441855 C78.1300828,4.54418546 77.1483486,4.40186472 76.2749273,4.77315223 C76.2227988,4.79539753 76.1707895,4.81801153 76.1191381,4.84111714 C74.8879744,5.39171894 73.8001938,6.14879641 72.8840677,7.0926852 C71.9679415,8.03534497 71.233132,9.15621292 70.699918,10.4257925 C70.1702826,11.6830819 69.9018862,13.0448381 69.9018862,14.4754196 L69.9018862,26.9904263 C69.9018862,28.099127 69.0263178,29 67.9515396,29 L67.9503467,29 C66.8754492,29 66,28.099127 66,26.9904263 L66,14.4754196 C66,12.475801 66.3721762,10.5806493 67.1069858,8.8403543 C67.8358309,7.10989151 68.8521584,5.56624004 70.1273391,4.25241566 C71.4025199,2.93859129 72.9007679,1.89146466 74.5803325,1.13930327 C76.2693208,0.383454823 78.1100425,0 80.0496533,0 C81.1255051,0 82,0.900873029 82,2.00945075 C82,2.2761485 81.9677924,3.1979149 81.9677924,3.43142906" id="Fill-11" fill="#FFFFFF"></path>
            </g>
        </g>
    </g>
</svg>