<?xml version="1.0" encoding="UTF-8"?>
<svg width="87px" height="87px" viewBox="0 0 87 87" version="1.1" xmlns="http://www.w3.org/2000/svg" xmlns:xlink="http://www.w3.org/1999/xlink">
    <!-- Generator: Sketch 52.5 (67469) - http://www.bohemiancoding.com/sketch -->
    <title>Group 11</title>
    <desc>Created with Sketch.</desc>
    <defs>
        <polygon id="path-1" points="0.0495396573 0.0770515564 49.573249 0.0770515564 49.573249 64.7470817 0.0495396573 64.7470817"></polygon>
        <polygon id="path-3" points="0 64.9231128 64.7483463 64.9231128 64.7483463 0.252918288 0 0.252918288"></polygon>
    </defs>
    <g id="Page-1" stroke="none" stroke-width="1" fill="none" fill-rule="evenodd">
        <g id="Desktop-HD" transform="translate(-249.000000, -1371.000000)">
            <g id="Group-11" transform="translate(250.000000, 1372.000000)">
                <circle id="Oval-Copy-2" stroke="#979797" stroke-width="2" fill-rule="nonzero" cx="42.5" cy="42.5" r="42.5"></circle>
                <g id="Group-9" transform="translate(10.000000, 8.000000)">
                    <g id="Group-3" transform="translate(15.175097, 0.176031)">
                        <mask id="mask-2" fill="white">
                            <use xlink:href="#path-1"></use>
                        </mask>
                        <g id="Clip-2"></g>
                        <path d="M29.5112899,35.007786 L29.5112899,36.5971245 C30.0780798,36.3259961 30.5791109,36.0862296 31.1694222,35.8037198 C30.5735467,35.5176693 30.0613872,35.2718327 29.5112899,35.007786 Z M8.67208755,38.3994202 L8.67208755,33.2019494 C6.84804086,34.0737588 5.08722374,34.9152179 3.22448054,35.8052374 C5.10290467,36.6995564 6.85992802,37.536463 8.67208755,38.3994202 Z M39.48057,21.5879416 L47.6381965,21.5879416 L47.6381965,19.7909572 L39.48057,19.7909572 L39.48057,21.5879416 Z M2.8946751,10.1489533 L11.0442082,10.1489533 L11.0442082,8.34058755 L2.8946751,8.34058755 L2.8946751,10.1489533 Z M18.1863677,41.9777082 C18.7587218,41.7101206 19.2850447,41.5044981 19.7645778,41.2197121 C19.9519903,41.1081751 20.144714,40.8195953 20.1464844,40.6104319 C20.1722821,37.4137977 20.1692471,34.2166576 20.1626712,31.0197704 C20.1621654,30.8460156 20.1234689,30.5771634 20.0119319,30.5146926 C19.4395778,30.1939922 18.8376323,29.9264047 18.1863677,29.6112685 L18.1863677,41.9777082 Z M39.4937218,17.7946732 L47.6528658,17.7946732 L47.6528658,13.4722996 L39.4937218,13.4722996 L39.4937218,17.7946732 Z M2.88177626,6.35163813 L11.0426907,6.35163813 L11.0426907,2.02294163 L2.88177626,2.02294163 L2.88177626,6.35163813 Z M22.1028074,40.0062101 C22.2166206,40.0132918 22.2646751,40.0315019 22.2973016,40.0165798 C23.9688385,39.2282335 25.6429047,38.4441868 27.3033132,37.6323191 C27.4393833,37.5658016 27.5514261,37.3108599 27.5567374,37.1398872 C27.5822821,36.3199261 27.5440914,35.4981946 27.5749475,34.6789922 C27.5913872,34.2444786 27.4654339,34.011035 27.0466012,33.8226109 C25.5910564,33.1675525 24.159286,32.4593813 22.7179047,31.773214 C22.5368152,31.6872218 22.3506673,31.6115992 22.1028074,31.5030973 L22.1028074,40.0062101 Z M16.2070292,41.9885837 L16.2070292,29.6385837 C15.9591693,29.7468327 15.7689747,29.8237198 15.5840914,29.9117354 C14.1224767,30.6054903 12.6694611,31.3179611 11.1962121,31.986677 C10.7566401,32.1862296 10.5768152,32.4141089 10.5879436,32.9229805 C10.626893,34.7318521 10.6471265,36.5435058 10.5864261,38.3513658 C10.5616401,39.0921634 10.7897724,39.4639533 11.4693638,39.7583502 C13.044286,40.4404708 14.5789942,41.2149066 16.2070292,41.9885837 Z M16.2497724,62.3535642 L16.2497724,61.5553541 C16.247749,55.9706654 16.2383911,50.3862296 16.2553366,44.8017938 C16.2568541,44.2848288 16.0970097,44.0286226 15.6253171,43.8060545 C11.3049669,41.7695564 6.99827432,39.7042257 2.68652335,37.6487588 C2.48342996,37.552144 2.27249611,37.4707043 1.96165953,37.3379222 L1.96165953,38.1007237 C1.96165953,43.7064047 1.96899416,49.3118327 1.94901362,54.9172607 C1.94724319,55.420821 2.11518093,55.6547704 2.55955837,55.8601401 C4.60313813,56.8047899 6.62901362,57.7873774 8.66045331,58.7583307 C8.86885798,58.8579805 9.08510311,58.9502957 9.27352724,59.0810545 C9.6837607,59.3658405 9.84891634,59.7538171 9.63520039,60.2323385 C9.41010311,60.7358988 8.95434436,60.9541673 8.48948054,60.7391868 C5.81664008,59.5021634 3.1546751,58.2398482 0.522554475,56.9196148 C0.255219844,56.7853152 0.0933521401,56.2094202 0.0834883268,55.8335837 C0.0366984436,54.0224358 0.0569319066,52.2092646 0.0571848249,50.3971051 C0.0581964981,45.7186226 0.0753949416,41.040393 0.0495972763,36.3619105 C0.0450447471,35.5379027 0.309597276,35.0528054 1.08150389,34.7009961 C3.45564786,33.6197704 5.79362451,32.4593813 8.15638716,31.3526109 C8.54765175,31.1694981 8.72595914,30.9739922 8.71381907,30.5116576 C8.67714591,29.1474163 8.70066732,27.7816576 8.70066732,26.3190311 L7.46844942,26.3190311 C6.79416926,26.3190311 6.11963619,26.3223191 5.44535603,26.3180195 C4.53965564,26.3116965 4.07757393,25.9806265 4.08946109,25.3544008 C4.10134825,24.731463 4.55204864,24.425179 5.47595914,24.4213852 C6.36092023,24.4175914 7.24613424,24.4203735 8.13109533,24.4203735 C8.51047276,24.4203735 8.88985019,24.4165798 9.26897471,24.4216381 C10.280142,24.434284 10.5965428,24.7433502 10.6008424,25.7428833 C10.6069125,27.1741479 10.6023599,28.6059183 10.6023599,30.1479611 C10.8669125,30.036677 11.0682354,29.9610545 11.2617179,29.8689922 C12.9906673,29.046249 14.7239163,28.2315992 16.4430019,27.3888755 C16.9604728,27.1351984 17.4248307,27.1134475 17.941037,27.3833113 C18.6277101,27.7416965 19.3391693,28.0522802 20.1130992,28.418 L20.1130992,7.0716965 L12.9772626,7.0716965 C12.9772626,8.24245525 12.9780214,9.39424514 12.9770097,10.5457821 C12.9759981,11.8604514 12.7445778,12.0911128 11.4299086,12.0913658 C8.39514202,12.0923774 5.3606284,12.0954125 2.32611479,12.0923774 C1.26057004,12.0916187 0.966173152,11.802786 0.964655642,10.7519105 C0.960356031,7.63292218 0.959850195,4.51418677 0.96490856,1.39519844 C0.966678988,0.377202335 1.27144553,0.0792645914 2.28514202,0.0787587549 C5.40413035,0.0764824903 8.52286576,0.0764824903 11.6418541,0.0787587549 C12.6565623,0.0792645914 12.9666401,0.377708171 12.9765039,1.39292218 C12.9883911,2.61274708 12.979286,3.83307782 12.979286,5.13636576 L13.6313093,5.13636576 C15.9705506,5.13585992 18.3097918,5.1368716 20.6487802,5.13484825 C21.7891887,5.13383658 22.0673988,5.40370039 22.0679047,6.54587938 C22.0711926,13.9214825 22.0780214,21.2973385 22.0610759,28.6729416 C22.0598113,29.1931946 22.2168735,29.4547121 22.6867957,29.6681751 C24.292321,30.3970856 25.8768541,31.1722802 27.5686245,31.9773191 L27.5686245,31.2410739 C27.5686245,26.8367549 27.5683716,22.4321829 27.5688774,18.0278638 C27.5691304,16.8442062 27.8293833,16.58193 29.0193638,16.5809183 C31.5905311,16.5781362 34.1614455,16.5799066 36.7323599,16.5799066 L37.5556089,16.5799066 C37.5556089,15.3332724 37.5548502,14.1379805 37.5558619,12.9429416 C37.5568735,11.799751 37.8325545,11.5167354 38.9663872,11.5164825 C42.0431381,11.5154708 45.1198891,11.5174942 48.1966401,11.5222996 C49.2930409,11.5235642 49.5717568,11.808856 49.5722626,12.9156265 C49.5735272,16.0136226 49.5740331,19.1113658 49.5717568,22.2091089 C49.5709981,23.2238171 49.2695195,23.53693 48.2565817,23.5384475 C45.1166012,23.5442646 41.9766206,23.5424942 38.8366401,23.53693 C37.8704922,23.5351595 37.5611732,23.21193 37.5594027,22.2381946 C37.5571265,21.0188755 37.5588969,19.7995564 37.5588969,18.5296537 L29.4956089,18.5296537 C29.4859981,18.7244008 29.4693054,18.9090311 29.4693054,19.0936615 C29.4682938,23.4979805 29.4766401,27.9022996 29.4571654,32.3066187 C29.455142,32.7585837 29.6056284,32.9695175 30.002963,33.1483307 C31.172963,33.6749066 32.3146362,34.2647121 33.4853949,34.7902763 C34.0810175,35.057358 34.3531576,35.4521634 34.3417763,36.1089922 C34.3182549,37.4572996 34.3362121,38.8061128 34.3329241,40.1549261 C34.3324183,40.3226109 34.3217957,40.492572 34.2922043,40.6572218 C34.2011537,41.1653346 33.8839942,41.4379805 33.3741109,41.4324163 C32.8634689,41.4268521 32.5260759,41.1461128 32.4772626,40.6364825 C32.4249086,40.0934669 32.4395778,39.5436226 32.4335078,38.9965603 C32.4274377,38.4735253 32.4319903,37.9504903 32.4319903,37.3470272 C32.1813482,37.449965 32.0086051,37.511677 31.8439553,37.5900817 C27.4553171,39.6791868 23.0679436,41.7713268 18.6777879,43.8566381 C18.35557,44.0099066 18.1373016,44.1583696 18.1385661,44.5880778 C18.1539942,50.3622023 18.1491887,56.1363268 18.1507062,61.9104514 C18.1507062,62.013642 18.166893,62.1170856 18.1828268,62.3034864 C18.3859202,62.2278638 18.5536051,62.1798093 18.7091498,62.1057043 C23.1167568,60.008 27.5215817,57.903214 31.9339942,55.8153735 C32.3108424,55.6368132 32.4489358,55.423856 32.4464066,55.0017354 C32.4284494,51.7143035 32.4355311,48.4268716 32.4388191,45.1394397 C32.439072,44.8875331 32.4461537,44.6318327 32.4899086,44.3849844 C32.5766595,43.8976109 32.9140525,43.6555681 33.3822043,43.6548093 C33.8490914,43.6543035 34.1892665,43.8912879 34.2810759,44.3784086 C34.3238191,44.6040117 34.3326712,44.8387198 34.3329241,45.0693813 C34.3359591,48.6097315 34.3215428,52.1500817 34.3460759,55.690179 C34.3511342,56.4367938 34.1032743,56.8922996 33.4097724,57.219323 C28.2904533,59.6336809 23.181251,62.0690311 18.0803949,64.5215798 C17.4493638,64.8250817 16.9152004,64.8238171 16.2935272,64.5086809 C14.8675739,63.7858405 13.4117763,63.12193 11.9698891,62.4304514 C11.4660759,62.1886615 11.1413288,61.8317938 11.3224183,61.2280778 C11.5040136,60.6223385 12.0915428,60.4045759 12.7612704,60.7113658 C13.6793638,61.131716 14.5840525,61.5816576 15.49557,62.0164241 C15.7011926,62.1145564 15.9116206,62.2028249 16.2497724,62.3535642 Z" id="Fill-1" fill="#000000" mask="url(#mask-2)"></path>
                    </g>
                    <mask id="mask-4" fill="white">
                        <use xlink:href="#path-3"></use>
                    </mask>
                    <g id="Clip-5"></g>
                    <path d="M1.92394942,29.6030739 L10.0790467,29.6030739 L10.0790467,27.8116537 L1.92394942,27.8116537 L1.92394942,29.6030739 Z M1.93027237,25.8254864 L10.0820817,25.8254864 L10.0820817,21.4811089 L1.93027237,21.4811089 L1.93027237,25.8254864 Z M12.0141245,24.5963035 L15.2087354,24.5963035 C15.4194163,24.5963035 15.6298444,24.5935214 15.8402724,24.5973152 C16.7098054,24.6124903 17.1248444,24.9288911 17.1132101,25.5642218 C17.101323,26.1884241 16.683249,26.4929377 15.8046109,26.4992607 C15.067607,26.5050778 14.330856,26.4964786 13.5938521,26.495214 C13.0920623,26.4942023 12.5900195,26.4949611 12.0176654,26.4949611 C12.0176654,27.7443774 12.018677,28.9386576 12.0174125,30.1329377 C12.0161479,31.2741051 11.7419844,31.5573735 10.6081518,31.5581323 C7.5344358,31.5599027 4.46046693,31.5573735 1.38649805,31.5518093 C0.283521401,31.549786 0.00177042802,31.2647471 0.00126459144,30.1703696 C-0.000252918288,27.0754086 -0.000505836576,23.9804475 0.00126459144,20.8854864 C0.0020233463,19.8333463 0.296673152,19.5392023 1.35791829,19.5376848 C4.45262646,19.5333852 7.54758755,19.5316148 10.6425486,19.5333852 C11.7349027,19.5338911 12.0123541,19.8217121 12.0138716,20.9310117 C12.0153891,22.1265564 12.0141245,23.3223541 12.0141245,24.5963035 Z" id="Fill-4" fill="#000000" mask="url(#mask-4)"></path>
                    <path d="M22.1720817,5.30857782 C21.8564397,5.3083249 21.539786,5.32602918 21.2254086,5.30453113 C20.6356031,5.26381128 20.239786,4.86521206 20.2488911,4.34951167 C20.2574903,3.85556226 20.6343385,3.45595136 21.1910117,3.42838327 C21.8207782,3.3970214 22.4543385,3.39727432 23.0838521,3.42762451 C23.641284,3.45392802 24.0135798,3.84873346 24.0231907,4.34647665 C24.0335603,4.86723541 23.644572,5.26305253 23.0555253,5.30478405 C22.762393,5.32577626 22.4667315,5.30857782 22.1720817,5.30857782" id="Fill-6" fill="#000000" mask="url(#mask-4)"></path>
                    <path d="M58.721,16.7773346 C58.3641323,16.7573541 58.0047354,16.7608949 57.6526732,16.7123346 C57.1389961,16.6417704 56.8744436,16.308677 56.8777315,15.8015759 C56.8807665,15.2932101 57.1521479,14.9383658 57.6658249,14.906751 C58.3762724,14.8635019 59.0930428,14.8647665 59.8037432,14.9039689 C60.3156498,14.9320428 60.6004358,15.2752529 60.6087821,15.7848833 C60.6178872,16.3233463 60.3303191,16.6592218 59.7900856,16.7252335 C59.4372646,16.7684825 59.0781206,16.7619066 58.721,16.7773346" id="Fill-7" fill="#000000" mask="url(#mask-4)"></path>
                    <path d="M6.06718093,24.6205331 C5.67996304,24.602323 5.32107198,24.6061167 4.96774514,24.5636265 C4.42827043,24.4991323 4.13614981,24.1695798 4.14424319,23.6285875 C4.15208366,23.1189572 4.43358171,22.7732179 4.94574125,22.7441323 C5.65694747,22.7039183 6.3737179,22.7029066 7.08467121,22.7446381 C7.60011868,22.7749883 7.86972957,23.1323619 7.87529377,23.6381984 C7.88085798,24.144035 7.61832879,24.481428 7.10541051,24.5555331 C6.75360117,24.6061167 6.39420428,24.60207 6.06718093,24.6205331" id="Fill-8" fill="#000000" mask="url(#mask-4)"></path>
                </g>
            </g>
        </g>
    </g>
</svg>