<?xml version="1.0" encoding="UTF-8"?>
<svg width="55px" height="55px" viewBox="0 0 55 55" version="1.1" xmlns="http://www.w3.org/2000/svg" xmlns:xlink="http://www.w3.org/1999/xlink">
    <!-- Generator: Sketch 52.5 (67469) - http://www.bohemiancoding.com/sketch -->
    <title>bitcoin</title>
    <desc>Created with Sketch.</desc>
    <g id="Page-1" stroke="none" stroke-width="1" fill="none" fill-rule="evenodd">
        <g id="Desktop-HD" transform="translate(-775.000000, -5037.000000)">
            <g id="bitcoin" transform="translate(775.000000, 5037.000000)">
                <path d="M55,27.5 C55,42.6878114 42.6878114,55 27.5000879,55 C12.3121886,55 0,42.6878114 0,27.5 C0,12.3121007 12.3121886,0 27.5000879,0 C42.6878114,0 55,12.3121007 55,27.5" id="Fill-1" fill="#F6921A"></path>
                <path d="M34.3415129,22.2652081 C34.0065222,23.519313 33.1132738,24.1494482 31.8777188,24.3819513 C31.4683058,24.458797 31.053564,24.4766681 30.7898344,24.4797956 C29.0097502,24.4524528 27.4550103,24.0357879 25.8961157,23.6307393 C25.6835063,23.5749815 25.7653347,23.4530112 25.794056,23.338368 C26.0694366,22.2378654 26.3469848,21.1385243 26.6235396,20.0390939 C26.8574641,19.1101538 27.089221,18.1801414 27.3253131,17.2512014 C27.3561117,17.130214 27.3466283,16.983939 27.5763078,17.0365694 C29.0298912,17.3669168 30.4898872,17.6677768 31.8574875,18.2853129 C32.3721214,18.517816 32.8612856,18.7914226 33.2972522,19.151168 C34.2979795,19.9749366 34.6775874,21.0069929 34.3415129,22.2652081 M32.8294032,33.9102887 C32.2243606,34.7404016 31.3279511,35.0454613 30.3548613,35.1948638 C29.9422871,35.2580381 29.5275453,35.269565 29.1118099,35.2664376 C27.6602135,35.2496387 26.2481766,34.9666498 24.8444489,34.627903 C24.3265635,34.5026265 23.8130134,34.3617128 23.2940442,34.2417084 C23.1058208,34.198639 23.0686097,34.1239378 23.1153946,33.9377208 C23.6917159,31.6747921 24.2584635,29.4086465 24.8337913,27.1446455 C24.8571838,27.0552006 24.8242176,26.8889993 25.0347497,26.9384129 C26.7638943,27.3392618 28.5056835,27.6990966 30.149658,28.393389 C30.9248603,28.7216812 31.6564389,29.123513 32.2933639,29.6810915 C33.8958822,31.0855817 33.5683879,32.8971757 32.8294032,33.9102887 M38.0909886,27.9904849 C37.6751629,27.6759535 37.2243841,27.4150353 36.7032472,27.1257021 C36.8617559,27.0804882 36.9552354,27.0562729 37.0478117,27.0289301 C37.7358568,26.825825 38.3929228,26.5481973 38.9385359,26.0810466 C40.731355,24.5471696 41.217358,22.5429251 40.9175011,20.3210106 C40.7176266,18.8335091 39.8008954,17.7393506 38.6280214,16.8461528 C37.3987888,15.9097962 35.9972287,15.3028041 34.5467162,14.7999112 C34.2979795,14.7135937 34.2702517,14.6147665 34.3297715,14.3844079 C34.7434295,12.7842291 35.1401077,11.1787784 35.5548495,9.57967182 C35.6164466,9.34189675 35.5963056,9.24083565 35.3294149,9.18087809 C34.4148514,8.9757178 33.5036296,8.75063122 32.5965625,8.51500069 C32.366883,8.45495378 32.2764743,8.47389715 32.2147869,8.72856041 C31.8340048,10.2971967 31.4300108,11.8594888 31.0418226,13.4248189 C30.9887154,13.6395403 30.9334406,13.7279129 30.6728722,13.6584836 C29.9678472,13.4691393 29.2521646,13.3186646 28.5386497,13.1607733 C28.3472652,13.1187762 28.2929838,13.0577464 28.3472652,12.8473141 C28.7630005,11.2471353 29.1564272,9.64177391 29.5679176,8.04150575 C29.6158766,7.85216138 29.593568,7.76700556 29.390442,7.71857487 C28.4397512,7.49241602 27.4911376,7.25884067 26.544782,7.01793817 C26.3438237,6.96745229 26.2757237,7.0200827 26.2268615,7.21988166 C25.8237707,8.85267524 25.4006293,10.4812691 25.00079,12.1150456 C24.9422637,12.3528206 24.8540226,12.3739086 24.6391553,12.3202059 C22.580439,11.8079306 20.5174778,11.3070929 18.4598453,10.7937454 C18.2578935,10.7442424 18.1855485,10.7758743 18.136596,10.9821068 C17.929225,11.8573442 17.7027066,12.7283819 17.4816073,13.6005812 C17.3146087,14.2581486 17.3156925,14.2475153 17.9844999,14.4127336 C18.7502188,14.602078 19.5370722,14.7241377 20.2634123,15.0460856 C21.0715808,15.4037758 21.4480276,16.1665146 21.2395729,16.9954658 C20.0316554,21.7928748 18.8213896,26.5912667 17.6113045,31.3886757 C17.3965275,32.2438974 16.8519982,32.5900608 15.9779876,32.4007164 C15.2835298,32.2502417 14.5944912,32.0744794 13.9086137,31.8882624 C13.6778504,31.8251774 13.5682942,31.8483205 13.4673183,32.0871679 C13.0111204,33.1686378 12.5347814,34.2427806 12.0540169,35.3148683 C11.9615309,35.5211008 11.9711046,35.6020569 12.2156867,35.6620145 C14.2776545,36.1658903 16.3352869,36.6856714 18.3960806,37.1916918 C18.6087802,37.2432499 18.652404,37.3084795 18.5960454,37.5262389 C18.1748909,39.1548327 17.7750516,40.7886986 17.3550713,42.4172031 C17.2933839,42.6591779 17.3029577,42.7674768 17.5857444,42.8306511 C18.491818,43.0316117 19.3946401,43.2514263 20.2899659,43.4934011 C20.5664303,43.5681023 20.6387753,43.4924182 20.7004627,43.2409717 C21.0907283,41.6449926 21.504296,40.0542855 21.8924842,38.4583958 C21.9573328,38.1869337 22.0498188,38.1490469 22.307226,38.2226759 C22.9707949,38.4130925 23.6417699,38.5835828 24.3148221,38.7350405 C24.5807193,38.794998 24.6296719,38.8907872 24.5626557,39.1464333 C24.1447527,40.7454505 23.7491584,42.349829 23.3333327,43.9500972 C23.2769741,44.1699118 23.3259266,44.2478298 23.5461227,44.2982263 C24.4307909,44.5044589 25.3113044,44.7285626 26.1928114,44.9442668 C26.6086371,45.0462215 26.6075533,45.0452385 26.7149418,44.6191914 C27.1136973,43.0348285 27.516788,41.4525208 27.9081374,39.8669963 C27.9634122,39.6419097 28.0419892,39.5723911 28.2877454,39.6240386 C28.7906379,39.7282272 29.3000334,39.8018561 29.8093385,39.8680686 C31.3044683,40.0606297 32.8027593,40.1490024 34.3021341,39.8955007 C36.3013306,39.5588091 37.8793727,38.59091 38.9374521,36.852945 C39.5446623,35.8545756 39.9359213,34.7709612 40.1635236,33.6305165 C40.620715,31.3412279 39.9997764,29.4328619 38.0909886,27.9904849" id="Fill-3" fill="#FEFEFE"></path>
            </g>
        </g>
    </g>
</svg>