<?xml version="1.0" encoding="UTF-8"?>
<svg width="375px" height="186px" viewBox="0 0 375 186" version="1.1" xmlns="http://www.w3.org/2000/svg" xmlns:xlink="http://www.w3.org/1999/xlink">
    <!-- Generator: Sketch 52.5 (67469) - http://www.bohemiancoding.com/sketch -->
    <title>Group 59</title>
    <desc>Created with Sketch.</desc>
    <defs>
        <polygon id="path-1" points="0.8208091 0.9065 50.992 0.9065 50.992 171.021569 0.8208091 171.021569"></polygon>
        <polygon id="path-3" points="0.945634667 0.544802838 15.6566372 0.544802838 15.6566372 29 0.945634667 29"></polygon>
    </defs>
    <g id="Page-1" stroke="none" stroke-width="1" fill="none" fill-rule="evenodd">
        <g id="Desktop-HD" transform="translate(-739.000000, -854.000000)">
            <g id="Group-59" transform="translate(739.000000, 854.000000)">
                <path d="M144.1764,116.4052 C144.1764,118.0792 142.8154,119.4372 141.1414,119.4372 C139.4704,119.4372 138.1094,118.0792 138.1094,116.4052 C138.1094,114.7322 139.4704,113.3702 141.1414,113.3702 C142.8154,113.3702 144.1764,114.7322 144.1764,116.4052" id="Fill-1" fill="#FF5E39"></path>
                <path d="M332.9986,172.4624 C330.7976,172.4624 329.0086,170.6714 329.0086,168.4704 C329.0086,166.2714 330.7976,164.4814 332.9986,164.4814 C335.1996,164.4814 336.9906,166.2714 336.9906,168.4704 C336.9906,170.6714 335.1996,172.4624 332.9986,172.4624 M332.9986,158.0494 C327.2516,158.0494 322.5776,162.7264 322.5776,168.4704 C322.5776,174.2174 327.2516,178.8934 332.9986,178.8934 C338.7456,178.8934 343.4216,174.2174 343.4216,168.4704 C343.4216,162.7264 338.7456,158.0494 332.9986,158.0494" id="Fill-3" fill="#3D3D3D"></path>
                <path d="M326.8368,51.1059 C326.4348,51.2729 326.0178,51.3509 325.6098,51.3509 C324.3468,51.3509 323.1478,50.6019 322.6378,49.3609 C316.9558,35.6069 309.7088,22.6059 301.0128,10.5499 C299.4788,8.4239 300.9948,5.4559 303.6178,5.4559 C304.6478,5.4559 305.6208,5.9469 306.2238,6.7829 C315.2148,19.2459 322.7068,32.6869 328.5798,46.9059 C329.2588,48.5489 328.4778,50.4279 326.8368,51.1059" id="Fill-5" fill="#3D3D3D"></path>
                <path d="M302.8016,55.0805 C295.2256,37.1685 284.7766,20.8585 271.6886,6.4985 C271.0806,5.8315 270.2166,5.4555 269.3146,5.4555 C266.5276,5.4555 265.0576,8.7655 266.9346,10.8255 C279.5306,24.6485 289.5876,40.3465 296.8796,57.5855 C305.4756,77.9065 309.8336,99.4965 309.8336,121.7525 C309.8336,136.4265 307.9386,150.8115 304.1836,164.7345 C303.5876,166.9445 302.9446,169.1425 302.2546,171.3285 C301.0186,175.2485 306.8036,177.3905 308.2866,173.5565 C308.3216,173.4665 308.3526,173.3795 308.3796,173.2925 C313.6176,156.7015 316.2646,139.4295 316.2646,121.7525 C316.2646,98.6315 311.7346,76.1995 302.8016,55.0805" id="Fill-7" fill="#3D3D3D"></path>
                <g id="Group-11" transform="translate(324.000000, 4.549000)">
                    <mask id="mask-2" fill="white">
                        <use xlink:href="#path-1"></use>
                    </mask>
                    <g id="Clip-10"></g>
                    <path d="M37.5294,50.5315 C29.9534,32.6195 19.5044,16.3095 6.4164,1.9495 C5.8084,1.2825 4.9444,0.9065 4.0424,0.9065 C1.2554,0.9065 -0.2156,4.2165 1.6624,6.2765 C14.2584,20.0995 24.3154,35.7975 31.6074,53.0365 C40.2034,73.3575 44.5614,94.9475 44.5614,117.2035 C44.5614,131.8775 42.6664,146.2625 38.9114,160.1855 C38.3154,162.3955 37.6724,164.5935 36.9824,166.7795 C35.7464,170.6995 41.5314,172.8415 43.0144,169.0075 C43.0494,168.9175 43.0804,168.8305 43.1074,168.7435 C48.3454,152.1525 50.9924,134.8805 50.9924,117.2035 C50.9924,94.0825 46.4624,71.6505 37.5294,50.5315" id="Fill-9" fill="#3D3D3D" mask="url(#mask-2)"></path>
                </g>
                <path d="M122.2984,21.0229 C119.1134,21.0229 116.5224,18.4319 116.5224,15.2469 C116.5224,12.0629 119.1134,9.4719 122.2984,9.4719 C125.4834,9.4719 128.0754,12.0629 128.0754,15.2469 C128.0754,18.4319 125.4834,21.0229 122.2984,21.0229 M129.5784,5.4559 C127.5444,3.9399 125.0234,3.0409 122.2984,3.0409 C119.5734,3.0409 117.0524,3.9399 115.0184,5.4559 C112.0304,7.6829 110.0914,11.2419 110.0914,15.2469 C110.0914,20.8659 113.9084,25.6099 119.0844,27.0249 C120.1094,27.3039 121.1864,27.4539 122.2984,27.4539 C123.4114,27.4539 124.4894,27.3039 125.5134,27.0229 C130.6904,25.6079 134.5054,20.8639 134.5054,15.2469 C134.5054,11.2419 132.5674,7.6829 129.5784,5.4559" id="Fill-12" fill="#3D3D3D"></path>
                <path d="M122.2992,55.2426 C120.5232,55.2426 119.0842,53.8036 119.0842,52.0276 L119.0842,24.6646 C119.0842,22.8886 120.5232,21.4496 122.2992,21.4496 C124.0752,21.4496 125.5142,22.8886 125.5142,24.6646 L125.5142,52.0276 C125.5142,53.8036 124.0752,55.2426 122.2992,55.2426" id="Fill-14" fill="#3D3D3D"></path>
                <path d="M159.9588,3.2172 L159.9588,52.0282 C159.9588,53.8032 158.5178,55.2402 156.7418,55.2402 C154.9668,55.2402 153.5258,53.8032 153.5258,52.0282 L153.5258,3.2172 C153.5258,1.4422 154.9668,0.0002 156.7418,0.0002 C158.5178,0.0002 159.9588,1.4422 159.9588,3.2172" id="Fill-16" fill="#3D3D3D"></path>
                <path d="M64.1874,157.1904 C62.9104,157.1904 61.7024,156.4244 61.2004,155.1664 C60.3144,152.9464 59.5084,150.6664 58.8054,148.3864 C58.2814,146.6894 59.2324,144.8894 60.9294,144.3654 C62.6274,143.8414 64.4254,144.7934 64.9494,146.4894 C65.6024,148.6054 66.3504,150.7224 67.1734,152.7824 C67.8314,154.4314 67.0284,156.3024 65.3784,156.9604 C64.9884,157.1164 64.5844,157.1904 64.1874,157.1904" id="Fill-18" fill="#3D3D3D"></path>
                <path d="M82.5926,185.5488 C81.7206,185.5488 80.8876,185.1948 80.2796,184.5698 C75.6596,179.8138 71.5786,174.5648 68.0886,168.8808 C67.1586,167.3678 67.6306,165.3878 69.1456,164.4588 C70.6566,163.5308 72.6386,164.0028 73.5676,165.5158 C76.8116,170.7978 80.6046,175.6748 84.8996,180.0948 C86.8796,182.1328 85.4346,185.5488 82.5926,185.5488" id="Fill-20" fill="#3D3D3D"></path>
                <path d="M225.2596,162.8637 C221.1286,170.9137 215.8796,178.2107 209.7136,184.5697 C209.1076,185.1957 208.2736,185.5487 207.4016,185.5487 L207.4006,185.5487 C204.5546,185.5487 203.1216,182.1327 205.1016,180.0887 C210.8266,174.1817 215.7006,167.4057 219.5386,159.9277 C220.3486,158.3477 222.2876,157.7227 223.8666,158.5347 C225.4466,159.3447 226.0696,161.2817 225.2596,162.8637" id="Fill-22" fill="#3D3D3D"></path>
                <path d="M230.0797,142.9628 C229.8607,142.9628 229.6377,142.9408 229.4147,142.8938 C227.6767,142.5278 226.5637,140.8228 226.9297,139.0848 C228.1217,133.4228 228.7257,127.5918 228.7257,121.7528 C228.7257,113.2928 227.4687,104.9458 224.9907,96.9438 C224.4647,95.2478 225.4137,93.4468 227.1107,92.9208 C228.8067,92.3958 230.6077,93.3458 231.1327,95.0418 C233.8027,103.6598 235.1557,112.6468 235.1557,121.7528 C235.1557,128.0358 234.5057,134.3128 233.2227,140.4088 C232.9037,141.9228 231.5677,142.9628 230.0797,142.9628" id="Fill-24" fill="#3D3D3D"></path>
                <path d="M336.4124,133.6201 C336.1934,133.6201 335.9704,133.5981 335.7474,133.5501 C334.0094,133.1851 332.8964,131.4801 333.2624,129.7421 C334.4544,124.0801 335.0584,118.2481 335.0584,112.4101 C335.0584,103.9501 333.8014,95.6031 331.3234,87.6011 C330.7974,85.9051 331.7464,84.1041 333.4434,83.5781 C335.1394,83.0531 336.9404,84.0021 337.4654,85.6991 C340.1354,94.3171 341.4884,103.3041 341.4884,112.4101 C341.4884,118.6931 340.8384,124.9701 339.5554,131.0661 C339.2364,132.5801 337.9004,133.6201 336.4124,133.6201" id="Fill-26" fill="#3D3D3D"></path>
                <path d="M58.5816,134.8969 C58.2236,134.8969 57.8626,134.8369 57.5156,134.7149 L29.2676,124.7859 C27.9806,124.3339 27.1186,123.1179 27.1186,121.7529 C27.1186,90.8939 38.9196,61.6799 60.3486,39.4909 C61.5806,38.2129 63.6166,38.1779 64.8946,39.4119 C66.1716,40.6459 66.2076,42.6809 64.9736,43.9579 C45.2346,64.3969 34.1346,91.1389 33.5716,119.4829 L54.9566,126.9999 C54.8566,125.2509 54.8056,123.4989 54.8056,121.7529 C54.8056,99.7759 62.8016,78.6049 77.3216,62.1379 C78.4956,60.8069 80.5276,60.6789 81.8596,61.8529 C83.1916,63.0269 83.3196,65.0599 82.1446,66.3919 C68.6616,81.6829 61.2366,101.3439 61.2366,121.7529 C61.2366,124.9449 61.4186,128.1639 61.7766,131.3189 C61.9016,132.4189 61.4516,133.5059 60.5856,134.1959 C60.0086,134.6559 59.2996,134.8969 58.5816,134.8969" id="Fill-28" fill="#3D3D3D"></path>
                <path d="M47.6107,185.5488 C46.4897,185.5488 45.4447,184.9718 44.8537,184.0198 C40.4687,176.9628 36.8197,169.4108 33.9727,161.4528 C33.3757,159.7788 34.2457,157.9398 35.9187,157.3418 C37.5867,156.7448 39.4297,157.6138 40.0277,159.2858 C42.6857,166.7208 46.1677,173.8668 50.3617,180.5778 C51.7147,182.7428 50.1627,185.5488 47.6107,185.5488" id="Fill-30" fill="#3D3D3D"></path>
                <g id="Group-34" transform="translate(269.000000, 156.549000)">
                    <mask id="mask-4" fill="white">
                        <use xlink:href="#path-3"></use>
                    </mask>
                    <g id="Clip-33"></g>
                    <path d="M15.5352,4.6331 C13.3612,12.3451 10.5202,19.8921 7.0712,27.1641 C6.5392,28.2861 5.4072,29.0001 4.1652,29.0001 C1.8052,29.0001 0.2482,26.5421 1.2592,24.4101 C4.5542,17.4631 7.2682,10.2551 9.3462,2.8881 C9.8272,1.1791 11.6062,0.1831 13.3122,0.6671 C15.0212,1.1491 16.0172,2.9241 15.5352,4.6331" id="Fill-32" fill="#3D3D3D" mask="url(#mask-4)"></path>
                </g>
                <path d="M262.8424,121.7929 C262.6504,137.4279 259.5284,152.5959 253.5674,166.8759 C251.0704,172.8539 248.1134,178.5849 244.7164,184.0359 C244.1294,184.9779 243.0964,185.5489 241.9874,185.5489 C239.4584,185.5489 237.9294,182.7699 239.2664,180.6239 C242.4774,175.4689 245.2724,170.0489 247.6314,164.3969 C253.2744,150.8819 256.2294,136.5209 256.4134,121.7129 C256.6224,104.7129 252.8434,88.2919 245.1804,72.9019 C244.3884,71.3129 245.0354,69.3819 246.6254,68.5909 C248.2174,67.7989 250.1454,68.4459 250.9374,70.0359 C259.0604,86.3479 263.0654,103.7619 262.8424,121.7929" id="Fill-35" fill="#3D3D3D"></path>
                <path d="M220.2181,81.3344 C220.1701,81.3344 220.1231,81.3334 220.0751,81.3314 C218.9811,81.2824 217.9881,80.6814 217.4381,79.7344 C207.1001,61.9484 190.6881,48.6194 171.2241,42.2024 C169.5381,41.6464 168.6211,39.8284 169.1771,38.1414 C169.7331,36.4554 171.5501,35.5394 173.2381,36.0944 C192.6321,42.4894 209.2111,55.2534 220.3961,72.2954 L233.2871,54.0574 C219.3221,36.1824 199.8751,22.6004 178.2811,15.6874 C176.5901,15.1464 175.6581,13.3354 176.1991,11.6454 C176.7411,9.9544 178.5511,9.0224 180.2421,9.5634 C203.8371,17.1164 225.0071,32.2084 239.8521,52.0574 C240.6871,53.1734 240.7081,54.7004 239.9031,55.8384 L222.8431,79.9754 C222.2391,80.8304 221.2591,81.3344 220.2181,81.3344" id="Fill-37" fill="#3D3D3D"></path>
                <path d="M286.7467,124.9682 C284.9707,124.9682 283.5317,123.5282 283.5317,121.7532 C283.5317,87.2232 270.7547,54.1452 247.5537,28.6112 C246.3597,27.2972 246.4567,25.2632 247.7707,24.0692 C249.0847,22.8752 251.1187,22.9722 252.3127,24.2862 C276.5907,51.0072 289.9617,85.6212 289.9617,121.7532 C289.9617,123.5282 288.5227,124.9682 286.7467,124.9682" id="Fill-39" fill="#3D3D3D"></path>
                <path d="M59.5216,5.456 C62.6076,5.456 63.9146,9.375 61.4516,11.236 C50.2466,19.703 40.2766,29.897 31.9916,41.548 C31.3656,42.43 30.3746,42.901 29.3686,42.901 C28.7246,42.901 28.0736,42.707 27.5076,42.305 C26.0616,41.275 25.7226,39.269 26.7506,37.822 C35.4206,25.63 45.8566,14.962 57.5846,6.102 C58.1416,5.681 58.8236,5.456 59.5216,5.456 Z" id="Fill-41" fill="#3D3D3D"></path>
                <path d="M20.4293,57.1987 C19.9093,57.1987 19.3823,57.0727 18.8933,56.8057 C17.3343,55.9557 16.7593,54.0027 17.6093,52.4437 C18.3093,51.1607 19.0423,49.8637 19.7893,48.5877 C20.6863,47.0547 22.6563,46.5417 24.1883,47.4377 C25.7213,48.3357 26.2353,50.3047 25.3383,51.8377 C24.6243,53.0567 23.9233,54.2967 23.2553,55.5217 C22.6713,56.5927 21.5683,57.1987 20.4293,57.1987" id="Fill-43" fill="#3D3D3D"></path>
                <path d="M16.6686,185.3208 C15.4626,185.3208 14.3056,184.6388 13.7576,183.4748 C4.6286,164.0998 0.0006,143.3338 0.0006,121.7528 C0.0006,104.3218 3.0616,87.2758 9.0996,71.0888 C9.7206,69.4248 11.5716,68.5788 13.2356,69.1998 C14.8996,69.8208 15.7456,71.6718 15.1246,73.3358 C9.3556,88.8018 6.4306,105.0918 6.4306,121.7528 C6.4306,142.3788 10.8526,162.2228 19.5746,180.7348 C20.3316,182.3408 19.6436,184.2568 18.0366,185.0128 C17.5946,185.2218 17.1276,185.3208 16.6686,185.3208" id="Fill-45" fill="#3D3D3D"></path>
                <path d="M31.9252,147.8383 C30.2532,147.8383 28.8922,146.4763 28.8922,144.8053 C28.8922,143.1313 30.2532,141.7703 31.9252,141.7703 C33.5982,141.7703 34.9582,143.1313 34.9582,144.8053 C34.9582,146.4763 33.5982,147.8383 31.9252,147.8383 M31.9252,135.3403 C26.7082,135.3403 22.4612,139.5863 22.4612,144.8053 C22.4612,150.0223 26.7082,154.2673 31.9252,154.2673 C37.1442,154.2673 41.3892,150.0223 41.3892,144.8053 C41.3892,139.5863 37.1442,135.3403 31.9252,135.3403" id="Fill-47" fill="#3D3D3D"></path>
                <path d="M75.0265,34.4785 C73.3555,34.4785 71.9955,33.1185 71.9955,31.4455 C71.9955,29.7735 73.3555,28.4125 75.0265,28.4125 C76.6995,28.4125 78.0615,29.7735 78.0615,31.4455 C78.0615,33.1185 76.6995,34.4785 75.0265,34.4785 M75.0265,21.9805 C69.8095,21.9805 65.5645,26.2285 65.5645,31.4455 C65.5645,36.6645 69.8095,40.9095 75.0265,40.9095 C80.2455,40.9095 84.4905,36.6645 84.4905,31.4455 C84.4905,26.2285 80.2455,21.9805 75.0265,21.9805" id="Fill-49" fill="#3D3D3D"></path>
                <path d="M235.1578,15.3935 C233.4848,15.3935 232.1228,14.0315 232.1228,12.3605 C232.1228,10.6865 233.4848,9.3275 235.1578,9.3275 C236.8298,9.3275 238.1908,10.6865 238.1908,12.3605 C238.1908,14.0315 236.8298,15.3935 235.1578,15.3935 M241.6228,5.4555 C239.9308,3.8695 237.6568,2.8955 235.1578,2.8955 C232.6588,2.8955 230.3828,3.8695 228.6908,5.4555 C226.8478,7.1835 225.6938,9.6405 225.6938,12.3605 C225.6938,17.5775 229.9388,21.8225 235.1578,21.8225 C240.3748,21.8225 244.6208,17.5775 244.6208,12.3605 C244.6208,9.6405 243.4658,7.1835 241.6228,5.4555" id="Fill-51" fill="#3D3D3D"></path>
                <path d="M284.2254,146.8154 C282.5534,146.8154 281.1944,145.4554 281.1944,143.7824 C281.1944,142.1104 282.5534,140.7494 284.2254,140.7494 C285.8984,140.7494 287.2604,142.1104 287.2604,143.7824 C287.2604,145.4554 285.8984,146.8154 284.2254,146.8154 M284.2254,134.3174 C279.0084,134.3174 274.7634,138.5634 274.7634,143.7824 C274.7634,149.0014 279.0084,153.2464 284.2254,153.2464 C289.4444,153.2464 293.6894,149.0014 293.6894,143.7824 C293.6894,138.5634 289.4444,134.3174 284.2254,134.3174" id="Fill-53" fill="#3D3D3D"></path>
                <path d="M185.6356,135.3764 C183.8396,139.5234 181.5556,143.3344 178.8196,146.7524 C177.7106,148.1464 176.5236,149.4764 175.2636,150.7334 C172.4066,153.5904 169.1786,156.0784 165.6226,158.1644 C163.7706,159.2554 161.8326,160.2324 159.8096,161.1004 C153.9306,163.6194 147.6066,164.8964 141.0156,164.8964 C134.4246,164.8964 128.1476,163.6194 122.3516,161.1064 C116.5056,158.5724 111.3396,155.0834 106.9936,150.7324 C102.6446,146.3884 99.1556,141.2224 96.6206,135.3764 C94.1066,129.5804 92.8316,123.3024 92.8316,116.7114 C92.8316,110.1214 94.1086,103.7974 96.6276,97.9184 C99.1606,92.0094 102.6486,86.8094 106.9976,82.4634 C111.3486,78.1114 116.5146,74.6214 122.3516,72.0924 C128.1476,69.5764 134.4246,68.3014 141.0156,68.3014 C147.6066,68.3014 153.9306,69.5794 159.8096,72.0974 C162.1416,73.0984 164.3666,74.2474 166.4706,75.5444 C169.6896,77.5204 172.6306,79.8344 175.2606,82.4634 C176.6706,83.8734 177.9906,85.3724 179.2136,86.9574 C181.7716,90.2594 183.9196,93.9294 185.6306,97.9184 C188.1476,103.7974 189.4266,110.1214 189.4266,116.7114 C189.4266,123.3024 188.1516,129.5804 185.6356,135.3764 M193.0116,94.7284 C192.5546,93.6694 192.0716,92.6294 191.5596,91.6074 C189.8466,88.1844 187.8266,84.9724 185.5146,82.0034 C184.0936,80.1794 182.5616,78.4444 180.9226,76.8054 C175.8236,71.7094 169.7946,67.6424 162.9966,64.7144 C156.1706,61.7814 148.7816,60.2954 141.0346,60.2954 C133.2756,60.2954 125.9176,61.7854 119.1526,64.7194 C112.4256,67.6444 106.4306,71.7094 101.3376,76.8054 C96.2326,81.9084 92.1646,87.9394 89.2466,94.7284 C86.3136,101.5484 84.8246,108.9394 84.8246,116.6934 C84.8246,124.4584 86.3136,131.8184 89.2506,138.5734 C92.1696,145.2964 96.2346,151.2924 101.3356,156.3904 C106.4356,161.4934 112.4306,165.5584 119.1526,168.4764 C125.9086,171.4144 133.2696,172.9034 141.0346,172.9034 C148.7886,172.9034 156.2166,171.4994 162.9966,168.4804 C164.9066,167.6334 166.6256,166.9384 168.1776,166.3764 C173.7476,164.3554 179.8536,166.0774 183.8776,170.4264 C185.3496,172.0164 187.4796,172.9834 189.8296,172.8954 C194.0006,172.7384 197.2396,169.1804 197.2396,165.0064 C197.2396,165.0064 197.4316,118.3074 197.4316,116.6934 C197.4316,108.9464 195.9456,101.5574 193.0116,94.7284" id="Fill-55" fill="#FF5E39"></path>
                <path d="M141.1417,125.8681 C135.9247,125.8681 131.6797,121.6231 131.6797,116.4061 C131.6797,111.1851 135.9247,106.9431 141.1417,106.9431 C146.3607,106.9431 150.6077,111.1851 150.6077,116.4061 C150.6077,121.6231 146.3607,125.8681 141.1417,125.8681 M141.1287,91.5411 C127.4017,91.5411 116.2747,102.6671 116.2747,116.3951 C116.2747,130.1221 127.4017,141.2491 141.1287,141.2491 C154.8567,141.2491 165.9817,130.1221 165.9817,116.3951 C165.9817,102.6671 154.8567,91.5411 141.1287,91.5411" id="Fill-57" fill="#FF5E39"></path>
            </g>
        </g>
    </g>
</svg>