<?xml version="1.0" encoding="UTF-8"?>
<svg width="175px" height="150px" viewBox="0 0 175 150" version="1.1" xmlns="http://www.w3.org/2000/svg" xmlns:xlink="http://www.w3.org/1999/xlink">
    <!-- Generator: Sketch 52.5 (67469) - http://www.bohemiancoding.com/sketch -->
    <title>bussines</title>
    <desc>Created with Sketch.</desc>
    <defs>
        <polygon id="path-1" points="0 150.636 174.902 150.636 174.902 1 0 1"></polygon>
    </defs>
    <g id="Page-1" stroke="none" stroke-width="1" fill="none" fill-rule="evenodd">
        <g id="Desktop-HD" transform="translate(-275.000000, -2187.000000)">
            <g id="bussines" transform="translate(275.000000, 2186.000000)">
                <path d="M86.2617,49.7268 C85.4287,49.7268 84.7157,49.2048 84.4347,48.4678 C84.3507,48.2508 84.3057,48.0168 84.3057,47.7708 C84.3057,46.6928 85.1827,45.8148 86.2617,45.8148 C87.3407,45.8148 88.2177,46.6928 88.2177,47.7708 C88.2177,48.0168 88.1727,48.2508 88.0887,48.4678 C87.8077,49.2048 87.0947,49.7268 86.2617,49.7268 Z M86.2617,43.6368 C83.9817,43.6368 82.1277,45.4918 82.1277,47.7708 C82.1277,48.0088 82.1477,48.2418 82.1877,48.4678 C82.2887,49.0728 82.5227,49.6308 82.8577,50.1148 L89.6657,50.1148 C90.0007,49.6308 90.2347,49.0728 90.3357,48.4678 C90.3757,48.2418 90.3957,48.0088 90.3957,47.7708 C90.3957,45.4918 88.5417,43.6368 86.2617,43.6368 Z M83.1617,50.5008 C83.9177,51.3618 85.0277,51.9058 86.2617,51.9058 C87.4957,51.9058 88.6057,51.3618 89.3617,50.5008 L83.1617,50.5008 Z" id="Fill-1" fill="#181818"></path>
                <path d="M97.9277,42.4622 C96.8487,42.4622 95.9717,41.5852 95.9717,40.5062 C95.9717,39.4272 96.8487,38.5502 97.9277,38.5502 C99.0067,38.5502 99.8837,39.4272 99.8837,40.5062 C99.8837,41.5852 99.0067,42.4622 97.9277,42.4622 M97.9277,36.3722 C95.6477,36.3722 93.7937,38.2272 93.7937,40.5062 C93.7937,42.7862 95.6477,44.6402 97.9277,44.6402 C100.2077,44.6402 102.0617,42.7862 102.0617,40.5062 C102.0617,38.2272 100.2077,36.3722 97.9277,36.3722" id="Fill-3" fill="#181818"></path>
                <path d="M75.8996,105.7288 L72.6386,105.7288 C72.0936,105.2018 71.5696,104.6518 71.0666,104.0828 L74.0696,104.0828 C74.6536,104.6578 75.2646,105.2078 75.8996,105.7288" id="Fill-5" fill="#181818"></path>
                <path d="M103.4121,112.3596 L104.9131,112.3596 C104.7641,112.4176 104.6141,112.4736 104.4631,112.5286 C104.3401,112.5746 104.2121,112.5956 104.0891,112.5956 C103.8421,112.5956 103.6021,112.5096 103.4121,112.3596" id="Fill-7" fill="#181818"></path>
                <path d="M116.832,104.0823 C116.33,104.6513 115.808,105.2003 115.265,105.7283 L112.007,105.7283 C112.64,105.2073 113.248,104.6573 113.833,104.0823 L116.832,104.0823 Z" id="Fill-9" fill="#181818"></path>
                <path d="M63.2058,105.7288 L60.5388,105.7288 C60.1838,105.1888 59.8428,104.6398 59.5148,104.0828 L62.0938,104.0828 C62.4488,104.6398 62.8208,105.1908 63.2058,105.7288" id="Fill-11" fill="#181818"></path>
                <path d="M131.3252,112.2141 L134.0242,112.2141 C133.9912,112.2631 133.9582,112.3111 133.9232,112.3601 C133.5612,112.8671 133.1902,113.3661 132.8092,113.8601 C132.7732,113.9091 132.7352,113.9581 132.6972,114.0061 C132.0832,114.7961 131.4442,115.5671 130.7832,116.3161 C125.9702,121.7731 119.9062,126.1621 113.2472,129.0111 C113.1092,129.0701 112.9642,129.1001 112.8182,129.1001 C112.5212,129.1001 112.2272,128.9771 112.0172,128.7471 L105.3212,121.4581 C105.0702,121.1851 104.9762,120.8041 105.0692,120.4471 C105.1622,120.0901 105.4292,119.8041 105.7802,119.6881 C108.3592,118.8291 110.8542,117.6841 113.1932,116.2811 C113.7092,115.9721 114.3782,116.1391 114.6872,116.6541 C114.9962,117.1711 114.8302,117.8391 114.3142,118.1491 C112.3162,119.3481 110.2102,120.3681 108.0372,121.1941 L113.0942,126.7011 C119.1812,123.9741 124.7202,119.8991 129.1502,114.8751 C129.4022,114.5881 129.6522,114.2991 129.8962,114.0061 C129.9372,113.9581 129.9782,113.9091 130.0172,113.8601 C130.4282,113.3681 130.8272,112.8681 131.2162,112.3601 C131.2522,112.3111 131.2902,112.2631 131.3252,112.2141" id="Fill-13" fill="#181818"></path>
                <path d="M141.2124,97.2014 C140.3414,100.2914 139.1514,103.3044 137.6814,106.1764 C137.4704,106.5884 137.2544,106.9964 137.0314,107.4034 C136.7114,107.9884 136.3784,108.5674 136.0344,109.1394 C135.9864,109.2204 135.9384,109.3004 135.8894,109.3794 L135.8894,109.0444 C135.8894,108.3374 135.3144,107.7624 134.6074,107.7624 L134.3194,107.7624 C134.6304,107.2404 134.9294,106.7134 135.2184,106.1804 C135.5084,106.2414 135.7834,106.3464 136.0344,106.4884 L136.0344,104.6064 C136.6374,103.3884 137.1874,102.1434 137.6814,100.8804 C138.2284,99.4784 138.7074,98.0534 139.1154,96.6094 C139.2794,96.0304 139.8824,95.6934 140.4604,95.8564 C141.0384,96.0204 141.3754,96.6214 141.2124,97.2014" id="Fill-15" fill="#181818"></path>
                <path d="M128.2439,104.0823 C127.9169,104.6403 127.5759,105.1883 127.2219,105.7283 L124.5829,105.7283 C124.9679,105.1903 125.3379,104.6403 125.6929,104.0823 L128.2439,104.0823 Z" id="Fill-17" fill="#181818"></path>
                <path d="M133.865,83.8596 C133.858,84.3826 133.842,84.9066 133.815,85.4276 L133.815,81.3916 C133.859,82.2116 133.875,83.0336 133.865,83.8596" id="Fill-19" fill="#181818"></path>
                <path d="M115.052,50.1145 L110.609,50.1145 C109.373,49.4975 108.104,48.9475 106.809,48.4685 C106.284,48.2735 105.756,48.0905 105.223,47.9205 C104.651,47.7365 104.334,47.1235 104.519,46.5515 C104.701,45.9775 105.314,45.6625 105.888,45.8455 C108.053,46.5385 110.157,47.4195 112.175,48.4685 C113.156,48.9775 114.115,49.5265 115.052,50.1145" id="Fill-21" fill="#181818"></path>
                <path d="M118.0039,52.1477 L114.1919,52.1477 C113.2719,51.5577 112.3279,51.0087 111.3609,50.5017 L115.6559,50.5017 C116.4579,51.0227 117.2399,51.5727 118.0039,52.1477" id="Fill-23" fill="#181818"></path>
                <path d="M131.4502,52.1477 L128.5722,52.1477 C128.2932,51.7097 128.3632,51.1217 128.7592,50.7587 C128.9072,50.6267 129.0832,50.5387 129.2642,50.5017 C129.4142,50.4687 129.5692,50.4687 129.7192,50.5017 C129.9352,50.5457 130.1392,50.6577 130.2982,50.8337 C130.6902,51.2657 131.0752,51.7037 131.4502,52.1477" id="Fill-25" fill="#181818"></path>
                <path d="M135.4621,57.6116 L135.4621,61.9566 C134.9481,60.9816 134.3991,60.0246 133.8151,59.0876 L133.8151,55.1746 C134.3901,55.9716 134.9391,56.7856 135.4621,57.6116" id="Fill-27" fill="#181818"></path>
                <path d="M143.0508,83.845 C143.0508,84.448 142.5628,84.934 141.9618,84.934 C141.3608,84.934 140.8728,84.448 140.8728,83.845 C140.8728,77.955 139.7748,72.191 137.6808,66.814 C137.1868,65.544 136.6388,64.297 136.0338,63.075 L136.0338,58.539 C136.6198,59.508 137.1688,60.497 137.6808,61.5 C141.1878,68.357 143.0508,75.995 143.0508,83.845" id="Fill-29" fill="#181818"></path>
                <path d="M118.1186,43.4387 C117.9316,43.4387 117.7436,43.3907 117.5706,43.2897 C114.4006,41.4387 111.0166,39.9647 107.5116,38.9087 C106.9356,38.7347 106.6096,38.1267 106.7836,37.5507 C106.9566,36.9757 107.5646,36.6497 108.1406,36.8227 C111.8096,37.9287 115.3516,39.4717 118.6686,41.4087 C119.1886,41.7117 119.3636,42.3787 119.0596,42.8987 C118.8576,43.2457 118.4936,43.4387 118.1186,43.4387" id="Fill-31" fill="#181818"></path>
                <path d="M60.9304,50.5012 C60.3884,51.0352 59.8584,51.5842 59.3434,52.1472 L56.4404,52.1472 C56.9134,51.5872 57.4004,51.0382 57.8974,50.5012 L60.9304,50.5012 Z" id="Fill-33" fill="#181818"></path>
                <path d="M87.9868,37.2913 C78.7368,38.4633 70.0808,42.4083 63.1218,48.4683 C62.5088,48.9993 61.9108,49.5483 61.3248,50.1143 L58.2598,50.1143 C58.7928,49.5513 59.3378,49.0023 59.8948,48.4683 C67.4558,41.1993 77.2198,36.4593 87.7138,35.1313 C88.3078,35.0553 88.8548,35.4783 88.9308,36.0743 C89.0058,36.6713 88.5838,37.2163 87.9868,37.2913" id="Fill-35" fill="#181818"></path>
                <path d="M52.4851,58.5247 L52.4851,61.7037 C52.2831,61.8837 52.0231,61.9807 51.7571,61.9807 C51.5821,61.9807 51.4031,61.9377 51.2381,61.8467 C51.0691,61.7557 50.9341,61.6257 50.8381,61.4727 L50.8381,60.3037 C51.0631,59.8917 51.3021,59.4747 51.5411,59.0637 C51.7451,58.7167 52.1091,58.5247 52.4851,58.5247" id="Fill-37" fill="#181818"></path>
                <path d="M50.4116,101.4065 L50.4116,105.3735 C50.0296,105.3485 49.6726,105.1225 49.4976,104.7525 C49.2426,104.2105 48.9986,103.6655 48.7646,103.1165 C46.1566,97.0255 44.8386,90.5525 44.8386,83.8445 C44.8386,77.9425 45.8756,72.1675 47.9196,66.6855 C48.0616,66.3045 48.3916,66.0515 48.7646,65.9905 C48.9446,65.9615 49.1366,65.9765 49.3206,66.0455 C49.8846,66.2565 50.1706,66.8835 49.9616,67.4465 C49.5116,68.6535 49.1116,69.8735 48.7646,71.1075 C47.6036,75.2325 47.0166,79.5015 47.0166,83.8445 C47.0166,88.2155 47.6016,92.4815 48.7646,96.5975 C49.2236,98.2245 49.7726,99.8295 50.4116,101.4065" id="Fill-39" fill="#181818"></path>
                <path d="M51.0605,105.2102 C50.9215,105.0122 50.8385,104.7692 50.8385,104.5092 L50.8385,102.4252 C51.0405,102.8932 51.2505,103.3592 51.4685,103.8222 C51.7055,104.3272 51.5225,104.9232 51.0605,105.2102" id="Fill-41" fill="#181818"></path>
                <path d="M93.9443,132.9514 C79.5763,132.9514 65.9723,126.6854 56.6213,115.7604 C56.2303,115.3034 56.2843,114.6154 56.7403,114.2234 C57.1983,113.8334 57.8853,113.8874 58.2763,114.3444 C67.2133,124.7854 80.2133,130.7734 93.9443,130.7734 C97.9773,130.7734 101.9833,130.2614 105.8473,129.2514 C106.4293,129.0984 107.0243,129.4474 107.1763,130.0294 C107.3293,130.6114 106.9803,131.2064 106.3983,131.3584 C102.3543,132.4154 98.1633,132.9514 93.9443,132.9514" id="Fill-43" fill="#181818"></path>
                <path d="M52.4458,91.6526 C52.4458,91.8216 52.4588,91.9866 52.4848,92.1496 L52.4848,91.1556 C52.4588,91.3186 52.4458,91.4846 52.4458,91.6526" id="Fill-45" fill="#181818"></path>
                <path d="M51.656,112.3596 C52.134,112.6436 52.691,112.8056 53.287,112.8056 C53.882,112.8056 54.44,112.6436 54.917,112.3596 L51.656,112.3596 Z M50.081,109.6016 C50.081,110.1096 50.199,110.5896 50.412,111.0176 L50.412,108.1846 C50.199,108.6116 50.081,109.0926 50.081,109.6016 Z" id="Fill-47" fill="#181818"></path>
                <path d="M118.3349,114.8323 C117.8369,114.8323 117.4199,114.4763 117.3259,114.0063 C117.3169,113.9583 117.3109,113.9093 117.3099,113.8603 C117.3069,113.8423 117.3069,113.8223 117.3069,113.8043 C117.3069,113.2373 117.7689,112.7773 118.3349,112.7773 C118.9009,112.7773 119.3619,113.2373 119.3619,113.8043 C119.3619,113.8223 119.3619,113.8423 119.3589,113.8603 C119.3569,113.9093 119.3519,113.9583 119.3429,114.0063 C119.2479,114.4763 118.8329,114.8323 118.3349,114.8323 M121.1939,112.3593 L115.4739,112.3593 C115.2539,112.7933 115.1289,113.2843 115.1289,113.8043 C115.1289,113.8223 115.1289,113.8423 115.1299,113.8603 C115.1299,113.9093 115.1319,113.9583 115.1359,114.0063 C115.2389,115.6823 116.6349,117.0103 118.3349,117.0103 C120.0339,117.0103 121.4289,115.6823 121.5329,114.0063 C121.5369,113.9583 121.5379,113.9093 121.5379,113.8603 C121.5399,113.8423 121.5399,113.8223 121.5399,113.8043 C121.5399,113.2843 121.4159,112.7933 121.1939,112.3593" id="Fill-49" fill="#181818"></path>
                <path d="M70.2497,50.052 C70.0347,50.052 69.8237,50.074 69.6207,50.114 L70.8797,50.114 C70.6747,50.074 70.4647,50.052 70.2497,50.052 M71.8837,50.501 L68.6157,50.501 C67.9887,50.874 67.4997,51.455 67.2427,52.148 L73.2587,52.148 C73.0017,51.455 72.5117,50.874 71.8837,50.501" id="Fill-51" fill="#181818"></path>
                <path d="M124.4875,45.7659 C125.0535,45.7659 125.5155,46.2259 125.5155,46.7939 C125.5155,47.3609 125.0535,47.8209 124.4875,47.8209 C123.9215,47.8209 123.4605,47.3609 123.4605,46.7939 C123.4605,46.2259 123.9215,45.7659 124.4875,45.7659 M124.4875,43.5869 C122.7205,43.5869 121.2825,45.0259 121.2825,46.7939 C121.2825,47.4069 121.4565,47.9799 121.7565,48.4679 C122.3205,49.3859 123.3345,49.9979 124.4875,49.9979 C125.6405,49.9979 126.6555,49.3859 127.2205,48.4679 C127.5195,47.9799 127.6935,47.4069 127.6935,46.7939 C127.6935,45.0259 126.2545,43.5869 124.4875,43.5869" id="Fill-53" fill="#181818"></path>
                <path d="M141.1079,92.3352 C140.5419,92.3352 140.0799,91.8732 140.0799,91.3072 C140.0799,90.7402 140.5419,90.2782 141.1079,90.2782 C141.6739,90.2782 142.1359,90.7402 142.1359,91.3072 C142.1359,91.8732 141.6739,92.3352 141.1079,92.3352 M141.1079,88.1012 C139.3409,88.1012 137.9019,89.5402 137.9019,91.3072 C137.9019,93.0742 139.3409,94.5132 141.1079,94.5132 C142.8749,94.5132 144.3139,93.0742 144.3139,91.3072 C144.3139,89.5402 142.8749,88.1012 141.1079,88.1012" id="Fill-55" fill="#181818"></path>
                <g id="Group-61" transform="translate(24.000000, 124.636000)" fill="#181818">
                    <path d="M3.8799,2.9121 L1.5569,2.9121 C0.9549,2.9121 0.4669,2.4251 0.4669,1.8231 C0.4669,1.2221 0.9549,0.7341 1.5569,0.7341 L3.8799,0.7341 C4.4809,0.7341 4.9689,1.2221 4.9689,1.8231 C4.9689,2.4251 4.4809,2.9121 3.8799,2.9121" id="Fill-57"></path>
                    <path d="M12.8826,2.9121 L10.2686,2.9121 C9.6676,2.9121 9.1796,2.4251 9.1796,1.8231 C9.1796,1.2221 9.6676,0.7341 10.2686,0.7341 L12.8826,0.7341 C13.4846,0.7341 13.9716,1.2221 13.9716,1.8231 C13.9716,2.4251 13.4846,2.9121 12.8826,2.9121" id="Fill-59"></path>
                </g>
                <path d="M31.147,133.2835 C30.545,133.2835 30.058,132.7965 30.058,132.1945 L30.058,129.8715 C30.058,129.2695 30.545,128.7825 31.147,128.7825 C31.749,128.7825 32.236,129.2695 32.236,129.8715 L32.236,132.1945 C32.236,132.7965 31.749,133.2835 31.147,133.2835" id="Fill-62" fill="#181818"></path>
                <path d="M31.147,124.5715 C30.545,124.5715 30.058,124.0845 30.058,123.4825 L30.058,120.8685 C30.058,120.2665 30.545,119.7795 31.147,119.7795 C31.749,119.7795 32.236,120.2665 32.236,120.8685 L32.236,123.4825 C32.236,124.0845 31.749,124.5715 31.147,124.5715" id="Fill-64" fill="#181818"></path>
                <g id="Group-74" transform="translate(161.000000, 69.636000)" fill="#181818">
                    <path d="M3.81,8.542 L1.487,8.542 C0.885,8.542 0.398,8.054 0.398,7.453 C0.398,6.852 0.885,6.363 1.487,6.363 L3.81,6.363 C4.411,6.363 4.899,6.852 4.899,7.453 C4.899,8.054 4.411,8.542 3.81,8.542" id="Fill-66"></path>
                    <path d="M12.8127,8.542 L10.1987,8.542 C9.5977,8.542 9.1097,8.054 9.1097,7.453 C9.1097,6.852 9.5977,6.363 10.1987,6.363 L12.8127,6.363 C13.4147,6.363 13.9017,6.852 13.9017,7.453 C13.9017,8.054 13.4147,8.542 12.8127,8.542" id="Fill-68"></path>
                    <path d="M7.0771,14.2773 C6.4751,14.2773 5.9881,13.7903 5.9881,13.1883 L5.9881,10.8653 C5.9881,10.2633 6.4751,9.7763 7.0771,9.7763 C7.6791,9.7763 8.1661,10.2633 8.1661,10.8653 L8.1661,13.1883 C8.1661,13.7903 7.6791,14.2773 7.0771,14.2773" id="Fill-70"></path>
                    <path d="M7.0771,5.5654 C6.4751,5.5654 5.9881,5.0774 5.9881,4.4754 L5.9881,1.8624 C5.9881,1.2604 6.4751,0.7734 7.0771,0.7734 C7.6791,0.7734 8.1661,1.2604 8.1661,1.8624 L8.1661,4.4754 C8.1661,5.0774 7.6791,5.5654 7.0771,5.5654" id="Fill-72"></path>
                </g>
                <g id="Group-83" transform="translate(67.000000, 0.636000)" fill="#181818">
                    <path d="M4.0063,8.1328 L1.6833,8.1328 C1.0813,8.1328 0.5943,7.6458 0.5943,7.0438 C0.5943,6.4428 1.0813,5.9548 1.6833,5.9548 L4.0063,5.9548 C4.6073,5.9548 5.0953,6.4428 5.0953,7.0438 C5.0953,7.6458 4.6073,8.1328 4.0063,8.1328" id="Fill-75"></path>
                    <path d="M13.009,8.1328 L10.395,8.1328 C9.794,8.1328 9.306,7.6458 9.306,7.0438 C9.306,6.4428 9.794,5.9548 10.395,5.9548 L13.009,5.9548 C13.611,5.9548 14.098,6.4428 14.098,7.0438 C14.098,7.6458 13.611,8.1328 13.009,8.1328" id="Fill-77"></path>
                    <path d="M7.2734,13.8682 C6.6714,13.8682 6.1844,13.3812 6.1844,12.7792 L6.1844,10.4562 C6.1844,9.8542 6.6714,9.3672 7.2734,9.3672 C7.8754,9.3672 8.3624,9.8542 8.3624,10.4562 L8.3624,12.7792 C8.3624,13.3812 7.8754,13.8682 7.2734,13.8682" id="Fill-79"></path>
                    <path d="M7.2734,5.1563 C6.6714,5.1563 6.1844,4.6683 6.1844,4.0673 L6.1844,1.4533 C6.1844,0.8513 6.6714,0.3643 7.2734,0.3643 C7.8754,0.3643 8.3624,0.8513 8.3624,1.4533 L8.3624,4.0673 C8.3624,4.6683 7.8754,5.1563 7.2734,5.1563" id="Fill-81"></path>
                </g>
                <g id="Group-92" transform="translate(158.000000, 109.636000)" fill="#181818">
                    <path d="M3.7605,8.7637 L1.4375,8.7637 C0.8355,8.7637 0.3485,8.2767 0.3485,7.6747 C0.3485,7.0737 0.8355,6.5857 1.4375,6.5857 L3.7605,6.5857 C4.3625,6.5857 4.8495,7.0737 4.8495,7.6747 C4.8495,8.2767 4.3625,8.7637 3.7605,8.7637" id="Fill-84"></path>
                    <path d="M12.7634,8.7637 L10.1494,8.7637 C9.5484,8.7637 9.0604,8.2767 9.0604,7.6747 C9.0604,7.0737 9.5484,6.5857 10.1494,6.5857 L12.7634,6.5857 C13.3654,6.5857 13.8524,7.0737 13.8524,7.6747 C13.8524,8.2767 13.3654,8.7637 12.7634,8.7637" id="Fill-86"></path>
                    <path d="M7.0278,14.5 C6.4258,14.5 5.9388,14.012 5.9388,13.411 L5.9388,11.087 C5.9388,10.486 6.4258,9.998 7.0278,9.998 C7.6298,9.998 8.1168,10.486 8.1168,11.087 L8.1168,13.411 C8.1168,14.012 7.6298,14.5 7.0278,14.5" id="Fill-88"></path>
                    <path d="M7.0278,5.7871 C6.4258,5.7871 5.9388,5.3001 5.9388,4.6981 L5.9388,2.0851 C5.9388,1.4831 6.4258,0.9951 7.0278,0.9951 C7.6298,0.9951 8.1168,1.4831 8.1168,2.0851 L8.1168,4.6981 C8.1168,5.3001 7.6298,5.7871 7.0278,5.7871" id="Fill-90"></path>
                </g>
                <path d="M27.5908,97.0989 C26.8458,97.0989 26.2388,96.4929 26.2388,95.7469 C26.2388,95.0019 26.8458,94.3959 27.5908,94.3959 C28.3358,94.3959 28.9428,95.0019 28.9428,95.7469 C28.9428,96.4929 28.3358,97.0989 27.5908,97.0989 M27.5908,92.2169 C25.6448,92.2169 24.0608,93.8019 24.0608,95.7469 C24.0608,97.6949 25.6448,99.2779 27.5908,99.2779 C29.5368,99.2779 31.1208,97.6949 31.1208,95.7469 C31.1208,93.8019 29.5368,92.2169 27.5908,92.2169" id="Fill-93" fill="#181818"></path>
                <path d="M103.5747,17.5969 C102.8287,17.5969 102.2227,16.9919 102.2227,16.2449 C102.2227,15.4999 102.8287,14.8929 103.5747,14.8929 C104.3197,14.8929 104.9267,15.4999 104.9267,16.2449 C104.9267,16.9919 104.3197,17.5969 103.5747,17.5969 M103.5747,12.7149 C101.6277,12.7149 100.0447,14.2989 100.0447,16.2449 C100.0447,18.1929 101.6277,19.7749 103.5747,19.7749 C105.5207,19.7749 107.1047,18.1929 107.1047,16.2449 C107.1047,14.2989 105.5207,12.7149 103.5747,12.7149" id="Fill-95" fill="#181818"></path>
                <path d="M150.1863,126.3567 C149.4393,126.3567 148.8343,125.7517 148.8343,125.0047 C148.8343,124.2597 149.4393,123.6537 150.1863,123.6537 C150.9313,123.6537 151.5383,124.2597 151.5383,125.0047 C151.5383,125.7517 150.9313,126.3567 150.1863,126.3567 M150.1863,121.4747 C148.2393,121.4747 146.6563,123.0597 146.6563,125.0047 C146.6563,126.9527 148.2393,128.5357 150.1863,128.5357 C152.1323,128.5357 153.7163,126.9527 153.7163,125.0047 C153.7163,123.0597 152.1323,121.4747 150.1863,121.4747" id="Fill-97" fill="#181818"></path>
                <path d="M93.5859,150.636 C76.7229,150.636 60.6089,144.351 48.2109,132.938 C47.7679,132.53 47.7399,131.841 48.1469,131.399 C48.5549,130.955 49.2429,130.927 49.6859,131.335 C61.6809,142.377 77.2709,148.458 93.5859,148.458 C101.3389,148.458 108.9219,147.104 116.1249,144.433 C123.0839,141.853 129.5099,138.115 135.2229,133.324 C135.6839,132.937 136.3709,132.997 136.7569,133.458 C137.1439,133.918 137.0839,134.606 136.6229,134.992 C130.7179,139.945 124.0759,143.808 116.8819,146.476 C109.4369,149.237 101.5989,150.636 93.5859,150.636" id="Fill-99" fill="#181818"></path>
                <path d="M154.5437,59.5637 C154.1157,59.5637 153.7107,59.3107 153.5367,58.8907 C150.9347,52.5897 147.3617,46.7547 142.9157,41.5477 C138.4987,36.3747 133.3267,31.9447 127.5447,28.3817 C127.0327,28.0667 126.8737,27.3957 127.1887,26.8837 C127.5047,26.3717 128.1757,26.2117 128.6877,26.5277 C134.6627,30.2097 140.0077,34.7867 144.5727,40.1337 C149.1667,45.5157 152.8597,51.5457 155.5497,58.0587 C155.7797,58.6147 155.5147,59.2517 154.9597,59.4817 C154.8237,59.5377 154.6827,59.5637 154.5437,59.5637" id="Fill-101" fill="#181818"></path>
                <path d="M151.3784,83.4094 C151.3784,91.2414 149.8454,98.8394 146.8184,105.9914 C143.8974,112.9004 139.7134,119.1054 134.3864,124.4324 C129.0584,129.7614 122.8534,133.9424 115.9464,136.8654 C108.7924,139.8904 101.1944,141.4254 93.3634,141.4254 C85.5314,141.4254 77.9344,139.8904 70.7814,136.8654 C63.8724,133.9424 57.6694,129.7614 52.3414,124.4324 C47.0134,119.1054 42.8304,112.9004 39.9084,105.9914 C36.8824,98.8394 35.3494,91.2414 35.3494,83.4094 C35.3494,79.3374 35.7634,75.3304 36.5864,71.4134 L38.8154,71.4134 C37.9584,75.3254 37.5274,79.3344 37.5274,83.4094 C37.5274,90.9484 39.0024,98.2614 41.9144,105.1434 C44.7264,111.7934 48.7534,117.7634 53.8804,122.8924 C59.0094,128.0204 64.9804,132.0464 71.6294,134.8584 C78.5134,137.7704 85.8244,139.2474 93.3634,139.2474 C100.9014,139.2474 108.2144,137.7704 115.0974,134.8584 C121.7454,132.0464 127.7184,128.0204 132.8454,122.8924 C137.9744,117.7634 142.0004,111.7934 144.8134,105.1434 C147.7234,98.2614 149.2004,90.9484 149.2004,83.4094 C149.2004,75.8714 147.7234,68.5584 144.8134,61.6764 C142.0004,55.0264 137.9744,49.0554 132.8454,43.9274 C127.7184,38.7994 121.7454,34.7714 115.0974,31.9614 C108.2144,29.0494 100.9014,27.5724 93.3634,27.5724 C85.8244,27.5724 78.5134,29.0494 71.6294,31.9614 C68.1904,33.4144 64.9334,35.1934 61.8814,37.2824 L62.5534,34.2374 C65.1664,32.5974 67.9134,31.1684 70.7814,29.9544 C77.9344,26.9304 85.5314,25.3944 93.3634,25.3944 C101.1944,25.3944 108.7924,26.9304 115.9464,29.9544 C122.8534,32.8774 129.0584,37.0584 134.3864,42.3874 C139.7134,47.7144 143.8974,53.9194 146.8184,60.8284 C149.8454,67.9804 151.3784,75.5784 151.3784,83.4094" id="Fill-103" fill="#181818"></path>
                <path d="M50.4136,50.511 C50.4136,50.292 50.5916,50.114 50.8106,50.114 L135.6346,50.114 C135.8536,50.114 136.0366,50.292 136.0366,50.511 L136.0366,106.49 C135.7816,106.347 135.5066,106.24 135.2166,106.179 C135.0236,106.138 134.8146,106.114 134.6056,106.114 L51.6916,106.114 C51.2336,106.114 50.8006,106.22 50.4136,106.413 L50.4136,50.511 Z M135.8886,110.93 C135.8886,111.637 135.3136,112.213 134.6056,112.213 L51.6916,112.213 C51.5846,112.213 51.4776,112.202 51.3756,112.177 C50.8516,112.039 50.4546,111.581 50.4136,111.027 L50.4136,109.046 C50.4136,108.338 50.9886,107.763 51.6916,107.763 L134.6056,107.763 C135.3136,107.763 135.8886,108.338 135.8886,109.046 L135.8886,110.93 Z M135.6346,48.469 L50.8106,48.469 C49.6806,48.469 48.7636,49.386 48.7636,50.511 L48.7636,111.963 C48.7636,113.088 49.6806,114.005 50.8106,114.005 L135.6346,114.005 C136.7646,114.005 137.6816,113.088 137.6816,111.963 L137.6816,50.511 C137.6816,49.386 136.7646,48.469 135.6346,48.469 Z" id="Fill-105" fill="#181818"></path>
                <mask id="mask-2" fill="white">
                    <use xlink:href="#path-1"></use>
                </mask>
                <g id="Clip-108"></g>
                <path d="M52.485,104.081 L133.816,104.081 L133.816,52.145 L52.485,52.145 L52.485,104.081 Z M134.244,50.501 L52.058,50.501 C51.386,50.501 50.836,51.051 50.836,51.723 L50.836,104.509 C50.836,104.769 50.923,105.013 51.06,105.212 C51.284,105.523 51.646,105.731 52.058,105.731 L134.244,105.731 C134.916,105.731 135.461,105.181 135.461,104.509 L135.461,51.723 C135.461,51.051 134.916,50.501 134.244,50.501 Z" id="Fill-107" fill="#181818" mask="url(#mask-2)"></path>
                <path d="M64.0276,27.5686 L62.5536,34.2376 L61.8816,37.2826 L60.0256,45.6826 C59.9136,46.1916 59.4636,46.5366 58.9646,46.5366 C58.8856,46.5366 58.8076,46.5276 58.7276,46.5106 C58.1406,46.3806 57.7696,45.8006 57.8996,45.2126 L59.2246,39.2176 L59.9386,35.9806 L61.6646,28.1626 L22.1136,19.4246 L18.1266,38.0266 C18.0016,38.6146 17.4216,38.9886 16.8336,38.8626 C16.2456,38.7366 15.8716,38.1586 15.9976,37.5706 L20.2126,17.8976 C20.2736,17.6126 20.4446,17.3666 20.6896,17.2096 C20.9336,17.0526 21.2296,16.9986 21.5126,17.0606 L63.1986,26.2696 C63.4816,26.3326 63.7266,26.5046 63.8826,26.7486 C64.0376,26.9906 64.0896,27.2866 64.0276,27.5686" id="Fill-109" fill="#181818" mask="url(#mask-2)"></path>
                <path d="M55.8472,42.5842 C55.7692,42.5842 55.6902,42.5762 55.6112,42.5592 C55.0242,42.4292 54.6532,41.8482 54.7832,41.2602 L56.3542,34.1452 C55.6942,33.8032 55.1292,33.2892 54.7122,32.6402 C54.2842,31.9742 54.0502,31.2222 54.0242,30.4512 L28.6552,24.8482 C28.3042,25.5402 27.7722,26.1252 27.0972,26.5462 C26.4302,26.9612 25.6752,27.1862 24.9002,27.2062 L23.5452,33.3382 C24.2392,33.6822 24.8292,34.1982 25.2592,34.8512 C25.8992,35.8222 26.1132,36.9882 25.8602,38.1342 C25.7302,38.7222 25.1492,39.0932 24.5622,38.9622 C23.9742,38.8332 23.6032,38.2512 23.7332,37.6642 C23.8582,37.0992 23.7542,36.5242 23.4412,36.0492 C23.1242,35.5672 22.6262,35.2312 22.0402,35.1032 C21.7582,35.0402 21.5132,34.8682 21.3572,34.6242 C21.2022,34.3812 21.1502,34.0862 21.2122,33.8042 L22.9802,25.8022 C23.0422,25.5202 23.2142,25.2742 23.4572,25.1182 C23.7012,24.9632 23.9962,24.9112 24.2782,24.9742 C24.8612,25.1022 25.4532,25.0042 25.9452,24.6972 C26.4332,24.3932 26.7712,23.9122 26.8962,23.3442 C26.9592,23.0622 27.1302,22.8152 27.3742,22.6602 C27.6172,22.5052 27.9122,22.4532 28.1952,22.5152 L55.4232,28.5292 C55.7052,28.5922 55.9512,28.7642 56.1062,29.0072 C56.2612,29.2512 56.3142,29.5462 56.2512,29.8282 C56.1262,30.3942 56.2302,30.9742 56.5442,31.4622 C56.8532,31.9422 57.3192,32.2712 57.8572,32.3912 C58.4442,32.5212 58.8152,33.1022 58.6862,33.6892 L56.9092,41.7302 C56.7972,42.2382 56.3472,42.5842 55.8472,42.5842" id="Fill-110" fill="#181818" mask="url(#mask-2)"></path>
                <path d="M39.6839,32.4445 C39.0799,32.4445 38.5339,32.8645 38.3979,33.4775 C38.3229,33.8215 38.3849,34.1735 38.5739,34.4695 C38.7629,34.7655 39.0569,34.9705 39.3999,35.0475 C40.1089,35.2035 40.8129,34.7545 40.9699,34.0465 C41.1259,33.3375 40.6769,32.6335 39.9679,32.4755 C39.8729,32.4555 39.7779,32.4445 39.6839,32.4445 Z M39.6849,37.2575 C39.4359,37.2575 39.1829,37.2295 38.9299,37.1745 C38.0189,36.9725 37.2399,36.4285 36.7379,35.6415 C36.2359,34.8545 36.0699,33.9195 36.2719,33.0085 C36.6869,31.1265 38.5559,29.9335 40.4379,30.3485 C42.3189,30.7645 43.5119,32.6345 43.0959,34.5155 C42.7369,36.1435 41.2879,37.2575 39.6849,37.2575 Z" id="Fill-111" fill="#181818" mask="url(#mask-2)"></path>
                <path d="M23.3616,55.0762 C22.9466,55.0762 22.5566,55.2362 22.2606,55.5282 C21.9626,55.8222 21.7976,56.2152 21.7946,56.6342 C21.7916,57.0532 21.9526,57.4472 22.2466,57.7452 C22.5406,58.0432 22.9336,58.2092 23.3516,58.2112 L23.3626,58.2112 C23.7776,58.2112 24.1676,58.0512 24.4636,57.7592 C24.7616,57.4652 24.9266,57.0722 24.9296,56.6532 C24.9346,55.7892 24.2366,55.0822 23.3726,55.0762 L23.3616,55.0762 Z M23.3626,60.3902 L23.3386,60.3902 C21.2726,60.3762 19.6036,58.6862 19.6166,56.6202 C19.6226,55.6192 20.0186,54.6822 20.7306,53.9792 C21.4366,53.2812 22.3696,52.8982 23.3616,52.8982 C23.3696,52.8982 23.3776,52.8982 23.3856,52.8982 C25.4516,52.9112 27.1206,54.6022 27.1076,56.6672 C27.1016,57.6682 26.7056,58.6062 25.9936,59.3092 C25.2876,60.0062 24.3536,60.3902 23.3626,60.3902 Z" id="Fill-112" fill="#181818" mask="url(#mask-2)"></path>
                <path d="M2.178,69.236 L44.143,69.236 L44.143,42.518 L2.178,42.518 L2.178,69.236 Z M45.232,40.339 L1.089,40.339 C0.488,40.339 0,40.827 0,41.428 L0,70.324 C0,70.926 0.488,71.413 1.089,71.413 L45.232,71.413 C45.833,71.413 46.321,70.926 46.321,70.324 L46.321,41.428 C46.321,40.827 45.833,40.339 45.232,40.339 Z" id="Fill-113" fill="#181818" mask="url(#mask-2)"></path>
                <path d="M8.7458,65.1702 L37.2858,65.1702 C37.8348,63.9652 38.7688,62.9522 39.9278,62.3092 L39.9278,49.1552 C38.8578,48.5652 37.9848,47.6672 37.4238,46.5832 L8.6048,46.5832 C8.0968,47.5612 7.3278,48.3972 6.3928,48.9842 L6.3928,62.4782 C7.4248,63.1232 8.2448,64.0632 8.7458,65.1702 M38.0378,67.3482 L7.9928,67.3482 C7.5108,67.3482 7.0858,67.0312 6.9488,66.5692 C6.6268,65.4882 5.8568,64.5892 4.8358,64.1032 C4.4558,63.9222 4.2148,63.5402 4.2148,63.1202 L4.2148,48.3422 C4.2148,47.9222 4.4558,47.5402 4.8358,47.3592 C5.7758,46.9112 6.5188,46.0962 6.8748,45.1202 C7.0308,44.6912 7.4398,44.4052 7.8978,44.4052 L38.1328,44.4052 C38.5908,44.4052 38.9988,44.6912 39.1558,45.1202 C39.5438,46.1842 40.3708,47.0352 41.4228,47.4582 C41.8358,47.6232 42.1068,48.0242 42.1068,48.4692 L42.1068,62.9932 C42.1068,63.4392 41.8358,63.8382 41.4228,64.0042 C40.3008,64.4542 39.4258,65.4132 39.0818,66.5692 C38.9448,67.0312 38.5198,67.3482 38.0378,67.3482" id="Fill-114" fill="#181818" mask="url(#mask-2)"></path>
                <path d="M93.8618,55.3958 C93.4978,55.3958 93.2028,55.1008 93.2028,54.7368 C93.2028,54.3728 93.4978,54.0778 93.8618,54.0778 C94.2258,54.0778 94.5208,54.3728 94.5208,54.7368 C94.5208,55.1008 94.2258,55.3958 93.8618,55.3958 M93.8618,53.3428 C93.0928,53.3428 92.4678,53.9678 92.4678,54.7368 C92.4678,55.5048 93.0928,56.1298 93.8618,56.1298 C94.6308,56.1298 95.2558,55.5048 95.2558,54.7368 C95.2558,53.9678 94.6308,53.3428 93.8618,53.3428" id="Fill-115" fill="#181818" mask="url(#mask-2)"></path>
                <path d="M107.1409,79.0862 C107.1409,82.5562 105.7809,85.8252 103.3209,88.2862 C100.8709,90.7452 97.6009,92.0962 94.1209,92.0962 C90.8609,92.0962 87.7509,90.8862 85.3109,88.6652 L85.2509,88.6062 C85.1409,88.5062 85.0309,88.3962 84.9209,88.2862 C82.4609,85.8252 81.1109,82.5562 81.1109,79.0862 C81.1109,75.6062 82.4609,72.3362 84.9209,69.8762 C87.3809,67.4262 90.6409,66.0652 94.1209,66.0652 C97.6009,66.0652 100.8709,67.4262 103.3209,69.8762 C103.5709,70.1262 103.8009,70.3762 104.0509,70.6762 C106.0409,73.0162 107.1409,75.9952 107.1409,79.0862 M120.7709,60.2162 L117.7309,60.2162 C117.2609,60.2162 116.8809,60.5962 116.8809,61.0652 C116.8809,61.5362 117.2609,61.9152 117.7309,61.9152 L118.7009,61.9152 L112.9409,67.6652 L109.6509,64.8462 C109.3109,64.5462 108.7909,64.5752 108.4809,64.9052 L104.7109,68.8562 L104.5309,68.6762 C101.7509,65.8962 98.0509,64.3662 94.1209,64.3662 C90.1909,64.3662 86.4909,65.8962 83.7109,68.6762 C80.9309,71.4562 79.4009,75.1462 79.4009,79.0862 C79.4009,82.9052 80.8509,86.5162 83.4909,89.2662 L79.8309,92.9762 L76.1809,90.0462 C75.8209,89.7562 75.3109,89.8062 75.0109,90.1462 L68.6209,97.3362 C68.3009,97.6862 68.3409,98.2262 68.6909,98.5362 C68.8409,98.6762 69.0409,98.7562 69.2509,98.7562 C69.4909,98.7562 69.7309,98.6462 69.8909,98.4662 L75.7409,91.8862 L79.3709,94.7862 C79.7109,95.0652 80.2009,95.0362 80.5109,94.7162 L84.7409,90.4262 C87.3709,92.6062 90.6809,93.8062 94.1209,93.8062 C98.0509,93.8062 101.7509,92.2762 104.5309,89.4952 C107.3109,86.7162 108.8409,83.0162 108.8409,79.0862 C108.8409,75.8062 107.8009,72.7262 105.8209,70.1462 L109.1509,66.6652 L112.4309,69.4762 C112.7709,69.7662 113.2809,69.7452 113.5909,69.4362 L119.9109,63.1062 L119.9109,64.2062 C119.9109,64.6762 120.3009,65.0562 120.7709,65.0562 C121.2409,65.0562 121.6209,64.6762 121.6209,64.2062 L121.6209,61.0652 C121.6209,60.5962 121.2409,60.2162 120.7709,60.2162" id="Fill-116" fill="#FF5E39" mask="url(#mask-2)"></path>
                <polygon id="Fill-117" fill="#FF5E39" mask="url(#mask-2)" points="120.7644 61.0608 120.7644 64.2048 120.7684 61.0628"></polygon>
            </g>
        </g>
    </g>
</svg>