<?xml version="1.0" encoding="UTF-8"?>
<svg width="254px" height="363px" viewBox="0 0 254 363" version="1.1" xmlns="http://www.w3.org/2000/svg" xmlns:xlink="http://www.w3.org/1999/xlink">
    <!-- Generator: Sketch 52.5 (67469) - http://www.bohemiancoding.com/sketch -->
    <title>Group 52</title>
    <desc>Created with Sketch.</desc>
    <defs>
        <polygon id="path-1" points="0.626283553 0.684730934 250.652943 0.684730934 250.652943 311.431008 0.626283553 311.431008"></polygon>
    </defs>
    <g id="Page-1" stroke="none" stroke-width="1" fill="none" fill-rule="evenodd">
        <g id="Desktop-HD" transform="translate(-341.000000, -1367.000000)">
            <g id="Group-52" transform="translate(341.000000, 1367.000000)">
                <path d="M162.147515,287.216469 C162.147515,288.780654 161.268961,290.308882 159.616398,291.639338 L120.017244,323.624236 C114.753253,327.885293 103.601662,328.424667 97.0739458,324.720964 L53.0343314,299.80187 C50.3197993,298.255663 48.8341433,296.277958 48.8341433,294.210356 L48.8524847,290.524631 C49.0542405,290.75836 49.2743377,290.97411 49.4944349,291.18986 C49.586142,291.279755 49.6778492,291.369651 49.7878978,291.459547 C50.4665308,292.070838 51.236871,292.628191 52.1374353,293.131607 L96.1733814,318.050701 C99.419815,319.884574 103.601662,320.783531 107.746826,320.783531 L107.765167,320.783531 C108.407117,320.783531 109.030726,320.765552 109.672676,320.711615 L109.691017,320.711615 C110.314626,320.675656 110.938235,320.621719 111.561844,320.531823 L111.580185,320.531823 C112.827402,320.370011 114.039771,320.118303 115.193447,319.776699 C115.780373,319.614887 116.348958,319.417116 116.880859,319.219346 C118.531588,318.608055 120.000737,317.798993 121.209437,316.81014 L160.810425,284.807264 C161.303809,284.411722 161.762345,283.980223 162.165857,283.530744 L162.147515,287.216469 Z M162.165857,279 C162.165857,279.773103 161.94576,280.546206 161.523907,281.30133 C161.303809,281.678892 161.047029,282.038475 160.735225,282.398058 C160.570152,282.559871 160.405079,282.739662 160.221665,282.919453 C160.038251,283.099245 159.854836,283.261057 159.65308,283.422869 L120.053927,315.407767 C114.789936,319.668824 103.638345,320.208198 97.090453,316.504495 L53.054507,291.585401 C50.3381408,290.039195 48.8524847,288.061489 48.8524847,285.993887 L47.0183414,285.993887 L47,294.210356 C47,296.943186 48.8158018,299.478245 52.1172598,301.348076 L96.1568741,326.26717 C99.3831322,328.101043 103.564979,329 107.728484,329 C112.864085,329 117.944662,327.633585 121.191096,325.026609 L160.790249,293.023732 C162.881173,291.351672 163.981659,289.338008 163.981659,287.234448 L164,279.017979 L162.165857,279 Z" id="Fill-1" fill="#3D3D3D"></path>
                <path d="M163.981656,278.60452 C163.761524,276.044929 161.963782,273.683616 158.881938,271.953188 L131.459031,256.397363 C130.83349,256.036858 130.154751,255.712402 129.457667,255.442023 C128.870649,255.189669 128.248777,254.95534 127.623236,254.775087 L127.623236,256.649718 C128.265287,256.866021 128.870649,257.118375 129.457667,257.388754 C129.824553,257.569007 130.191439,257.74926 130.541816,257.947538 L157.964722,273.503363 C160.514581,274.945386 162.00047,276.801991 162.147225,278.748722 C162.165569,278.874899 162.165569,278.983051 162.165569,279.109228 C162.165569,279.884315 161.945437,280.659403 161.523518,281.416465 C161.321731,281.794996 161.046566,282.155502 160.734713,282.516008 C160.587959,282.69626 160.404516,282.876513 160.221072,283.038741 C160.037629,283.218994 159.854186,283.381221 159.652399,283.543449 L120.047037,315.610439 C114.78222,319.882432 103.628881,320.423191 97.0799624,316.709981 L53.0371119,291.72693 C50.3203198,290.176755 48.8344309,288.193974 48.8344309,286.121065 C48.8344309,286.030939 48.8527752,285.940812 48.8527752,285.850686 C49.0178739,283.399247 51.219191,281.146086 54.906397,279.668012 L111.113358,257.010223 C111.920508,256.685768 112.764346,256.415389 113.626529,256.199085 C114.231891,256.036858 114.837253,255.910681 115.46096,255.802529 L115.46096,254 C114.837253,254.090126 114.231891,254.216303 113.626529,254.360506 C112.507526,254.61286 111.443556,254.937315 110.416275,255.351897 L54.2093133,277.99166 C49.8617121,279.758138 47.238476,282.570083 47.0183443,285.724509 C47.0183443,285.850686 47,285.994888 47,286.121065 C47,287.725316 47.6420508,289.275491 48.8344309,290.663438 C49.0362183,290.897767 49.25635,291.11407 49.4764817,291.330374 C49.5682032,291.4205 49.6599247,291.510627 49.7699906,291.600753 C50.44873,292.213613 51.219191,292.772397 52.1198965,293.277105 L96.1627469,318.260156 C99.4096896,320.098736 103.592192,321 107.738006,321 L107.75635,321 C108.398401,321 109.022107,320.981975 109.664158,320.927899 L109.682502,320.927899 C110.306209,320.891848 110.929915,320.837772 111.553622,320.747646 L111.571966,320.747646 C112.819379,320.567393 114.031938,320.315039 115.185795,319.990584 C115.772813,319.828356 116.341486,319.630078 116.873471,319.4318 C118.524459,318.81894 119.993838,318.007802 121.202728,317.016411 L160.809925,284.931396 C161.303387,284.53484 161.761994,284.102233 162.165569,283.651601 C163.357949,282.263653 164,280.713479 164,279.127253 C164,278.947 164,278.784773 163.981656,278.60452" id="Fill-3" fill="#3D3D3D"></path>
                <path d="M130,247.987784 L130,256.808762 L129.98146,278.48989 C129.83314,279.73968 128.961761,280.880792 127.478563,281.713985 C125.939745,282.583404 123.974508,283 122.00927,283 C120.044032,283 118.078795,282.583404 116.539977,281.713985 C114.889919,280.772115 114,279.504212 114,278.10952 L114,240 L115.853998,240 L115.853998,276.678602 L115.946698,276.678602 L115.891078,277.67481 C115.872538,277.837826 115.853998,277.964617 115.853998,278.10952 C115.853998,278.834035 116.428737,279.558551 117.466976,280.156276 C119.969873,281.550969 124.048667,281.550969 126.551564,280.156276 C127.571263,279.558551 128.146002,278.852148 128.146002,278.127633 C128.146002,278.000842 128.127462,277.910278 128.090382,277.801601 L127.867903,276.714827 L128.146002,276.714827 L128.146002,247.987784 L130,247.987784 Z" id="Fill-5" fill="#3D3D3D"></path>
                <polygon id="Fill-7" fill="#3D3D3D" points="114 227.01 114 226.99 116 226.99"></polygon>
                <path d="M238.355169,138.533293 C238.045688,138.259536 237.754412,137.98578 237.444931,137.730273 C236.825968,137.237511 236.188801,136.799501 235.533429,136.416241 L10.8683099,6.36356898 C10.3949858,6.0898123 9.90345686,5.85255651 9.43013273,5.65180161 C9.19347066,5.56054939 8.97501337,5.46929716 8.73835131,5.39629538 C8.50168924,5.3232936 8.28323195,5.25029182 8.04656988,5.19554048 C7.26376459,5.01303603 6.49916407,4.9582847 5.80738265,5.03128648 C5.64353968,5.03128648 5.47969671,5.04953692 5.31585374,5.08603781 C5.15201077,5.10428826 4.98816781,5.14078915 4.89714393,5.17729004 C4.66048187,5.21379093 4.4238198,5.28679271 4.22356729,5.39629538 C3.95049567,5.50579805 3.71383361,5.61530072 3.51358109,5.74305384 C1.52926069,6.89283189 0.436974236,9.22888887 0.418769462,12.3314646 L5.96535463e-05,163.171394 C-0.0181451207,169.285293 4.13254341,176.512469 9.48474705,179.615045 L20.0799257,185.747195 L20.9901644,184.159406 L10.5224192,178.100258 L10.376781,178.027256 C5.64353968,175.271439 1.80233231,168.610027 1.82053708,163.171394 L2.23924689,12.3314646 C2.25745166,9.94065623 3.02205218,8.1521126 4.4238198,7.31259213 L4.44202458,7.31259213 C4.58766277,7.2213399 4.75150574,7.14833812 4.93355348,7.07533634 C5.0609869,7.020585 5.2066251,6.98408411 5.33405852,6.94758322 L5.89840652,6.856331 C6.46275452,6.80157966 7.08171685,6.83808055 7.73708872,7.03883545 C7.84631737,7.03883545 7.95554601,7.07533634 8.06477466,7.11183723 C8.37425582,7.18483901 8.68373698,7.31259213 8.99321815,7.45859569 L9.01142292,7.45859569 C9.32090408,7.5863488 9.63038525,7.75060281 9.95807118,7.93310726 L234.623191,137.98578 C239.356432,140.723346 243.197639,147.384759 243.179434,152.841642 L242.760725,303.681571 C242.760725,304.156083 242.724315,304.612344 242.651496,305.032104 C242.633291,305.196358 242.615086,305.360612 242.560472,305.524866 C242.560472,305.597868 242.542267,305.67087 242.524063,305.743872 L242.487653,305.908126 C242.451243,305.981128 242.433039,306.054129 242.414834,306.108881 C242.396629,306.200133 242.36022,306.291385 242.32381,306.382637 L242.305605,306.419138 C242.2874,306.51039 242.232786,306.619893 242.178172,306.747646 C242.159967,306.802398 242.141762,306.838898 242.123558,306.89365 C242.105353,306.948401 242.087148,307.003153 242.032534,307.057904 C241.94151,307.29516 241.814076,307.495915 241.650233,307.678419 L241.049476,308.353685 C240.903838,308.481439 240.758199,308.590941 240.576152,308.700444 C239.156179,309.521714 237.190064,309.284458 235.060105,308.061678 L55.0148875,203.851636 L54.1046488,205.421175 L113.361189,239.713761 L115.181666,240.772287 L127.251432,247.762207 L129.071909,248.820733 L234.149866,309.631217 C235.697272,310.525488 237.208268,311 238.628241,311 C239.647708,311 240.612561,310.744494 241.48639,310.251732 C241.5228,310.233481 241.55921,310.215231 241.595619,310.19698 C242.032534,309.941474 242.433039,309.594716 242.778929,309.193206 C242.924568,309.047202 243.070206,308.882948 243.143025,308.736945 C243.343277,308.481439 243.488916,308.207682 243.616349,307.952176 C243.743782,307.769671 243.834806,307.568916 243.871216,307.422913 C243.980444,307.185657 244.071468,306.930151 244.162492,306.674644 C244.217107,306.455639 244.289926,306.218383 244.326335,306.035879 C244.326335,305.981128 244.34454,305.926376 244.34454,305.871625 C244.38095,305.743872 244.399154,305.616119 244.435564,305.470115 C244.471973,305.232859 244.508383,304.977353 244.526588,304.721847 C244.544792,304.575843 244.562997,304.411589 244.562997,304.247335 C244.581202,304.064831 244.581202,303.864076 244.581202,303.681571 L244.999912,152.841642 C245.018117,147.950523 242.214581,142.165132 238.355169,138.533293 Z M232.529641,256.613673 C232.529641,260.063007 230.727369,263.147333 227.741786,264.862875 C224.756203,266.596667 221.206272,266.596667 218.220689,264.862875 L12.1972584,145.632716 L12.5431491,30.1986504 C12.5431491,28.3553554 13.5080022,26.7128154 15.0918175,25.7820427 C16.6938377,24.8695204 18.605339,24.8695204 20.1891543,25.8002931 L225.721056,144.756695 C230.108406,147.293507 232.839123,152.038622 232.820918,157.112246 L232.529641,256.613673 Z M226.631295,143.168906 L21.099393,24.2125044 C18.9330249,22.9532236 16.347947,22.9532236 14.1815788,24.2125044 C12.0334154,25.4535346 10.7226717,27.6983394 10.7226717,30.1986504 L10.376781,146.672992 L217.31045,266.450663 C219.094518,267.472688 221.042429,267.983701 222.99034,267.983701 C224.938251,267.983701 226.886161,267.472688 228.652025,266.450663 C232.201956,264.406613 234.331914,260.720024 234.350119,256.613673 L234.641395,157.130497 C234.6596,151.381606 231.582993,146.034226 226.631295,143.168906 Z M34.7529737,192.134851 L33.842735,193.704389 L50.3908748,203.285873 L51.3011136,201.716334 L34.7529737,192.134851 Z" id="Fill-9" fill="#3D3D3D"></path>
                <g id="Group-13" transform="translate(3.000000, 0.000000)">
                    <mask id="mask-2" fill="white">
                        <use xlink:href="#path-1"></use>
                    </mask>
                    <g id="Clip-12"></g>
                    <path d="M248.406392,300.317861 C248.388125,302.734559 247.620948,304.528773 246.214456,305.352648 L242.122842,307.732728 C242.17764,307.549645 242.214172,307.366562 242.250704,307.183479 C242.287237,307.000396 242.323769,306.817313 242.360301,306.615921 C242.396834,306.377913 242.433366,306.121597 242.451632,305.86528 C242.469898,305.718814 242.488164,305.554039 242.488164,305.389264 C242.50643,305.206181 242.50643,305.00479 242.50643,304.821706 L242.926551,153.503493 C242.944818,148.596865 240.131833,142.79313 236.259413,139.149775 C235.967154,138.875151 235.65663,138.600526 235.346106,138.34421 C234.725057,137.831577 234.085743,137.392177 233.428162,137.007703 L8.0058017,6.56096731 C7.53088222,6.28634261 7.0376966,6.05016536 6.56277711,5.84694308 C6.32531737,5.75540151 6.10612376,5.66385994 5.86866402,5.59245751 C5.63120428,5.51739343 5.41201067,5.44416017 5.17455093,5.38923523 L9.26616495,3.00915445 C10.7091895,2.18528033 12.6636659,2.40498009 14.8008036,3.64994543 L240.24143,134.096681 C244.990625,136.842928 248.844779,143.543771 248.826513,148.999648 L248.406392,300.317861 Z M241.154736,132.522166 L15.7141103,2.05712213 C12.9924563,0.48260715 10.362133,0.244599072 8.35285825,1.43463946 L0.626283553,5.92017633 L0.626283553,5.93848464 L1.53959025,7.51299963 L1.55785639,7.51299963 C1.72225159,7.40314974 1.8866468,7.32991649 2.05104201,7.27499155 C2.17890495,7.22006661 2.32503402,7.18344998 2.45289696,7.14683335 C2.6355583,7.09190841 2.83648577,7.05529178 3.01914711,7.05529178 C3.6036634,6.98205853 4.20644582,7.03698347 4.86402665,7.23837492 C4.97362345,7.23837492 5.08322026,7.27499155 5.19281706,7.31160818 C5.50334134,7.40314974 5.81386562,7.51299963 6.1243899,7.65946614 L6.14265603,7.65946614 C6.45318031,7.80593265 6.78197072,7.97070747 7.092495,8.15379061 L232.514855,138.600526 C237.26405,141.346773 241.118204,148.029308 241.099938,153.503493 L240.679817,304.821706 C240.679817,305.297723 240.643285,305.75543 240.57022,306.176522 C240.551954,306.432838 240.497156,306.670846 240.442357,306.890546 L240.405825,307.055321 C240.351027,307.220096 240.314494,307.38487 240.24143,307.531337 L240.223164,307.567954 C240.186631,307.732728 240.113567,307.897503 240.040502,308.04397 C240.022236,308.098895 240.00397,308.15382 239.949172,308.208744 C239.857841,308.446753 239.729978,308.648144 239.565583,308.831227 L238.9628,309.508635 C238.816671,309.618485 238.652276,309.746643 238.487881,309.838184 L238.487881,309.856493 L239.401188,311.412699 L239.401188,311.431008 L239.419454,311.431008 L247.127762,306.927163 C249.118771,305.773739 250.214739,303.430275 250.233005,300.317861 L250.653126,149.017957 C250.671392,142.957905 246.415383,135.561346 241.154736,132.522166 Z" id="Fill-11" fill="#3D3D3D" mask="url(#mask-2)"></path>
                </g>
                <path d="M116.583076,222.7188 L98.415056,212.535762 C97.081452,211.788716 96,209.781483 96,208.055299 C96,206.327301 97.081452,205.533111 98.415056,206.28197 L116.583076,216.463195 C117.918548,217.212054 119,219.217474 119,220.945472 C119,222.673469 117.918548,223.465846 116.583076,222.7188" id="Fill-14" fill="#3D3D3D"></path>
                <path d="M113.658648,103.82972 C113.271182,103.82972 112.880095,103.915835 112.508924,104.133872 C111.429812,104.764163 110.81059,106.33073 110.81059,108.432311 L110.81059,173.995423 C110.81059,178.334172 113.397923,183.374669 116.57913,185.232562 L151.324354,205.53197 C152.177142,206.03034 153.419207,206.492065 154.491076,205.865438 C155.570188,205.235147 156.18941,203.66858 156.18941,201.566999 L156.18941,136.003887 C156.18941,131.665138 153.600266,126.624641 150.419059,124.766748 L115.673835,104.465508 C115.117984,104.139369 114.393748,103.82972 113.658648,103.82972 M153.346783,208 C152.41614,208 151.420316,207.705009 150.419059,207.120524 L115.673835,186.819284 C111.931345,184.633419 109,179.001108 109,173.995423 L109,108.432311 C109,105.660129 109.948749,103.514574 111.603629,102.54715 C113.023131,101.717145 114.790267,101.834408 116.57913,102.878786 L151.324354,123.180026 C155.068655,125.365891 158,130.998202 158,136.003887 L158,201.566999 C158,204.341013 157.051251,206.486568 155.396371,207.45216 C154.771718,207.816776 154.078262,208 153.346783,208" id="Fill-16" fill="#FF5E39"></path>
                <path d="M211.324354,238.533802 C212.177142,239.032172 213.415586,239.493897 214.491076,238.865438 C215.570188,238.235147 216.18941,236.66858 216.18941,234.566999 L216.18941,169.003887 C216.18941,164.666971 213.600266,159.624641 210.419059,157.766748 L175.673835,137.465508 C174.822858,136.967138 173.582604,136.505413 172.508924,137.133872 C171.428001,137.764163 170.81059,139.33073 170.81059,141.432311 L170.81059,206.997255 C170.81059,211.334172 173.397923,216.374669 176.57913,218.232562 L211.324354,238.533802 Z M213.346783,241 C212.41614,241 211.420316,240.706841 210.419059,240.120524 L175.673835,219.821116 C171.931345,217.633419 169,212.001108 169,206.997255 L169,141.432311 C169,138.660129 169.946939,136.514574 171.603629,135.54715 C173.024942,134.717145 174.790267,134.834408 176.57913,135.878786 L211.324354,156.180026 C215.066844,158.365891 218,163.998202 218,169.003887 L218,234.566999 C218,237.341013 217.051251,239.486568 215.396371,240.45216 C214.769907,240.818608 214.078262,241 213.346783,241 Z" id="Fill-18" fill="#FF5E39"></path>
                <path d="M28.6882558,55.8170506 C28.298327,55.8170506 27.9029319,55.9026051 27.5312241,56.119222 C26.4452543,56.7454085 25.8220971,58.3017732 25.8220971,60.3896683 L25.8220971,125.525806 C25.8220971,129.836299 28.4258738,134.843971 31.6272983,136.689765 L94.2837502,172.548043 C95.1383137,173.041347 96.3864502,173.503706 97.4687759,172.879339 C98.5547457,172.253153 99.1779029,170.694968 99.1779029,168.607073 L99.1779029,103.470935 C99.1779029,99.1622623 96.5723041,94.1545906 93.3727017,92.3069764 L30.719894,56.4505183 C30.156866,56.1246829 29.4280272,55.8170506 28.6882558,55.8170506 M96.3172105,175 C95.3806526,175 94.3803214,174.70693 93.3727017,174.126251 L30.719894,138.267973 C26.9499752,136.094523 24,130.497071 24,125.525806 L24,60.3896683 C24,57.6337195 24.9547789,55.5039573 26.6201756,54.5428339 C28.0486997,53.720054 29.8270664,53.8347335 31.6272983,54.8723099 L94.280106,90.728768 C98.0500248,92.904038 101,98.4996696 101,103.470935 L101,168.607073 C101,171.363021 100.045221,173.494604 98.3798244,174.455727 C97.7512009,174.817969 97.0533378,175 96.3172105,175" id="Fill-20" fill="#FF5E39"></path>
                <path d="M72.6064815,124 C71.3687215,124 70.0629122,123.669572 68.6872146,122.880928 C63.9256088,120.151706 61.4041096,115.775824 58.9672121,111.542335 C56.480657,107.226696 54.1338787,103.152032 49.5727423,100.537821 C48.1749746,99.7363974 46.8195079,99.61591 45.4272577,100.170882 C39.1520167,102.681036 34.8115804,117.382322 34.7674404,117.532018 L33,117.024511 C33.185756,116.385563 37.6365424,101.319163 44.7375698,98.4785822 C46.6595003,97.7063676 48.5943049,97.8706686 50.4923262,98.9568806 C55.483828,101.817543 58.0660198,106.301134 60.5636098,110.636854 C62.9876332,114.842959 65.2755581,118.817217 69.6067986,121.299987 C73.9343607,123.779106 77.277968,120.553331 80.8238838,117.143173 C83.979896,114.109081 87.2425799,110.970933 91,113.123276 L90.080416,114.704216 C87.6986936,113.336867 85.4769787,115.208072 82.1021055,118.453929 C79.4647387,120.995118 76.3381532,124 72.6064815,124" id="Fill-22" fill="#3D3D3D"></path>
                <path d="M42.7681717,219 L41.8185053,217.511195 C47.9841425,213.769014 51.6892803,208.588883 54.7756961,203.54904 C55.5544945,202.270666 55.1210293,201.174667 54.5832448,200.836222 C54.3458282,200.690673 54.1983421,200.725745 54.0202796,200.97651 C50.6532806,205.718242 43.7556089,211.352555 36.8579373,214.993026 L36,213.451613 C42.6728453,209.928633 49.3205101,204.513519 52.5436203,199.975205 C53.270259,198.958118 54.5077031,198.707353 55.5562931,199.361445 C56.9304316,200.224216 57.5923203,202.361853 56.3207026,204.446882 C53.1173771,209.677868 49.261156,215.059663 42.7681717,219" id="Fill-24" fill="#3D3D3D"></path>
                <path d="M4.60261273,232 C3.23725242,229.567951 2.54445849,226.446247 2,223.432049 L3.64686051,223 C4.15592078,225.815416 4.79477455,228.716024 6,230.864097 L4.60261273,232 Z" id="Fill-26" fill="#3D3D3D"></path>
                <path d="M28.0879961,356.444433 C28.0879961,356.444433 26.3228545,360.49348 27.2891858,362.371228 C28.488283,364.214536 41.4156093,361.636528 45.5842356,359.381591 C46.2631363,359.015881 46.0127366,358.035189 45.5295709,357.485804 C44.5597128,356.378835 41.7189104,355.998365 40.3223148,356.000005 C37.1129663,356.000005 32.6710163,356.501831 32.6710163,356.501831 L28.0879961,356.444433 Z" id="Fill-28" fill="#3D3D3D"></path>
                <path d="M9.03351701,347.405282 C9.03351701,347.405282 8.78239389,350.301891 9.65490928,353.132546 C10.2854666,355.173541 12.219298,355.173541 13.0184928,354.82773 C16.4040725,353.360709 21.424702,348.688702 25.0394086,345.688707 C26.7844394,344.243076 25.7176244,343.107606 25.2080461,342.710102 C24.3062024,342.006003 23.2320553,341.702973 21.3770436,342.376769 C17.3737377,343.827747 13.4932438,346.526495 13.4932438,346.526495 L9.03351701,347.405282 Z" id="Fill-30" fill="#3D3D3D"></path>
                <polygon id="Fill-32" fill="#3D3D3D" points="17 208 15 208 15 199 16 199 16.01 199.976139 17 199.976139"></polygon>
                <path d="M25.4843619,211 C25.0254029,211 24.6400175,210.625115 24.6102377,210.138132 L24.3141916,205.12129 C24.2966741,204.836451 24.4070345,204.557125 24.6137412,204.369682 C24.8204479,204.18224 25.0972247,204.106895 25.3652427,204.163863 C25.850478,204.270448 26.3707483,204.338442 26.9067844,204.410111 C28.229357,204.569988 29.408286,204.128947 30.4085363,203.094338 C32.500128,200.929562 33.6002282,196.34641 33.1447727,191.687913 C32.8347126,188.514255 31.6189968,185.636462 29.7236013,183.585621 C27.8825101,181.591748 25.6227503,180.61962 23.3507281,180.875056 C21.4185458,181.0772 19.673801,182.117322 18.3004276,183.881486 C16.3717488,186.360505 15.4713483,189.879645 15.8287057,193.540286 C16.0441712,195.850239 16.6292563,197.790819 17.5664435,199.308736 C17.8292063,199.733238 17.7135907,200.302916 17.308936,200.578567 C16.9042813,200.854217 16.3594865,200.736606 16.0967237,200.308429 C15.0053823,198.540589 14.3274544,196.326195 14.0857126,193.724053 C13.681058,189.585618 14.7215985,185.573981 16.9445716,182.71824 C18.5929701,180.599405 20.8054327,179.294659 23.1738012,179.046573 C25.9801076,178.747033 28.7583861,179.899253 30.9813592,182.304764 C33.1500279,184.65147 34.5374154,187.917012 34.8877658,191.500471 C35.4010291,196.763561 34.1257537,201.828183 31.6382661,204.40276 C30.2596374,205.826956 28.5569346,206.46279 26.6965741,206.233081 C26.5056332,206.209191 26.316444,206.183464 26.1307583,206.157736 L26.3602378,210.024197 C26.3900176,210.531394 26.0221497,210.966922 25.5404179,210.998162 C25.5211487,211 25.5018794,211 25.4843619,211" id="Fill-34" fill="#3D3D3D"></path>
                <path d="M29.2259174,358 C28.5709216,358 27.9519146,357.937717 27.4624672,357.833302 C25.3679203,357.386332 25.3157366,356.217615 25.3895136,355.73584 C27.1943508,344.066987 26.0247155,329.883012 24.5563734,315.15681 C23.4389218,303.889132 19.9732025,293.914736 18.0100147,288.976082 C17.0635098,300.183309 14.3823458,334.376527 15.8884762,345.550782 C15.9352616,345.902496 15.8524874,346.428235 15.2010905,346.935656 C13.964876,347.899207 10.3390066,348.914049 8.81308242,348.258249 C8.2804485,348.0311 7.94035455,347.595121 7.87737419,347.067549 C6.48460848,335.316264 4.38826215,304.032016 4.01937718,285.627469 C3.87002375,277.953871 4.61859033,272.542601 5.07924669,270 L6.84809513,270.331564 C6.40003485,272.806386 5.67306153,278.080268 5.81881608,285.590832 C6.18410218,303.826849 8.2480586,334.730073 9.63722544,346.615084 C10.4901595,346.829409 13.3116797,346.131477 14.0692435,345.523304 C12.3309855,331.623264 16.3563303,287.113096 16.5290764,285.211641 L16.8277833,281.943629 L18.2349445,284.896563 C18.2997243,285.03212 24.7291195,298.677533 26.3468151,314.971794 C27.8205556,329.743792 28.9919903,343.984554 27.1961503,355.832927 C27.5164504,356.012448 28.4557575,356.245093 29.7981389,356.151668 C31.1045316,356.06374 31.7721234,355.72668 31.8764909,355.58746 C34.5324627,345.376756 35.3242158,328.18306 35.185659,316.578322 C34.9841219,297.250526 32.2723674,279.509107 31.1153282,272.778909 L32.8877755,272.462 C34.0520125,279.237994 36.7835608,297.096651 36.9850979,316.55634 C37.1236547,328.276484 36.3193055,345.669852 33.5913561,356.1132 C33.2296689,357.507234 31.0811389,358 29.2259174,358" id="Fill-36" fill="#3D3D3D"></path>
                <path d="M14.8731411,201.589853 C16.9718258,203.755999 19.9393807,196.810462 18.354204,193.182578 C16.7690273,189.556519 20.1421791,188.768166 21.7273558,191.357687 C22.3748224,192.417949 24.160937,192.04932 24.2390795,190.527361 C24.3655959,188.040034 21.8334064,186.915901 23.7051056,183.552626 C24.7358426,181.700361 30.7509556,183.851908 31.7351791,181.55437 C33.1715129,178.191095 28.6839,173.121546 20.2463692,173.001104 C14.0117129,172.913509 7.77519619,178.048753 6.22723022,185.346494 C4.69042746,192.582189 11.3232384,197.929121 14.8731411,201.589853" id="Fill-38" fill="#3D3D3D"></path>
                <path d="M20.0241507,276 C14.6162225,276 9.55801561,275.345821 6.72199537,272.788238 C5.33586088,271.535319 4.57631019,269.90911 4.46520085,267.953964 L4.64370437,225.28632 C3.60911253,224.770738 1.62371622,223.460532 1.1628857,220.849358 C0.379655962,216.563929 2.50166211,211.232553 5.7966914,209.212728 C7.58719102,208.109493 12.2282826,205.592566 16.6161906,206.056405 C16.87666,206.084125 17.1134504,206.22457 17.2646319,206.440782 C19.4868186,209.61928 25.3318982,208.80248 25.3901851,208.795088 C25.5085803,208.776608 25.6342613,208.784 25.754478,208.817264 C30.4848213,210.084967 43.4463628,215.159477 46.5683529,223.288671 C47.102042,224.674644 47.6594102,225.968219 48.1639558,227.139828 C49.1675828,229.462719 49.9580984,231.299595 49.9999921,232.574691 C50.0018135,233.365619 49.6903431,234.106653 49.0801525,234.807031 C48.5792497,235.374356 47.8579498,235.912114 47.1002206,236.283555 L46.8907521,236.387041 C46.745035,236.459111 46.5956749,236.53303 46.4444933,236.616188 C46.1403088,236.738154 45.9454121,236.821312 45.7669085,236.902623 C44.7232094,237.399725 43.768762,237.747142 42.8653156,237.959658 C42.6485613,238.020641 42.3735202,238.068688 42.1221581,238.090864 C41.9673336,238.135215 41.6540417,238.168478 41.3134278,238.168478 C40.84349,238.207285 40.278836,238.172174 39.7014317,238.059448 C38.5466232,237.843236 37.7306071,236.521942 36.6960153,234.851382 C36.4592249,234.467006 36.2169701,234.07339 35.9637866,233.690861 C35.941929,233.650206 35.7871045,233.339748 35.5466712,232.874061 C36.0512169,239.731856 35.6341015,249.725646 35.118627,257.723635 L33.3008055,257.603517 C33.9492468,247.550592 34.4465066,234.341344 33.1386951,228.485146 C33.040336,228.049026 33.2661976,227.605515 33.6723842,227.429958 C34.0749279,227.25625 34.5466872,227.402239 34.788942,227.775528 C36.0056803,229.665995 37.4756021,232.639369 37.5375319,232.765031 C37.7415359,233.062553 37.992898,233.470953 38.2387957,233.870114 C38.765199,234.718329 39.6449663,236.141261 40.0420456,236.244747 C40.4573395,236.326058 40.8744549,236.353777 41.2423907,236.322362 C41.5137889,236.320514 41.6941139,236.303882 41.8380096,236.268771 C42.1094078,236.235508 42.2696967,236.209636 42.4172353,236.168981 C43.2332514,235.976793 44.0674822,235.671879 45.0055364,235.224671 C45.2405053,235.117489 45.4827601,235.014003 45.7049788,234.932693 C45.7523368,234.895734 45.925376,234.808879 46.0929507,234.727569 L46.2969547,234.624083 C46.8525014,234.352432 47.3789046,233.962512 47.7195185,233.578135 C48.0237031,233.22887 48.180349,232.90178 48.180349,232.606106 C48.1493841,231.715387 47.384369,229.937646 46.4954943,227.879014 C45.9818414,226.688925 45.4135444,225.371326 44.8725695,223.959482 C42.0766215,216.680351 29.7963077,211.851621 25.4557578,210.648596 C24.3300928,210.78165 18.7819119,211.234401 16.0442507,207.861866 C12.1918533,207.64935 7.97516296,210.035072 6.74021002,210.794585 C4.37777055,212.241541 2.25940733,216.708071 2.95520677,220.518573 C3.38325093,222.948645 5.81854898,223.793165 5.84404948,223.800557 C6.21744971,223.926218 6.47063327,224.282876 6.46881181,224.682036 L6.28666536,267.905917 C6.3668098,269.315914 6.90596329,270.480131 7.93326927,271.407809 C11.7128081,274.815455 21.4357857,274.225954 26.6670317,273.909953 C31.6086649,273.608734 32.2425346,272.132211 32.2425346,270.877443 C32.2461775,270.779501 32.4829679,268.404867 32.7725808,264.723723 L34.5885809,264.87156 C34.2953251,268.578576 34.0585347,270.969842 34.0585347,270.969842 C34.0639991,275.310709 28.5795695,275.645191 26.7763196,275.754221 C24.5541329,275.889122 22.2590876,276 20.0241507,276" id="Fill-40" fill="#FF5E39"></path>
                <path d="M31.3350451,266 C30.2524264,266 29.214683,265.700728 28.6182143,264.88138 C27.3822713,263.169691 28.0011777,261.229898 30.4599751,259.116747 C30.4824128,259.094849 30.5833824,259.020031 30.6095597,259.003607 C31.5669013,258.33937 32.8215424,257.456153 34.0443967,256.498118 C35.7440521,255.182416 37.1576268,253.985329 38.3730019,252.832037 C41.1384477,250.240781 42.7577013,248.030913 42.8212748,246.762658 C43.1148346,244.707901 42.5202357,241.881241 41.2394174,239.118451 C41.0262593,238.658594 41.2356777,238.118445 41.7049995,237.910414 C42.1761911,237.702384 42.7296542,237.90494 42.9428123,238.364797 C44.386304,241.477954 45.0201689,244.600236 44.6798638,246.936016 C44.5975923,248.65683 42.9091558,251.109399 39.6706486,254.144089 C38.4160075,255.337527 36.9556876,256.574761 35.2111568,257.923309 C33.9527761,258.908716 32.6700879,259.812006 31.6940482,260.489018 C29.2502094,262.587571 29.9009025,263.489036 30.1458473,263.828454 C30.5796428,264.426998 32.6439106,264.202544 33.6592163,263.60035 C33.876114,263.476262 34.070574,263.366772 34.2482058,263.240859 C37.4941922,261.286468 40.1455798,259.443391 42.6511223,257.403233 C44.3694757,255.983516 45.6334658,254.782779 46.7460015,253.512698 L47.714562,252.317436 C47.9912935,251.934222 48.279244,251.478014 48.5671944,251.019983 C48.8345769,250.561951 49.0813915,250.009027 49.3095081,249.492601 C49.4590927,249.025445 49.6423339,248.461573 49.7863091,247.9123 C50.7099942,243.395849 49.6180264,239.463343 48.4288286,236.220623 C48.2530666,235.746168 48.5073605,235.224267 48.9935106,235.054558 C49.475921,234.883024 50.0144256,235.129376 50.1883178,235.605656 C51.4653965,239.083779 52.6340265,243.315556 51.6075019,248.319236 C51.4429588,248.948802 51.2503686,249.550996 51.0577784,250.134941 C50.769828,250.795529 50.4912266,251.410496 50.1752291,251.950645 C49.8517524,252.465247 49.5413643,252.95795 49.2122781,253.410508 L48.1894932,254.673289 C46.9872067,256.04556 45.6577733,257.310166 43.8534088,258.799227 C41.2730739,260.901429 38.5525035,262.791951 35.2878189,264.755467 C35.1214061,264.87773 34.8745914,265.020067 34.6277768,265.162404 C33.8705046,265.609487 32.5747277,266 31.3350451,266" id="Fill-42" fill="#3D3D3D"></path>
                <path d="M144.05203,139 C143.89494,139 143.735959,138.96247 143.590225,138.887409 L120.484868,126.673965 C120.028742,126.432698 119.865975,125.887615 120.119588,125.45691 C120.375095,125.027992 120.95235,124.872509 121.408477,125.113775 L144.515726,137.325432 C144.971853,137.568486 145.13462,138.111782 144.879114,138.542487 C144.704991,138.835581 144.383242,139 144.05203,139" id="Fill-44" fill="#3D3D3D"></path>
                <path d="M144.05203,149 C143.89494,149 143.735959,148.962467 143.590225,148.887402 L120.484868,136.675002 C120.028742,136.431934 119.865975,135.888604 120.119588,135.457873 C120.375095,135.027141 120.95235,134.873436 121.408477,135.11293 L144.515726,147.32533 C144.971853,147.568399 145.13462,148.111728 144.879114,148.542459 C144.704991,148.835571 144.383242,149 144.05203,149" id="Fill-46" fill="#3D3D3D"></path>
                <path d="M145.05203,159 C144.89494,159 144.735959,158.96247 144.590225,158.887409 L121.484868,146.675701 C121.028742,146.432646 120.865975,145.889347 121.119588,145.45864 C121.375095,145.027933 121.950458,144.87245 122.408477,145.113717 L145.515726,157.325425 C145.971853,157.56848 146.13462,158.111778 145.879114,158.542485 C145.704991,158.835581 145.383242,159 145.05203,159" id="Fill-48" fill="#3D3D3D"></path>
                <path d="M206.060355,204 C205.547364,204 205.128327,203.59494 205.12081,203.088153 C204.981758,193.638604 198.50078,190.030057 198.433132,189.994915 C198.324145,189.935728 198.228312,189.856196 198.151269,189.758167 C197.692771,189.192193 196.238356,187.22608 196.702491,185.753808 C196.888521,185.16009 197.356414,184.721737 198.015975,184.520132 C198.698084,184.312978 200.214509,181.311096 200.56214,176.552104 C200.900376,171.937381 197.687134,167.814647 194.558451,165.933616 C192.792107,164.871952 191.104685,164.568619 190.155745,165.136443 C189.122246,165.756055 189.01138,167.346701 189.099697,168.571129 C189.432296,173.171056 190.742021,177.806125 192.514002,180.669289 C193.772992,182.701987 192.908611,183.850581 192.480178,184.251942 C191.67217,185.002875 190.29104,185.119399 189.40411,184.518283 C188.502147,183.906069 186.399446,182.95723 184.899933,183.761801 C183.481221,184.520132 182.785958,186.77848 182.889308,190.294548 C182.90434,190.805034 182.494699,191.23044 181.97607,191.245237 C181.44053,191.252635 181.025251,190.858673 181.010219,190.346336 C180.886199,186.027547 181.891511,183.266111 184.001728,182.136012 C186.145769,180.987418 188.827229,181.882619 190.471432,182.996071 C190.604847,183.086701 190.999456,183.084851 191.189244,182.907291 C191.386548,182.724182 191.275682,182.224793 190.90926,181.632924 C188.960645,178.486774 187.583272,173.651949 187.226245,168.7043 C186.996996,165.55445 188.160153,164.167259 189.17674,163.556894 C190.775845,162.596958 193.092761,162.887343 195.537456,164.355917 C199.135912,166.518086 202.83208,171.297423 202.435592,176.685275 C202.133059,180.835752 200.793268,185.61139 198.572185,186.286489 C198.391793,186.593521 198.895388,187.657035 199.519246,188.476402 C200.689918,189.179246 206.857089,193.338971 206.9999,203.062259 C207.007416,203.572745 206.592137,203.992602 206.073509,204 L206.060355,204 Z" id="Fill-50" fill="#3D3D3D"></path>
            </g>
        </g>
    </g>
</svg>