<?xml version="1.0" encoding="UTF-8"?>
<svg width="126px" height="132px" viewBox="0 0 126 132" version="1.1" xmlns="http://www.w3.org/2000/svg" xmlns:xlink="http://www.w3.org/1999/xlink">
    <!-- Generator: Sketch 52.5 (67469) - http://www.bohemiancoding.com/sketch -->
    <title>data</title>
    <desc>Created with Sketch.</desc>
    <defs>
        <polygon id="path-1" points="0.642101888 0.362848283 85.4620929 0.362848283 85.4620929 19 0.642101888 19"></polygon>
        <polygon id="path-3" points="0.962185828 0.768685828 28.178 0.768685828 28.178 32.3536 0.962185828 32.3536"></polygon>
        <polygon id="path-5" points="0 131.218 125.178 131.218 125.178 0 0 0"></polygon>
    </defs>
    <g id="Page-1" stroke="none" stroke-width="1" fill="none" fill-rule="evenodd">
        <g id="Desktop-HD" transform="translate(-536.000000, -2195.000000)">
            <g id="data" transform="translate(536.000000, 2195.000000)">
                <path d="M3.3582,77.7112 C2.6492,77.7112 2.0722,78.2882 2.0722,78.9972 C2.0722,79.7062 2.6492,80.2832 3.3582,80.2832 C4.0672,80.2832 4.6442,79.7062 4.6442,78.9972 C4.6442,78.2882 4.0672,77.7112 3.3582,77.7112 M3.3582,82.3562 C1.5062,82.3562 0.0002,80.8492 0.0002,78.9972 C0.0002,77.1462 1.5062,75.6392 3.3582,75.6392 C5.2102,75.6392 6.7162,77.1462 6.7162,78.9972 C6.7162,80.8492 5.2102,82.3562 3.3582,82.3562" id="Fill-1" fill="#181818"></path>
                <path d="M75.6492,2.0726 C74.9402,2.0726 74.3632,2.6496 74.3632,3.3586 C74.3632,4.0676 74.9402,4.6446 75.6492,4.6446 C76.3582,4.6446 76.9352,4.0676 76.9352,3.3586 C76.9352,2.6496 76.3582,2.0726 75.6492,2.0726 M75.6492,6.7176 C73.7972,6.7176 72.2912,5.2106 72.2912,3.3586 C72.2912,1.5066 73.7972,0.0006 75.6492,0.0006 C77.5012,0.0006 79.0072,1.5066 79.0072,3.3586 C79.0072,5.2106 77.5012,6.7176 75.6492,6.7176" id="Fill-3" fill="#181818"></path>
                <g id="Group-7" transform="translate(22.000000, 112.218000)">
                    <mask id="mask-2" fill="white">
                        <use xlink:href="#path-1"></use>
                    </mask>
                    <g id="Clip-6"></g>
                    <path d="M44.1465,19.0001 C28.1035,19.0001 12.7715,13.0201 0.9765,2.1611 C0.5555,1.7731 0.5285,1.1181 0.9155,0.6971 C1.3035,0.2761 1.9585,0.2491 2.3795,0.6371 C13.7915,11.1421 28.6245,16.9281 44.1465,16.9281 C51.5225,16.9281 58.7375,15.6401 65.5905,13.0991 C72.2115,10.6441 78.3245,7.0871 83.7605,2.5281 C84.1985,2.1601 84.8525,2.2181 85.2195,2.6561 C85.5875,3.0951 85.5305,3.7491 85.0915,4.1161 C79.4735,8.8281 73.1545,12.5041 66.3105,15.0421 C59.2265,17.6681 51.7695,19.0001 44.1465,19.0001" id="Fill-5" fill="#181818" mask="url(#mask-2)"></path>
                </g>
                <g id="Group-10" transform="translate(97.000000, 12.218000)">
                    <mask id="mask-4" fill="white">
                        <use xlink:href="#path-3"></use>
                    </mask>
                    <g id="Clip-9"></g>
                    <path d="M27.1421,32.3536 C26.7351,32.3536 26.3491,32.1126 26.1841,31.7126 C23.7081,25.7186 20.3091,20.1666 16.0791,15.2136 C11.8761,10.2916 6.9561,6.0766 1.4551,2.6876 C0.9681,2.3866 0.8161,1.7496 1.1161,1.2616 C1.4171,0.7746 2.0551,0.6226 2.5421,0.9226 C8.2271,4.4246 13.3121,8.7806 17.6551,13.8686 C22.0261,18.9876 25.5401,24.7256 28.0991,30.9216 C28.3181,31.4516 28.0661,32.0566 27.5371,32.2756 C27.4081,32.3286 27.2741,32.3536 27.1421,32.3536" id="Fill-8" fill="#181818" mask="url(#mask-4)"></path>
                </g>
                <path d="M3.4261,68.4974 C2.8541,68.4974 2.3901,68.0334 2.3901,67.4614 C2.3901,44.0614 15.1751,22.5804 35.7561,11.4004 C36.2591,11.1274 36.8871,11.3134 37.1611,11.8164 C37.4341,12.3194 37.2481,12.9484 36.7451,13.2224 C16.8321,24.0384 4.4621,44.8224 4.4621,67.4614 C4.4621,68.0334 3.9981,68.4974 3.4261,68.4974" id="Fill-11" fill="#181818"></path>
                <path d="M65.9349,14.1351 C58.7629,14.1351 51.8059,15.5391 45.2569,18.3101 C38.9319,20.9861 33.2499,24.8161 28.3709,29.6951 C23.4919,34.5731 19.6609,40.2551 16.9859,46.5811 C14.2159,53.1301 12.8109,60.0861 12.8109,67.2591 C12.8109,74.4311 14.2159,81.3881 16.9859,87.9371 C19.6609,94.2621 23.4919,99.9441 28.3709,104.8231 C33.2499,109.7011 38.9319,113.5321 45.2569,116.2081 C51.8059,118.9781 58.7629,120.3821 65.9349,120.3821 C73.1069,120.3821 80.0639,118.9781 86.6129,116.2081 C92.9379,113.5321 98.6199,109.7011 103.4989,104.8231 C108.3779,99.9441 112.2079,94.2621 114.8839,87.9371 C117.6539,81.3881 119.0579,74.4311 119.0579,67.2591 C119.0579,60.0861 117.6539,53.1301 114.8839,46.5811 C112.2079,40.2551 108.3779,34.5731 103.4989,29.6951 C98.6199,24.8161 92.9379,20.9861 86.6129,18.3101 C80.0639,15.5391 73.1069,14.1351 65.9349,14.1351 M65.9349,122.4541 C58.4839,122.4541 51.2559,120.9951 44.4499,118.1161 C37.8769,115.3361 31.9749,111.3571 26.9059,106.2881 C21.8369,101.2191 17.8569,95.3171 15.0769,88.7431 C12.1989,81.9381 10.7389,74.7091 10.7389,67.2591 C10.7389,59.8081 12.1989,52.5791 15.0769,45.7741 C17.8569,39.2011 21.8369,33.2981 26.9059,28.2301 C31.9749,23.1601 37.8769,19.1811 44.4499,16.4011 C51.2559,13.5231 58.4839,12.0631 65.9349,12.0631 C73.3859,12.0631 80.6139,13.5231 87.4199,16.4011 C93.9929,19.1811 99.8949,23.1601 104.9639,28.2301 C110.0329,33.2981 114.0129,39.2011 116.7929,45.7741 C119.6709,52.5791 121.1309,59.8081 121.1309,67.2591 C121.1309,74.7091 119.6709,81.9381 116.7929,88.7431 C114.0129,95.3171 110.0329,101.2191 104.9639,106.2881 C99.8949,111.3571 93.9929,115.3361 87.4199,118.1161 C80.6139,120.9951 73.3859,122.4541 65.9349,122.4541" id="Fill-13" fill="#FF5E39"></path>
                <path d="M58.6255,31.0765 C57.5995,31.0765 56.7645,31.9115 56.7645,32.9375 C56.7645,33.9645 57.5995,34.7995 58.6255,34.7995 C59.6515,34.7995 60.4865,33.9645 60.4865,32.9375 C60.4865,31.9115 59.6515,31.0765 58.6255,31.0765 M58.6255,36.8715 C56.4565,36.8715 54.6925,35.1065 54.6925,32.9375 C54.6925,30.7685 56.4565,29.0045 58.6255,29.0045 C60.7945,29.0045 62.5595,30.7685 62.5595,32.9375 C62.5595,35.1065 60.7945,36.8715 58.6255,36.8715" id="Fill-15" fill="#181818"></path>
                <path d="M69.7249,24.1644 C68.6989,24.1644 67.8639,24.9994 67.8639,26.0254 C67.8639,27.0524 68.6989,27.8874 69.7249,27.8874 C70.7509,27.8874 71.5859,27.0524 71.5859,26.0254 C71.5859,24.9994 70.7509,24.1644 69.7249,24.1644 M69.7249,29.9594 C67.5559,29.9594 65.7909,28.1944 65.7909,26.0254 C65.7909,23.8564 67.5559,22.0924 69.7249,22.0924 C71.8939,22.0924 73.6579,23.8564 73.6579,26.0254 C73.6579,28.1944 71.8939,29.9594 69.7249,29.9594" id="Fill-17" fill="#181818"></path>
                <path d="M39.8992,78.678 C39.4882,78.678 39.0982,78.432 38.9362,78.027 C38.6512,77.311 38.3912,76.575 38.1652,75.841 C37.9962,75.294 38.3022,74.714 38.8492,74.545 C39.3972,74.376 39.9762,74.684 40.1452,75.23 C40.3552,75.911 40.5962,76.594 40.8612,77.258 C41.0732,77.789 40.8142,78.392 40.2832,78.605 C40.1572,78.655 40.0272,78.678 39.8992,78.678" id="Fill-19" fill="#181818"></path>
                <path d="M48.3313,90.0999 C48.1023,90.0999 47.8723,90.0249 47.6803,89.8699 C45.0913,87.7769 42.8953,85.2789 41.1563,82.4459 C40.8563,81.9579 41.0093,81.3209 41.4963,81.0209 C41.9843,80.7219 42.6223,80.8729 42.9223,81.3619 C44.5383,83.9929 46.5773,86.3129 48.9833,88.2579 C49.4283,88.6179 49.4973,89.2699 49.1383,89.7149 C48.9333,89.9679 48.6333,90.0999 48.3313,90.0999" id="Fill-21" fill="#181818"></path>
                <path d="M75.586,94.6116 C75.164,94.6116 74.767,94.3516 74.613,93.9316 C74.416,93.3946 74.692,92.7996 75.229,92.6026 C81.616,90.2586 86.848,85.6276 89.961,79.5606 C90.222,79.0506 90.846,78.8496 91.356,79.1116 C91.865,79.3726 92.066,79.9976 91.805,80.5066 C88.453,87.0386 82.82,92.0246 75.943,94.5486 C75.825,94.5906 75.704,94.6116 75.586,94.6116" id="Fill-23" fill="#181818"></path>
                <path d="M93.3577,74.094 C93.2867,74.094 93.2147,74.086 93.1437,74.072 C92.5837,73.953 92.2247,73.404 92.3427,72.844 C92.7267,71.02 92.9207,69.14 92.9207,67.259 C92.9207,64.532 92.5157,61.843 91.7177,59.264 C91.5487,58.718 91.8547,58.137 92.4007,57.968 C92.9477,57.798 93.5277,58.105 93.6967,58.651 C94.5577,61.428 94.9937,64.324 94.9937,67.259 C94.9937,69.283 94.7837,71.306 94.3707,73.271 C94.2677,73.759 93.8377,74.094 93.3577,74.094" id="Fill-25" fill="#181818"></path>
                <path d="M38.0928,71.4944 C37.9778,71.4944 37.8608,71.4744 37.7488,71.4354 L28.6468,68.2364 C28.2318,68.0904 27.9538,67.6984 27.9538,67.2594 C27.9538,57.3144 31.7568,47.9004 38.6618,40.7504 C39.0598,40.3384 39.7158,40.3274 40.1268,40.7244 C40.5388,41.1224 40.5498,41.7774 40.1528,42.1894 C33.7918,48.7754 30.2148,57.3934 30.0338,66.5274 L36.9248,68.9494 C36.8928,68.3864 36.8758,67.8214 36.8758,67.2594 C36.8758,60.1774 39.4528,53.3544 44.1318,48.0484 C44.5098,47.6194 45.1648,47.5774 45.5938,47.9564 C46.0228,48.3344 46.0648,48.9894 45.6858,49.4184 C41.3408,54.3464 38.9478,60.6814 38.9478,67.2594 C38.9478,68.2874 39.0068,69.3244 39.1228,70.3414 C39.1628,70.6954 39.0178,71.0464 38.7388,71.2684 C38.5528,71.4174 38.3238,71.4944 38.0928,71.4944" id="Fill-27" fill="#181818"></path>
                <path d="M44.907,98.6761 C44.703,98.6761 44.498,98.6161 44.318,98.4911 C37.741,93.9311 32.846,87.5551 30.163,80.0521 C29.97,79.5131 30.251,78.9201 30.789,78.7271 C31.327,78.5341 31.921,78.8151 32.114,79.3541 C34.615,86.3461 39.368,92.5381 45.498,96.7881 C45.969,97.1141 46.085,97.7601 45.759,98.2311 C45.558,98.5211 45.235,98.6761 44.907,98.6761" id="Fill-29" fill="#181818"></path>
                <path d="M83.8924,110.3138 C83.6084,110.3138 83.3294,110.1978 83.1294,109.9788 L76.7584,103.0428 C76.5204,102.7838 76.4304,102.4218 76.5184,102.0828 C76.6064,101.7418 76.8614,101.4688 77.1954,101.3588 C79.6504,100.5428 82.0234,99.4538 84.2484,98.1188 C84.7394,97.8238 85.3754,97.9828 85.6704,98.4738 C85.9644,98.9638 85.8054,99.6008 85.3144,99.8948 C83.4134,101.0358 81.4114,102.0068 79.3434,102.7928 L84.1544,108.0318 C89.9464,105.4378 95.2154,101.5588 99.4294,96.7818 C103.8354,91.7868 107.1134,85.7778 108.9114,79.4028 C109.0664,78.8518 109.6394,78.5318 110.1894,78.6868 C110.7404,78.8418 111.0614,79.4148 110.9054,79.9648 C109.0244,86.6368 105.5934,92.9258 100.9834,98.1518 C96.4044,103.3418 90.6354,107.5188 84.2994,110.2308 C84.1684,110.2868 84.0294,110.3138 83.8924,110.3138" id="Fill-31" fill="#181818"></path>
                <path d="M93.0799,93.2464 C92.8309,93.2464 92.5809,93.1574 92.3819,92.9754 C91.9589,92.5904 91.9289,91.9344 92.3149,91.5124 C95.1419,88.4144 97.3949,84.8774 99.0139,81.0014 C100.8319,76.6454 101.7849,72.0174 101.8439,67.2464 C101.9119,61.7674 100.6939,56.4754 98.2239,51.5174 C97.9689,51.0044 98.1769,50.3824 98.6899,50.1274 C99.2019,49.8724 99.8239,50.0804 100.0789,50.5934 C102.6969,55.8504 103.9879,61.4614 103.9149,67.2714 C103.8529,72.3094 102.8479,77.1984 100.9259,81.7994 C99.2159,85.8964 96.8329,89.6344 93.8459,92.9094 C93.6409,93.1334 93.3609,93.2464 93.0799,93.2464" id="Fill-33" fill="#181818"></path>
                <path d="M90.1797,54.2337 C90.1647,54.2337 90.1487,54.2337 90.1337,54.2327 C89.7817,54.2167 89.4607,54.0237 89.2837,53.7187 C85.9527,47.9867 80.6637,43.6917 74.3917,41.6237 C73.8477,41.4447 73.5527,40.8587 73.7317,40.3147 C73.9107,39.7717 74.4967,39.4767 75.0407,39.6557 C81.2907,41.7157 86.6327,45.8297 90.2377,51.3217 L94.3917,45.4437 C89.8907,39.6837 83.6247,35.3067 76.6657,33.0797 C76.1207,32.9047 75.8207,32.3217 75.9947,31.7767 C76.1697,31.2317 76.7527,30.9317 77.2977,31.1057 C84.9007,33.5407 91.7227,38.4037 96.5067,44.7987 C96.7757,45.1597 96.7827,45.6517 96.5237,46.0177 L91.0257,53.7967 C90.8307,54.0717 90.5147,54.2337 90.1797,54.2337" id="Fill-35" fill="#181818"></path>
                <path d="M111.6185,68.2952 C111.0465,68.2952 110.5825,67.8312 110.5825,67.2592 C110.5825,56.1322 106.4655,45.4722 98.9885,37.2442 C98.6035,36.8202 98.6355,36.1652 99.0585,35.7802 C99.4825,35.3962 100.1375,35.4272 100.5225,35.8512 C108.3465,44.4612 112.6545,55.6152 112.6545,67.2592 C112.6545,67.8312 112.1915,68.2952 111.6185,68.2952" id="Fill-37" fill="#181818"></path>
                <path d="M88.9344,28.8147 C88.7574,28.8147 88.5774,28.7697 88.4134,28.6737 C85.3974,26.9137 82.1774,25.5107 78.8434,24.5047 C78.2954,24.3397 77.9854,23.7617 78.1504,23.2137 C78.3154,22.6667 78.8934,22.3557 79.4414,22.5207 C82.9314,23.5737 86.3014,25.0417 89.4574,26.8837 C89.9524,27.1727 90.1184,27.8067 89.8304,28.3007 C89.6374,28.6307 89.2904,28.8147 88.9344,28.8147" id="Fill-39" fill="#181818"></path>
                <path d="M28.679,41.8489 C28.471,41.8489 28.262,41.7869 28.079,41.6569 C27.613,41.3259 27.504,40.6779 27.835,40.2119 C35.398,29.5779 47.124,22.5429 60.007,20.9119 C60.573,20.8389 61.093,21.2419 61.165,21.8089 C61.237,22.3769 60.835,22.8959 60.267,22.9669 C47.957,24.5269 36.752,31.2489 29.524,41.4129 C29.322,41.6979 29.003,41.8489 28.679,41.8489" id="Fill-41" fill="#181818"></path>
                <path d="M25.7984,46.4563 C25.6304,46.4563 25.4604,46.4153 25.3034,46.3293 C24.8004,46.0563 24.6154,45.4263 24.8894,44.9243 C25.1154,44.5113 25.3514,44.0923 25.5924,43.6823 C25.8814,43.1873 26.5164,43.0213 27.0094,43.3103 C27.5034,43.6003 27.6694,44.2343 27.3804,44.7283 C27.1504,45.1213 26.9244,45.5203 26.7094,45.9163 C26.5204,46.2613 26.1654,46.4563 25.7984,46.4563" id="Fill-43" fill="#181818"></path>
                <path d="M24.5865,87.7435 C24.1975,87.7435 23.8255,87.5235 23.6485,87.1485 C20.7065,80.9055 19.2145,74.2135 19.2145,67.2595 C19.2145,61.6415 20.2015,56.1485 22.1475,50.9315 C22.3475,50.3955 22.9435,50.1235 23.4805,50.3235 C24.0165,50.5235 24.2885,51.1205 24.0885,51.6565 C22.2295,56.6395 21.2875,61.8895 21.2875,67.2595 C21.2875,73.9055 22.7125,80.3005 25.5235,86.2655 C25.7665,86.7835 25.5445,87.4005 25.0275,87.6445 C24.8845,87.7115 24.7345,87.7435 24.5865,87.7435" id="Fill-45" fill="#181818"></path>
                <path d="M65.9349,113.9788 C52.2649,113.9788 39.3229,108.0168 30.4259,97.6228 C30.0539,97.1878 30.1049,96.5338 30.5389,96.1618 C30.9739,95.7898 31.6279,95.8398 31.9999,96.2748 C40.5029,106.2088 52.8719,111.9068 65.9349,111.9068 C69.7729,111.9068 73.5829,111.4188 77.2599,110.4578 C77.8129,110.3128 78.3799,110.6448 78.5239,111.1988 C78.6689,111.7518 78.3379,112.3178 77.7839,112.4618 C73.9359,113.4688 69.9489,113.9788 65.9349,113.9788" id="Fill-47" fill="#181818"></path>
                <path d="M29.503,73.7093 C28.964,73.7093 28.525,74.1473 28.525,74.6873 C28.525,75.2263 28.964,75.6643 29.503,75.6643 C30.042,75.6643 30.481,75.2263 30.481,74.6873 C30.481,74.1473 30.042,73.7093 29.503,73.7093 M29.503,77.7363 C27.821,77.7363 26.453,76.3683 26.453,74.6873 C26.453,73.0053 27.821,71.6373 29.503,71.6373 C31.185,71.6373 32.553,73.0053 32.553,74.6873 C32.553,76.3683 31.185,77.7363 29.503,77.7363" id="Fill-49" fill="#181818"></path>
                <path d="M27.2527,90.7854 C26.7137,90.7854 26.2757,91.2234 26.2757,91.7634 C26.2757,92.3024 26.7137,92.7404 27.2527,92.7404 C27.7917,92.7404 28.2307,92.3024 28.2307,91.7634 C28.2307,91.2234 27.7917,90.7854 27.2527,90.7854 M27.2527,94.8124 C25.5717,94.8124 24.2027,93.4444 24.2027,91.7634 C24.2027,90.0814 25.5717,88.7134 27.2527,88.7134 C28.9347,88.7134 30.3027,90.0814 30.3027,91.7634 C30.3027,93.4444 28.9347,94.8124 27.2527,94.8124" id="Fill-51" fill="#181818"></path>
                <path d="M89.1397,94.7845 C88.6007,94.7845 88.1627,95.2225 88.1627,95.7625 C88.1627,96.3015 88.6007,96.7395 89.1397,96.7395 C89.6787,96.7395 90.1177,96.3015 90.1177,95.7625 C90.1177,95.2225 89.6787,94.7845 89.1397,94.7845 M89.1397,98.8115 C87.4587,98.8115 86.0897,97.4435 86.0897,95.7625 C86.0897,94.0805 87.4587,92.7125 89.1397,92.7125 C90.8217,92.7125 92.1897,94.0805 92.1897,95.7625 C92.1897,97.4435 90.8217,98.8115 89.1397,98.8115" id="Fill-53" fill="#181818"></path>
                <path d="M43.3924,37.18 C42.8534,37.18 42.4144,37.618 42.4144,38.158 C42.4144,38.697 42.8534,39.135 43.3924,39.135 C43.9314,39.135 44.3704,38.697 44.3704,38.158 C44.3704,37.618 43.9314,37.18 43.3924,37.18 M43.3924,41.207 C41.7104,41.207 40.3424,39.839 40.3424,38.158 C40.3424,36.476 41.7104,35.108 43.3924,35.108 C45.0744,35.108 46.4424,36.476 46.4424,38.158 C46.4424,39.839 45.0744,41.207 43.3924,41.207" id="Fill-55" fill="#181818"></path>
                <path d="M94.9939,31.0296 C94.4549,31.0296 94.0159,31.4676 94.0159,32.0076 C94.0159,32.5466 94.4549,32.9846 94.9939,32.9846 C95.5329,32.9846 95.9719,32.5466 95.9719,32.0076 C95.9719,31.4676 95.5329,31.0296 94.9939,31.0296 M94.9939,35.0566 C93.3119,35.0566 91.9439,33.6886 91.9439,32.0076 C91.9439,30.3256 93.3119,28.9576 94.9939,28.9576 C96.6759,28.9576 98.0439,30.3256 98.0439,32.0076 C98.0439,33.6886 96.6759,35.0566 94.9939,35.0566" id="Fill-57" fill="#181818"></path>
                <path d="M110.8064,73.3802 C110.2674,73.3802 109.8284,73.8182 109.8284,74.3582 C109.8284,74.8972 110.2674,75.3352 110.8064,75.3352 C111.3454,75.3352 111.7844,74.8972 111.7844,74.3582 C111.7844,73.8182 111.3454,73.3802 110.8064,73.3802 M110.8064,77.4072 C109.1244,77.4072 107.7564,76.0392 107.7564,74.3582 C107.7564,72.6762 109.1244,71.3082 110.8064,71.3082 C112.4884,71.3082 113.8564,72.6762 113.8564,74.3582 C113.8564,76.0392 112.4884,77.4072 110.8064,77.4072" id="Fill-59" fill="#181818"></path>
                <mask id="mask-6" fill="white">
                    <use xlink:href="#path-5"></use>
                </mask>
                <g id="Clip-62"></g>
                <path d="M55.255,81.331 L77.177,81.331 L77.177,74.988 L55.255,74.988 L55.255,81.331 Z M77.368,82.898 L55.063,82.898 C54.305,82.898 53.688,82.282 53.688,81.523 L53.688,74.797 C53.688,74.039 54.305,73.422 55.063,73.422 L77.368,73.422 C78.126,73.422 78.743,74.039 78.743,74.797 L78.743,81.523 C78.743,82.282 78.126,82.898 77.368,82.898 Z" id="Fill-61" fill="#FF5E39" mask="url(#mask-6)"></path>
                <path d="M55.255,70.711 L77.177,70.711 L77.177,64.368 L55.255,64.368 L55.255,70.711 Z M77.368,72.278 L55.063,72.278 C54.305,72.278 53.688,71.661 53.688,70.903 L53.688,64.177 C53.688,63.419 54.305,62.802 55.063,62.802 L77.368,62.802 C78.126,62.802 78.743,63.419 78.743,64.177 L78.743,70.903 C78.743,71.661 78.126,72.278 77.368,72.278 Z" id="Fill-63" fill="#FF5E39" mask="url(#mask-6)"></path>
                <path d="M55.255,60.091 L77.177,60.091 L77.177,53.748 L55.255,53.748 L55.255,60.091 Z M77.368,61.658 L55.063,61.658 C54.305,61.658 53.688,61.04 53.688,60.283 L53.688,53.557 C53.688,52.799 54.305,52.182 55.063,52.182 L77.368,52.182 C78.126,52.182 78.743,52.799 78.743,53.557 L78.743,60.283 C78.743,61.04 78.126,61.658 77.368,61.658 Z" id="Fill-64" fill="#FF5E39" mask="url(#mask-6)"></path>
            </g>
        </g>
    </g>
</svg>