<?xml version="1.0" encoding="UTF-8"?>
<svg width="13px" height="13px" viewBox="0 0 13 13" version="1.1" xmlns="http://www.w3.org/2000/svg" xmlns:xlink="http://www.w3.org/1999/xlink">
    <!-- Generator: Sketch 52.5 (67469) - http://www.bohemiancoding.com/sketch -->
    <title>download</title>
    <desc>Created with Sketch.</desc>
    <g id="Page-1" stroke="none" stroke-width="1" fill="none" fill-rule="evenodd">
        <g id="Desktop-HD" transform="translate(-366.000000, -3840.000000)" fill="#E7E7E7">
            <g id="Group-6" transform="translate(250.000000, 3826.000000)">
                <path d="M125.75,14 L125.75,14.9285714 L127.142857,14.9285714 C127.655429,14.9285714 128.071429,15.3445714 128.071429,15.8571429 L128.071429,25.1428571 C128.071429,25.6554286 127.655429,26.0714286 127.142857,26.0714286 L117.857143,26.0714286 C117.344571,26.0714286 116.928571,25.6554286 116.928571,25.1428571 L116.928571,15.8571429 C116.928571,15.3445714 117.344571,14.9285714 117.857143,14.9285714 L119.25,14.9285714 L119.25,14 L117.857143,14 C116.831536,14 116,14.8315357 116,15.8571429 L116,25.1428571 C116,26.1684643 116.831536,27 117.857143,27 L127.142857,27 C128.168464,27 129,26.1684643 129,25.1428571 L129,15.8571429 C129,14.8315357 128.168464,14 127.142857,14 L125.75,14 Z M122.1663,23.8862831 C122.258309,23.9696812 122.380255,24.0053659 122.5,23.9993517 C122.619745,24.0053659 122.741691,23.9696812 122.8337,23.8862831 L125.8709,21.1201125 C126.043033,20.9633402 126.043033,20.7091363 125.8709,20.5527649 C125.699208,20.3963935 125.420097,20.3963935 125.247964,20.5527649 L122.940238,22.6549583 L122.940238,14 C122.940238,14 122.059762,14 122.059762,14 L122.059762,22.6549583 L119.751596,20.5527649 C119.579903,20.3963935 119.300792,20.3963935 119.1291,20.5527649 C118.956967,20.7091363 118.956967,20.9633402 119.1291,21.1201125 L122.1663,23.8862831 Z" id="download"></path>
            </g>
        </g>
    </g>
</svg>