<svg xmlns="http://www.w3.org/2000/svg" xmlns:xlink="http://www.w3.org/1999/xlink" width="18" height="18" viewBox="0 0 18 18"><defs><path id="ju0oa" d="M643.542 498.711a.708.708 0 0 0 .463.134.708.708 0 0 0 .463-.134l4.21-3.276c.238-.186.238-.487 0-.672a.74.74 0 0 0-.864 0l-3.199 2.49V487h-1.22v10.253l-3.2-2.49a.74.74 0 0 0-.862 0c-.239.185-.239.486 0 .672zM648.5 487v1.286h1.929c.71 0 1.285.576 1.285 1.285v12.858c0 .71-.576 1.285-1.285 1.285H637.57c-.71 0-1.285-.576-1.285-1.285V489.57c0-.71.576-1.285 1.285-1.285h1.929V487h-1.929a2.572 2.572 0 0 0-2.571 2.571v12.858a2.572 2.572 0 0 0 2.571 2.571h12.858a2.572 2.572 0 0 0 2.571-2.571V489.57a2.572 2.572 0 0 0-2.571-2.571z"/></defs><g><g transform="translate(-635 -487)"><use fill="#ffbd5c" xlink:href="#ju0oa"/></g></g></svg>