<?xml version="1.0" encoding="utf-8"?>
<!-- Generator: Adobe Illustrator 23.0.3, SVG Export Plug-In . SVG Version: 6.00 Build 0)  -->
<svg version="1.1" id="Слой_1" xmlns="http://www.w3.org/2000/svg" xmlns:xlink="http://www.w3.org/1999/xlink" x="0px" y="0px"
	 viewBox="0 0 28 28" style="enable-background:new 0 0 28 28;" xml:space="preserve">
<style type="text/css">
	.st0{fill:none;}
	.st1{fill:#FFFFFF;stroke:#FFFFFF;stroke-miterlimit:10;}
</style>
<g>
	<circle class="st0" cx="14" cy="14" r="14"/>
	<path class="st1" d="M26.1,6.9c-1.2-2.1-3-3.8-5.1-5C18.9,0.6,16.5,0,14,0S9.1,0.6,7,1.9c-2.1,1.2-3.9,2.9-5.1,5
		C0.6,9,0,11.3,0,13.8c0,3,0.9,5.7,2.7,8.1c1.8,2.4,4.1,4.1,6.9,5c0.3,0.1,0.6,0,0.7-0.1c0.2-0.1,0.2-0.3,0.2-0.5l0-1
		c0-0.6,0-1.1,0-1.6l-0.4,0.1c-0.3,0.1-0.7,0.1-1,0.1c-0.4,0-0.8-0.1-1.3-0.1c-0.4-0.1-0.9-0.3-1.2-0.5c-0.4-0.3-0.7-0.7-0.8-1.1
		l-0.2-0.4C5.5,21.3,5.3,21,5,20.8c-0.3-0.3-0.5-0.6-0.8-0.7L4.1,20C4,19.9,4,19.8,3.9,19.8c-0.1-0.1-0.1-0.2-0.2-0.3
		c0-0.1,0-0.2,0.1-0.2c0.1-0.1,0.3-0.1,0.5-0.1l0.4,0.1c0.2,0,0.5,0.2,0.9,0.4C6,20,6.3,20.3,6.5,20.6c0.3,0.5,0.6,0.9,1,1.1
		c0.4,0.3,0.8,0.4,1.2,0.4c0.4,0,0.7,0,1-0.1c0.3-0.1,0.6-0.1,0.8-0.3c0.1-0.8,0.4-1.4,0.9-1.9c-0.6-0.1-1.3-0.2-1.9-0.3
		c-0.6-0.2-1.2-0.4-1.7-0.7c-0.6-0.3-1.1-0.7-1.5-1.2c-0.4-0.5-0.7-1.1-1-1.9c-0.2-0.8-0.4-1.7-0.4-2.7c0-1.5,0.5-2.7,1.4-3.7
		C6.1,8.3,6.1,7.1,6.6,5.7C7,5.6,7.5,5.7,8.2,6c0.7,0.3,1.2,0.5,1.5,0.7C10,6.9,10.3,7,10.5,7.2c1.1-0.3,2.3-0.5,3.5-0.5
		c1.2,0,2.4,0.2,3.5,0.5l0.7-0.4c0.5-0.3,1.1-0.6,1.7-0.8c0.6-0.2,1.1-0.3,1.5-0.2c0.5,1.4,0.6,2.6,0.1,3.7c1,1,1.4,2.3,1.4,3.7
		c0,1-0.1,1.9-0.4,2.7c-0.3,0.8-0.6,1.4-1,1.9c-0.4,0.5-0.9,0.9-1.5,1.2c-0.6,0.3-1.2,0.6-1.7,0.7c-0.6,0.2-1.2,0.3-1.9,0.3
		c0.6,0.5,0.9,1.4,0.9,2.6v3.8c0,0.2,0.1,0.4,0.2,0.5c0.2,0.1,0.4,0.2,0.7,0.1c2.8-0.9,5.1-2.6,6.9-5c1.8-2.4,2.7-5.1,2.7-8.1
		C28,11.3,27.4,9,26.1,6.9z"/>
</g>
</svg>
