<?xml version="1.0" encoding="UTF-8"?>
<svg width="57px" height="23px" viewBox="0 0 57 23" version="1.1" xmlns="http://www.w3.org/2000/svg" xmlns:xlink="http://www.w3.org/1999/xlink">
    <!-- Generator: Sketch 52.5 (67469) - http://www.bohemiancoding.com/sketch -->
    <title>ino</title>
    <desc>Created with Sketch.</desc>
    <defs>
        <polygon id="path-1" points="0.31890625 0.438533333 23.309375 0.438533333 23.309375 22.9998467 0.31890625 22.9998467"></polygon>
    </defs>
    <g id="Page-1" stroke="none" stroke-width="1" fill="none" fill-rule="evenodd">
        <g id="Desktop-HD" transform="translate(-308.000000, -2743.000000)">
            <g id="ino" transform="translate(308.000000, 2743.000000)">
                <polygon id="Fill-1" fill="#181818" points="0 23 2 23 2 1 0 1"></polygon>
                <polygon id="Fill-2" fill="#181818" points="24.6404842 1 24.6404842 18.7675166 11.0520216 1 9 1 9 23 11.3749678 23 11.3749678 5.2509256 24.9495236 23 27 23 27 1"></polygon>
                <g id="Group-5" transform="translate(33.000000, 0.000000)">
                    <mask id="mask-2" fill="white">
                        <use xlink:href="#path-1"></use>
                    </mask>
                    <g id="Clip-4"></g>
                    <path d="M5.34078125,5.24538 C3.58296875,6.99031333 2.70484375,9.14771333 2.70484375,11.7206467 C2.70484375,14.2905133 3.58296875,16.4494467 5.34078125,18.19438 C7.09859375,19.9393133 9.25484375,20.81178 11.8142188,20.81178 C14.3720313,20.81178 16.5298438,19.9393133 18.2876563,18.19438 C20.0439063,16.4494467 20.9235938,14.2905133 20.9235938,11.7206467 C20.9235938,9.14771333 20.0439063,6.99031333 18.2876563,5.24538 C16.5298438,3.49891333 14.3720313,2.62798 11.8142188,2.62798 C9.25484375,2.62798 7.09859375,3.49891333 5.34078125,5.24538 M19.9564063,3.73044667 C22.1907813,5.92311333 23.3095313,8.58804667 23.3095313,11.7206467 C23.3095313,14.8532467 22.1907813,17.5166467 19.9564063,19.7108467 C17.7204688,21.9035133 15.0064063,22.9998467 11.8142188,22.9998467 C8.62203125,22.9998467 5.90640625,21.9035133 3.67203125,19.7108467 C1.43609375,17.5166467 0.31890625,14.8532467 0.31890625,11.7206467 C0.31890625,8.58804667 1.43609375,5.92311333 3.67203125,3.73044667 C5.90640625,1.53624667 8.62203125,0.43838 11.8142188,0.43838 C15.0064063,0.43838 17.7204688,1.53624667 19.9564063,3.73044667" id="Fill-3" fill="#181818" mask="url(#mask-2)"></path>
                </g>
            </g>
        </g>
    </g>
</svg>