<?xml version="1.0" encoding="UTF-8"?>
<svg width="80px" height="20px" viewBox="0 0 80 20" version="1.1" xmlns="http://www.w3.org/2000/svg" xmlns:xlink="http://www.w3.org/1999/xlink">
    <!-- Generator: Sketch 52.5 (67469) - http://www.bohemiancoding.com/sketch -->
    <title>acryl logo two</title>
    <desc>Created with Sketch.</desc>
    <defs>
        <polygon id="path-1" points="0.00303417722 0.0608275862 16.986608 0.0608275862 16.986608 19.9590903 0.00303417722 19.9590903"></polygon>
        <polygon id="path-3" points="0.039037037 0.0497016878 9.97459259 0.0497016878 9.97459259 16.9753895 0.039037037 16.9753895"></polygon>
    </defs>
    <g id="Page-1" stroke="none" stroke-width="1" fill="none" fill-rule="evenodd">
        <g id="Desktop-HD" transform="translate(-330.000000, -6096.000000)">
            <g id="acryl-logo-two" transform="translate(330.000000, 6096.000000)">
                <path d="M12.8422719,12.8423615 C12.2895412,13.395234 11.6280222,13.8388864 10.8762306,14.1611432 C10.1284735,14.4815268 9.32416099,14.6440601 8.48541085,14.6440601 C7.64723707,14.6440601 6.84839996,14.481815 6.1111615,14.1619357 C5.36772714,13.8395348 4.71045884,13.3956663 4.15751198,12.8421454 C3.60434899,12.2894891 3.1604065,11.6322956 2.83807631,10.8887203 C2.5181236,10.1516291 2.35594987,9.35279534 2.35594987,8.51462511 C2.35594987,7.67587852 2.51841178,6.87149735 2.83886881,6.1238155 C3.16105491,5.37202709 3.60478126,4.71051093 4.15772812,4.1577105 C4.71139543,3.60397349 5.36866373,3.15996084 6.11123354,2.83813633 C6.84839996,2.51818498 7.64723707,2.35601193 8.48541085,2.35601193 C9.32416099,2.35601193 10.1284735,2.51847316 10.8763026,2.83900086 C11.6271576,3.16068129 12.2886766,3.60440576 12.8421998,4.15756641 C13.395651,4.71137546 13.8393774,5.37281958 14.1611312,6.1238155 C14.4815162,6.87149735 14.6440501,7.67587852 14.6440501,8.51462511 C14.6440501,9.35279534 14.4818044,10.1516291 14.1618516,10.8888644 C13.8400258,11.631359 13.3960833,12.2885525 12.8422719,12.8423615 M14.5074524,2.49260904 C13.7380818,1.72309759 12.8277188,1.10905901 11.8012909,0.667279755 C10.7709726,0.224491872 9.65542479,0 8.48541085,0 C7.31453236,0 6.2033073,0.224780051 5.18228282,0.668144293 C4.16658968,1.10956332 3.26170205,1.72338577 2.49261961,2.492537 C1.72209626,3.26291299 1.10798303,4.17334424 0.667282582,5.19847095 C0.224492823,6.22784832 0,7.3436075 0,8.51462511 C0,9.68650726 0.224708959,10.7978717 0.668003034,11.817523 C1.10855939,12.8324194 1.72238444,13.7374472 2.49254756,14.507391 C3.26256659,15.2776229 4.16759831,15.8913733 5.18228282,16.3319278 C6.20215458,16.775292 7.31352373,17 8.48541085,17 C9.65643342,17 10.7777448,16.7882601 11.8013629,16.3326482 C12.0894717,16.2044803 12.3492666,16.0997991 12.5834855,16.0148582 C13.4244691,15.7098922 14.3460712,15.9699022 14.9539165,16.6263032 C15.1759598,16.8662126 15.4974975,17.0125358 15.8523201,16.9991355 C16.4819951,16.9753606 16.9709658,16.4380499 16.9709658,15.8080173 C16.9709658,15.8080173 17,8.75806479 17,8.51462511 C17,7.34461613 16.7755792,6.22900103 16.3326454,5.19839891 C15.8909363,4.17233561 15.2769672,3.2619764 14.5074524,2.49260904" id="Fill-1" fill="#FF5E39"></path>
                <path d="M24.1242078,4.14641151 C24.6823691,3.59319765 25.3383084,3.14976496 26.0739953,2.82839115 C26.8031968,2.5096021 27.6030237,2.34791001 28.4513121,2.34791001 L32.8347171,2.34791001 C33.4772583,2.34791001 34,1.82126189 34,1.1739191 C34,0.526648111 33.4772583,0 32.8347171,0 L28.4513121,0 C27.2935834,0 26.1899463,0.223726723 25.1710453,0.665077227 C24.1564916,1.10484814 23.2558935,1.71672206 22.4943368,2.48404154 C21.7330652,3.25100202 21.1213113,4.15703781 20.6761078,5.17694735 C20.2274835,6.20410861 20,7.31728548 20,8.48553243 C20,9.65413839 20.2274835,10.7673871 20.6760365,11.7939021 C21.1208124,12.8133809 21.7325664,13.7194885 22.4944081,14.4870233 C23.2561073,15.2544146 24.1555652,15.8707401 25.1672682,16.3187679 C26.1864542,16.7708165 27.2913029,17 28.4513121,17 L32.8347171,17 C33.4772583,17 34,16.4734237 34,15.8260091 C34,15.1787381 33.4772583,14.65209 32.8347171,14.65209 L28.4513121,14.65209 C27.6030237,14.65209 26.8031968,14.4903979 26.073924,14.1716807 C25.3392349,13.850594 24.6841508,13.4032842 24.1271297,12.8420288 C23.5700374,12.2808452 23.1259742,11.6208657 22.8073405,10.8806146 C22.490916,10.1459638 22.3304945,9.3401599 22.3304945,8.48553243 C22.3304945,7.64964459 22.4912724,6.84807683 22.8081957,6.10287155 C23.1262593,5.35522509 23.5690397,4.6969688 24.1242078,4.14641151" id="Fill-3" fill="#FF5E39"></path>
                <g id="Group-7" transform="translate(50.000000, 0.000000)">
                    <mask id="mask-2" fill="white">
                        <use xlink:href="#path-1"></use>
                    </mask>
                    <g id="Clip-6"></g>
                    <path d="M15.8137515,0.0608068966 L15.7872831,0.0608068966 C15.1381987,0.0608068966 14.6119878,0.566737931 14.6119878,1.19087586 L14.6119878,8.23928966 C14.6119878,9.04218621 14.4507388,9.81246207 14.1311819,10.5278414 C13.8108359,11.2474276 13.3690511,11.8808069 12.8180215,12.4104621 C12.267781,12.9395655 11.6133886,13.3650138 10.8737093,13.6737034 C10.2287852,13.9420483 9.52805527,14.0949448 8.78765865,14.1277034 C8.7384519,14.1304621 8.68931688,14.1318414 8.63939283,14.132531 C8.59606793,14.1339793 8.55259958,14.1346 8.50927468,14.1346 L8.49478523,14.1346 C8.44636751,14.1346 8.39787806,14.1339793 8.35017764,14.132531 C8.30534641,14.1311517 8.25972616,14.1297724 8.21496667,14.1283241 C7.90337173,14.1166 7.59672616,14.0824621 7.29667975,14.0254276 C6.88451941,13.9490138 6.48462489,13.8308069 6.09993713,13.6722552 C5.35229578,13.3643241 4.69503418,12.9360483 4.14551097,12.398669 C3.59311857,11.8599103 3.15054473,11.2251517 2.82883586,10.5126 C2.51064177,9.80625517 2.34867553,9.03246207 2.34867553,8.21149655 L2.34867553,1.18846207 C2.34867553,0.553634483 1.80022827,0.0392206897 1.13414388,0.0615655172 C0.497612236,0.0828758621 0.00303417722,0.60597931 0.00303417722,1.21825517 L0.00303417722,8.21149655 C0.00303417722,9.3328069 0.226401266,10.4012897 0.667540506,11.3857724 C1.10566709,12.3667379 1.71738017,13.2384621 2.4846038,13.9760483 C2.53373882,14.0233586 2.58294557,14.0692897 2.63279789,14.1158414 C2.63717342,14.1193586 2.64147722,14.1227379 2.64585274,14.1269448 C2.65238017,14.1332207 2.65883586,14.1388069 2.66536329,14.1443241 C3.39277679,14.8040483 4.23589072,15.338669 5.17519451,15.7356345 C5.48901308,15.8691517 5.81072194,15.9810828 6.13974726,16.0741862 C6.14024937,16.0743241 6.14075148,16.074531 6.14146878,16.074669 C6.82111013,16.2486 7.29667975,16.8372897 7.29667975,17.5134276 L7.29667975,18.8015655 C7.29667975,19.4139103 7.79125781,19.9370138 8.42771772,19.9583931 C9.09387384,19.980669 9.6423211,19.4662552 9.6423211,18.8314276 L9.6423211,17.6008759 C9.6423211,16.8883241 10.1372578,16.2634276 10.8516882,16.0739793 L10.8534814,16.0735655 C11.1810004,15.9803931 11.502781,15.8684621 11.815165,15.7356345 C12.6950764,15.3637724 13.4912072,14.8708069 14.1854097,14.2681172 C14.2316755,14.2277724 14.2772241,14.1867379 14.3227726,14.1457034 C14.3343928,14.1360483 14.3459414,14.1255655 14.3567726,14.1158414 C14.4066966,14.0692897 14.4558316,14.0233586 14.5049667,13.9760483 C15.2729076,13.2384621 15.8839034,12.3667379 16.322819,11.3857724 C16.7630975,10.4012897 16.986608,9.3328069 16.986608,8.21149655 L16.986608,1.18846207 C16.986608,0.566944828 16.4608992,0.0608068966 15.8137515,0.0608068966" id="Fill-5" fill="#FF5E39" mask="url(#mask-2)"></path>
                </g>
                <g id="Group-10" transform="translate(70.000000, 0.000000)">
                    <mask id="mask-4" fill="white">
                        <use xlink:href="#path-3"></use>
                    </mask>
                    <g id="Clip-9"></g>
                    <path d="M8.76340741,14.6297481 C7.90155556,14.6297481 7.08022222,14.4682122 6.32237037,14.149803 C5.55792593,13.8287397 4.88222222,13.3868114 4.31362963,12.8357101 C3.74488889,12.2854696 3.28851852,11.6311489 2.95696296,10.8908241 C2.62814815,10.1570266 2.46133333,9.36168481 2.46133333,8.52710675 L2.46133333,1.22255823 C2.46133333,0.575840928 1.918,0.0497016878 1.25022222,0.0497016878 L1.25014815,0.0497016878 C0.58237037,0.0497016878 0.039037037,0.575840928 0.039037037,1.22255823 L0.039037037,8.52710675 C0.039037037,9.69386624 0.270074074,10.8003726 0.725851852,11.8156384 C1.17881481,12.8260266 1.80992593,13.7270983 2.6017037,14.4937481 C3.39348148,15.2605414 4.32392593,15.8716089 5.36718519,16.3102376 C6.41585185,16.7516637 7.55844444,16.9753895 8.76348148,16.9753895 C9.43133333,16.9753895 9.97466667,16.4492502 9.97466667,15.8025329 C9.97466667,15.1558873 9.43133333,14.6297481 8.76340741,14.6297481" id="Fill-8" fill="#FF5E39" mask="url(#mask-4)"></path>
                </g>
                <path d="M46.9818832,2.01152738 C46.9818832,2.66354467 46.489376,3.19236311 45.8820622,3.19236311 C45.6519794,3.19236311 45.4382688,3.11635447 45.261597,2.98638329 C44.8231715,2.66383285 44.2709461,2.58040346 43.7796466,2.79805476 C43.7503243,2.8110951 43.7210691,2.82435159 43.6920152,2.83789625 C42.9994856,3.16066282 42.387609,3.60446686 41.8722881,4.15778098 C41.3569671,4.71037464 40.9436368,5.36743516 40.6437039,6.11167147 C40.3457839,6.84870317 40.194811,7.64697406 40.194811,8.48559078 L40.194811,15.8219741 C40.194811,16.471902 39.7023037,17 39.097741,17 L39.09707,17 C38.4924402,17 38,16.471902 38,15.8219741 L38,8.48559078 C38,7.31340058 38.2093491,6.20244957 38.6226795,5.18227666 C39.0326549,4.16786744 39.6043391,3.2629683 40.3216283,2.49279539 C41.0389175,1.72262248 41.881682,1.10878963 42.826437,0.667867435 C43.776493,0.224783862 44.8118989,0 45.90293,0 C46.5080966,0 47,0.528097983 47,1.17795389 C47,1.33429395 46.9818832,1.87463977 46.9818832,2.01152738" id="Fill-11" fill="#FF5E39"></path>
            </g>
        </g>
    </g>
</svg>