<?xml version="1.0" encoding="utf-8"?>
<!-- Generator: Adobe Illustrator 21.1.0, SVG Export Plug-In . SVG Version: 6.00 Build 0)  -->
<svg version="1.1" id="Слой_1" xmlns="http://www.w3.org/2000/svg" xmlns:xlink="http://www.w3.org/1999/xlink" x="0px" y="0px"
	 viewBox="0 0 87 87" style="enable-background:new 0 0 87 87;" xml:space="preserve">
<style type="text/css">
	.st0{enable-background:new    ;}
	.st1{fill:#181818;}
	.st2{fill:none;stroke:#A1A1A1;stroke-width:2;}
</style>
<title>Group 18</title>
<desc>Created with Sketch.</desc>
<g id="Page-1">
	<g id="Desktop-HD" transform="translate(-249.000000, -1114.000000)">
		<g id="Group-18" transform="translate(250.000000, 1115.000000)">
			<g class="st0">
				<path class="st1" d="M19.7,50H8.5V32.5h2.7v15h8.5V50z"/>
				<path class="st1" d="M24,32.5h7c1.7,0,3.1,0.5,4.2,1.6c1.1,1.1,1.7,2.4,1.7,4s-0.6,2.9-1.7,4c-1.1,1.1-2.5,1.6-4.2,1.6h-4.2V50
					H24V32.5z M31,35h-4.2v6.2H31c0.9,0,1.6-0.3,2.2-0.9c0.6-0.6,0.9-1.3,0.9-2.2s-0.3-1.6-0.9-2.2C32.6,35.3,31.8,35,31,35z"/>
				<path class="st1" d="M43.5,47.6c-1.8-1.7-2.7-3.9-2.7-6.4c0-2.5,0.9-4.6,2.7-6.4s4-2.6,6.6-2.6c2.6,0,4.8,0.9,6.6,2.6
					c1.8,1.7,2.7,3.9,2.7,6.4c0,2.5-0.9,4.6-2.7,6.4c-1.8,1.7-4,2.6-6.6,2.6C47.5,50.2,45.3,49.4,43.5,47.6z M45.5,36.6
					c-1.3,1.3-1.9,2.8-1.9,4.6c0,1.8,0.6,3.4,1.9,4.6c1.3,1.3,2.8,1.9,4.6,1.9c1.8,0,3.4-0.6,4.6-1.9c1.3-1.3,1.9-2.8,1.9-4.6
					c0-1.8-0.6-3.4-1.9-4.6c-1.3-1.3-2.8-1.9-4.6-1.9C48.3,34.8,46.8,35.4,45.5,36.6z"/>
				<path class="st1" d="M72.6,45c0-0.5-0.2-1-0.5-1.3s-0.8-0.6-1.3-0.9c-0.5-0.2-1.1-0.4-1.8-0.6c-0.7-0.2-1.3-0.4-2-0.6
					c-0.7-0.2-1.3-0.5-1.8-0.9s-1-0.8-1.3-1.5s-0.5-1.4-0.5-2.3c0-1.4,0.5-2.5,1.6-3.4s2.4-1.4,4.2-1.4c0.7,0,1.3,0.1,1.9,0.2
					c0.6,0.2,1.1,0.3,1.5,0.6s0.7,0.4,1,0.6c0.3,0.2,0.5,0.4,0.7,0.6l0.2,0.2l-1.7,1.8c0,0-0.1-0.1-0.1-0.2
					c-0.1-0.1-0.2-0.2-0.4-0.4c-0.2-0.2-0.4-0.3-0.7-0.5c-0.2-0.1-0.6-0.3-1-0.4c-0.4-0.1-0.8-0.2-1.3-0.2c-0.9,0-1.6,0.2-2.2,0.7
					c-0.5,0.4-0.8,1-0.8,1.6c0,0.5,0.2,1,0.5,1.4s0.8,0.7,1.3,0.9c0.5,0.2,1.1,0.4,1.8,0.6c0.7,0.2,1.3,0.4,2,0.6
					c0.7,0.2,1.3,0.5,1.8,0.9c0.5,0.3,1,0.8,1.3,1.5s0.5,1.4,0.5,2.3c0,1.5-0.6,2.8-1.7,3.8c-1.1,1-2.6,1.5-4.6,1.5
					c-0.8,0-1.6-0.1-2.3-0.3c-0.7-0.2-1.3-0.4-1.8-0.7c-0.5-0.3-0.9-0.5-1.2-0.8c-0.3-0.3-0.6-0.5-0.7-0.7l-0.2-0.3l1.7-1.7
					c0,0,0.1,0.1,0.2,0.2c0.1,0.1,0.3,0.3,0.5,0.5c0.3,0.2,0.6,0.4,0.9,0.6s0.7,0.3,1.3,0.5c0.5,0.1,1.1,0.2,1.7,0.2
					c1.1,0,1.9-0.3,2.6-0.8C72.3,46.4,72.6,45.8,72.6,45z"/>
			</g>
			<circle id="Oval-Copy" class="st2" cx="42.5" cy="42.5" r="42.5"/>
		</g>
	</g>
</g>
</svg>
