<?xml version="1.0" encoding="UTF-8"?>
<svg width="192px" height="347px" viewBox="0 0 192 347" version="1.1" xmlns="http://www.w3.org/2000/svg" xmlns:xlink="http://www.w3.org/1999/xlink">
    <!-- Generator: Sketch 52.5 (67469) - http://www.bohemiancoding.com/sketch -->
    <title>Group 58</title>
    <desc>Created with Sketch.</desc>
    <defs>
        <polygon id="path-1" points="0.802490156 0.244 13.3775 0.244 13.3775 59.7172 0.802490156 59.7172"></polygon>
        <polygon id="path-3" points="0.329177914 0.244 12.9032 0.244 12.9032 337.714118 0.329177914 337.714118"></polygon>
        <polygon id="path-5" points="0.872390911 0.244 165.61935 0.244 165.61935 265.2475 0.872390911 265.2475"></polygon>
        <polygon id="path-7" points="0.859606971 0.8021 38.567 0.8021 38.567 336.4711 0.859606971 336.4711"></polygon>
        <polygon id="path-9" points="0.000383535323 0.949984876 163.885496 0.949984876 163.885496 95 0.000383535323 95"></polygon>
    </defs>
    <g id="Page-1" stroke="none" stroke-width="1" fill="none" fill-rule="evenodd">
        <g id="Desktop-HD" transform="translate(-850.000000, -1374.000000)">
            <g id="Group-58" transform="translate(850.000000, 1373.000000)">
                <path d="M157.9346,97.5806 L159.7686,97.8766 L187.2186,96.4656 C187.2376,93.2846 187.2466,89.0036 187.2016,88.5946 C187.1936,88.5226 187.1956,88.4376 187.2096,88.3676 C187.2186,88.3266 188.0606,84.2396 187.9616,79.9836 C187.8346,74.5976 186.9996,69.8396 186.9916,69.7916 C186.9836,69.7516 186.9806,69.7106 186.9806,69.6696 L187.0256,61.5056 L159.6266,62.1286 C159.5986,62.1296 159.5706,62.1276 159.5436,62.1256 L157.9016,61.9606 L157.9346,97.5806 Z M147.1866,338.5456 C146.1526,338.5456 144.7866,338.3256 142.7306,337.5336 C139.6716,336.3546 76.8296,314.8236 76.1946,314.6056 C75.8406,314.4846 75.6536,314.0996 75.7766,313.7446 C75.9006,313.3906 76.2866,313.2006 76.6406,313.3216 C79.2326,314.2096 140.1426,335.0786 143.2246,336.2676 C146.2466,337.4316 147.5596,337.2126 148.3446,337.0826 C149.5896,336.8746 179.6106,330.9896 182.9486,329.2256 C186.6726,327.2556 187.0076,319.0466 187.0206,316.5766 L187.2116,97.8236 L159.7596,99.2356 C159.7116,99.2376 159.6636,99.2356 159.6166,99.2276 L157.1446,98.8286 C156.8176,98.7756 156.5786,98.4946 156.5776,98.1636 L156.5436,61.2146 C156.5426,61.0216 156.6246,60.8386 156.7676,60.7086 C156.9106,60.5796 157.1016,60.5166 157.2926,60.5356 L159.6446,60.7706 L187.6966,60.1336 C187.8756,60.1216 188.0556,60.1976 188.1856,60.3256 C188.3156,60.4536 188.3886,60.6286 188.3876,60.8106 L188.3386,69.6096 C188.4386,70.1946 189.1976,74.7876 189.3186,79.9436 C189.4146,84.0486 188.6896,87.8826 188.5576,88.5436 C188.6216,89.6886 188.5796,96.1286 188.5696,97.4686 L188.3786,316.5736 C188.3596,319.9876 187.8536,328.1626 183.5786,330.4236 C179.8366,332.4026 148.8506,338.3726 148.5606,338.4206 C148.1576,338.4876 147.7156,338.5456 147.1866,338.5456 Z" id="Fill-1" fill="#282828"></path>
                <g id="Group-5" transform="translate(147.000000, 0.756000)">
                    <mask id="mask-2" fill="white">
                        <use xlink:href="#path-1"></use>
                    </mask>
                    <g id="Clip-4"></g>
                    <path d="M12.4605,59.7172 C12.4325,59.7172 12.4035,59.7152 12.3755,59.7122 L10.1835,59.4332 C9.8115,59.3852 9.5505,59.0452 9.5995,58.6732 C9.6485,58.3022 9.9905,58.0422 10.3615,58.0862 L11.7905,58.2682 L12.0195,16.9042 C12.0015,16.6112 11.7435,12.8312 10.3355,9.1182 C8.4425,4.1302 5.4625,1.6012 1.4775,1.6012 C1.1035,1.6012 0.8005,1.2972 0.8025,0.9222 C0.8045,0.5472 1.1105,0.2432 1.4855,0.2432 C6.0325,0.2432 9.5355,3.1542 11.6155,8.6592 C13.1425,12.7012 13.3675,16.6762 13.3765,16.8432 C13.3765,16.8562 13.3775,16.8692 13.3775,16.8822 L13.1435,59.0382 C13.1415,59.2342 13.0575,59.4192 12.9105,59.5482 C12.7845,59.6572 12.6245,59.7172 12.4605,59.7172" id="Fill-3" fill="#282828" mask="url(#mask-2)"></path>
                </g>
                <path d="M159.646,99.1773 C159.271,99.1773 158.969,98.8733 158.971,98.4983 C158.99,94.9193 159.002,89.0653 158.951,88.5933 C158.943,88.5233 158.945,88.4373 158.96,88.3673 C158.969,88.3263 159.811,84.2393 159.711,79.9843 C159.585,74.5973 158.75,69.8393 158.741,69.7913 C158.734,69.7513 158.73,69.7103 158.731,69.6693 L158.776,61.6693 C158.778,61.2953 159.084,60.9913 159.459,60.9913 C159.833,60.9913 160.136,61.2953 160.134,61.6693 L160.088,69.6103 C160.188,70.1953 160.947,74.7873 161.068,79.9443 C161.165,84.0513 160.439,87.8873 160.308,88.5443 C160.372,89.7533 160.336,96.9923 160.328,98.4983 C160.326,98.8733 160.021,99.1773 159.646,99.1773" id="Fill-6" fill="#282828"></path>
                <path d="M153.6035,337.3404 C153.3475,337.3404 153.1035,337.1944 152.9895,336.9474 C152.8335,336.6084 152.9825,336.2044 153.3235,336.0464 C159.4925,333.1824 159.2905,323.4444 159.1825,318.2124 C159.1685,317.5174 159.1555,316.9164 159.1585,316.3984 L158.9655,100.9434 L157.2845,100.6434 C156.9155,100.5764 156.6715,100.2254 156.7395,99.8564 C156.8075,99.4864 157.1595,99.2404 157.5295,99.3074 L159.7665,99.7054 C160.0885,99.7634 160.3215,100.0424 160.3225,100.3694 L160.5165,316.3944 C160.5135,316.8984 160.5255,317.4904 160.5395,318.1764 C160.6545,323.7194 160.8675,334.0364 153.8895,337.2774 C153.7965,337.3194 153.6995,337.3404 153.6035,337.3404" id="Fill-8" fill="#282828"></path>
                <g id="Group-12" transform="translate(145.000000, 0.756000)">
                    <mask id="mask-4" fill="white">
                        <use xlink:href="#path-3"></use>
                    </mask>
                    <g id="Clip-11"></g>
                    <path d="M2.3682,337.3412 C2.2422,336.9882 2.4262,336.6002 2.7792,336.4712 C10.1792,333.7802 11.2452,325.2332 11.2942,316.3962 L11.4872,96.8892 L11.5452,16.9352 C11.5102,16.3602 10.4752,1.6012 1.0042,1.6012 C0.6292,1.6012 0.3262,1.2972 0.3292,0.9222 C0.3312,0.5472 0.6362,0.2432 1.0112,0.2432 C5.5582,0.2432 9.0612,3.1592 11.1412,8.6742 C12.6682,12.7232 12.8932,16.7042 12.9022,16.8722 C12.9022,16.8842 12.9032,16.8972 12.9032,16.9082 L12.8452,96.8822 L12.6512,316.3932 C12.5992,325.7262 11.4162,334.7342 3.2292,337.7102 C3.1522,337.7382 2.4672,337.6162 2.3682,337.3412" id="Fill-10" fill="#282828" mask="url(#mask-4)"></path>
                </g>
                <path d="M71.6016,310.3072 C71.5256,310.3072 71.4496,310.2932 71.3736,310.2672 L71.2406,310.2192 C70.8876,310.0932 70.7056,309.7052 70.8336,309.3522 C70.9606,308.9992 71.3506,308.8152 71.7026,308.9412 L71.8366,308.9892 C72.1886,309.1142 72.3706,309.5022 72.2436,309.8552 C72.1436,310.1332 71.8806,310.3072 71.6016,310.3072" id="Fill-13" fill="#282828"></path>
                <path d="M39.1958,300.2125 C39.1628,300.2125 39.1288,300.2095 39.0948,300.2045 C38.7908,300.1585 31.6158,299.0375 28.9558,294.3375 C28.7718,294.0125 28.8868,293.5975 29.2138,293.4115 C29.5398,293.2255 29.9538,293.3385 30.1378,293.6635 C32.4728,297.7895 39.2348,298.8525 39.3028,298.8615 C39.6728,298.9185 39.9268,299.2635 39.8688,299.6345 C39.8168,299.9705 39.5258,300.2125 39.1958,300.2125" id="Fill-15" fill="#282828"></path>
                <path d="M142.8286,335.1792 C142.1516,335.1792 141.4326,335.0442 140.6726,334.7732 L75.7786,311.8222 C75.4256,311.6982 75.2426,311.3102 75.3696,310.9562 C75.4956,310.6032 75.8846,310.4182 76.2376,310.5422 L141.1326,333.4932 C142.6106,334.0212 143.8046,333.9132 144.7846,333.1632 C148.2006,330.5572 148.2626,320.7602 147.9976,317.2052 C147.9966,317.1892 147.9956,317.1712 147.9956,317.1552 L148.1886,97.6452 L148.2466,17.6702 C148.2466,17.6512 148.2476,17.6312 148.2486,17.6122 C148.2536,17.5562 148.6996,11.9642 145.6996,8.6912 C144.2506,7.1102 142.2016,6.3082 139.6096,6.3082 L29.4706,9.5372 C29.1876,9.5702 25.6876,10.0772 25.6586,15.3502 C25.6566,15.7242 25.3506,16.0282 24.9756,16.0282 C24.6016,16.0282 24.2986,15.7242 24.3016,15.3502 C24.3386,8.6872 29.3266,8.1882 29.3766,8.1832 C29.3896,8.1832 29.4016,8.1822 29.4146,8.1812 L139.5976,4.9512 C142.6066,4.9512 144.9926,5.9022 146.7076,7.7772 C150.0196,11.3962 149.6456,17.1602 149.6036,17.6922 L149.5466,97.6382 L149.3526,317.1232 C149.4136,317.9702 150.2446,330.6992 145.6046,334.2422 C144.7856,334.8672 143.8566,335.1792 142.8286,335.1792" id="Fill-17" fill="#282828"></path>
                <g id="Group-21" transform="translate(23.000000, 0.756000)">
                    <mask id="mask-6" fill="white">
                        <use xlink:href="#path-5"></use>
                    </mask>
                    <g id="Clip-20"></g>
                    <path d="M4.2017,265.2475 C3.8267,265.2475 3.5247,264.9435 3.5267,264.5685 L3.5917,253.6285 C3.4267,244.1355 -0.4183,20.6645 1.3247,12.8025 C3.1647,4.5045 8.9017,4.2415 9.1447,4.2345 L94.9187,1.2015 L125.4637,0.2445 C125.4767,0.2435 125.4887,0.2435 125.5017,0.2435 L143.4807,0.6695 C143.7967,0.6645 151.8337,0.5665 155.8597,0.8845 C160.4047,1.2435 165.6867,6.0105 165.6187,18.2665 L165.3877,60.0555 C165.3857,60.4305 165.0797,60.7335 164.7047,60.7335 C164.3297,60.7335 164.0277,60.4305 164.0297,60.0555 L164.2617,18.2665 C164.3047,10.6255 161.6877,2.7065 155.7457,2.2375 C151.7817,1.9245 143.5487,2.0255 143.4667,2.0265 L125.4807,1.6015 L94.9557,2.5585 L9.1807,5.5905 C8.9807,5.5995 4.2497,5.8735 2.6497,13.0895 C0.9417,20.7955 4.9087,251.2855 4.9487,253.6125 L4.8837,264.5685 C4.8817,264.9435 4.5767,265.2475 4.2017,265.2475" id="Fill-19" fill="#282828" mask="url(#mask-6)"></path>
                </g>
                <g id="Group-24" transform="translate(153.000000, 0.756000)">
                    <mask id="mask-8" fill="white">
                        <use xlink:href="#path-7"></use>
                    </mask>
                    <g id="Clip-23"></g>
                    <path d="M1.5337,336.4711 C1.2157,336.4711 0.9337,336.2461 0.8717,335.9231 C0.8017,335.5551 1.0427,335.1991 1.4107,335.1261 L2.0277,335.0061 C19.3887,331.6501 30.6387,328.9071 32.1237,327.6701 C32.1537,327.6451 32.1867,327.6211 32.2217,327.6021 C36.7027,325.0381 36.8797,318.1961 36.8807,318.1271 L36.5817,127.4401 L37.2097,14.4091 C37.2627,4.8361 30.4957,2.4161 29.6817,2.1601 L24.8567,2.2191 C24.4817,2.2171 24.1757,1.9241 24.1737,1.5491 C24.1707,1.1741 24.4727,0.8671 24.8467,0.8621 L29.7757,0.8021 C29.8357,0.8021 29.8977,0.8091 29.9567,0.8251 C30.0427,0.8471 38.6287,3.2421 38.5667,14.4091 L37.9397,127.4351 L38.2387,318.1301 C38.2327,318.4541 38.0537,325.7821 32.9367,328.7521 C30.5707,330.5791 14.9877,333.8811 2.2777,336.3391 L1.6657,336.4581 C1.6207,336.4671 1.5767,336.4711 1.5337,336.4711" id="Fill-22" fill="#282828" mask="url(#mask-8)"></path>
                </g>
                <path d="M174.5181,83.4888 C173.4911,83.4888 172.5361,83.0258 171.8261,82.1858 C171.5851,81.9008 171.6221,81.4718 171.9091,81.2298 C172.1961,80.9868 172.6241,81.0208 172.8651,81.3068 C173.3141,81.8398 173.9041,82.1318 174.5251,82.1318 C175.8531,82.1318 176.9401,80.8068 176.9491,79.1788 C176.9581,77.5518 175.8861,76.2268 174.5581,76.2268 C173.8011,76.2268 173.0761,76.6758 172.6171,77.4268 C172.4211,77.7478 172.0031,77.8498 171.6841,77.6568 C171.3641,77.4628 171.2641,77.0458 171.4591,76.7238 C172.1681,75.5628 173.3301,74.8698 174.5661,74.8698 C176.6421,74.8698 178.3201,76.8028 178.3071,79.1788 C178.2931,81.5548 176.5941,83.4888 174.5181,83.4888" id="Fill-25" fill="#282828"></path>
                <path d="M174.9624,79.9976 L170.2124,79.9976 C169.8374,79.9976 169.5354,79.6936 169.5374,79.3186 C169.5394,78.9436 169.8444,78.6406 170.2194,78.6406 L174.9694,78.6406 C175.3444,78.6406 175.6464,78.9436 175.6444,79.3186 C175.6424,79.6936 175.3374,79.9976 174.9624,79.9976" id="Fill-27" fill="#282828"></path>
                <g id="Group-31" transform="translate(0.000000, 252.756000)">
                    <mask id="mask-10" fill="white">
                        <use xlink:href="#path-9"></use>
                    </mask>
                    <g id="Clip-30"></g>
                    <path d="M77.2907,95.0001 C66.3777,95.0001 55.7567,94.4891 47.2397,93.0601 C29.7277,90.1211 23.8327,85.6861 21.9707,82.4821 C20.9187,80.6701 21.1677,79.2711 21.2737,78.8691 C21.3187,78.2021 21.6707,73.6321 23.1327,68.4291 C24.6097,63.1711 35.5027,59.3951 37.9437,58.6091 L38.3427,48.7961 C35.9917,48.2771 33.5027,46.9521 31.2687,45.0241 C26.6117,41.0021 26.5547,32.6081 26.5327,29.4481 C26.5297,29.1231 26.5287,28.8551 26.5217,28.6551 C26.4827,27.4881 26.5007,26.7151 26.5247,26.2521 C14.8927,22.2011 1.2057,17.4061 0.8187,17.1341 C0.6857,17.0401 0.2787,16.7541 0.2417,16.3011 C0.2357,16.2291 0.2397,16.1571 0.2527,16.0871 L0.0007,7.2991 C-0.0093,6.9691 0.2187,6.6801 0.5417,6.6121 L27.1327,0.9651 C27.3317,0.9221 27.5387,0.9721 27.6967,1.0991 C27.8547,1.2261 27.9477,1.4181 27.9487,1.6211 L27.9597,3.7031 C27.9617,4.0311 27.7287,4.3141 27.4067,4.3771 L11.5187,7.4681 L73.1377,26.3831 C73.3987,26.4631 73.5847,26.6921 73.6107,26.9631 C74.7177,38.4021 76.8357,60.1761 76.9637,61.0721 C77.0307,61.4041 76.8397,61.7431 76.5087,61.8521 C76.1527,61.9711 75.7697,61.7791 75.6527,61.4221 C75.6227,61.3301 75.5517,61.1161 72.3037,27.5491 L8.5217,7.9701 C8.2247,7.8791 8.0287,7.5961 8.0467,7.2851 C8.0647,6.9751 8.2927,6.7141 8.5987,6.6551 L26.5997,3.1531 L26.5957,2.4651 L1.3737,7.8211 L1.6087,16.0131 C2.9617,16.5761 17.6767,21.7321 27.4687,25.1411 C27.7737,25.2471 27.9607,25.5551 27.9137,25.8751 C27.9137,25.8801 27.8137,26.6421 27.8787,28.6021 C27.8857,28.8121 27.8877,29.0921 27.8897,29.4311 C27.9097,32.4231 27.9647,40.3721 32.1587,43.9941 C34.3947,45.9251 36.8797,47.1951 39.1587,47.5711 C39.4947,47.6261 39.7367,47.9231 39.7227,48.2641 L39.2797,59.1361 C39.2687,59.4271 39.0727,59.6781 38.7947,59.7621 C35.2037,60.8431 25.6237,64.5721 24.4397,68.7891 C22.9317,74.1561 22.6267,78.9731 22.6237,79.0211 C22.6197,79.0861 22.6067,79.1511 22.5837,79.2121 C22.5737,79.2461 22.2447,80.3041 23.1967,81.8811 C26.5667,87.4651 39.8517,90.4431 47.4717,91.7211 C72.7757,95.9651 116.9617,92.0471 131.4807,90.7591 C133.2527,90.6021 134.5317,90.4811 135.2597,90.4371 C149.0717,89.5901 162.7347,81.5441 162.8777,81.4641 C163.2057,81.2811 163.6187,81.3981 163.8007,81.7251 C163.9817,82.0511 163.8637,82.4651 163.5347,82.6491 C163.3887,82.7301 152.3127,90.3891 135.3487,91.7901 C134.6337,91.8501 133.3577,91.9541 131.5937,92.1111 C121.8997,92.9711 99.0187,94.9991 77.2907,95.0001 Z" id="Fill-29" fill="#282828" mask="url(#mask-10)"></path>
                </g>
                <path d="M79.7005,336.2222 C58.8245,336.2222 40.7705,334.8232 33.2745,331.5642 C26.8775,328.7832 23.3465,326.0232 22.7785,323.3612 C22.4615,321.8762 23.1985,321.0062 23.2835,320.9122 C23.5345,320.6332 23.9645,320.6102 24.2415,320.8602 C24.5195,321.1102 24.5405,321.5382 24.2895,321.8182 C24.2835,321.8262 23.9175,322.2842 24.1185,323.1272 C24.4135,324.3662 26.0665,326.9472 33.8225,330.3192 C47.1865,336.1292 95.0405,335.9032 131.7125,332.3612 C132.0855,332.3212 132.4165,332.5982 132.4505,332.9722 C132.4845,333.3442 132.2095,333.6762 131.8355,333.7122 C115.3545,335.3042 96.6015,336.2222 79.7005,336.2222" id="Fill-32" fill="#282828"></path>
                <path d="M159.6392,101.0523 C159.2822,101.0523 158.9842,100.7733 158.9662,100.4123 C158.9472,100.0373 159.2352,99.7173 159.6092,99.6963 L187.9032,98.1003 C188.2752,98.0843 188.5972,98.3653 188.6162,98.7393 C188.6352,99.1143 188.3472,99.4343 187.9722,99.4553 L159.6782,101.0513 C159.6652,101.0523 159.6522,101.0523 159.6392,101.0523" id="Fill-34" fill="#282828"></path>
                <path d="M159.46,60.4732 C159.092,60.4732 158.791,60.1782 158.786,59.8082 C158.78,59.4332 159.08,59.1232 159.455,59.1162 L187.549,58.5572 C187.922,58.5582 188.232,58.8472 188.237,59.2222 C188.243,59.5972 187.943,59.9072 187.568,59.9142 L159.474,60.4732 L159.46,60.4732 Z" id="Fill-36" fill="#282828"></path>
                <path d="M58.5562,320.0757 C52.0582,320.0757 45.1322,318.6607 41.1392,316.4647 C37.9502,314.7107 37.6192,312.9537 37.9292,311.7627 L39.5412,283.6177 L27.0122,279.1787 C26.6602,279.0537 26.4772,278.6657 26.6042,278.3117 C26.7312,277.9587 27.1192,277.7727 27.4722,277.8987 L40.4772,282.5077 C40.7602,282.6077 40.9422,282.8827 40.9252,283.1817 L39.2792,311.9037 C39.2762,311.9547 39.2682,312.0057 39.2542,312.0547 C38.8782,313.3517 40.4302,314.5217 41.7982,315.2737 C48.8622,319.1587 66.3522,320.5677 71.5962,315.2637 L68.7872,291.7437 C68.7422,291.3717 69.0082,291.0327 69.3802,290.9857 C69.7532,290.9387 70.0902,291.2037 70.1342,291.5757 L72.9822,315.4097 C73.0052,315.6027 72.9432,315.7987 72.8122,315.9447 C70.2002,318.8657 64.5612,320.0757 58.5562,320.0757" id="Fill-38" fill="#282828"></path>
                <path d="M72.1934,316.8111 C71.8534,316.8111 71.5614,316.5561 71.5234,316.2101 L67.7234,282.0021 C67.6914,281.7121 67.8474,281.4341 68.1114,281.3101 L72.6494,279.1741 C72.9894,279.0151 73.3924,279.1601 73.5504,279.4981 C73.7084,279.8371 73.5614,280.2421 73.2214,280.4021 L69.1254,282.3301 L72.8724,316.0531 C72.9134,316.4261 72.6454,316.7631 72.2724,316.8061 C72.2464,316.8091 72.2194,316.8111 72.1934,316.8111" id="Fill-40" fill="#282828"></path>
                <path d="M68.3941,282.6031 C68.3251,282.6031 68.2551,282.5921 68.1861,282.5701 L0.4671,260.6771 C0.1111,260.5621 -0.0829,260.1801 0.0341,259.8231 C0.1511,259.4661 0.5351,259.2701 0.8911,259.3851 L68.6101,281.2781 C68.9661,281.3931 69.1591,281.7751 69.0421,282.1321 C68.9481,282.4191 68.6811,282.6031 68.3941,282.6031" id="Fill-42" fill="#282828"></path>
                <path d="M166.8399,290.0777 C166.6959,290.2547 166.5249,290.4037 166.3299,290.5207 C166.1359,290.6387 165.9279,290.7117 165.7109,290.7397 C165.4939,290.7677 165.2879,290.7487 165.0979,290.6817 C164.9059,290.6147 164.7369,290.5097 164.5949,290.3697 C164.4529,290.2307 164.3399,290.0567 164.2569,289.8557 C164.1759,289.6557 164.1349,289.4317 164.1359,289.1927 C164.1379,288.9527 164.1809,288.7177 164.2649,288.4927 C164.3499,288.2657 164.4649,288.0617 164.6089,287.8857 C164.7529,287.7087 164.9239,287.5587 165.1159,287.4417 C165.3069,287.3257 165.5139,287.2527 165.7309,287.2237 C165.9469,287.1957 166.1549,287.2157 166.3479,287.2817 C166.5409,287.3487 166.7119,287.4537 166.8539,287.5937 C166.9959,287.7327 167.1099,287.9067 167.1919,288.1107 C167.2729,288.3137 167.3139,288.5387 167.3129,288.7787 C167.3109,289.0187 167.2679,289.2527 167.1839,289.4737 C167.0999,289.6977 166.9839,289.9007 166.8399,290.0777 M167.2869,287.0607 C167.0889,286.8667 166.8549,286.7217 166.5899,286.6297 C166.3249,286.5377 166.0369,286.5117 165.7349,286.5507 C165.4319,286.5907 165.1439,286.6917 164.8799,286.8527 C164.6159,287.0137 164.3819,287.2197 164.1809,287.4657 C163.9809,287.7117 163.8209,287.9927 163.7049,288.3017 C163.5899,288.6097 163.5289,288.9367 163.5269,289.2717 C163.5259,289.6067 163.5819,289.9177 163.6949,290.1947 C163.8069,290.4707 163.9649,290.7087 164.1619,290.9027 C164.3599,291.0977 164.5929,291.2417 164.8549,291.3337 C165.1169,291.4267 165.4039,291.4537 165.7069,291.4137 C166.0099,291.3747 166.2999,291.2757 166.5659,291.1107 C166.6399,291.0647 166.7069,291.0257 166.7679,290.9937 C166.9859,290.8787 167.2239,290.9217 167.3799,291.0897 C167.4369,291.1497 167.5199,291.1817 167.6109,291.1657 C167.7739,291.1377 167.9019,290.9677 167.9019,290.7867 C167.9019,290.7867 167.9209,288.7687 167.9219,288.6997 C167.9229,288.3647 167.8669,288.0537 167.7539,287.7727 C167.6419,287.4947 167.4849,287.2557 167.2869,287.0607" id="Fill-44" fill="#282828"></path>
                <path d="M169.9302,287.1763 C170.0762,286.9983 170.2482,286.8493 170.4412,286.7323 C170.6322,286.6153 170.8422,286.5413 171.0632,286.5133 L172.2082,286.3643 C172.3762,286.3423 172.5142,286.1733 172.5152,285.9873 C172.5162,285.8013 172.3802,285.6673 172.2122,285.6903 L171.0672,285.8393 C170.7642,285.8783 170.4762,285.9803 170.2092,286.1413 C169.9432,286.3023 169.7072,286.5083 169.5072,286.7543 C169.3062,287.0003 169.1452,287.2813 169.0272,287.5893 C168.9092,287.9003 168.8472,288.2273 168.8462,288.5623 C168.8442,288.8983 168.9012,289.2093 169.0172,289.4893 C169.1312,289.7673 169.2902,290.0063 169.4882,290.2003 C169.6852,290.3953 169.9192,290.5403 170.1832,290.6353 C170.4492,290.7303 170.7372,290.7583 171.0402,290.7193 L172.1852,290.5703 C172.3532,290.5473 172.4912,290.3783 172.4922,290.1933 C172.4932,290.0073 172.3572,289.8733 172.1892,289.8963 L171.0442,290.0443 C170.8222,290.0733 170.6132,290.0543 170.4232,289.9883 C170.2322,289.9203 170.0612,289.8153 169.9172,289.6723 C169.7722,289.5303 169.6572,289.3563 169.5752,289.1553 C169.4932,288.9543 169.4532,288.7283 169.4542,288.4833 C169.4552,288.2433 169.4992,288.0073 169.5832,287.7823 C169.6672,287.5573 169.7842,287.3533 169.9302,287.1763" id="Fill-46" fill="#282828"></path>
                <path d="M180.8296,284.5669 L180.8226,284.5679 C180.6546,284.5889 180.5166,284.7579 180.5156,284.9449 L180.5036,287.0509 C180.5026,287.2919 180.4596,287.5269 180.3756,287.7519 C180.2906,287.9779 180.1756,288.1819 180.0316,288.3589 C179.8876,288.5359 179.7166,288.6849 179.5246,288.8019 C179.3566,288.9039 179.1746,288.9729 178.9826,289.0079 C178.9696,289.0109 178.9566,289.0129 178.9436,289.0149 C178.9326,289.0169 178.9216,289.0179 178.9106,289.0199 L178.9066,289.0199 C178.8936,289.0219 178.8806,289.0229 178.8686,289.0249 L178.8336,289.0279 C178.7526,289.0349 178.6736,289.0349 178.5956,289.0279 C178.4886,289.0189 178.3846,288.9979 178.2856,288.9629 C178.0916,288.8959 177.9216,288.7909 177.7796,288.6489 C177.6376,288.5059 177.5236,288.3319 177.4416,288.1299 C177.3596,287.9289 177.3196,287.7039 177.3206,287.4589 L177.3316,285.3589 C177.3326,285.1699 177.1916,285.0349 177.0186,285.0639 C176.8536,285.0909 176.7246,285.2639 176.7236,285.4479 L176.7116,287.5379 C176.7096,287.8729 176.7666,288.1839 176.8786,288.4629 C176.9916,288.7419 177.1486,288.9819 177.3466,289.1759 C177.3586,289.1889 177.3716,289.2009 177.3846,289.2129 C177.3856,289.2139 177.3866,289.2139 177.3876,289.2159 C177.3896,289.2169 177.3916,289.2189 177.3926,289.2199 C177.5806,289.3929 177.7986,289.5239 178.0416,289.6109 C178.1226,289.6399 178.2066,289.6629 178.2916,289.6789 L178.2916,289.6799 C178.4686,289.7089 178.5906,289.8689 178.5896,290.0709 L178.5876,290.4559 C178.5866,290.6379 178.7136,290.7779 178.8786,290.7629 C179.0516,290.7479 179.1956,290.5749 179.1966,290.3849 L179.1986,290.0169 C179.1996,289.8039 179.3296,289.6009 179.5146,289.5199 L179.5156,289.5199 C179.6006,289.4809 179.6836,289.4369 179.7656,289.3859 C179.9946,289.2459 180.2026,289.0719 180.3836,288.8679 C180.3946,288.8539 180.4076,288.8399 180.4186,288.8269 C180.4216,288.8229 180.4256,288.8199 180.4276,288.8169 C180.4406,288.8009 180.4536,288.7859 180.4666,288.7699 C180.6666,288.5229 180.8276,288.2419 180.9426,287.9339 C181.0586,287.6259 181.1186,287.2979 181.1206,286.9629 L181.1316,284.8639 C181.1326,284.6779 180.9976,284.5459 180.8296,284.5669" id="Fill-48" fill="#282828"></path>
                <path d="M184.4155,288.3023 C184.1985,288.3303 183.9925,288.3113 183.8025,288.2443 C183.6105,288.1773 183.4415,288.0733 183.2995,287.9333 C183.1575,287.7933 183.0435,287.6203 182.9615,287.4183 C182.8805,287.2183 182.8395,286.9953 182.8415,286.7553 L182.8525,284.6563 C182.8535,284.4713 182.7185,284.3373 182.5505,284.3603 C182.3825,284.3813 182.2445,284.5503 182.2435,284.7363 L182.2315,286.8343 C182.2305,287.1703 182.2865,287.4813 182.3995,287.7573 C182.5115,288.0323 182.6685,288.2713 182.8665,288.4653 C183.0645,288.6593 183.2975,288.8053 183.5595,288.8973 C183.8225,288.9893 184.1085,289.0163 184.4115,288.9763 C184.5795,288.9543 184.7175,288.7853 184.7185,288.6003 C184.7195,288.4133 184.5835,288.2813 184.4155,288.3023" id="Fill-50" fill="#282828"></path>
                <path d="M175.9185,285.7984 C175.9175,285.9854 175.7805,286.1534 175.6115,286.1764 C175.5475,286.1844 175.4885,286.1704 175.4395,286.1394 C175.3185,286.0634 175.1655,286.0594 175.0285,286.1394 C175.0205,286.1444 175.0125,286.1494 175.0045,286.1534 C174.8115,286.2714 174.6415,286.4204 174.4975,286.5974 C174.3535,286.7744 174.2375,286.9774 174.1535,287.2004 C174.0695,287.4224 174.0265,287.6554 174.0245,287.8964 L174.0135,289.9944 C174.0125,290.1804 173.8755,290.3494 173.7075,290.3714 C173.5395,290.3934 173.4035,290.2604 173.4045,290.0734 L173.4165,287.9754 C173.4185,287.6404 173.4775,287.3154 173.5935,287.0074 C173.7095,286.7024 173.8695,286.4234 174.0695,286.1774 C174.2705,285.9314 174.5045,285.7254 174.7675,285.5644 C175.0325,285.4024 175.3195,285.3014 175.6225,285.2624 C175.7905,285.2394 175.9265,285.3734 175.9245,285.5594 C175.9245,285.6044 175.9185,285.7594 175.9185,285.7984" id="Fill-52" fill="#282828"></path>
                <path d="M85.3816,181.7574 C83.2166,182.7274 80.8916,183.0474 78.4716,182.7094 C76.0526,182.3724 73.7506,181.4054 71.6306,179.8414 C69.4916,178.2634 67.6056,176.2384 66.0216,173.8204 C64.4376,171.4054 63.1716,168.6204 62.2576,165.5414 C61.3506,162.4884 60.8996,159.2554 60.9186,155.9304 C60.9366,152.6054 61.4236,149.4804 62.3646,146.6434 C63.3106,143.7914 64.6056,141.3464 66.2146,139.3764 C67.8236,137.4034 69.7306,135.9074 71.8806,134.9304 C74.0146,133.9574 76.3226,133.6364 78.7426,133.9744 C81.1616,134.3114 83.4796,135.2794 85.6306,136.8524 C86.4846,137.4764 87.2976,138.1694 88.0666,138.9324 C89.2426,140.0934 90.3156,141.4114 91.2736,142.8734 C91.7876,143.6564 92.2676,144.4814 92.7126,145.3424 C93.6416,147.1404 94.4206,149.1024 95.0376,151.2014 C95.9456,154.2964 96.3966,157.5534 96.3786,160.8784 C96.3596,164.2034 95.8746,167.3064 94.9346,170.1014 C94.2636,172.1024 93.4136,173.9074 92.4006,175.4914 C91.9896,176.1384 91.5496,176.7474 91.0836,177.3194 C90.0266,178.6124 88.8346,179.7034 87.5236,180.5734 C86.8406,181.0284 86.1266,181.4224 85.3816,181.7574 M101.3236,148.4064 C101.1286,147.7444 100.9216,147.0924 100.7016,146.4494 C99.9666,144.2954 99.0976,142.2494 98.0996,140.3324 C97.4866,139.1534 96.8256,138.0214 96.1166,136.9404 C93.9126,133.5784 91.2986,130.7774 88.3476,128.6114 C85.3836,126.4404 82.1696,125.1004 78.7946,124.6294 C75.4146,124.1574 72.2036,124.6024 69.2466,125.9484 C66.3066,127.2904 63.6816,129.3614 61.4456,132.1024 C59.2046,134.8474 57.4126,138.2104 56.1186,142.0984 C54.8186,146.0044 54.1456,150.3384 54.1196,154.9824 C54.0936,159.6314 54.7176,164.1284 55.9746,168.3514 C57.2246,172.5544 58.9756,176.3914 61.1806,179.7534 C63.3856,183.1194 65.9836,185.9174 68.9026,188.0724 C71.8356,190.2424 75.0376,191.5814 78.4206,192.0544 C81.7986,192.5254 85.0396,192.1374 88.0026,190.7414 C88.8376,190.3494 89.5896,190.0384 90.2676,189.7964 C92.7006,188.9244 95.3546,190.3264 97.0936,193.1754 C97.7286,194.2174 98.6536,194.9264 99.6776,195.0164 C101.4956,195.1754 102.9186,193.2414 102.9326,190.7424 C102.9326,190.7424 103.1716,162.7934 103.1766,161.8264 C103.2026,157.1884 102.5796,152.6734 101.3236,148.4064" id="Fill-54" fill="#282828"></path>
                <path d="M87.7732,159.5181 C87.7342,166.4441 83.6182,171.4881 78.5792,170.7851 C73.5402,170.0811 69.4862,163.8971 69.5252,156.9711 C69.5632,150.0451 73.6792,145.0011 78.7192,145.7051 C83.7582,146.4081 87.8112,152.5921 87.7732,159.5181" id="Fill-56" fill="#282828"></path>
            </g>
        </g>
    </g>
</svg>