<?xml version="1.0" encoding="UTF-8"?>
<svg width="134px" height="145px" viewBox="0 0 134 145" version="1.1" xmlns="http://www.w3.org/2000/svg" xmlns:xlink="http://www.w3.org/1999/xlink">
    <!-- Generator: Sketch 52.5 (67469) - http://www.bohemiancoding.com/sketch -->
    <title>mining</title>
    <desc>Created with Sketch.</desc>
    <g id="Page-1" stroke="none" stroke-width="1" fill="none" fill-rule="evenodd">
        <g id="Desktop-HD" transform="translate(-770.000000, -2189.000000)">
            <g id="mining" transform="translate(770.000000, 2189.000000)">
                <path d="M80.1895,69.098 L76.7815,63.418 L64.9115,64.303 C64.4325,64.362 64.0025,63.977 63.9655,63.49 C63.9295,63.004 64.2935,62.58 64.7795,62.545 L77.7345,61.577 L80.9975,67.014 L91.4565,63.877 C91.9225,63.733 92.4155,64 92.5545,64.467 C92.6945,64.934 92.4295,65.426 91.9625,65.566 L80.1895,69.098 Z" id="Fill-1" fill="#181818"></path>
                <path d="M102.3198,57.7074 C102.1778,57.7074 102.0328,57.6764 101.8968,57.6104 C101.4108,57.3764 101.2068,56.7934 101.4408,56.3084 L107.9068,42.8834 C108.7738,41.0804 108.0118,38.9084 106.2098,38.0414 L82.5058,26.6404 C81.6328,26.2204 80.6478,26.1654 79.7338,26.4854 C78.8188,26.8074 78.0838,27.4644 77.6638,28.3374 L66.9908,50.2114 C66.7548,50.6954 66.1708,50.8964 65.6868,50.6604 C65.2018,50.4244 65.0008,49.8404 65.2368,49.3554 L75.9068,27.4864 C76.5508,26.1484 77.6818,25.1374 79.0878,24.6444 C80.4938,24.1514 82.0088,24.2354 83.3518,24.8814 L107.0548,36.2824 C109.8278,37.6164 110.9988,40.9564 109.6648,43.7294 L103.1988,57.1544 C103.0308,57.5044 102.6828,57.7074 102.3198,57.7074" id="Fill-3" fill="#FF5E39"></path>
                <path d="M77.8623,102.223 C77.0523,102.223 76.2303,102.046 75.4523,101.672 L63.5533,95.95 C63.0683,95.715 62.8633,95.132 63.0973,94.647 C63.3313,94.161 63.9143,93.956 64.4003,94.191 L76.2983,99.913 C78.1013,100.781 80.2733,100.019 81.1403,98.216 L86.7833,86.526 C87.0173,86.04 87.6003,85.836 88.0863,86.071 C88.5713,86.305 88.7753,86.888 88.5413,87.373 L82.8993,99.064 C81.9403,101.058 79.9413,102.223 77.8623,102.223" id="Fill-5" fill="#FF5E39"></path>
                <path d="M84.0205,94.5462 C83.8785,94.5462 83.7345,94.5152 83.5985,94.4492 L66.2445,86.1032 C65.7585,85.8682 65.5545,85.2852 65.7885,84.8002 C66.0215,84.3152 66.6045,84.1092 67.0905,84.3442 L84.4445,92.6912 C84.9295,92.9242 85.1345,93.5072 84.9005,93.9922 C84.7325,94.3422 84.3835,94.5462 84.0205,94.5462" id="Fill-7" fill="#FF5E39"></path>
                <path d="M107.9629,45.0833 C107.8209,45.0833 107.6769,45.0523 107.5409,44.9863 L76.8189,30.2103 C76.3339,29.9773 76.1299,29.3943 76.3629,28.9083 C76.5969,28.4223 77.1799,28.2183 77.6659,28.4513 L108.3869,43.2283 C108.8719,43.4613 109.0769,44.0443 108.8429,44.5303 C108.6749,44.8793 108.3259,45.0833 107.9629,45.0833" id="Fill-9" fill="#FF5E39"></path>
                <path d="M69.2656,92.5023 C69.1236,92.5023 68.9796,92.4723 68.8436,92.4053 L65.5606,90.8263 C65.0746,90.5933 64.8696,90.0103 65.1036,89.5243 C65.3376,89.0383 65.9206,88.8343 66.4066,89.0673 L69.6896,90.6473 C70.1756,90.8813 70.3796,91.4643 70.1456,91.9493 C69.9776,92.2993 69.6286,92.5023 69.2656,92.5023" id="Fill-11" fill="#FF5E39"></path>
                <path d="M31.0503,112.0081 C30.9083,112.0081 30.7643,111.9771 30.6283,111.9111 C30.1423,111.6781 29.9383,111.0951 30.1713,110.6091 L39.4503,91.3191 L43.1753,70.5621 C43.2603,66.9601 45.0673,63.5841 48.0193,61.5161 L67.7323,47.8461 C68.9933,46.9671 70.5223,46.6431 72.0343,46.9351 C73.5473,47.2271 74.8453,48.0971 75.6903,49.3851 C77.3253,51.8781 76.7353,55.2301 74.3453,57.0141 L60.1143,67.6441 C61.3883,69.0741 63.9263,72.2711 65.5933,76.6451 C66.9273,80.1451 67.4203,83.6691 67.0573,87.1221 C66.6043,91.4291 64.8153,95.6131 61.7393,99.5581 C61.4073,99.9831 60.7943,100.0581 60.3693,99.7271 C59.9443,99.3961 59.8683,98.7821 60.2003,98.3581 C63.0483,94.7051 64.7023,90.8571 65.1163,86.9181 C65.4463,83.7741 64.9933,80.5511 63.7703,77.3401 C61.6693,71.8281 58.0123,68.2541 57.9763,68.2181 C57.7703,68.0201 57.6623,67.7401 57.6803,67.4541 C57.6983,67.1691 57.8413,66.9051 58.0703,66.7351 L73.1773,55.4501 C74.7423,54.2821 75.1283,52.0881 74.0573,50.4551 C73.5053,49.6121 72.6543,49.0421 71.6643,48.8511 C70.6743,48.6591 69.6733,48.8721 68.8463,49.4481 L49.1353,63.1171 C46.6753,64.8401 45.1753,67.6661 45.1253,70.6741 C45.1243,70.7271 45.1193,70.7791 45.1103,70.8301 L41.3473,91.7941 C41.3323,91.8801 41.3043,91.9651 41.2663,92.0441 L31.9303,111.4551 C31.7623,111.8041 31.4133,112.0081 31.0503,112.0081" id="Fill-13" fill="#FF5E39"></path>
                <path d="M105.7695,57.5277 C105.4735,57.5277 105.1755,57.5677 104.8825,57.6497 L96.2555,60.0477 C94.5055,60.5337 93.4775,62.3527 93.9635,64.1037 C94.1995,64.9517 94.7505,65.6577 95.5175,66.0907 C96.2835,66.5227 97.1725,66.6317 98.0205,66.3957 L106.6465,63.9997 C108.3975,63.5117 109.4255,61.6927 108.9395,59.9417 C108.7035,59.0937 108.1515,58.3887 107.3855,57.9557 C106.8845,57.6727 106.3305,57.5277 105.7695,57.5277 M97.1295,68.4697 C96.2375,68.4697 95.3555,68.2407 94.5575,67.7897 C93.3365,67.0997 92.4585,65.9767 92.0825,64.6267 C91.3085,61.8397 92.9465,58.9407 95.7335,58.1667 L104.3595,55.7687 C107.1465,54.9947 110.0445,56.6317 110.8195,59.4197 C111.5945,62.2077 109.9565,65.1047 107.1695,65.8797 L98.5425,68.2767 C98.0765,68.4067 97.6015,68.4697 97.1295,68.4697" id="Fill-15" fill="#FF5E39"></path>
                <path d="M103.8486,67.0511 C103.5566,67.0511 103.2616,67.0901 102.9676,67.1711 L94.3406,69.5691 C92.5906,70.0551 91.5616,71.8751 92.0486,73.6251 C92.5346,75.3761 94.3536,76.4051 96.1056,75.9181 L104.7316,73.5211 C105.5796,73.2851 106.2856,72.7341 106.7186,71.9671 C107.1506,71.2011 107.2596,70.3121 107.0236,69.4641 C106.6196,68.0071 105.2916,67.0511 103.8486,67.0511 M95.2246,77.9901 C92.9266,77.9901 90.8126,76.4681 90.1676,74.1491 C89.3936,71.3611 91.0306,68.4631 93.8186,67.6891 L102.4446,65.2911 C105.2316,64.5171 108.1296,66.1551 108.9046,68.9421 C109.6796,71.7291 108.0416,74.6271 105.2546,75.4021 L96.6276,77.7981 C96.1596,77.9291 95.6886,77.9901 95.2246,77.9901" id="Fill-17" fill="#FF5E39"></path>
                <path d="M98.8994,77.3402 C98.6084,77.3402 98.3124,77.3792 98.0184,77.4602 L89.3924,79.8582 C88.5444,80.0942 87.8384,80.6452 87.4054,81.4112 C86.9724,82.1782 86.8634,83.0672 87.0994,83.9142 C87.3354,84.7632 87.8864,85.4682 88.6534,85.9012 C89.4194,86.3342 90.3084,86.4432 91.1564,86.2072 L99.7824,83.8102 C101.5334,83.3232 102.5614,81.5032 102.0754,79.7532 C101.6704,78.2962 100.3424,77.3402 98.8994,77.3402 M90.2664,88.2812 C89.3734,88.2812 88.4914,88.0512 87.6924,87.6002 C86.4734,86.9102 85.5944,85.7872 85.2194,84.4382 C84.8434,83.0872 85.0174,81.6712 85.7064,80.4512 C86.3964,79.2322 87.5194,78.3532 88.8694,77.9782 L97.4964,75.5802 C100.2834,74.8062 103.1814,76.4442 103.9554,79.2312 C104.7304,82.0182 103.0924,84.9152 100.3054,85.6912 L91.6784,88.0872 C91.2124,88.2172 90.7374,88.2812 90.2664,88.2812" id="Fill-19" fill="#FF5E39"></path>
                <path d="M52.8237,126.5374 C52.6817,126.5374 52.5377,126.5064 52.4017,126.4404 C51.9157,126.2064 51.7117,125.6234 51.9447,125.1384 L60.6937,106.9484 C60.8597,106.6034 61.2107,106.3894 61.5947,106.3964 C65.4347,106.4824 68.8587,105.4754 71.7767,103.4004 C73.9687,101.8434 75.0397,100.2314 75.0507,100.2154 C75.3447,99.7664 75.9497,99.6384 76.3997,99.9324 C76.8507,100.2254 76.9787,100.8274 76.6867,101.2794 C76.6367,101.3554 75.4487,103.1654 72.9857,104.9354 C70.8177,106.4944 67.2127,108.3164 62.1837,108.3524 L53.7037,125.9834 C53.5357,126.3334 53.1867,126.5374 52.8237,126.5374" id="Fill-21" fill="#FF5E39"></path>
                <path d="M12.3306,93.762 C11.8876,93.762 11.4866,93.459 11.3816,93.009 C10.3256,88.52 9.7906,83.883 9.7906,79.228 C9.7906,76.69 9.9506,74.134 10.2666,71.633 C10.3346,71.099 10.8226,70.721 11.3576,70.787 C11.8926,70.856 12.2706,71.343 12.2036,71.878 C11.8976,74.298 11.7426,76.771 11.7426,79.228 C11.7426,83.733 12.2596,88.219 13.2816,92.563 C13.4046,93.087 13.0796,93.613 12.5546,93.736 C12.4796,93.754 12.4046,93.762 12.3306,93.762" id="Fill-23" fill="#181818"></path>
                <path d="M69.7759,139.2142 C60.2659,139.2142 51.1709,137.0532 42.7439,132.7912 C34.7069,128.7282 27.5619,122.7862 22.0789,115.6102 C21.7519,115.1822 21.8339,114.5692 22.2619,114.2422 C22.6909,113.9152 23.3029,113.9972 23.6299,114.4252 C28.9349,121.3692 35.8489,127.1182 43.6239,131.0502 C51.7759,135.1722 60.5749,137.2622 69.7759,137.2622 C73.2949,137.2622 76.8179,136.9442 80.2509,136.3192 C80.7799,136.2222 81.2889,136.5742 81.3849,137.1052 C81.4819,137.6352 81.1299,138.1432 80.5999,138.2392 C77.0529,138.8862 73.4119,139.2142 69.7759,139.2142" id="Fill-25" fill="#181818"></path>
                <path d="M126.29,97.4456 C126.205,97.4456 126.118,97.4336 126.031,97.4106 C125.511,97.2666 125.206,96.7296 125.349,96.2106 C125.832,94.4516 126.237,92.6476 126.551,90.8496 C126.644,90.3196 127.149,89.9646 127.68,90.0566 C128.211,90.1496 128.566,90.6556 128.473,91.1856 C128.148,93.0446 127.73,94.9096 127.23,96.7276 C127.111,97.1606 126.718,97.4456 126.29,97.4456" id="Fill-27" fill="#181818"></path>
                <path d="M127.4917,67.8616 C127.0407,67.8616 126.6367,67.5486 126.5387,67.0896 C124.8417,59.1126 121.5357,51.7126 116.7157,45.0946 C116.3987,44.6596 116.4937,44.0496 116.9297,43.7316 C117.3657,43.4146 117.9757,43.5096 118.2927,43.9456 C123.2767,50.7866 126.6927,58.4356 128.4477,66.6826 C128.5597,67.2106 128.2227,67.7276 127.6957,67.8406 C127.6277,67.8546 127.5587,67.8616 127.4917,67.8616" id="Fill-29" fill="#181818"></path>
                <g id="Group-35" transform="translate(10.000000, 102.222000)" fill="#181818">
                    <path d="M4.0522,2.4541 L1.9702,2.4541 C1.4312,2.4541 0.9942,2.0171 0.9942,1.4781 C0.9942,0.9391 1.4312,0.5031 1.9702,0.5031 L4.0522,0.5031 C4.5912,0.5031 5.0282,0.9391 5.0282,1.4781 C5.0282,2.0171 4.5912,2.4541 4.0522,2.4541" id="Fill-31"></path>
                    <path d="M12.1191,2.4541 L9.7771,2.4541 C9.2381,2.4541 8.8011,2.0171 8.8011,1.4781 C8.8011,0.9391 9.2381,0.5031 9.7771,0.5031 L12.1191,0.5031 C12.6581,0.5031 13.0951,0.9391 13.0951,1.4781 C13.0951,2.0171 12.6581,2.4541 12.1191,2.4541" id="Fill-33"></path>
                </g>
                <path d="M16.98,109.8157 C16.441,109.8157 16.004,109.3787 16.004,108.8397 L16.004,106.7577 C16.004,106.2187 16.441,105.7827 16.98,105.7827 C17.519,105.7827 17.956,106.2187 17.956,106.7577 L17.956,108.8397 C17.956,109.3787 17.519,109.8157 16.98,109.8157" id="Fill-36" fill="#181818"></path>
                <path d="M16.98,102.0091 C16.441,102.0091 16.004,101.5721 16.004,101.0331 L16.004,98.6911 C16.004,98.1531 16.441,97.7151 16.98,97.7151 C17.519,97.7151 17.956,98.1531 17.956,98.6911 L17.956,101.0331 C17.956,101.5721 17.519,102.0091 16.98,102.0091" id="Fill-38" fill="#181818"></path>
                <path d="M124.9087,79.5648 L122.8267,79.5648 C122.2877,79.5648 121.8507,79.1278 121.8507,78.5888 C121.8507,78.0498 122.2877,77.6128 122.8267,77.6128 L124.9087,77.6128 C125.4477,77.6128 125.8847,78.0498 125.8847,78.5888 C125.8847,79.1278 125.4477,79.5648 124.9087,79.5648" id="Fill-40" fill="#181818"></path>
                <path d="M132.9756,79.5648 L130.6336,79.5648 C130.0946,79.5648 129.6576,79.1278 129.6576,78.5888 C129.6576,78.0498 130.0946,77.6128 130.6336,77.6128 L132.9756,77.6128 C133.5146,77.6128 133.9516,78.0498 133.9516,78.5888 C133.9516,79.1278 133.5146,79.5648 132.9756,79.5648" id="Fill-42" fill="#181818"></path>
                <path d="M127.8364,84.7044 C127.2974,84.7044 126.8604,84.2674 126.8604,83.7274 L126.8604,81.6464 C126.8604,81.1074 127.2974,80.6704 127.8364,80.6704 C128.3754,80.6704 128.8124,81.1074 128.8124,81.6464 L128.8124,83.7274 C128.8124,84.2674 128.3754,84.7044 127.8364,84.7044" id="Fill-44" fill="#181818"></path>
                <path d="M127.8364,76.8968 C127.2974,76.8968 126.8604,76.4598 126.8604,75.9208 L126.8604,73.5798 C126.8604,73.0408 127.2974,72.6038 127.8364,72.6038 C128.3754,72.6038 128.8124,73.0408 128.8124,73.5798 L128.8124,75.9208 C128.8124,76.4598 128.3754,76.8968 127.8364,76.8968" id="Fill-46" fill="#181818"></path>
                <path d="M53.7368,6.9613 L51.6548,6.9613 C51.1158,6.9613 50.6788,6.5243 50.6788,5.9853 C50.6788,5.4463 51.1158,5.0103 51.6548,5.0103 L53.7368,5.0103 C54.2758,5.0103 54.7128,5.4463 54.7128,5.9853 C54.7128,6.5243 54.2758,6.9613 53.7368,6.9613" id="Fill-48" fill="#181818"></path>
                <path d="M61.8037,6.9613 L59.4617,6.9613 C58.9227,6.9613 58.4857,6.5243 58.4857,5.9853 C58.4857,5.4463 58.9227,5.0103 59.4617,5.0103 L61.8037,5.0103 C62.3427,5.0103 62.7797,5.4463 62.7797,5.9853 C62.7797,6.5243 62.3427,6.9613 61.8037,6.9613" id="Fill-50" fill="#181818"></path>
                <path d="M56.6646,12.1009 C56.1256,12.1009 55.6886,11.6639 55.6886,11.1249 L55.6886,9.0429 C55.6886,8.5039 56.1256,8.0679 56.6646,8.0679 C57.2036,8.0679 57.6406,8.5039 57.6406,9.0429 L57.6406,11.1249 C57.6406,11.6639 57.2036,12.1009 56.6646,12.1009" id="Fill-52" fill="#181818"></path>
                <path d="M56.6646,4.2943 C56.1256,4.2943 55.6886,3.8573 55.6886,3.3183 L55.6886,0.9763 C55.6886,0.4373 56.1256,0.0003 56.6646,0.0003 C57.2036,0.0003 57.6406,0.4373 57.6406,0.9763 L57.6406,3.3183 C57.6406,3.8573 57.2036,4.2943 56.6646,4.2943" id="Fill-54" fill="#181818"></path>
                <path d="M121.916,112.0931 L119.834,112.0931 C119.295,112.0931 118.858,111.6561 118.858,111.1171 C118.858,110.5781 119.295,110.1411 119.834,110.1411 L121.916,110.1411 C122.455,110.1411 122.892,110.5781 122.892,111.1171 C122.892,111.6561 122.455,112.0931 121.916,112.0931" id="Fill-56" fill="#181818"></path>
                <path d="M129.9829,112.0931 L127.6409,112.0931 C127.1019,112.0931 126.6649,111.6561 126.6649,111.1171 C126.6649,110.5781 127.1019,110.1411 127.6409,110.1411 L129.9829,110.1411 C130.5219,110.1411 130.9589,110.5781 130.9589,111.1171 C130.9589,111.6561 130.5219,112.0931 129.9829,112.0931" id="Fill-58" fill="#181818"></path>
                <path d="M124.8438,117.2327 C124.3048,117.2327 123.8678,116.7957 123.8678,116.2557 L123.8678,114.1747 C123.8678,113.6357 124.3048,113.1987 124.8438,113.1987 C125.3828,113.1987 125.8198,113.6357 125.8198,114.1747 L125.8198,116.2557 C125.8198,116.7957 125.3828,117.2327 124.8438,117.2327" id="Fill-60" fill="#181818"></path>
                <path d="M124.8438,109.4251 C124.3048,109.4251 123.8678,108.9881 123.8678,108.4491 L123.8678,106.1081 C123.8678,105.5691 124.3048,105.1321 124.8438,105.1321 C125.3828,105.1321 125.8198,105.5691 125.8198,106.1081 L125.8198,108.4491 C125.8198,108.9881 125.3828,109.4251 124.8438,109.4251" id="Fill-62" fill="#181818"></path>
                <path d="M26.1538,81.7366 C25.4868,81.7366 24.9428,82.2796 24.9428,82.9476 C24.9428,83.6156 25.4868,84.1586 26.1538,84.1586 C26.8218,84.1586 27.3648,83.6156 27.3648,82.9476 C27.3648,82.2796 26.8218,81.7366 26.1538,81.7366 M26.1538,86.1106 C24.4098,86.1106 22.9908,84.6916 22.9908,82.9476 C22.9908,81.2036 24.4098,79.7846 26.1538,79.7846 C27.8978,79.7846 29.3168,81.2036 29.3168,82.9476 C29.3168,84.6916 27.8978,86.1106 26.1538,86.1106" id="Fill-64" fill="#181818"></path>
                <path d="M67.3057,18.4349 C66.6377,18.4349 66.0947,18.9789 66.0947,19.6459 C66.0947,20.3139 66.6377,20.8579 67.3057,20.8579 C67.9737,20.8579 68.5167,20.3139 68.5167,19.6459 C68.5167,18.9789 67.9737,18.4349 67.3057,18.4349 M67.3057,22.8089 C65.5617,22.8089 64.1427,21.3899 64.1427,19.6459 C64.1427,17.9019 65.5617,16.4839 67.3057,16.4839 C69.0497,16.4839 70.4687,17.9019 70.4687,19.6459 C70.4687,21.3899 69.0497,22.8089 67.3057,22.8089" id="Fill-66" fill="#181818"></path>
                <path d="M112.3252,100.4066 C111.6572,100.4066 111.1142,100.9496 111.1142,101.6176 C111.1142,102.2856 111.6572,102.8286 112.3252,102.8286 C112.9932,102.8286 113.5362,102.2856 113.5362,101.6176 C113.5362,100.9496 112.9932,100.4066 112.3252,100.4066 M112.3252,104.7806 C110.5812,104.7806 109.1622,103.3616 109.1622,101.6176 C109.1622,99.8736 110.5812,98.4546 112.3252,98.4546 C114.0692,98.4546 115.4882,99.8736 115.4882,101.6176 C115.4882,103.3616 114.0692,104.7806 112.3252,104.7806" id="Fill-68" fill="#181818"></path>
                <path d="M52.8345,43.0911 C52.7645,43.0911 52.6935,43.0841 52.6235,43.0691 C52.0975,42.9521 51.7645,42.4311 51.8805,41.9041 L55.2555,26.6261 L19.8145,18.7971 L16.2425,35.4651 C16.1295,35.9921 15.6105,36.3271 15.0845,36.2151 C14.5565,36.1021 14.2215,35.5831 14.3345,35.0571 L18.1125,17.4281 C18.1665,17.1741 18.3205,16.9521 18.5395,16.8121 C18.7575,16.6711 19.0225,16.6231 19.2765,16.6801 L56.6295,24.9311 C56.8825,24.9871 57.1025,25.1411 57.2415,25.3591 C57.3805,25.5771 57.4275,25.8421 57.3725,26.0941 L53.7865,42.3251 C53.6865,42.7811 53.2825,43.0911 52.8345,43.0911" id="Fill-70" fill="#181818"></path>
                <path d="M50.042,39.5501 C49.972,39.5501 49.901,39.5421 49.831,39.5271 C49.304,39.4101 48.972,38.8891 49.088,38.3631 L50.497,31.9871 C49.905,31.6811 49.399,31.2211 49.025,30.6391 C48.641,30.0421 48.432,29.3681 48.408,28.6781 L25.676,23.6561 C25.362,24.2781 24.885,24.8011 24.281,25.1781 C23.683,25.5511 23.006,25.7511 22.312,25.7701 L21.098,31.2651 C21.72,31.5721 22.249,32.0351 22.634,32.6191 C23.208,33.4901 23.398,34.5351 23.172,35.5621 C23.056,36.0881 22.535,36.4211 22.009,36.3041 C21.482,36.1881 21.15,35.6671 21.266,35.1411 C21.378,34.6341 21.285,34.1201 21.004,33.6941 C20.72,33.2631 20.274,32.9611 19.75,32.8451 C19.497,32.7891 19.277,32.6361 19.137,32.4171 C18.998,32.1991 18.951,31.9351 19.007,31.6821 L20.591,24.5121 C20.647,24.2591 20.801,24.0381 21.019,23.9001 C21.237,23.7601 21.502,23.7131 21.754,23.7701 C22.277,23.8841 22.807,23.7971 23.248,23.5221 C23.685,23.2491 23.988,22.8191 24.101,22.3091 C24.156,22.0561 24.311,21.8361 24.529,21.6961 C24.747,21.5581 25.011,21.5111 25.264,21.5671 L49.662,26.9561 C49.915,27.0121 50.135,27.1661 50.274,27.3841 C50.413,27.6021 50.46,27.8661 50.404,28.1191 C50.292,28.6261 50.386,29.1471 50.667,29.5841 C50.943,30.0141 51.361,30.3101 51.843,30.4161 C52.37,30.5321 52.702,31.0531 52.585,31.5791 L50.994,38.7841 C50.894,39.2391 50.49,39.5501 50.042,39.5501" id="Fill-72" fill="#181818"></path>
                <path d="M35.5591,30.4637 C35.0181,30.4637 34.5291,30.8397 34.4071,31.3897 C34.3391,31.6977 34.3951,32.0127 34.5641,32.2787 C34.7341,32.5447 34.9971,32.7277 35.3051,32.7957 C35.9391,32.9357 36.5711,32.5337 36.7111,31.8987 C36.8511,31.2627 36.4491,30.6317 35.8131,30.4927 C35.7281,30.4727 35.6431,30.4637 35.5591,30.4637 Z M35.5601,34.7757 C35.3361,34.7757 35.1101,34.7527 34.8841,34.7017 C34.0671,34.5217 33.3691,34.0337 32.9191,33.3287 C32.4691,32.6237 32.3211,31.7857 32.5011,30.9687 C32.8741,29.2827 34.5481,28.2137 36.2341,28.5867 C37.9201,28.9597 38.9891,30.6327 38.6171,32.3197 C38.2941,33.7787 36.9961,34.7757 35.5601,34.7757 Z" id="Fill-74" fill="#181818"></path>
                <path d="M20.9332,50.7431 C20.5612,50.7431 20.2112,50.8871 19.9472,51.1481 C19.6792,51.4111 19.5312,51.7641 19.5292,52.1391 C19.5272,52.5141 19.6702,52.8671 19.9342,53.1351 C20.1982,53.4021 20.5502,53.5501 20.9252,53.5521 L20.9342,53.5521 C21.3052,53.5521 21.6562,53.4081 21.9202,53.1471 C22.1872,52.8841 22.3362,52.5311 22.3382,52.1561 C22.3432,51.3821 21.7172,50.7481 20.9422,50.7431 L20.9332,50.7431 Z M20.9342,55.5041 L20.9122,55.5041 C19.0612,55.4921 17.5652,53.9771 17.5772,52.1261 C17.5832,51.2301 17.9372,50.3891 18.5752,49.7591 C19.2082,49.1351 20.0452,48.7911 20.9332,48.7911 L20.9552,48.7911 C22.8052,48.8031 24.3022,50.3191 24.2902,52.1691 C24.2842,53.0661 23.9292,53.9061 23.2922,54.5361 C22.6592,55.1601 21.8232,55.5041 20.9342,55.5041 Z" id="Fill-76" fill="#181818"></path>
                <path d="M1.952,63.431 L39.555,63.431 L39.555,39.49 L1.952,39.49 L1.952,63.431 Z M40.53,65.382 L0.976,65.382 C0.437,65.382 0,64.946 0,64.407 L0,38.514 C0,37.975 0.437,37.538 0.976,37.538 L40.53,37.538 C41.069,37.538 41.506,37.975 41.506,38.514 L41.506,64.407 C41.506,64.946 41.069,65.382 40.53,65.382 Z" id="Fill-78" fill="#181818"></path>
                <path d="M7.8369,59.7874 L33.4099,59.7874 C33.9019,58.7074 34.7389,57.8004 35.7779,57.2244 L35.7779,45.4374 C34.8189,44.9084 34.0369,44.1044 33.5339,43.1334 L7.7109,43.1334 C7.2549,44.0094 6.5659,44.7584 5.7289,45.2844 L5.7289,57.3754 C6.6529,57.9544 7.3879,58.7954 7.8369,59.7874 M34.0839,61.7384 L7.1619,61.7384 C6.7299,61.7384 6.3499,61.4554 6.2269,61.0414 C5.9379,60.0724 5.2479,59.2674 4.3329,58.8314 C3.9929,58.6704 3.7759,58.3274 3.7759,57.9504 L3.7759,44.7094 C3.7759,44.3334 3.9929,43.9894 4.3329,43.8284 C5.1749,43.4274 5.8409,42.6964 6.1599,41.8224 C6.2999,41.4364 6.6669,41.1814 7.0769,41.1814 L34.1699,41.1814 C34.5789,41.1814 34.9449,41.4374 35.0859,41.8224 C35.4339,42.7744 36.1739,43.5384 37.1169,43.9164 C37.4869,44.0644 37.7299,44.4244 37.7299,44.8224 L37.7299,57.8374 C37.7299,58.2354 37.4869,58.5954 37.1169,58.7434 C36.1119,59.1464 35.3279,60.0064 35.0199,61.0414 C34.8969,61.4554 34.5159,61.7384 34.0839,61.7384" id="Fill-80" fill="#181818"></path>
                <path d="M104.6484,141.2738 C103.3214,141.8348 101.8964,142.1158 100.4114,142.1088 C98.9274,142.1018 97.5144,141.8068 96.2114,141.2348 C94.8984,140.6588 93.7374,139.8668 92.7634,138.8818 C91.7894,137.8998 91.0084,136.7318 90.4434,135.4128 C89.8834,134.1048 89.6034,132.6898 89.6094,131.2058 C89.6174,129.7198 89.9114,128.2968 90.4844,126.9758 C91.0614,125.6478 91.8524,124.4808 92.8364,123.5058 C93.8214,122.5308 94.9884,121.7508 96.3064,121.1868 C97.6134,120.6268 99.0294,120.3458 100.5134,120.3528 C101.9984,120.3598 103.4214,120.6538 104.7424,121.2278 C105.2674,121.4558 105.7664,121.7158 106.2394,122.0108 C106.9614,122.4598 107.6224,122.9838 108.2114,123.5788 C108.5274,123.8978 108.8234,124.2368 109.0974,124.5948 C109.6694,125.3408 110.1494,126.1698 110.5304,127.0708 C111.0914,128.3968 111.3734,129.8228 111.3654,131.3068 C111.3584,132.7918 111.0654,134.2048 110.4924,135.5068 C110.0834,136.4388 109.5654,137.2948 108.9454,138.0618 C108.6934,138.3748 108.4254,138.6728 108.1404,138.9558 C107.4934,139.5948 106.7634,140.1518 105.9604,140.6188 C105.5424,140.8618 105.1054,141.0808 104.6484,141.2738 M112.4354,126.2598 C112.3314,126.0168 112.2214,125.7768 112.1054,125.5418 C111.7154,124.7528 111.2534,124.0128 110.7264,123.3288 C110.4014,122.9068 110.0514,122.5068 109.6764,122.1278 C108.5104,120.9518 107.1284,120.0098 105.5694,119.3308 C104.0044,118.6488 102.3074,118.2988 100.5264,118.2918 C98.7444,118.2828 97.0514,118.6168 95.4934,119.2848 C93.9444,119.9498 92.5624,120.8778 91.3864,122.0428 C90.2074,123.2098 89.2664,124.5908 88.5884,126.1488 C87.9074,127.7128 87.5564,129.4098 87.5484,131.1918 C87.5404,132.9758 87.8744,134.6698 88.5414,136.2248 C89.2054,137.7728 90.1334,139.1558 91.2994,140.3328 C92.4664,141.5108 93.8394,142.4518 95.3814,143.1288 C96.9314,143.8118 98.6214,144.1618 100.4054,144.1698 C102.1874,144.1778 103.8964,143.8638 105.4574,143.1768 C105.8974,142.9848 106.2934,142.8278 106.6504,142.6998 C107.9334,142.2408 109.3344,142.6438 110.2544,143.6468 C110.5904,144.0138 111.0794,144.2388 111.6194,144.2208 C112.5784,144.1898 113.3264,143.3758 113.3314,142.4168 C113.3314,142.4168 113.4254,131.6838 113.4274,131.3128 C113.4364,129.5328 113.1024,127.8328 112.4354,126.2598" id="Fill-82" fill="#181818"></path>
                <path d="M103.8252,131.2005 C103.8172,133.0435 102.3152,134.5305 100.4722,134.5215 C98.6292,134.5135 97.1422,133.0125 97.1512,131.1695 C97.1602,129.3265 98.6612,127.8395 100.5042,127.8475 C102.3472,127.8565 103.8342,129.3575 103.8252,131.2005" id="Fill-84" fill="#181818"></path>
            </g>
        </g>
    </g>
</svg>