<?xml version="1.0" encoding="UTF-8"?>
<svg width="49px" height="63px" viewBox="0 0 49 63" version="1.1" xmlns="http://www.w3.org/2000/svg" xmlns:xlink="http://www.w3.org/1999/xlink">
    <!-- Generator: Sketch 52.5 (67469) - http://www.bohemiancoding.com/sketch -->
    <title>motivation</title>
    <desc>Created with Sketch.</desc>
    <defs>
        <polygon id="path-1" points="0 0 49 0 49 63 0 63"></polygon>
    </defs>
    <g id="Page-1" stroke="none" stroke-width="1" fill="none" fill-rule="evenodd">
        <g id="Desktop-HD" transform="translate(-732.000000, -2645.000000)">
            <g id="motivation" transform="translate(732.000000, 2645.000000)">
                <mask id="mask-2" fill="white">
                    <use xlink:href="#path-1"></use>
                </mask>
                <g id="Clip-2"></g>
                <path d="M31.7611485,7.05772554 C31.6878786,7.84563185 31.8900666,9.51495629 32.1766543,10.0297341 C32.4048115,10.4417415 33.0271426,10.9481866 33.7728271,11.1194706 C34.0195336,11.1528015 34.1929702,11.1518756 34.4943973,11.1092861 C35.1862886,10.9481866 35.8086198,10.4417415 36.0377044,10.0297341 C36.3242921,9.51403043 36.5264802,7.84563185 36.4522827,7.0586514 C36.3372767,5.83096188 35.1649568,5.39395626 34.1067156,5.39395626 C33.0494019,5.39395626 31.8780095,5.83096188 31.7611485,7.05772554 Z M34.0928036,12.452708 C33.9119473,12.452708 33.7357283,12.4378943 33.5316853,12.4073409 C32.4409827,12.1601365 31.4791982,11.4805557 31.0265937,10.6657995 C30.5368905,9.78530722 30.3764385,7.75026834 30.4524909,6.93643796 L30.4524909,6.9355121 C30.6138704,5.22822743 32.08298,4.08108768 34.1067156,4.08108768 C36.1313787,4.08108768 37.6004883,5.22822743 37.7609403,6.9355121 C37.8379202,7.74934248 37.6783957,9.7834555 37.1868375,10.6667253 C36.734233,11.4805557 35.771521,12.1610623 34.7355391,12.3980823 C34.4869776,12.4351167 34.2875719,12.452708 34.0928036,12.452708 Z M14.4889082,18.9031702 C14.2533313,18.9031702 14.0168269,18.924465 13.7895972,18.9716838 C13.1904528,19.095749 12.4586803,19.4244291 12.3770631,20.2919593 C12.3130678,20.9576522 12.483722,22.5630923 12.7777294,23.0991649 C13.0893587,23.6657908 13.868432,24.1759393 14.5510486,24.2601925 C15.2651991,24.3472233 16.1871025,24.2287133 16.5302657,23.1528647 C16.8131435,22.2732983 16.974523,20.4197279 16.610028,19.7568126 C16.3271502,19.2448123 15.415449,18.9031702 14.4889082,18.9031702 Z M14.9173985,25.5952817 C14.7467444,25.5952817 14.5705254,25.5850973 14.3896691,25.5619508 C13.2980391,25.428627 12.1340665,24.658312 11.6248864,23.7296751 C11.1509502,22.8649224 10.9951355,20.9317281 11.067478,20.1669683 C11.1880489,18.9077995 12.105315,17.9800884 13.5224864,17.686591 C15.0416793,17.3736506 17.0450106,17.8254699 17.7619435,19.1244506 L17.7619435,19.1253765 C18.3972592,20.280849 18.0828475,22.6167921 17.7823478,23.552836 C17.3659146,24.8573718 16.3132382,25.5952817 14.9173985,25.5952817 Z M33.3582488,26.1572783 L34.6724712,26.1572783 L34.6724712,16.2737296 L33.3582488,16.2737296 L33.3582488,26.1572783 Z M13.6384199,39.3442933 L14.9526423,39.3442933 L14.9526423,29.4607446 L13.6384199,29.4607446 L13.6384199,39.3442933 Z M35.2428642,37.786072 L44.7837296,37.786072 L44.7837296,31.8040946 L35.2428642,31.8040946 L35.2428642,37.786072 Z M37.0588469,45.8678983 L35.4682389,39.0989405 L33.9286417,39.0989405 L33.9286417,32.545708 L33.5678566,31.0124848 L30.1770329,45.863269 L28.8952718,45.5725492 L32.6301863,29.214466 L34.4953248,29.214466 L34.7958245,30.4921519 L38.0994662,30.4921519 L37.7275515,26.7831593 L37.7961841,18.4282044 L39.1104066,18.4393147 L39.0389915,26.7229784 L39.420181,30.4921519 L40.2855088,30.4921519 L40.6073402,24.3175958 L40.2372804,18.042121 C40.1222744,16.067263 38.9128558,14.7451358 37.0811061,14.5914432 L34.6724712,14.3877541 L34.6724712,15.4950819 L33.3582488,15.4950819 L33.3582488,14.276651 L30.5276158,14.0377793 L26.9883972,8.8881495 L28.1208359,1.57941568 C28.0651878,1.52849342 27.9093731,1.42850061 27.6005262,1.36276459 C27.2202642,1.28221483 26.8845207,1.31276818 26.732416,1.36091287 L25.3078248,8.13820341 C25.1622123,8.74649301 25.2521767,9.2094227 25.4348879,9.71216433 L29.2616217,16.1913282 L29.4044518,26.7090905 L27.6033086,45.7790158 L26.294651,45.6558765 L28.0930118,26.6563165 L27.9520366,16.5588943 L24.2236145,10.2241646 C23.9926749,9.60846808 23.7877044,8.84463411 24.0251363,7.85118701 L25.4719867,0.97020022 C25.5907026,0.296174604 26.3753407,-0.0862053135 27.459551,0.0165650759 C28.6578399,0.128594059 29.4563901,0.75262327 29.4452604,1.57015709 L28.3666149,8.57428317 L31.2593882,12.7832398 L37.1914749,13.2841298 C39.6464832,13.4896705 41.3984706,15.3719426 41.5496479,17.9662006 L41.9197078,24.3138924 L41.6006587,30.4921519 L46.097952,30.4921519 L46.097952,39.0989405 L40.2855088,39.0989405 L40.9440112,45.653099 L39.636281,45.7827193 L38.9647941,39.0989405 L36.8186326,39.0989405 L38.338753,45.5679199 L37.0588469,45.8678983 Z M17.9632041,57.740193 L16.6499091,57.6864931 L17.325106,41.6330176 L17.5875795,30.8911973 L18.9018019,30.9236023 L18.5595662,43.5439913 L19.088223,43.1801286 L19.3117429,36.2547006 L19.1253218,30.4199349 C18.7432049,28.2163896 18.1282935,27.798827 16.8075787,27.686798 C16.1935948,27.6349499 15.5861031,27.5905086 14.9526423,27.5534743 L14.9526423,28.6820968 L13.6384199,28.6820968 L13.6384199,27.4877383 C13.038348,27.46274 12.4011773,27.4423711 11.7074311,27.423854 C9.5928036,27.3821903 8.6013401,28.2052793 8.00126817,30.497707 L7.72488265,36.3065487 C7.82412174,38.0703108 7.8983192,39.6609372 7.97437159,41.3200771 L8.07453816,43.4597381 C8.24704724,43.6874995 8.69686932,44.2069066 9.00942611,44.5670659 C9.00942611,44.5670659 9.00942611,44.5670659 9.01035357,44.5679918 L9.10959267,40.8478889 L9.64474182,30.3384592 L10.9571093,30.4051211 L10.4228876,40.8988111 L9.97121063,57.7300085 L8.65698819,57.6957517 L8.95748789,46.5400722 C8.77384918,46.3002747 8.32680951,45.784571 8.01518019,45.4253376 C6.87624924,44.1115431 6.78257495,43.9819228 6.76866293,43.6837961 L6.66107662,41.380258 C6.58502423,39.7248215 6.51175424,38.1378985 6.41158767,36.311178 L6.7111599,30.2375406 C7.45684434,27.3173801 8.99273168,26.0322873 11.7398925,26.1128371 C13.7766127,26.1637594 15.326412,26.2433833 16.9198024,26.3794846 C19.0233003,26.5581755 19.9748826,27.6182844 20.4302695,30.2893887 L20.6259653,36.2547006 L20.3801863,43.8828559 L18.4909335,45.1873917 L17.9632041,57.740193 Z M12.4809396,57.8040773 L11.1797017,57.6226088 L13.2331163,42.9644034 L14.6716195,42.9644034 L15.3792777,57.6818638 L14.0659827,57.7448223 L13.6634615,49.365795 L12.4809396,57.8040773 Z M2.51436629,59.2928591 C1.85308147,59.2928591 1.31422244,59.8298575 1.31422244,60.4899953 C1.31422244,61.150133 1.85308147,61.6871314 2.51436629,61.6871314 C3.17657859,61.6871314 3.71451015,61.150133 3.71451015,60.4899953 C3.71451015,59.8298575 3.17657859,59.2928591 2.51436629,59.2928591 Z M2.51436629,63 C1.12780133,63 0,61.874155 0,60.4899953 C0,59.1058355 1.12780133,57.9799905 2.51436629,57.9799905 C3.67370154,57.9799905 4.6521805,58.7678968 4.94155058,59.833561 L23.3953854,59.8298575 C23.3202604,54.7691103 23.3202604,53.6127119 23.3202604,48.2010639 L23.3202604,47.5446296 L45.9458472,47.5446296 L43.9647751,46.0521444 L44.7559055,45.0049974 L49,48.2010639 L44.7559055,51.3952787 L43.9647751,50.3481318 L45.9449197,48.8565724 L24.6344829,48.8565724 C24.6344829,53.9228748 24.6381928,55.0746438 24.71981,60.4761074 L24.7290846,61.1427261 L4.94155058,61.1464296 C4.6521805,62.2120937 3.67370154,63 2.51436629,63 Z" id="Fill-1" fill="#181818" mask="url(#mask-2)"></path>
            </g>
        </g>
    </g>
</svg>