<?xml version="1.0" encoding="UTF-8"?>
<svg width="87px" height="87px" viewBox="0 0 87 87" version="1.1" xmlns="http://www.w3.org/2000/svg" xmlns:xlink="http://www.w3.org/1999/xlink">
    <!-- Generator: Sketch 52.5 (67469) - http://www.bohemiancoding.com/sketch -->
    <title>Group 17</title>
    <desc>Created with Sketch.</desc>
    <g id="Page-1" stroke="none" stroke-width="1" fill="none" fill-rule="evenodd">
        <g id="Desktop-HD" transform="translate(-249.000000, -1257.000000)">
            <g id="Group-17" transform="translate(250.000000, 1258.000000)">
                <g id="energy-saving" transform="translate(10.000000, 14.000000)" fill="#000000" stroke="#000000">
                    <path d="M59.0437578,34.110063 C59.0416175,34.1095511 59.041432,34.1095071 59.0369983,34.108455 C58.7730478,34.0458545 58.5082373,34.2087091 58.4451332,34.4723024 C55.01281,48.8238758 40.5962784,57.6755713 26.2446989,54.2432467 C18.4925896,52.3892005 11.9800422,47.1732031 8.47430532,40.0302206 L7.49052694,40.2358692 C13.9739339,53.7751824 30.1232435,59.7155124 43.8720727,53.5020731 C51.6734208,49.9764335 57.4057855,43.0412913 59.4018929,34.7089229 C59.4689478,34.4455675 59.3099473,34.1778529 59.0467695,34.1108256 L59.0434927,34.1099792 C59.0443223,34.1101915 59.0447371,34.1102976 59.0448068,34.1103168 Z" id="Path"></path>
                    <path d="M12.8089932,35.5652228 C12.7925822,35.4781857 12.7530423,35.3972371 12.6974461,35.3341515 L8.8364699,31.0304798 L4.99833278,26.7453016 C4.8314748,26.5309287 4.52252774,26.4924392 4.30819267,26.6592677 C4.23062912,26.7196644 4.17288746,26.8019575 4.14181206,26.8975824 L2.32653527,32.3938353 L0.523532353,37.8811778 C0.440966365,38.1398475 0.583824512,38.4165412 0.842494691,38.4991073 C0.91917059,38.5235517 1.000339,38.5288731 1.06518649,38.5173876 L6.72505743,37.3293753 L12.4168327,36.1394825 C12.6836959,36.0892764 12.8592762,35.8321987 12.8089932,35.5652228 Z M12.8089932,35.5652228 C12.8089916,35.5652146 12.8089901,35.5652063 12.8089885,35.5651981 L12.8089978,35.5652474 C12.8089963,35.5652392 12.8089947,35.565231 12.8089932,35.5652228 Z M6.55490341,36.3638226 L1.72290978,37.3832305 L1.99273717,36.5594213 L3.25938786,32.6922158 L4.80179312,28.0106421 L11.3809566,35.3510312 L6.55490341,36.3638226 Z" id="Shape" fill-rule="nonzero"></path>
                    <path d="M64.4091144,18.3575356 C64.3475807,18.1001564 64.0923482,17.9367072 63.8331109,17.9901662 L58.1714,19.1785597 L52.5096055,20.3400309 C52.2426492,20.3903239 52.067035,20.6474619 52.1173168,20.9142892 C52.1337249,21.0013356 52.1732671,21.0822935 52.2288685,21.1453851 L56.0898448,25.4490568 L59.9279819,29.7342351 C60.0948399,29.948608 60.4037869,29.9870975 60.618122,29.820269 C60.6957656,29.7598099 60.753427,29.6776492 60.7840716,29.5832651 L62.5827785,24.0862824 L64.3851009,18.5786568 C64.410099,18.5076987 64.4182892,18.4319695 64.4091144,18.3575356 Z M63.1978901,19.1309906 L60.125394,28.4980252 L53.545358,21.1566628 L63.1978901,19.1309906 Z" id="Shape" fill-rule="nonzero"></path>
                    <path d="M56.452107,16.4774529 L57.4357902,16.2718242 C50.9523852,2.73237386 34.8030755,-3.20795615 21.0542449,3.00561948 C13.2529528,6.53129606 7.52050823,13.4664899 5.52050811,21.813232 C5.44563937,22.0743003 5.59661902,22.3465964 5.85783334,22.421507 C6.11890159,22.4963757 6.39119765,22.3453961 6.46623918,22.0837261 C6.4700777,22.0703888 6.47347623,22.0560702 6.48123256,22.0183679 C9.91985152,7.66830446 24.3402828,-1.17717502 38.6903719,2.26141589 C46.4398955,4.11839733 52.9489101,9.33520841 56.452107,16.4774529 Z" id="Path"></path>
                    <path d="M42.3631734,10.786298 L42.3631573,10.7822953 C42.3631573,10.5107006 42.1429417,10.2904849 41.871347,10.2904849 L29.0457077,10.2904845 C28.8332207,10.2907623 28.6449885,10.4274552 28.5789413,10.6294168 L22.598798,28.9250052 C22.4959923,29.1763931 22.6164518,29.4635668 22.8679349,29.5664116 C22.9279425,29.5909696 22.9923424,29.6034125 23.0605711,29.6029849 L28.1878859,29.6029849 L28.0276288,30.2273008 L24.0917464,45.55187 C24.0003078,45.8077035 24.1334904,46.0891485 24.3892366,46.1805559 C24.5796033,46.2486184 24.7922897,46.1932071 24.9227968,46.0438466 L41.5232301,26.735039 C41.7121388,26.5398079 41.7070478,26.2284824 41.5118082,26.0395655 C41.4161069,25.94692 41.2868291,25.8970475 41.1372953,25.9016918 L34.4939313,25.9016918 L34.878159,25.1693854 L42.2852704,11.056076 C42.3368866,10.9755213 42.3639379,10.8818007 42.3631734,10.786298 Z M33.2488991,26.1921 C33.1255939,26.4334774 33.220672,26.7291489 33.4615144,26.8530681 C33.5310204,26.8887962 33.6079378,26.9075192 33.6847091,26.9077263 L40.0582495,26.9077263 L25.5211205,43.8109073 L26.056123,41.7342776 L29.2716733,29.2530582 C29.3376606,28.989595 29.1775437,28.7224899 28.9136413,28.6563924 C28.8756402,28.6468406 28.8362769,28.6419136 28.7985022,28.641778 L23.7388963,28.641778 L29.3994064,11.2797091 L41.0556625,11.2797091 L33.2488991,26.1921 Z" id="Shape" fill-rule="nonzero"></path>
                </g>
                <circle id="Oval" stroke="#9F9F9F" stroke-width="2" fill-rule="nonzero" cx="42.5" cy="42.5" r="42.5"></circle>
            </g>
        </g>
    </g>
</svg>