<?xml version="1.0" encoding="UTF-8"?>
<svg width="47px" height="44px" viewBox="0 0 47 44" version="1.1" xmlns="http://www.w3.org/2000/svg" xmlns:xlink="http://www.w3.org/1999/xlink">
    <!-- Generator: Sketch 52.5 (67469) - http://www.bohemiancoding.com/sketch -->
    <title>new </title>
    <desc>Created with Sketch.</desc>
    <defs>
        <polygon id="path-1" points="0 0 47 0 47 44 0 44"></polygon>
    </defs>
    <g id="Page-1" stroke="none" stroke-width="1" fill="none" fill-rule="evenodd">
        <g id="Desktop-HD" transform="translate(-732.000000, -2572.000000)">
            <g id="new-" transform="translate(732.000000, 2572.000000)">
                <mask id="mask-2" fill="white">
                    <use xlink:href="#path-1"></use>
                </mask>
                <g id="Clip-2"></g>
                <path d="M23.5579394,1.43077946 C22.3940698,1.43077946 21.1051732,1.9171234 20.9770968,3.28433508 C20.9039102,4.0804458 21.0990744,5.97637994 21.4365457,6.58582338 C21.6896492,7.04391497 22.3737402,7.60694384 23.1909901,7.79462013 C23.5365933,7.84406173 23.5823349,7.84406173 23.980795,7.78352099 C24.7441715,7.60694384 25.4282625,7.04391497 25.6803495,6.58582338 C26.0178208,5.97537093 26.212985,4.0804458 26.138782,3.28433508 C26.011722,1.9171234 24.7218089,1.43077946 23.5579394,1.43077946 Z M23.5477746,9.25768799 C23.3648082,9.25768799 23.1848912,9.23649873 22.9226394,9.19815626 C21.7292919,8.92673195 20.6711363,8.17602678 20.1730611,7.27396978 C19.6363597,6.30229092 19.4594922,4.05421148 19.5428435,3.15316348 C19.7197111,1.26731947 21.3328647,0 23.5579394,0 C25.7840305,0 27.3971841,1.26731947 27.5730352,3.15215447 C27.6563865,4.05320247 27.481552,6.30027289 26.9448506,7.27396978 C26.4549072,8.1608916 25.3713396,8.930768 24.2491457,9.18705712 C23.9421688,9.2344807 23.7429387,9.25768799 23.5477746,9.25768799 Z M16.7465072,17.9947256 L30.3663221,17.9947256 L30.063411,13.3391428 C29.9861586,12.1485083 27.0647952,11.1818745 23.5498075,11.1818745 L23.5437086,11.1818745 C19.977897,11.1828835 17.1236213,12.130346 17.0453523,13.3381338 L16.7465072,17.9947256 Z M31.9022233,19.4255051 L15.210606,19.4255051 L15.6080497,13.2473227 C15.7737359,10.6682872 19.9860288,9.75210402 23.5437086,9.75109501 L23.5498075,9.75109501 C27.1146027,9.75109501 31.3329945,10.6662692 31.5007137,13.2463137 L31.9022233,19.4255051 Z M38.6557161,25.725778 C37.4918465,25.725778 36.2019335,26.2131309 36.073857,27.5783246 C36.0006704,28.3744353 36.1958346,30.2703694 36.5333059,30.8808219 C36.7864094,31.3389135 37.4715169,31.9009333 38.2887668,32.0896186 C38.632337,32.1410783 38.6790951,32.1400693 39.0775553,32.0785195 C39.8409317,31.9009333 40.5250227,31.3389135 40.7771097,30.8808219 C41.1145811,30.2693604 41.3097452,28.3744353 41.2365587,27.5783246 C41.1084822,26.2131309 39.8195856,25.725778 38.6557161,25.725778 Z M38.6445348,33.5526865 C38.4615684,33.5526865 38.2816515,33.5314972 38.0193996,33.4931548 C36.8250357,33.2207214 35.7678965,32.4690073 35.2698214,31.5679593 C34.7331199,30.5962804 34.5562524,28.348201 34.6396038,27.447153 C34.8164713,25.561309 36.429625,24.2949985 38.6557161,24.2949985 C40.8807907,24.2949985 42.4939444,25.561309 42.6708119,27.446144 C42.7541632,28.346183 42.5783122,30.5942624 42.0416108,31.5679593 C41.5526839,32.4538721 40.4701328,33.2247575 39.3469224,33.4830646 C39.038929,33.5294792 38.8396989,33.5526865 38.6445348,33.5526865 Z M8.34834984,26.0052744 C7.1844803,26.0052744 5.89456724,26.4926273 5.76750725,27.857821 C5.69330421,28.6539317 5.88846836,30.5498658 6.2259397,31.1603183 C6.47904321,31.6184099 7.1641507,32.1814388 7.98140058,32.3691151 C8.3249708,32.4195657 8.37274536,32.4195657 8.77018902,32.3580159 C9.53356547,32.1814388 10.2176565,31.6184099 10.47076,31.1613273 C10.8082313,30.5488568 11.002379,28.6539317 10.9291924,27.857821 C10.801116,26.4926273 9.51221939,26.0052744 8.34834984,26.0052744 Z M8.33716856,33.8321829 C8.15420217,33.8321829 7.97428522,33.8120027 7.71203339,33.7736602 C6.51766945,33.5002179 5.4605303,32.7485037 4.96245512,31.8484647 C4.42575371,30.8767858 4.2488862,28.6276974 4.33223755,27.7276584 C4.50910507,25.8408054 6.12225875,24.5744949 8.34834984,24.5744949 C10.5734245,24.5744949 12.1865781,25.8408054 12.3634457,27.7266494 C12.446797,28.6266884 12.270946,30.8757768 11.7332281,31.8484647 C11.2453177,32.7333685 10.1627666,33.5032449 9.03955621,33.7625611 C8.73257926,33.8089756 8.53233271,33.8321829 8.33716856,33.8321829 Z M30.5177776,34.3437521 L23.5569229,30.3551265 L16.5950517,34.3437521 L15.8743674,33.1067031 L22.8362386,29.1160593 L22.8362386,21.13679 L24.2765907,21.13679 L24.2765907,29.1160593 L31.2384619,33.1067031 L30.5177776,34.3437521 Z M31.8432674,42.2897241 L45.4630823,42.2897241 L45.1601713,37.6341413 C45.0829188,36.4435068 42.1615554,35.475864 38.6465678,35.475864 L38.6394524,35.475864 C35.0746572,35.476873 32.2203815,36.4253446 32.143129,37.6331323 L31.8432674,42.2897241 Z M47,43.7205036 L30.3073662,43.7205036 L30.7058264,37.5423212 C30.8704961,34.9632857 35.082789,34.0471025 38.6384359,34.0460935 L38.6465678,34.0460935 C42.2123794,34.0460935 46.4297547,34.9602587 46.5984904,37.5413122 L47,43.7205036 Z M1.53590121,42.5692205 L15.1557161,42.5692205 L14.8538215,37.9136377 C14.7755526,36.7240122 11.8541892,35.7563694 8.33920152,35.7563694 L8.33208616,35.7563694 C4.76729097,35.7573784 1.91403175,36.704841 1.83576279,37.9126287 L1.53590121,42.5692205 Z M16.6926338,44 L0,44 L0.398460141,37.8218176 C0.563129893,35.2437911 4.77542281,34.327608 8.33208616,34.3265989 L8.33920152,34.3265989 C11.9050132,34.3265989 16.123405,35.2407641 16.2911242,37.8208086 L16.6926338,44 Z" id="Fill-1" fill="#181818" mask="url(#mask-2)"></path>
            </g>
        </g>
    </g>
</svg>