<?xml version="1.0" encoding="UTF-8"?>
<svg width="49px" height="29px" viewBox="0 0 49 29" version="1.1" xmlns="http://www.w3.org/2000/svg" xmlns:xlink="http://www.w3.org/1999/xlink">
    <!-- Generator: Sketch 52.5 (67469) - http://www.bohemiancoding.com/sketch -->
    <title>Group 15</title>
    <desc>Created with Sketch.</desc>
    <defs>
        <polygon id="path-1" points="0.9344 0.1182 7.7984 0.1182 7.7984 10 0.9344 10"></polygon>
    </defs>
    <g id="Page-1" stroke="none" stroke-width="1" fill="none" fill-rule="evenodd">
        <g id="Desktop-HD" transform="translate(-312.000000, -2665.000000)">
            <g id="Group-15" transform="translate(312.000000, 2664.000000)">
                <polygon id="Fill-1" fill="#181818" points="12.429 20.1713 10.096 27.5193 7.763 20.1713 6.248 20.1713 3.915 27.5193 1.582 20.1713 0 20.1713 3.157 29.7843 4.672 29.7843 7.006 22.5103 9.338 29.7843 10.847 29.7843 14.005 20.1713"></polygon>
                <path d="M17.8461,20.1713 L13.8641,29.7843 L15.4381,29.7843 L16.4721,27.2433 L20.7291,27.2433 L21.7611,29.7843 L23.3361,29.7843 L19.3541,20.1713 L17.8461,20.1713 Z M18.6031,21.8863 L20.1791,25.8693 L17.0221,25.8693 L18.6031,21.8863 Z" id="Fill-2" fill="#181818"></path>
                <polygon id="Fill-3" fill="#181818" points="30.4092 20.1713 27.4532 27.8613 24.5032 20.1713 22.9212 20.1713 26.7022 29.7843 28.2102 29.7843 31.9852 20.1713"></polygon>
                <polygon id="Fill-4" fill="#181818" points="33.768 20.1713 33.768 29.7843 40.7 29.7843 40.7 28.4103 35.276 28.4103 35.276 25.4603 39.467 25.4603 39.467 24.0863 35.276 24.0863 35.276 21.5453 40.567 21.5453 40.567 20.1713"></polygon>
                <g id="nxt" transform="translate(6.000000, 0.918300)">
                    <g id="Group-7" transform="translate(35.000000, 19.000000)">
                        <mask id="mask-2" fill="white">
                            <use xlink:href="#path-1"></use>
                        </mask>
                        <g id="Clip-6"></g>
                        <path d="M6.2904,7.1172 C6.2904,6.8222 6.1964,6.5752 6.0084,6.3772 C5.8214,6.1782 5.5784,6.0212 5.2814,5.9072 C4.9844,5.7942 4.6544,5.6902 4.2924,5.5982 C3.9304,5.5082 3.5684,5.3942 3.2064,5.2612 C2.8444,5.1262 2.5154,4.9662 2.2174,4.7772 C1.9204,4.5902 1.6784,4.3232 1.4904,3.9762 C1.3024,3.6302 1.2084,3.2142 1.2084,2.7262 C1.2084,1.9842 1.4924,1.3642 2.0604,0.8662 C2.6274,0.3672 3.3964,0.1182 4.3664,0.1182 C4.7244,0.1182 5.0664,0.1622 5.3954,0.2492 C5.7244,0.3362 5.9964,0.4392 6.2134,0.5572 C6.4304,0.6762 6.6204,0.7952 6.7834,0.9132 C6.9464,1.0312 7.0654,1.1332 7.1424,1.2182 L7.2494,1.3512 L6.2904,2.3172 C6.2724,2.3002 6.2474,2.2692 6.2134,2.2262 C6.1804,2.1842 6.1034,2.1172 5.9854,2.0252 C5.8674,1.9342 5.7394,1.8512 5.6034,1.7772 C5.4664,1.7042 5.2884,1.6382 5.0664,1.5802 C4.8454,1.5212 4.6124,1.4932 4.3664,1.4932 C3.8704,1.4932 3.4714,1.6162 3.1694,1.8612 C2.8684,2.1072 2.7174,2.3952 2.7174,2.7262 C2.7174,3.0212 2.8114,3.2692 2.9984,3.4712 C3.1864,3.6722 3.4294,3.8292 3.7264,3.9432 C4.0234,4.0562 4.3534,4.1602 4.7154,4.2522 C5.0774,4.3432 5.4384,4.4552 5.8014,4.5872 C6.1634,4.7192 6.4924,4.8782 6.7904,5.0662 C7.0874,5.2542 7.3294,5.5212 7.5174,5.8702 C7.7054,6.2192 7.7984,6.6352 7.7984,7.1172 C7.7984,7.9672 7.4954,8.6592 6.8874,9.1952 C6.2794,9.7322 5.4384,10.0002 4.3664,10.0002 C3.9284,10.0002 3.5114,9.9472 3.1164,9.8432 C2.7204,9.7372 2.3954,9.6122 2.1404,9.4682 C1.8864,9.3222 1.6644,9.1762 1.4774,9.0282 C1.2894,8.8812 1.1524,8.7582 1.0674,8.6592 L0.9344,8.4922 L1.8924,7.5332 C1.9104,7.5592 1.9404,7.5992 1.9834,7.6502 C2.0254,7.7022 2.1214,7.7912 2.2714,7.9192 C2.4214,8.0462 2.5824,8.1582 2.7574,8.2542 C2.9314,8.3492 3.1634,8.4372 3.4514,8.5152 C3.7394,8.5942 4.0444,8.6332 4.3664,8.6332 C4.9604,8.6332 5.4304,8.4872 5.7744,8.1972 C6.1184,7.9062 6.2904,7.5472 6.2904,7.1172" id="Fill-5" fill="#181818" mask="url(#mask-2)"></path>
                    </g>
                    <polygon id="Fill-8" fill="#181818" points="9.8768 0.082 11.3418 0.082 11.3418 13.806 10.0688 13.806 1.6468 2.732 1.6468 13.806 0.1728 13.806 0.1728 0.082 1.4458 0.082 9.8768 11.164"></polygon>
                    <polygon id="Fill-10" fill="#181818" points="19.7723 5.4795 23.5913 0.0825 25.3523 0.0825 20.6533 6.6475 25.7443 13.8055 23.9833 13.8055 19.7723 7.8245 15.5523 13.8055 13.7913 13.8055 18.8823 6.6475 14.1833 0.0825 15.9443 0.0825"></polygon>
                    <polygon id="Fill-12" fill="#181818" points="26.5297 0.082 36.6267 0.082 36.6267 1.46 32.3097 1.46 32.3097 13.806 30.8457 13.806 30.8457 1.46 26.5297 1.46"></polygon>
                </g>
            </g>
        </g>
    </g>
</svg>