<?xml version="1.0" encoding="UTF-8"?>
<svg width="131px" height="127px" viewBox="0 0 131 127" version="1.1" xmlns="http://www.w3.org/2000/svg" xmlns:xlink="http://www.w3.org/1999/xlink">
    <!-- Generator: Sketch 52.5 (67469) - http://www.bohemiancoding.com/sketch -->
    <title>sale</title>
    <desc>Created with Sketch.</desc>
    <defs>
        <polygon id="path-1" points="0.014907746 0.5984 116.754 0.5984 116.754 84.6194 0.014907746 84.6194"></polygon>
    </defs>
    <g id="Page-1" stroke="none" stroke-width="1" fill="none" fill-rule="evenodd">
        <g id="Desktop-HD" transform="translate(-1007.000000, -2198.000000)">
            <g id="sale" transform="translate(1007.000000, 2197.000000)">
                <g id="Group-9" transform="translate(18.000000, 49.472000)" fill="#181818">
                    <path d="M3.2373,7.3337 L1.2053,7.3337 C0.6793,7.3337 0.2533,6.9077 0.2533,6.3817 C0.2533,5.8547 0.6793,5.4297 1.2053,5.4297 L3.2373,5.4297 C3.7633,5.4297 4.1893,5.8547 4.1893,6.3817 C4.1893,6.9077 3.7633,7.3337 3.2373,7.3337" id="Fill-1"></path>
                    <path d="M11.1099,7.3337 L8.8239,7.3337 C8.2979,7.3337 7.8719,6.9077 7.8719,6.3817 C7.8719,5.8547 8.2979,5.4297 8.8239,5.4297 L11.1099,5.4297 C11.6359,5.4297 12.0619,5.8547 12.0619,6.3817 C12.0619,6.9077 11.6359,7.3337 11.1099,7.3337" id="Fill-3"></path>
                    <path d="M6.0943,12.3493 C5.5683,12.3493 5.1423,11.9223 5.1423,11.3973 L5.1423,9.3663 C5.1423,8.8393 5.5683,8.4123 6.0943,8.4123 C6.6203,8.4123 7.0463,8.8393 7.0463,9.3663 L7.0463,11.3973 C7.0463,11.9223 6.6203,12.3493 6.0943,12.3493" id="Fill-5"></path>
                    <path d="M6.0943,4.7311 C5.5683,4.7311 5.1423,4.3041 5.1423,3.7781 L5.1423,1.4931 C5.1423,0.9671 5.5683,0.5411 6.0943,0.5411 C6.6203,0.5411 7.0463,0.9671 7.0463,1.4931 L7.0463,3.7781 C7.0463,4.3041 6.6203,4.7311 6.0943,4.7311" id="Fill-7"></path>
                </g>
                <g id="Group-18" transform="translate(81.000000, 107.472000)" fill="#181818">
                    <path d="M3.5986,7.1081 L1.5666,7.1081 C1.0406,7.1081 0.6146,6.6811 0.6146,6.1561 C0.6146,5.6291 1.0406,5.2041 1.5666,5.2041 L3.5986,5.2041 C4.1246,5.2041 4.5506,5.6291 4.5506,6.1561 C4.5506,6.6811 4.1246,7.1081 3.5986,7.1081" id="Fill-10"></path>
                    <path d="M11.4712,7.1081 L9.1852,7.1081 C8.6592,7.1081 8.2332,6.6811 8.2332,6.1561 C8.2332,5.6291 8.6592,5.2041 9.1852,5.2041 L11.4712,5.2041 C11.9972,5.2041 12.4232,5.6291 12.4232,6.1561 C12.4232,6.6811 11.9972,7.1081 11.4712,7.1081" id="Fill-12"></path>
                    <path d="M6.4556,12.1237 C5.9296,12.1237 5.5026,11.6967 5.5026,11.1717 L5.5026,9.1397 C5.5026,8.6137 5.9296,8.1867 6.4556,8.1867 C6.9816,8.1867 7.4076,8.6137 7.4076,9.1397 L7.4076,11.1717 C7.4076,11.6967 6.9816,12.1237 6.4556,12.1237" id="Fill-14"></path>
                    <path d="M6.4556,4.5046 C5.9296,4.5046 5.5026,4.0786 5.5026,3.5526 L5.5026,1.2676 C5.5026,0.7406 5.9296,0.3156 6.4556,0.3156 C6.9816,0.3156 7.4076,0.7406 7.4076,1.2676 L7.4076,3.5526 C7.4076,4.0786 6.9816,4.5046 6.4556,4.5046" id="Fill-16"></path>
                </g>
                <g id="Group-27" transform="translate(90.000000, 0.472000)" fill="#181818">
                    <path d="M3.3599,7.321 L1.3279,7.321 C0.8019,7.321 0.3759,6.894 0.3759,6.369 C0.3759,5.842 0.8019,5.417 1.3279,5.417 L3.3599,5.417 C3.8859,5.417 4.3119,5.842 4.3119,6.369 C4.3119,6.894 3.8859,7.321 3.3599,7.321" id="Fill-19"></path>
                    <path d="M11.2324,7.321 L8.9464,7.321 C8.4204,7.321 7.9944,6.894 7.9944,6.369 C7.9944,5.842 8.4204,5.417 8.9464,5.417 L11.2324,5.417 C11.7584,5.417 12.1844,5.842 12.1844,6.369 C12.1844,6.894 11.7584,7.321 11.2324,7.321" id="Fill-21"></path>
                    <path d="M6.2168,12.3366 C5.6908,12.3366 5.2648,11.9096 5.2648,11.3846 L5.2648,9.3526 C5.2648,8.8266 5.6908,8.3996 6.2168,8.3996 C6.7428,8.3996 7.1688,8.8266 7.1688,9.3526 L7.1688,11.3846 C7.1688,11.9096 6.7428,12.3366 6.2168,12.3366" id="Fill-23"></path>
                    <path d="M6.2168,4.7184 C5.6908,4.7184 5.2648,4.2914 5.2648,3.7654 L5.2648,1.4804 C5.2648,0.9534 5.6908,0.5284 6.2168,0.5284 C6.7428,0.5284 7.1688,0.9534 7.1688,1.4804 L7.1688,3.7654 C7.1688,4.2914 6.7428,4.7184 6.2168,4.7184" id="Fill-25"></path>
                </g>
                <path d="M3.0864,82.375 C2.4354,82.375 1.9044,82.905 1.9044,83.557 C1.9044,84.209 2.4354,84.739 3.0864,84.739 C3.7384,84.739 4.2684,84.209 4.2684,83.557 C4.2684,82.905 3.7384,82.375 3.0864,82.375 M3.0864,86.644 C1.3844,86.644 0.0004,85.259 0.0004,83.557 C0.0004,81.854 1.3844,80.471 3.0864,80.471 C4.7884,80.471 6.1734,81.854 6.1734,83.557 C6.1734,85.259 4.7884,86.644 3.0864,86.644" id="Fill-28" fill="#181818"></path>
                <g id="Group-46" transform="translate(9.000000, 6.472000)" fill="#181818">
                    <path d="M42.8794,5.1657 C42.4734,5.1657 42.0974,4.9037 41.9704,4.4957 C41.8144,3.9937 42.0944,3.4607 42.5974,3.3047 C48.3714,1.5077 54.3944,0.5977 60.4984,0.5977 C65.2724,0.5977 70.0244,1.1577 74.6234,2.2637 C75.1344,2.3867 75.4494,2.9007 75.3264,3.4117 C75.2034,3.9237 74.6894,4.2387 74.1784,4.1157 C69.7254,3.0447 65.1224,2.5017 60.4984,2.5017 C54.5864,2.5017 48.7544,3.3837 43.1624,5.1227 C43.0684,5.1517 42.9734,5.1657 42.8794,5.1657" id="Fill-30"></path>
                    <path d="M19.8311,18.6628 C19.5781,18.6628 19.3261,18.5618 19.1391,18.3638 C18.7771,17.9808 18.7951,17.3788 19.1771,17.0168 C20.1191,16.1288 21.1021,15.2588 22.0991,14.4328 C22.5041,14.0968 23.1041,14.1518 23.4401,14.5578 C23.7751,14.9628 23.7201,15.5618 23.3141,15.8978 C22.3491,16.6988 21.3971,17.5418 20.4851,18.4028 C20.3011,18.5768 20.0661,18.6628 19.8311,18.6628" id="Fill-32"></path>
                    <path d="M1.7232,69.2858 C1.2502,69.2858 0.8402,68.9338 0.7792,68.4538 C0.4592,65.9328 0.2972,63.3568 0.2972,60.7988 C0.2972,58.2528 0.4582,55.6898 0.7752,53.1818 C1.7592,45.3898 4.2222,37.9748 8.0962,31.1438 C8.3552,30.6868 8.9362,30.5258 9.3932,30.7858 C9.8512,31.0458 10.0122,31.6268 9.7522,32.0838 C6.0012,38.6978 3.6172,45.8768 2.6642,53.4198 C2.3572,55.8488 2.2022,58.3318 2.2022,60.7988 C2.2022,63.2778 2.3592,65.7718 2.6692,68.2138 C2.7352,68.7358 2.3662,69.2128 1.8442,69.2788 C1.8032,69.2838 1.7632,69.2858 1.7232,69.2858" id="Fill-34"></path>
                    <path d="M30.9053,113.0925 C30.7433,113.0925 30.5803,113.0515 30.4303,112.9645 C28.1213,111.6305 25.8773,110.1275 23.7623,108.4955 C23.3453,108.1745 23.2683,107.5755 23.5893,107.1595 C23.9103,106.7425 24.5093,106.6655 24.9253,106.9875 C26.9743,108.5675 29.1463,110.0245 31.3833,111.3155 C31.8383,111.5785 31.9943,112.1605 31.7313,112.6155 C31.5543,112.9215 31.2343,113.0925 30.9053,113.0925" id="Fill-36"></path>
                    <path d="M60.4986,120.9997 C55.1306,120.9997 49.8076,120.2927 44.6766,118.8987 C44.1686,118.7617 43.8696,118.2377 44.0066,117.7297 C44.1446,117.2227 44.6676,116.9237 45.1756,117.0617 C50.1446,118.4107 55.2996,119.0957 60.4986,119.0957 C64.7036,119.0957 68.8986,118.6457 72.9686,117.7587 C73.4816,117.6467 73.9896,117.9727 74.1016,118.4867 C74.2136,119.0007 73.8876,119.5077 73.3736,119.6197 C69.1706,120.5357 64.8386,120.9997 60.4986,120.9997" id="Fill-38"></path>
                    <path d="M89.5425,113.4059 C89.2095,113.4059 88.8865,113.2309 88.7115,112.9209 C88.4535,112.4629 88.6155,111.8819 89.0735,111.6239 C90.4975,110.8209 91.9055,109.9479 93.2575,109.0279 C93.6915,108.7319 94.2845,108.8439 94.5805,109.2789 C94.8765,109.7139 94.7635,110.3059 94.3295,110.6019 C92.9325,111.5519 91.4795,112.4549 90.0085,113.2829 C89.8615,113.3659 89.7005,113.4059 89.5425,113.4059" id="Fill-40"></path>
                    <path d="M104.4575,101.4763 C104.2295,101.4763 104.0005,101.3953 103.8185,101.2303 C103.4285,100.8773 103.3985,100.2753 103.7515,99.8853 C110.2535,92.6953 114.8905,83.9413 117.1595,74.5703 C117.2835,74.0593 117.7975,73.7453 118.3095,73.8693 C118.8205,73.9933 119.1345,74.5073 119.0105,75.0193 C116.6665,84.6973 111.8785,93.7373 105.1645,101.1633 C104.9765,101.3713 104.7175,101.4763 104.4575,101.4763" id="Fill-42"></path>
                    <path d="M119.7476,61.7507 C119.2216,61.7507 118.7956,61.3247 118.7956,60.7987 C118.7956,59.0447 118.7166,57.2747 118.5616,55.5377 C118.4346,54.1167 118.2526,52.6847 118.0226,51.2797 C117.9366,50.7617 118.2886,50.2717 118.8076,50.1867 C119.3266,50.1017 119.8166,50.4527 119.9016,50.9717 C120.1406,52.4217 120.3276,53.9007 120.4586,55.3687 C120.6186,57.1617 120.7006,58.9877 120.7006,60.7987 C120.7006,61.3247 120.2736,61.7507 119.7476,61.7507" id="Fill-44"></path>
                </g>
                <path d="M50.0737,87.2041 C50.0467,87.1811 50.0217,87.1561 49.9947,87.1321 C50.0177,87.1501 50.0397,87.1701 50.0607,87.1901 C50.0657,87.1951 50.0697,87.1991 50.0737,87.2041" id="Fill-47" fill="#FF5E39"></path>
                <g id="Group-51" transform="translate(14.000000, 23.472000)">
                    <mask id="mask-2" fill="white">
                        <use xlink:href="#path-1"></use>
                    </mask>
                    <g id="Clip-50"></g>
                    <path d="M86.3662,41.7224 C86.3662,49.7264 83.2502,57.2504 77.5912,62.9094 C71.9312,68.5694 64.4072,71.6854 56.4042,71.6854 C48.7992,71.6854 41.6252,68.8704 36.0742,63.7324 C36.0472,63.7084 36.0212,63.6844 35.9952,63.6594 C35.9932,63.6584 35.9912,63.6564 35.9892,63.6544 C35.7282,63.4104 35.4702,63.1624 35.2182,62.9094 C29.5582,57.2504 26.4422,49.7264 26.4422,41.7224 C26.4422,33.7194 29.5582,26.1964 35.2182,20.5364 C40.8772,14.8774 48.4022,11.7594 56.4042,11.7594 C64.4072,11.7594 71.9312,14.8774 77.5912,20.5364 C78.1542,21.0994 78.6922,21.6804 79.2022,22.2794 C79.2262,22.3054 79.2492,22.3334 79.2722,22.3614 C83.8652,27.7654 86.3662,34.5504 86.3662,41.7224 M115.8022,0.5984 L109.0462,0.5984 C108.5202,0.5984 108.0932,1.0254 108.0932,1.5514 C108.0932,2.0764 108.5202,2.5034 109.0462,2.5034 L113.4742,2.5034 L98.4162,17.5704 L90.4032,10.7014 C90.0182,10.3714 89.4442,10.4014 89.0942,10.7674 L79.9942,20.2964 C79.6522,19.9204 79.3002,19.5514 78.9382,19.1894 C72.9182,13.1704 64.9162,9.8554 56.4042,9.8554 C47.8922,9.8554 39.8892,13.1704 33.8702,19.1894 C27.8522,25.2074 24.5382,33.2114 24.5382,41.7224 C24.5382,50.2354 27.8522,58.2374 33.8702,64.2554 C33.9252,64.3104 33.9802,64.3654 34.0352,64.4184 L24.6282,73.9684 L15.8102,66.8974 C15.4142,66.5794 14.8392,66.6284 14.5032,67.0074 L0.2552,83.0354 C-0.0938,83.4294 -0.0588,84.0314 0.3352,84.3804 C0.5162,84.5414 0.7412,84.6194 0.9672,84.6194 C1.2292,84.6194 1.4902,84.5124 1.6782,84.3014 L15.3242,68.9494 L24.1072,75.9924 C24.4882,76.2984 25.0392,76.2654 25.3822,75.9174 L35.4292,65.7154 C41.2392,70.8094 48.6092,73.5894 56.4042,73.5894 C64.9162,73.5894 72.9182,70.2744 78.9382,64.2554 C84.9572,58.2374 88.2712,50.2354 88.2712,41.7224 C88.2712,34.3684 85.7962,27.3924 81.2402,21.7484 L89.8482,12.7354 L97.8462,19.5904 C98.2242,19.9144 98.7882,19.8924 99.1402,19.5404 L114.8492,3.8214 L114.8492,8.5534 C114.8492,9.0794 115.2762,9.5064 115.8022,9.5064 C116.3272,9.5064 116.7542,9.0794 116.7542,8.5534 L116.7542,1.5514 C116.7542,1.0254 116.3272,0.5984 115.8022,0.5984" id="Fill-49" fill="#FF5E39" mask="url(#mask-2)"></path>
                </g>
                <path d="M15.0606,98.5791 C14.5346,98.5791 14.1086,98.1531 14.1086,97.6271 L14.1086,76.4971 C14.1086,75.9711 14.5346,75.5451 15.0606,75.5451 C15.5866,75.5451 16.0136,75.9711 16.0136,76.4971 L16.0136,97.6271 C16.0136,98.1531 15.5866,98.5791 15.0606,98.5791" id="Fill-52" fill="#FF5E39"></path>
                <path d="M22.1861,91.6992 C21.6601,91.6992 21.2341,91.2732 21.2341,90.7472 L21.2341,69.6172 C21.2341,69.0912 21.6601,68.6652 22.1861,68.6652 C22.7121,68.6652 23.1381,69.0912 23.1381,69.6172 L23.1381,90.7472 C23.1381,91.2732 22.7121,91.6992 22.1861,91.6992" id="Fill-54" fill="#FF5E39"></path>
                <path d="M29.0654,85.0654 C28.5394,85.0654 28.1134,84.6394 28.1134,84.1134 L28.1134,62.9834 C28.1134,62.4574 28.5394,62.0314 29.0654,62.0314 C29.5914,62.0314 30.0184,62.4574 30.0184,62.9834 L30.0184,84.1134 C30.0184,84.6394 29.5914,85.0654 29.0654,85.0654" id="Fill-56" fill="#FF5E39"></path>
                <path d="M93.6841,36.9092 C93.1581,36.9092 92.7321,36.4822 92.7321,35.9562 L92.7321,22.6882 C92.7321,22.1632 93.1581,21.7362 93.6841,21.7362 C94.2101,21.7362 94.6371,22.1632 94.6371,22.6882 L94.6371,35.9562 C94.6371,36.4822 94.2101,36.9092 93.6841,36.9092" id="Fill-58" fill="#FF5E39"></path>
                <path d="M86.3135,32.7324 C85.7875,32.7324 85.3605,32.3054 85.3605,31.7794 L85.3605,25.6364 C85.3605,25.1114 85.7875,24.6844 86.3135,24.6844 C86.8395,24.6844 87.2655,25.1114 87.2655,25.6364 L87.2655,31.7794 C87.2655,32.3054 86.8395,32.7324 86.3135,32.7324" id="Fill-60" fill="#FF5E39"></path>
                <path d="M100.564,31.0117 C100.038,31.0117 99.612,30.5857 99.612,30.0597 L99.612,15.3177 C99.612,14.7917 100.038,14.3657 100.564,14.3657 C101.09,14.3657 101.516,14.7917 101.516,15.3177 L101.516,30.0597 C101.516,30.5857 101.09,31.0117 100.564,31.0117" id="Fill-62" fill="#FF5E39"></path>
                <path d="M107.4434,31.0117 C106.9174,31.0117 106.4914,30.5857 106.4914,30.0597 L106.4914,11.1407 C106.4914,10.6157 106.9174,10.1887 107.4434,10.1887 C107.9694,10.1887 108.3964,10.6157 108.3964,11.1407 L108.3964,30.0597 C108.3964,30.5857 107.9694,31.0117 107.4434,31.0117" id="Fill-64" fill="#FF5E39"></path>
                <path d="M114.3233,32.7324 C113.7973,32.7324 113.3703,32.3054 113.3703,31.7794 L113.3703,19.7404 C113.3703,19.2144 113.7973,18.7884 114.3233,18.7884 C114.8493,18.7884 115.2753,19.2144 115.2753,19.7404 L115.2753,31.7794 C115.2753,32.3054 114.8493,32.7324 114.3233,32.7324" id="Fill-66" fill="#FF5E39"></path>
                <path d="M36.1909,88.0147 C35.6649,88.0147 35.2379,87.5877 35.2379,87.0617 L35.2379,76.4967 C35.2379,75.9707 35.6649,75.5447 36.1909,75.5447 C36.7169,75.5447 37.1429,75.9707 37.1429,76.4967 L37.1429,87.0617 C37.1429,87.5877 36.7169,88.0147 36.1909,88.0147" id="Fill-68" fill="#FF5E39"></path>
                <path d="M74.8594,78.4834 C73.1064,79.2254 71.2224,79.5964 69.2604,79.5874 C67.2984,79.5784 65.4314,79.1894 63.7104,78.4334 C61.9744,77.6714 60.4414,76.6254 59.1534,75.3234 C57.8654,74.0254 56.8344,72.4824 56.0884,70.7394 C55.3474,69.0104 54.9764,67.1394 54.9854,65.1784 C54.9954,63.2164 55.3844,61.3364 56.1424,59.5894 C56.9044,57.8354 57.9494,56.2924 59.2504,55.0044 C60.5514,53.7144 62.0934,52.6834 63.8354,51.9384 C65.5634,51.1984 67.4334,50.8274 69.3954,50.8374 C71.3574,50.8454 73.2374,51.2354 74.9844,51.9934 C75.6764,52.2944 76.3374,52.6384 76.9614,53.0284 C77.9164,53.6204 78.7894,54.3134 79.5684,55.0994 C79.9854,55.5214 80.3764,55.9694 80.7384,56.4424 C81.4954,57.4294 82.1294,58.5244 82.6324,59.7134 C83.3744,61.4674 83.7454,63.3514 83.7364,65.3134 C83.7274,67.2754 83.3394,69.1414 82.5824,70.8634 C82.0414,72.0954 81.3564,73.2264 80.5374,74.2394 C80.2054,74.6534 79.8504,75.0464 79.4734,75.4204 C78.6194,76.2654 77.6544,77.0024 76.5934,77.6184 C76.0414,77.9404 75.4624,78.2284 74.8594,78.4834 M85.1494,58.6444 C85.0124,58.3224 84.8664,58.0044 84.7134,57.6944 C84.1974,56.6524 83.5884,55.6734 82.8904,54.7694 C82.4624,54.2124 81.9994,53.6834 81.5034,53.1834 C79.9624,51.6294 78.1364,50.3844 76.0764,49.4864 C74.0074,48.5864 71.7654,48.1234 69.4124,48.1124 C67.0564,48.1014 64.8194,48.5434 62.7604,49.4244 C60.7134,50.3034 58.8874,51.5294 57.3334,53.0704 C55.7754,54.6124 54.5314,56.4384 53.6354,58.4964 C52.7354,60.5634 52.2724,62.8054 52.2614,65.1614 C52.2504,67.5194 52.6924,69.7564 53.5744,71.8114 C54.4514,73.8584 55.6774,75.6844 57.2194,77.2404 C58.7604,78.7974 60.5754,80.0404 62.6124,80.9364 C64.6604,81.8374 66.8944,82.3004 69.2524,82.3114 C71.6074,82.3234 73.8654,81.9074 75.9284,81.0004 C76.5094,80.7454 77.0334,80.5374 77.5054,80.3684 C79.1994,79.7624 81.0514,80.2944 82.2674,81.6214 C82.7124,82.1054 83.3584,82.4024 84.0714,82.3794 C85.3384,82.3374 86.3274,81.2614 86.3334,79.9944 C86.3334,79.9944 86.4584,65.8114 86.4614,65.3214 C86.4724,62.9684 86.0314,60.7214 85.1494,58.6444" id="Fill-70" fill="#181818"></path>
                <path d="M73.7715,65.1719 C73.7605,67.6079 71.7765,69.5729 69.3405,69.5619 C66.9055,69.5499 64.9405,67.5669 64.9515,65.1309 C64.9635,62.6949 66.9465,60.7309 69.3825,60.7419 C71.8175,60.7529 73.7835,62.7359 73.7715,65.1719" id="Fill-72" fill="#181818"></path>
            </g>
        </g>
    </g>
</svg>