<?xml version="1.0" encoding="UTF-8"?>
<svg width="936px" height="474px" viewBox="0 0 936 474" version="1.1" xmlns="http://www.w3.org/2000/svg" xmlns:xlink="http://www.w3.org/1999/xlink">
    <!-- Generator: Sketch 52.5 (67469) - http://www.bohemiancoding.com/sketch -->
    <title>Group 12</title>
    <desc>Created with Sketch.</desc>
    <defs>
        <polygon id="path-1" points="0 0.0706932584 84.9293258 0.0706932584 84.9293258 85 0 85"></polygon>
    </defs>
    <g id="Page-1" stroke="none" stroke-width="1" fill="none" fill-rule="evenodd">
        <g id="Desktop-HD" transform="translate(-254.000000, -2595.000000)">
            <g id="Group-12" transform="translate(254.000000, 2595.000000)">
                <rect id="Rectangle-Copy-21" stroke="#181818" stroke-width="3" fill-rule="nonzero" x="473.5" y="200.5" width="461" height="272" rx="9"></rect>
                <circle id="Oval-Copy-5" fill="#181818" fill-rule="nonzero" cx="473.5" cy="222.5" r="4.5"></circle>
                <g id="Group-6" transform="translate(16.000000, 13.000000)">
                    <g id="Group-3">
                        <mask id="mask-2" fill="white">
                            <use xlink:href="#path-1"></use>
                        </mask>
                        <g id="Clip-2"></g>
                        <path d="M54.3369663,70.8174348 C50.6007865,72.418109 46.5819101,73.2299067 42.3932247,73.2299067 C38.2041573,73.2299067 34.2139326,72.418109 30.531236,70.8212551 C26.8160674,69.2110303 23.5325843,66.9931989 20.7707528,64.2275472 C18.0068202,61.4674348 15.7889888,58.1839517 14.1789551,54.4687831 C12.580191,50.7860865 11.7701124,46.7958618 11.7701124,42.6069854 C11.7701124,38.418109 12.5819101,34.3992326 14.1825843,30.6630528 C15.792809,26.9077719 18.0087303,23.6032775 20.7724719,20.8412551 C23.5385056,18.0754124 26.8217978,15.8577719 30.531236,14.2494573 C34.2139326,12.6505022 38.2041573,11.8408056 42.3932247,11.8408056 C46.5819101,11.8408056 50.6007865,12.6526034 54.3369663,14.2532775 C55.8194045,14.8893449 57.2326966,15.6190079 58.5697753,16.4441764 C60.6155056,17.6991202 62.4855056,19.1699067 64.1568539,20.8412551 C65.0528876,21.7370978 65.891236,22.6902438 66.6688427,23.696873 C68.2941573,25.7960865 69.6600787,28.1283337 70.7467416,30.6630528 C72.3474157,34.3992326 73.1592135,38.418109 73.1592135,42.6069854 C73.1592135,46.7958618 72.3495169,50.7860865 70.7507528,54.4687831 C69.6083146,57.1047382 68.1568202,59.5267607 66.418427,61.6985584 C65.7137865,62.5846596 64.9591011,63.4291202 64.158764,64.2294573 C62.3422472,66.044064 60.2907865,67.6256371 58.0313146,68.951064 C56.8546854,69.6446258 55.6224719,70.2654124 54.3369663,70.8174348 M81.5942697,26.0405809 C81.2504494,25.2419629 80.885618,24.4570978 80.4999663,23.6873225 C79.2085393,21.1048506 77.6842697,18.6828281 75.9405281,16.4441764 C74.868764,15.0669854 73.7131461,13.7585584 72.4774944,12.5227157 C68.6324382,8.67937865 64.0842697,5.61192921 58.9575281,3.40383933 C53.8097753,1.19192921 48.2362584,0.0706932584 42.3932247,0.0706932584 C36.5425506,0.0706932584 30.991573,1.19383933 25.8896629,3.40765955 C20.8165955,5.61383933 16.2953596,8.67937865 12.4539326,12.5227157 C8.60314607,16.3715921 5.53569663,20.9195697 3.33505618,26.0405809 C1.12314607,31.1845135 0,36.7580303 0,42.6069854 C0,48.4633899 1.12314607,54.0141764 3.33696629,59.1084461 C5.53932584,64.1797944 8.60505618,68.7010303 12.4522135,72.5460865 C16.2989888,76.3949629 20.8202247,79.4606933 25.8896629,81.6611427 C30.9858427,83.876873 36.5368202,85.0000191 42.3932247,85.0000191 C48.2419888,85.0000191 53.8441573,83.9418169 58.9575281,81.6649629 C60.3977528,81.0248843 61.6949101,80.5017045 62.865618,80.0774685 C67.0661461,78.5533899 71.671236,79.8522663 74.7065955,83.1319292 C75.8161798,84.3314798 77.4225843,85.0611427 79.1953596,84.9942888 C82.3411236,84.8758618 84.7841573,82.1921539 84.7841573,79.0442888 C84.7841573,79.0442888 84.9293258,43.823727 84.9293258,42.6069854 C84.9293258,36.7639517 83.8080899,31.1902438 81.5942697,26.0405809" id="Fill-1" fill="#FF5E39" mask="url(#mask-2)"></path>
                    </g>
                    <path d="M56.1320755,42.0990566 C56.1320755,49.8493933 49.8493933,56.1320755 42.0990566,56.1320755 C34.3489118,56.1320755 28.0660377,49.8493933 28.0660377,42.0990566 C28.0660377,34.3489118 34.3489118,28.0660377 42.0990566,28.0660377 C49.8493933,28.0660377 56.1320755,34.3489118 56.1320755,42.0990566" id="Fill-4" fill="#FF5E39"></path>
                </g>
                <polyline id="Path-3" stroke="#FF5E39" stroke-width="2" stroke-linecap="round" stroke-linejoin="round" fill-rule="nonzero" points="391 104 405 104 405 223 387 223"></polyline>
                <circle id="Oval-Copy-4" fill="#FF5E39" fill-rule="nonzero" cx="386.5" cy="222.5" r="4.5"></circle>
                <circle id="Oval-Copy-6" fill="#FF5E39" fill-rule="nonzero" cx="386.5" cy="393.5" r="4.5"></circle>
                <polyline id="Path-4" stroke="#FF5E39" stroke-width="2" stroke-linecap="round" stroke-linejoin="round" fill-rule="nonzero" points="407.397521 89 422.858036 89 422.858036 394 386 394"></polyline>
                <polyline id="Path-5" stroke="#181818" stroke-width="2" stroke-linecap="round" stroke-linejoin="round" fill-rule="nonzero" points="414.997164 72 441.239653 72 441.239653 223 476.419013 223"></polyline>
                <rect id="Rectangle" stroke="#FF5E39" stroke-width="3" fill-rule="nonzero" x="1.5" y="1.5" width="415" height="111" rx="55.5"></rect>
                <path d="M418,55.5 L474,55.5" id="Path-6" stroke="#FF5E39" stroke-width="2" fill="#D8D8D8" fill-rule="nonzero"></path>
                <circle id="Oval-Copy-4" fill="#FF5E39" fill-rule="nonzero" cx="474" cy="56" r="6"></circle>
            </g>
        </g>
    </g>
</svg>