<?xml version="1.0" encoding="UTF-8"?>
<svg width="43px" height="49px" viewBox="0 0 43 49" version="1.1" xmlns="http://www.w3.org/2000/svg" xmlns:xlink="http://www.w3.org/1999/xlink">
    <!-- Generator: Sketch 52.5 (67469) - http://www.bohemiancoding.com/sketch -->
    <title>team</title>
    <desc>Created with Sketch.</desc>
    <defs>
        <polygon id="path-1" points="0.0003 0.0004 42.2283 0.0004 42.2283 48.9004 0.0003 48.9004"></polygon>
    </defs>
    <g id="Page-1" stroke="none" stroke-width="1" fill="none" fill-rule="evenodd">
        <g id="Desktop-HD" transform="translate(-315.000000, -2578.000000)">
            <g id="team" transform="translate(315.000000, 2578.000000)">
                <mask id="mask-2" fill="white">
                    <use xlink:href="#path-1"></use>
                </mask>
                <g id="Clip-2"></g>
                <path d="M18.1533,3.5068 C18.0723,4.3858 18.2903,6.4738 18.6653,7.1488 C18.9423,7.6468 19.6803,8.2838 20.6473,8.5068 C20.9593,8.5518 21.1743,8.5508 21.5483,8.4958 C22.4583,8.2848 23.1963,7.6468 23.4733,7.1488 C23.8503,6.4708 24.0673,4.3818 23.9843,3.5068 C23.8403,1.9668 22.3833,1.4178 21.0693,1.4178 C19.7553,1.4178 18.2993,1.9668 18.1533,3.5068 Z M21.0513,9.9518 C20.8363,9.9518 20.6283,9.9338 20.3853,9.8988 C19.1013,9.6058 17.9623,8.8008 17.4253,7.8358 C16.8423,6.7868 16.6523,4.3518 16.7423,3.3748 L16.7423,3.3728 C16.9333,1.3558 18.6723,-0.0002 21.0693,-0.0002 C23.4673,-0.0002 25.2063,1.3568 25.3953,3.3738 C25.4873,4.3488 25.2983,6.7828 24.7133,7.8358 C24.1763,8.8008 23.0363,9.6068 21.8083,9.8878 C21.5173,9.9318 21.2803,9.9518 21.0513,9.9518 Z M33.7693,4.2688 C32.6413,4.2688 31.3923,4.7348 31.2693,6.0438 C31.1913,6.8648 31.4103,8.6788 31.7113,9.2188 C31.9563,9.6588 32.6183,10.1988 33.4133,10.3818 C33.6783,10.4178 33.8633,10.4188 34.1783,10.3708 C34.9193,10.1988 35.5823,9.6588 35.8263,9.2198 C36.1313,8.6688 36.3463,6.8838 36.2683,6.0428 C36.1443,4.7348 34.8963,4.2688 33.7693,4.2688 Z M33.7563,11.8218 C33.5633,11.8218 33.3733,11.8058 33.1523,11.7738 C31.9873,11.5088 30.9573,10.7798 30.4723,9.9068 C29.9453,8.9608 29.7753,6.7808 29.8583,5.9098 C30.0303,4.0808 31.6023,2.8508 33.7693,2.8508 C35.9353,2.8508 37.5073,4.0808 37.6793,5.9108 L37.6793,5.9118 C37.7603,6.7828 37.5893,8.9618 37.0663,9.9068 C36.5803,10.7798 35.5503,11.5088 34.4413,11.7628 C34.1783,11.8028 33.9653,11.8218 33.7563,11.8218 Z M5.9603,6.0428 C5.8823,6.8848 6.0973,8.6698 6.4023,9.2198 C6.6463,9.6588 7.3093,10.1988 8.1033,10.3818 C8.3643,10.4168 8.5493,10.4188 8.8723,10.3708 C9.6103,10.1988 10.2723,9.6588 10.5163,9.2198 C10.8163,8.6798 11.0363,6.8648 10.9593,6.0438 C10.8363,4.7348 9.5873,4.2688 8.4583,4.2688 C7.3323,4.2688 6.0843,4.7348 5.9603,6.0428 Z M8.4423,11.8218 C8.2473,11.8218 8.0593,11.8058 7.8403,11.7738 C6.6773,11.5088 5.6483,10.7798 5.1633,9.9068 C4.6393,8.9638 4.4673,6.7838 4.5493,5.9118 L4.5493,5.9108 C4.7213,4.0808 6.2933,2.8508 8.4583,2.8508 C10.6263,2.8508 12.1983,4.0808 12.3703,5.9108 C12.4523,6.7818 12.2813,8.9608 11.7563,9.9068 C11.2713,10.7798 10.2413,11.5088 9.1323,11.7628 C8.8653,11.8028 8.6503,11.8218 8.4423,11.8218 Z M20.3603,25.6198 L21.7773,25.6198 L21.7773,14.0788 L20.3603,14.0788 L20.3603,25.6198 Z M7.3173,46.8148 L8.7343,46.8148 L8.7343,30.6758 L7.3173,30.6758 L7.3173,46.8148 Z M33.5743,46.8148 L34.9913,46.8148 L34.9913,30.6758 L33.5743,30.6758 L33.5743,46.8148 Z M12.2763,46.8468 L10.8603,46.7818 L11.5093,32.6808 L12.9253,32.7448 L12.2763,46.8468 Z M29.9523,46.8468 L29.3023,32.7448 L30.7183,32.6808 L31.3683,46.7818 L29.9523,46.8468 Z M3.7293,46.8508 L3.0653,33.6968 L0.6953,32.4368 L0.0003,23.1188 L0.4633,16.9188 C1.2873,13.6928 2.6543,12.6528 6.0903,12.6398 L11.5753,12.6168 L11.5813,14.0348 L6.0953,14.0578 C3.3193,14.0678 2.5133,14.6588 1.8523,17.2098 L1.4213,23.1168 L2.0513,31.5518 L2.9823,32.0468 L2.8753,29.9228 L3.0453,17.1628 L4.4623,17.1828 L4.2913,29.8968 L5.1443,46.7778 L3.7293,46.8508 Z M38.4993,46.8508 L37.0843,46.7778 L37.9383,29.8508 L37.7653,17.1828 L39.1823,17.1628 L39.3543,29.8768 L39.2453,32.0478 L40.1773,31.5518 L40.8073,23.1168 L40.3753,17.2098 C39.7153,14.6588 38.9093,14.0678 36.1323,14.0578 L30.6463,14.0348 L30.6523,12.6168 L36.1383,12.6398 C39.5743,12.6528 40.9413,13.6928 41.7643,16.9198 L41.7843,17.0428 L42.2283,23.1188 L41.5323,32.4368 L39.1623,33.6968 L38.4993,46.8508 Z M25.7333,48.8348 L25.2573,15.9108 L26.6743,15.8898 L26.9153,31.2568 L27.8683,31.0858 C27.8773,31.0798 27.9103,31.0598 27.9173,31.0528 C27.9163,31.0518 27.9273,31.0138 27.9283,30.9398 L28.4843,21.9228 L27.6993,13.6208 C27.6303,12.9858 25.3683,12.1018 21.7773,11.9958 L21.7773,13.1988 L20.3603,13.1988 L20.3603,11.9948 C16.7803,12.0948 14.5093,12.9568 14.4233,13.7598 L13.6533,21.9228 L14.2073,30.9018 C14.2093,31.0138 14.2203,31.0518 14.2243,31.0598 C14.2273,31.0598 14.2603,31.0798 14.3323,31.1008 L15.2233,31.2588 L15.4653,15.8898 L16.8823,15.9108 L16.4053,48.8348 L14.9883,48.8178 L15.2003,32.6938 L14.0183,32.4808 C13.2113,32.2608 12.7983,31.7228 12.7913,30.9508 L12.2323,21.8998 L13.0123,13.6168 C13.2563,11.3658 17.3263,10.5678 21.0553,10.5678 L21.0563,10.5678 C22.3483,10.5688 28.8103,10.7078 29.1093,13.4788 L29.9053,21.8998 L29.3443,30.9888 C29.3393,31.7228 28.9253,32.2608 28.1823,32.4658 L26.9383,32.6928 L27.1503,48.8178 L25.7333,48.8348 Z M22.6663,48.9008 L21.0693,33.6568 L19.4733,48.9008 L18.0643,48.7518 L19.9653,30.5968 L22.1743,30.5968 L24.0753,48.7518 L22.6663,48.9008 Z" id="Fill-1" fill="#181818" mask="url(#mask-2)"></path>
            </g>
        </g>
    </g>
</svg>