<?xml version="1.0" encoding="UTF-8"?>
<svg width="49px" height="44px" viewBox="0 0 49 44" version="1.1" xmlns="http://www.w3.org/2000/svg" xmlns:xlink="http://www.w3.org/1999/xlink">
    <!-- Generator: Sketch 52.5 (67469) - http://www.bohemiancoding.com/sketch -->
    <title>tools</title>
    <desc>Created with Sketch.</desc>
    <defs>
        <polygon id="path-1" points="0 0.861833944 14.3237214 0.861833944 14.3237214 16.1255014 0 16.1255014"></polygon>
        <polygon id="path-3" points="0.694384058 0.0440653142 9.91900764 0.0440653142 9.91900764 10.7477566 0.694384058 10.7477566"></polygon>
    </defs>
    <g id="Page-1" stroke="none" stroke-width="1" fill="none" fill-rule="evenodd">
        <g id="Desktop-HD" transform="translate(-734.000000, -2733.000000)">
            <g id="tools" transform="translate(734.000000, 2733.000000)">
                <polygon id="Fill-1" fill="#181818" points="25.0242002 19 24 17.9674021 31.6145673 11.3583781 33.9307048 15.3188233 40.9566757 9 42 10.0157026 33.5535356 17.611608 31.2214615 13.6213476"></polygon>
                <polygon id="Fill-2" fill="#181818" points="42.9447519 23 29.0973873 23 29.0973873 21.4886969 41.619795 21.4886969 43.32346 5.73618668 24.8178808 8.10545801 23.4668421 19.0448197 22 18.8551074 23.4950104 6.75295899 45 4"></polygon>
                <polygon id="Fill-3" fill="#181818" points="16 25 49 25 49 23 16 23"></polygon>
                <g id="Group-14">
                    <g id="Group-6" transform="translate(0.000000, 19.964374)">
                        <mask id="mask-2" fill="white">
                            <use xlink:href="#path-1"></use>
                        </mask>
                        <g id="Clip-5"></g>
                        <path d="M14.3154357,16.1255014 L6.20061429,16.0774302 C3.38243571,16.0941506 1.70147143,14.5631857 1.27372143,11.4814005 L-0.000207142857,1.04262365 L1.45600714,0.861833944 L2.72786429,11.2870254 C3.04582857,13.5693649 4.09604286,14.5966266 6.12811429,14.5966266 C6.1509,14.5966266 6.17368571,14.5966266 6.19750714,14.5955816 L14.3237214,14.6436528 L14.3154357,16.1255014 Z" id="Fill-4" fill="#181818" mask="url(#mask-2)"></path>
                    </g>
                    <g id="Group-9" transform="translate(7.250000, 0.000000)">
                        <mask id="mask-4" fill="white">
                            <use xlink:href="#path-3"></use>
                        </mask>
                        <g id="Clip-8"></g>
                        <path d="M5.09965,1.52539139 C3.76461429,1.52539139 2.36329286,2.07298565 2.18929286,3.63425631 C2.08365,4.57791588 2.27525714,6.85294013 2.66468571,7.60744978 C3.0189,8.29507768 3.88993571,8.95030975 4.78065,9.20320633 C5.19597143,9.2826284 5.26329286,9.28680851 5.74904286,9.23873726 C6.72157857,9.05899258 7.51907857,8.41003068 7.82357857,7.88751707 C8.23786429,7.17585354 8.51129286,4.93113508 8.4419,3.98120534 C8.31657857,2.27781098 6.69050714,1.59645324 5.33579286,1.53166155 C5.25707857,1.52748144 5.17836429,1.52539139 5.09965,1.52539139 M5.29125714,10.7477566 C5.02818571,10.7477566 4.80757857,10.7153607 4.44197143,10.6432538 C3.11211429,10.2691341 1.89825714,9.32965463 1.36279286,8.2919426 C0.765185714,7.13300742 0.613971429,4.50998911 0.731007143,3.46809698 C0.971292857,1.30280059 2.85215,-0.0735002474 5.40622143,0.0519030183 C7.93854286,0.174171202 9.7469,1.70931618 9.90536429,3.87043246 L9.90536429,3.87147749 C9.98304286,4.92486492 9.73136429,7.53429787 9.09025714,8.63784661 C8.50715,9.63793765 7.24565,10.4687343 5.94997143,10.7038654 C5.67032857,10.7331262 5.47043571,10.7477566 5.29125714,10.7477566" id="Fill-7" fill="#181818" mask="url(#mask-4)"></path>
                    </g>
                    <path d="M16.6543893,44 L15.0013893,33.8935418 L8.22471071,33.8820465 C6.85031786,33.8820465 5.75453214,33.4713508 4.96635357,32.6593647 C4.01660357,31.6812192 3.55674643,30.1523444 3.598175,28.1145413 L3.605425,27.8992657 C3.71831786,24.4423157 3.89024643,19.2203147 5.13310357,15.6630421 C6.04660357,13.049429 7.73274643,12.0451578 8.98699643,11.6637229 C10.8947821,11.0816428 13.211675,11.5278694 14.8874607,12.8007125 C16.046425,13.7203365 17.1152821,15.430001 18.0588179,16.9379753 C18.4378893,17.544091 18.7972821,18.118856 19.1318179,18.5932984 C19.1328536,18.5932984 19.1328536,18.5932984 19.1338893,18.5932984 L26.573425,19.6362355 C27.7023536,19.9006274 28.3237821,20.7544146 28.2637107,21.8746838 C28.2005321,23.0430242 27.3191393,24.4057397 26.0027464,24.570854 L18.482425,24.5823493 C17.7905679,24.5018822 17.2768536,24.3284077 16.6719964,23.9992241 L16.5570321,23.9218921 L11.4882464,19.7585037 L12.414175,18.6089738 L17.4280679,22.7284711 C17.8454607,22.9489718 18.170675,23.0566096 18.5714964,23.1067709 L25.9116036,23.0952756 C26.290675,23.0419792 26.7650321,22.4076477 26.798175,21.7942167 C26.8251036,21.2811084 26.5485679,21.1483899 26.3031036,21.0898684 L18.6823179,20.0093102 C18.4596393,19.9257081 18.264925,19.808665 18.1033536,19.6602712 L18.0049607,19.5484532 C17.6310679,19.0290747 17.2364607,18.3978783 16.8180321,17.7280158 C15.937675,16.3214092 14.9402821,14.7256526 13.9926036,13.9742781 C12.9268536,13.165427 11.0894964,12.5708065 9.41163929,13.0807798 C8.06106786,13.4935656 7.08646071,14.5270975 6.51785357,16.1542048 C5.34956786,19.4982919 5.17556786,24.7871747 5.07199643,27.948382 L5.06578214,28.1542524 C5.03263929,29.7698644 5.35163929,30.9402949 6.01553214,31.6226977 C6.52303214,32.1462563 7.24596071,32.4001979 8.22471071,32.4001979 L15.0200321,32.4001979 C15.8744964,32.4190084 16.4286036,32.9362969 16.4617464,33.7263375 L18.1023179,43.7596437 L16.6543893,44 Z" id="Fill-10" fill="#181818"></path>
                    <path d="M20.4234571,43.9367759 L19.8362071,32.5428441 C19.7699214,31.9189629 19.4260643,29.733811 17.9149571,29.4317981 L11.9254214,28.0231014 L11.1507071,26.7533934 L12.6317786,20.4685997 L14.0600286,20.8113686 L12.7198143,26.4994518 L12.8544571,26.7209975 L18.2236,27.9833904 C20.69585,28.4776883 21.2023143,31.5082672 21.2986357,32.4258011 L21.8889929,43.8594438 L20.4234571,43.9367759 Z" id="Fill-12" fill="#181818"></path>
                </g>
            </g>
        </g>
    </g>
</svg>